G75*
G70*
%OFA0B0*%
%FSLAX24Y24*%
%IPPOS*%
%LPD*%
%AMOC8*
5,1,8,0,0,1.08239X$1,22.5*
%
%ADD10C,0.0000*%
%ADD11C,0.0030*%
%ADD12C,0.0020*%
%ADD13C,0.0160*%
%ADD14C,0.0060*%
%ADD15C,0.0080*%
%ADD16R,0.0400X0.4000*%
%ADD17C,0.0050*%
%ADD18C,0.0040*%
%ADD19C,0.0010*%
D10*
X004225Y003191D02*
X004225Y014411D01*
X004227Y014450D01*
X004233Y014488D01*
X004242Y014525D01*
X004255Y014562D01*
X004272Y014597D01*
X004291Y014630D01*
X004314Y014661D01*
X004340Y014690D01*
X004369Y014716D01*
X004400Y014739D01*
X004433Y014758D01*
X004468Y014775D01*
X004505Y014788D01*
X004542Y014797D01*
X004580Y014803D01*
X004619Y014805D01*
X013280Y014805D01*
X013379Y014805D01*
X013396Y014806D01*
X013413Y014811D01*
X013428Y014818D01*
X013442Y014828D01*
X013454Y014840D01*
X013464Y014854D01*
X013471Y014869D01*
X013476Y014886D01*
X013477Y014903D01*
X013477Y015198D01*
X013477Y015887D01*
X013476Y015904D01*
X013471Y015921D01*
X013464Y015936D01*
X013454Y015950D01*
X013442Y015962D01*
X013428Y015972D01*
X013413Y015979D01*
X013396Y015984D01*
X013379Y015985D01*
X013379Y015986D02*
X013280Y015986D01*
X013517Y015986D02*
X013519Y016011D01*
X013525Y016035D01*
X013534Y016057D01*
X013547Y016078D01*
X013563Y016097D01*
X013582Y016113D01*
X013603Y016126D01*
X013625Y016135D01*
X013649Y016141D01*
X013674Y016143D01*
X013699Y016141D01*
X013723Y016135D01*
X013745Y016126D01*
X013766Y016113D01*
X013785Y016097D01*
X013801Y016078D01*
X013814Y016057D01*
X013823Y016035D01*
X013829Y016011D01*
X013831Y015986D01*
X013829Y015961D01*
X013823Y015937D01*
X013814Y015915D01*
X013801Y015894D01*
X013785Y015875D01*
X013766Y015859D01*
X013745Y015846D01*
X013723Y015837D01*
X013699Y015831D01*
X013674Y015829D01*
X013649Y015831D01*
X013625Y015837D01*
X013603Y015846D01*
X013582Y015859D01*
X013563Y015875D01*
X013547Y015894D01*
X013534Y015915D01*
X013525Y015937D01*
X013519Y015961D01*
X013517Y015986D01*
X013911Y015986D02*
X013913Y016011D01*
X013919Y016035D01*
X013928Y016057D01*
X013941Y016078D01*
X013957Y016097D01*
X013976Y016113D01*
X013997Y016126D01*
X014019Y016135D01*
X014043Y016141D01*
X014068Y016143D01*
X014093Y016141D01*
X014117Y016135D01*
X014139Y016126D01*
X014160Y016113D01*
X014179Y016097D01*
X014195Y016078D01*
X014208Y016057D01*
X014217Y016035D01*
X014223Y016011D01*
X014225Y015986D01*
X014223Y015961D01*
X014217Y015937D01*
X014208Y015915D01*
X014195Y015894D01*
X014179Y015875D01*
X014160Y015859D01*
X014139Y015846D01*
X014117Y015837D01*
X014093Y015831D01*
X014068Y015829D01*
X014043Y015831D01*
X014019Y015837D01*
X013997Y015846D01*
X013976Y015859D01*
X013957Y015875D01*
X013941Y015894D01*
X013928Y015915D01*
X013919Y015937D01*
X013913Y015961D01*
X013911Y015986D01*
X014304Y015986D02*
X014306Y016011D01*
X014312Y016035D01*
X014321Y016057D01*
X014334Y016078D01*
X014350Y016097D01*
X014369Y016113D01*
X014390Y016126D01*
X014412Y016135D01*
X014436Y016141D01*
X014461Y016143D01*
X014486Y016141D01*
X014510Y016135D01*
X014532Y016126D01*
X014553Y016113D01*
X014572Y016097D01*
X014588Y016078D01*
X014601Y016057D01*
X014610Y016035D01*
X014616Y016011D01*
X014618Y015986D01*
X014616Y015961D01*
X014610Y015937D01*
X014601Y015915D01*
X014588Y015894D01*
X014572Y015875D01*
X014553Y015859D01*
X014532Y015846D01*
X014510Y015837D01*
X014486Y015831D01*
X014461Y015829D01*
X014436Y015831D01*
X014412Y015837D01*
X014390Y015846D01*
X014369Y015859D01*
X014350Y015875D01*
X014334Y015894D01*
X014321Y015915D01*
X014312Y015937D01*
X014306Y015961D01*
X014304Y015986D01*
X014658Y015887D02*
X014658Y015198D01*
X014658Y014903D01*
X014659Y014886D01*
X014664Y014869D01*
X014671Y014854D01*
X014681Y014840D01*
X014693Y014828D01*
X014707Y014818D01*
X014722Y014811D01*
X014739Y014806D01*
X014756Y014805D01*
X014855Y014805D01*
X023516Y014805D01*
X023555Y014803D01*
X023593Y014797D01*
X023630Y014788D01*
X023667Y014775D01*
X023702Y014758D01*
X023735Y014739D01*
X023766Y014716D01*
X023795Y014690D01*
X023821Y014661D01*
X023844Y014630D01*
X023863Y014597D01*
X023880Y014562D01*
X023893Y014525D01*
X023902Y014488D01*
X023908Y014450D01*
X023910Y014411D01*
X023910Y002994D01*
X023908Y002955D01*
X023902Y002917D01*
X023893Y002880D01*
X023880Y002843D01*
X023863Y002808D01*
X023844Y002775D01*
X023821Y002744D01*
X023795Y002715D01*
X023766Y002689D01*
X023735Y002666D01*
X023702Y002647D01*
X023667Y002630D01*
X023630Y002617D01*
X023593Y002608D01*
X023555Y002602D01*
X023516Y002600D01*
X014855Y002600D01*
X013280Y002600D02*
X004816Y002600D01*
X004770Y002602D01*
X004724Y002607D01*
X004678Y002616D01*
X004633Y002629D01*
X004590Y002645D01*
X004548Y002664D01*
X004507Y002687D01*
X004469Y002713D01*
X004432Y002742D01*
X004398Y002773D01*
X004367Y002807D01*
X004338Y002844D01*
X004312Y002882D01*
X004289Y002923D01*
X004270Y002965D01*
X004254Y003008D01*
X004241Y003053D01*
X004232Y003099D01*
X004227Y003145D01*
X004225Y003191D01*
X013517Y014805D02*
X013519Y014830D01*
X013525Y014854D01*
X013534Y014876D01*
X013547Y014897D01*
X013563Y014916D01*
X013582Y014932D01*
X013603Y014945D01*
X013625Y014954D01*
X013649Y014960D01*
X013674Y014962D01*
X013699Y014960D01*
X013723Y014954D01*
X013745Y014945D01*
X013766Y014932D01*
X013785Y014916D01*
X013801Y014897D01*
X013814Y014876D01*
X013823Y014854D01*
X013829Y014830D01*
X013831Y014805D01*
X013829Y014780D01*
X013823Y014756D01*
X013814Y014734D01*
X013801Y014713D01*
X013785Y014694D01*
X013766Y014678D01*
X013745Y014665D01*
X013723Y014656D01*
X013699Y014650D01*
X013674Y014648D01*
X013649Y014650D01*
X013625Y014656D01*
X013603Y014665D01*
X013582Y014678D01*
X013563Y014694D01*
X013547Y014713D01*
X013534Y014734D01*
X013525Y014756D01*
X013519Y014780D01*
X013517Y014805D01*
X013911Y014805D02*
X013913Y014830D01*
X013919Y014854D01*
X013928Y014876D01*
X013941Y014897D01*
X013957Y014916D01*
X013976Y014932D01*
X013997Y014945D01*
X014019Y014954D01*
X014043Y014960D01*
X014068Y014962D01*
X014093Y014960D01*
X014117Y014954D01*
X014139Y014945D01*
X014160Y014932D01*
X014179Y014916D01*
X014195Y014897D01*
X014208Y014876D01*
X014217Y014854D01*
X014223Y014830D01*
X014225Y014805D01*
X014223Y014780D01*
X014217Y014756D01*
X014208Y014734D01*
X014195Y014713D01*
X014179Y014694D01*
X014160Y014678D01*
X014139Y014665D01*
X014117Y014656D01*
X014093Y014650D01*
X014068Y014648D01*
X014043Y014650D01*
X014019Y014656D01*
X013997Y014665D01*
X013976Y014678D01*
X013957Y014694D01*
X013941Y014713D01*
X013928Y014734D01*
X013919Y014756D01*
X013913Y014780D01*
X013911Y014805D01*
X014304Y014805D02*
X014306Y014830D01*
X014312Y014854D01*
X014321Y014876D01*
X014334Y014897D01*
X014350Y014916D01*
X014369Y014932D01*
X014390Y014945D01*
X014412Y014954D01*
X014436Y014960D01*
X014461Y014962D01*
X014486Y014960D01*
X014510Y014954D01*
X014532Y014945D01*
X014553Y014932D01*
X014572Y014916D01*
X014588Y014897D01*
X014601Y014876D01*
X014610Y014854D01*
X014616Y014830D01*
X014618Y014805D01*
X014616Y014780D01*
X014610Y014756D01*
X014601Y014734D01*
X014588Y014713D01*
X014572Y014694D01*
X014553Y014678D01*
X014532Y014665D01*
X014510Y014656D01*
X014486Y014650D01*
X014461Y014648D01*
X014436Y014650D01*
X014412Y014656D01*
X014390Y014665D01*
X014369Y014678D01*
X014350Y014694D01*
X014334Y014713D01*
X014321Y014734D01*
X014312Y014756D01*
X014306Y014780D01*
X014304Y014805D01*
X014658Y015887D02*
X014659Y015904D01*
X014664Y015921D01*
X014671Y015936D01*
X014681Y015950D01*
X014693Y015962D01*
X014707Y015972D01*
X014722Y015979D01*
X014739Y015984D01*
X014756Y015985D01*
X014756Y015986D02*
X014855Y015986D01*
D11*
X011755Y009405D02*
X011803Y009357D01*
X011803Y009308D01*
X011755Y009260D01*
X011803Y009212D01*
X011803Y009163D01*
X011755Y009115D01*
X011658Y009115D01*
X011610Y009163D01*
X011508Y009163D02*
X011460Y009115D01*
X011363Y009115D01*
X011315Y009163D01*
X011315Y009357D01*
X011363Y009405D01*
X011460Y009405D01*
X011508Y009357D01*
X011610Y009357D02*
X011658Y009405D01*
X011755Y009405D01*
X011755Y009260D02*
X011706Y009260D01*
X014990Y008573D02*
X015038Y008621D01*
X015087Y008621D01*
X015135Y008573D01*
X015183Y008621D01*
X015232Y008621D01*
X015280Y008573D01*
X015280Y008476D01*
X015232Y008428D01*
X015280Y008326D02*
X015183Y008230D01*
X015183Y008278D02*
X015183Y008133D01*
X015280Y008133D02*
X014990Y008133D01*
X014990Y008278D01*
X015038Y008326D01*
X015135Y008326D01*
X015183Y008278D01*
X015038Y008428D02*
X014990Y008476D01*
X014990Y008573D01*
X015135Y008573D02*
X015135Y008524D01*
X015780Y006858D02*
X015780Y006665D01*
X015780Y006762D02*
X015490Y006762D01*
X015587Y006665D01*
X015538Y006564D02*
X015490Y006515D01*
X015490Y006419D01*
X015538Y006370D01*
X015732Y006370D01*
X015780Y006419D01*
X015780Y006515D01*
X015732Y006564D01*
X013628Y006533D02*
X013628Y006582D01*
X013580Y006630D01*
X013483Y006630D01*
X013435Y006582D01*
X013333Y006582D02*
X013285Y006630D01*
X013188Y006630D01*
X013140Y006582D01*
X013140Y006388D01*
X013188Y006340D01*
X013285Y006340D01*
X013333Y006388D01*
X013435Y006340D02*
X013628Y006533D01*
X013628Y006340D02*
X013435Y006340D01*
X013403Y004460D02*
X013451Y004412D01*
X013451Y004315D01*
X013403Y004267D01*
X013258Y004267D01*
X013355Y004267D02*
X013451Y004170D01*
X013553Y004218D02*
X013601Y004170D01*
X013698Y004170D01*
X013746Y004218D01*
X013746Y004315D01*
X013698Y004363D01*
X013649Y004363D01*
X013553Y004315D01*
X013553Y004460D01*
X013746Y004460D01*
X013403Y004460D02*
X013258Y004460D01*
X013258Y004170D01*
X013258Y003655D02*
X013403Y003655D01*
X013451Y003607D01*
X013451Y003510D01*
X013403Y003462D01*
X013258Y003462D01*
X013355Y003462D02*
X013451Y003365D01*
X013553Y003510D02*
X013746Y003510D01*
X013698Y003365D02*
X013698Y003655D01*
X013553Y003510D01*
X013258Y003365D02*
X013258Y003655D01*
X014940Y003638D02*
X014940Y003783D01*
X014988Y003832D01*
X015085Y003832D01*
X015133Y003783D01*
X015133Y003638D01*
X015133Y003735D02*
X015230Y003832D01*
X015230Y003933D02*
X015037Y004126D01*
X014988Y004126D01*
X014940Y004078D01*
X014940Y003981D01*
X014988Y003933D01*
X015230Y003933D02*
X015230Y004126D01*
X015230Y003638D02*
X014940Y003638D01*
X016738Y004240D02*
X016931Y004240D01*
X016834Y004240D02*
X016834Y004530D01*
X016738Y004433D01*
X017032Y004433D02*
X017032Y004240D01*
X017032Y004385D02*
X017226Y004385D01*
X017226Y004433D02*
X017226Y004240D01*
X017226Y004433D02*
X017129Y004530D01*
X017032Y004433D01*
X017622Y004433D02*
X017815Y004433D01*
X017815Y004337D02*
X017622Y004337D01*
X017929Y004049D02*
X017929Y003802D01*
X017806Y003925D02*
X018053Y003925D01*
X018259Y004240D02*
X018211Y004288D01*
X018404Y004482D01*
X018404Y004288D01*
X018356Y004240D01*
X018259Y004240D01*
X018211Y004288D02*
X018211Y004482D01*
X018259Y004530D01*
X018356Y004530D01*
X018404Y004482D01*
X018653Y004433D02*
X018750Y004530D01*
X018750Y004240D01*
X018846Y004240D02*
X018653Y004240D01*
X018554Y004240D02*
X018506Y004240D01*
X018506Y004288D01*
X018554Y004288D01*
X018554Y004240D01*
X018948Y004337D02*
X019044Y004240D01*
X019141Y004337D01*
X019141Y004530D01*
X018948Y004530D02*
X018948Y004337D01*
X019306Y003925D02*
X019553Y003925D01*
X008332Y007732D02*
X008139Y007538D01*
X008139Y007490D01*
X008038Y007490D02*
X007941Y007587D01*
X007989Y007587D02*
X007844Y007587D01*
X007844Y007490D02*
X007844Y007780D01*
X007989Y007780D01*
X008038Y007732D01*
X008038Y007635D01*
X007989Y007587D01*
X008139Y007780D02*
X008332Y007780D01*
X008332Y007732D01*
D12*
X016622Y004918D02*
X016622Y004772D01*
X016659Y004735D01*
X016732Y004735D01*
X016769Y004772D01*
X016843Y004772D02*
X016880Y004735D01*
X016990Y004735D01*
X016990Y004882D01*
X017064Y004882D02*
X017064Y004735D01*
X017064Y004808D02*
X017138Y004882D01*
X017174Y004882D01*
X017248Y004882D02*
X017248Y004735D01*
X017248Y004808D02*
X017322Y004882D01*
X017358Y004882D01*
X017433Y004845D02*
X017469Y004882D01*
X017543Y004882D01*
X017579Y004845D01*
X017579Y004808D01*
X017433Y004808D01*
X017433Y004772D02*
X017433Y004845D01*
X017433Y004772D02*
X017469Y004735D01*
X017543Y004735D01*
X017654Y004735D02*
X017654Y004882D01*
X017764Y004882D01*
X017800Y004845D01*
X017800Y004735D01*
X017911Y004772D02*
X017911Y004918D01*
X017875Y004882D02*
X017948Y004882D01*
X017911Y004772D02*
X017948Y004735D01*
X018243Y004772D02*
X018280Y004735D01*
X018353Y004735D01*
X018390Y004772D01*
X018390Y004808D01*
X018353Y004845D01*
X018280Y004845D01*
X018243Y004882D01*
X018243Y004918D01*
X018280Y004955D01*
X018353Y004955D01*
X018390Y004918D01*
X018464Y004845D02*
X018501Y004882D01*
X018574Y004882D01*
X018611Y004845D01*
X018611Y004808D01*
X018464Y004808D01*
X018464Y004772D02*
X018464Y004845D01*
X018464Y004772D02*
X018501Y004735D01*
X018574Y004735D01*
X018685Y004735D02*
X018685Y004882D01*
X018795Y004882D01*
X018832Y004845D01*
X018832Y004735D01*
X018906Y004735D02*
X019016Y004735D01*
X019053Y004772D01*
X019016Y004808D01*
X018942Y004808D01*
X018906Y004845D01*
X018942Y004882D01*
X019053Y004882D01*
X019127Y004845D02*
X019163Y004882D01*
X019237Y004882D01*
X019274Y004845D01*
X019274Y004808D01*
X019127Y004808D01*
X019127Y004772D02*
X019127Y004845D01*
X019127Y004772D02*
X019163Y004735D01*
X019237Y004735D01*
X016843Y004772D02*
X016843Y004882D01*
X016769Y004918D02*
X016732Y004955D01*
X016659Y004955D01*
X016622Y004918D01*
D13*
X016510Y005100D02*
X016487Y005098D01*
X016465Y005094D01*
X016444Y005086D01*
X016423Y005075D01*
X016405Y005061D01*
X016389Y005045D01*
X016375Y005027D01*
X016364Y005006D01*
X016356Y004985D01*
X016352Y004963D01*
X016350Y004940D01*
X016350Y003010D01*
X016352Y002987D01*
X016356Y002965D01*
X016364Y002944D01*
X016375Y002923D01*
X016389Y002905D01*
X016405Y002889D01*
X016423Y002875D01*
X016444Y002864D01*
X016465Y002856D01*
X016487Y002852D01*
X016510Y002850D01*
X019440Y002850D01*
X019463Y002852D01*
X019485Y002856D01*
X019506Y002864D01*
X019527Y002875D01*
X019545Y002889D01*
X019561Y002905D01*
X019575Y002923D01*
X019586Y002944D01*
X019594Y002965D01*
X019598Y002987D01*
X019600Y003010D01*
X019600Y004940D01*
X019598Y004963D01*
X019594Y004985D01*
X019586Y005006D01*
X019575Y005027D01*
X019561Y005045D01*
X019545Y005061D01*
X019527Y005075D01*
X019506Y005086D01*
X019485Y005094D01*
X019463Y005098D01*
X019440Y005100D01*
X016510Y005100D01*
D14*
X003370Y002600D02*
X000640Y000350D01*
X000650Y000350D02*
X000625Y000333D01*
X000598Y000320D01*
X000569Y000310D01*
X000540Y000303D01*
X000510Y000300D01*
X000480Y000301D01*
X000450Y000305D01*
X000421Y000313D01*
X000393Y000324D01*
X000366Y000339D01*
X000342Y000356D01*
X000320Y000377D01*
X000300Y000400D01*
X000283Y000425D01*
X000270Y000452D01*
X000260Y000481D01*
X000253Y000510D01*
X000250Y000540D01*
X000251Y000570D01*
X000255Y000600D01*
X000263Y000629D01*
X000274Y000657D01*
X000289Y000684D01*
X000306Y000708D01*
X000327Y000730D01*
X000350Y000750D01*
X000330Y000730D02*
X002030Y002480D01*
X002000Y002450D02*
X002023Y002470D01*
X002044Y002492D01*
X002061Y002516D01*
X002076Y002543D01*
X002087Y002571D01*
X002095Y002600D01*
X002099Y002630D01*
X002100Y002660D01*
X002097Y002690D01*
X002090Y002719D01*
X002080Y002748D01*
X002067Y002775D01*
X002050Y002800D01*
X002030Y002823D01*
X002008Y002844D01*
X001984Y002861D01*
X001957Y002876D01*
X001929Y002887D01*
X001900Y002895D01*
X001870Y002899D01*
X001840Y002900D01*
X001810Y002897D01*
X001781Y002890D01*
X001752Y002880D01*
X001725Y002867D01*
X001700Y002850D01*
X001740Y002870D02*
X000550Y002480D01*
X000564Y002485D02*
X000533Y002481D01*
X000501Y002482D01*
X000470Y002486D01*
X000440Y002493D01*
X000410Y002504D01*
X000382Y002519D01*
X000356Y002537D01*
X000332Y002557D01*
X000311Y002580D01*
X000293Y002606D01*
X000278Y002633D01*
X000266Y002662D01*
X000257Y002693D01*
X000252Y002724D01*
X000251Y002755D01*
X000254Y002787D01*
X000260Y002818D01*
X000269Y002847D01*
X000282Y002876D01*
X000299Y002903D01*
X000318Y002928D01*
X000340Y002950D01*
X000365Y002970D01*
X000392Y002986D01*
X000420Y003000D01*
X002750Y003960D01*
X002730Y003950D02*
X002758Y003964D01*
X002785Y003980D01*
X002810Y004000D01*
X002832Y004022D01*
X002851Y004047D01*
X002868Y004074D01*
X002881Y004102D01*
X002890Y004132D01*
X002896Y004163D01*
X002899Y004195D01*
X002898Y004226D01*
X002893Y004257D01*
X002884Y004288D01*
X002872Y004317D01*
X002857Y004344D01*
X002839Y004370D01*
X002818Y004393D01*
X002794Y004413D01*
X002768Y004431D01*
X002740Y004446D01*
X002710Y004457D01*
X002680Y004464D01*
X002649Y004468D01*
X002617Y004469D01*
X002586Y004465D01*
X002610Y004470D02*
X000480Y004750D01*
X000500Y004750D02*
X000470Y004752D01*
X000440Y004757D01*
X000411Y004766D01*
X000384Y004779D01*
X000358Y004794D01*
X000334Y004813D01*
X000313Y004834D01*
X000294Y004858D01*
X000279Y004884D01*
X000266Y004911D01*
X000257Y004940D01*
X000252Y004970D01*
X000250Y005000D01*
X000252Y005030D01*
X000257Y005060D01*
X000266Y005089D01*
X000279Y005116D01*
X000294Y005142D01*
X000313Y005166D01*
X000334Y005187D01*
X000358Y005206D01*
X000384Y005221D01*
X000411Y005234D01*
X000440Y005243D01*
X000470Y005248D01*
X000500Y005250D01*
X004850Y005250D01*
X004850Y005600D01*
X004800Y005600D01*
X004650Y005600D01*
X004600Y005700D01*
X004600Y005500D01*
X004650Y005600D01*
X003850Y005600D01*
X004600Y005500D02*
X004600Y005450D01*
X004850Y005600D01*
X004600Y005750D01*
X004600Y005700D01*
X004800Y005600D01*
X004600Y005500D01*
X004850Y005600D02*
X004850Y011950D01*
X000500Y011950D01*
X000470Y011952D01*
X000440Y011957D01*
X000411Y011966D01*
X000384Y011979D01*
X000358Y011994D01*
X000334Y012013D01*
X000313Y012034D01*
X000294Y012058D01*
X000279Y012084D01*
X000266Y012111D01*
X000257Y012140D01*
X000252Y012170D01*
X000250Y012200D01*
X000252Y012230D01*
X000257Y012260D01*
X000266Y012289D01*
X000279Y012316D01*
X000294Y012342D01*
X000313Y012366D01*
X000334Y012387D01*
X000358Y012406D01*
X000384Y012421D01*
X000411Y012434D01*
X000440Y012443D01*
X000470Y012448D01*
X000500Y012450D01*
X000480Y012450D02*
X002610Y012730D01*
X002586Y012735D02*
X002617Y012731D01*
X002649Y012732D01*
X002680Y012736D01*
X002710Y012743D01*
X002740Y012754D01*
X002768Y012769D01*
X002794Y012787D01*
X002818Y012807D01*
X002839Y012830D01*
X002857Y012856D01*
X002872Y012883D01*
X002884Y012912D01*
X002893Y012943D01*
X002898Y012974D01*
X002899Y013005D01*
X002896Y013037D01*
X002890Y013068D01*
X002881Y013098D01*
X002868Y013126D01*
X002851Y013153D01*
X002832Y013178D01*
X002810Y013200D01*
X002785Y013220D01*
X002758Y013236D01*
X002730Y013250D01*
X002750Y013240D02*
X000420Y014200D01*
X000392Y014214D01*
X000365Y014230D01*
X000340Y014250D01*
X000318Y014272D01*
X000299Y014297D01*
X000282Y014324D01*
X000269Y014352D01*
X000260Y014382D01*
X000254Y014413D01*
X000251Y014445D01*
X000252Y014476D01*
X000257Y014507D01*
X000266Y014538D01*
X000278Y014567D01*
X000293Y014594D01*
X000311Y014620D01*
X000332Y014643D01*
X000356Y014663D01*
X000382Y014681D01*
X000410Y014696D01*
X000440Y014707D01*
X000470Y014714D01*
X000501Y014718D01*
X000533Y014719D01*
X000564Y014715D01*
X000550Y014720D02*
X001740Y014330D01*
X001700Y014350D02*
X001725Y014333D01*
X001752Y014320D01*
X001781Y014310D01*
X001810Y014303D01*
X001840Y014300D01*
X001870Y014301D01*
X001900Y014305D01*
X001929Y014313D01*
X001957Y014324D01*
X001984Y014339D01*
X002008Y014356D01*
X002030Y014377D01*
X002050Y014400D01*
X002067Y014425D01*
X002080Y014452D01*
X002090Y014481D01*
X002097Y014510D01*
X002100Y014540D01*
X002099Y014570D01*
X002095Y014600D01*
X002087Y014629D01*
X002076Y014657D01*
X002061Y014684D01*
X002044Y014708D01*
X002023Y014730D01*
X002000Y014750D01*
X002030Y014720D02*
X000330Y016470D01*
X000350Y016450D02*
X000327Y016470D01*
X000306Y016492D01*
X000289Y016516D01*
X000274Y016543D01*
X000263Y016571D01*
X000255Y016600D01*
X000251Y016630D01*
X000250Y016660D01*
X000253Y016690D01*
X000260Y016719D01*
X000270Y016748D01*
X000283Y016775D01*
X000300Y016800D01*
X000320Y016823D01*
X000342Y016844D01*
X000366Y016861D01*
X000393Y016876D01*
X000421Y016887D01*
X000450Y016895D01*
X000480Y016899D01*
X000510Y016900D01*
X000540Y016897D01*
X000569Y016890D01*
X000598Y016880D01*
X000625Y016867D01*
X000650Y016850D01*
X000640Y016850D02*
X003370Y014600D01*
X003360Y014600D02*
X003388Y014584D01*
X003417Y014572D01*
X003447Y014564D01*
X003478Y014559D01*
X003510Y014558D01*
X003541Y014561D01*
X003572Y014568D01*
X003602Y014579D01*
X003630Y014594D01*
X003656Y014612D01*
X003679Y014633D01*
X003700Y014657D01*
X003717Y014683D01*
X003732Y014711D01*
X003742Y014741D01*
X003749Y014771D01*
X003752Y014803D01*
X003751Y014834D01*
X003746Y014866D01*
X003737Y014896D01*
X003724Y014925D01*
X003708Y014952D01*
X003720Y014930D02*
X002900Y016550D01*
X002889Y016579D01*
X002882Y016610D01*
X002879Y016641D01*
X002880Y016673D01*
X002885Y016704D01*
X002893Y016734D01*
X002906Y016763D01*
X002921Y016790D01*
X002940Y016815D01*
X002962Y016837D01*
X002987Y016856D01*
X003014Y016873D01*
X003043Y016885D01*
X003073Y016894D01*
X003103Y016900D01*
X003135Y016901D01*
X003166Y016898D01*
X003197Y016892D01*
X003226Y016882D01*
X003255Y016868D01*
X003281Y016851D01*
X003305Y016830D01*
X003326Y016807D01*
X003344Y016782D01*
X003358Y016754D01*
X003350Y016760D02*
X004650Y014450D01*
X005750Y014450D02*
X007050Y016760D01*
X007042Y016754D02*
X007056Y016782D01*
X007074Y016807D01*
X007095Y016830D01*
X007119Y016851D01*
X007145Y016868D01*
X007174Y016882D01*
X007203Y016892D01*
X007234Y016898D01*
X007265Y016901D01*
X007297Y016900D01*
X007327Y016894D01*
X007357Y016885D01*
X007386Y016873D01*
X007413Y016856D01*
X007438Y016837D01*
X007460Y016815D01*
X007479Y016790D01*
X007494Y016763D01*
X007507Y016734D01*
X007515Y016704D01*
X007520Y016673D01*
X007521Y016641D01*
X007518Y016610D01*
X007511Y016579D01*
X007500Y016550D01*
X006680Y014930D01*
X006692Y014952D02*
X006676Y014925D01*
X006663Y014896D01*
X006654Y014866D01*
X006649Y014834D01*
X006648Y014803D01*
X006651Y014771D01*
X006658Y014741D01*
X006668Y014711D01*
X006683Y014683D01*
X006700Y014657D01*
X006721Y014633D01*
X006744Y014612D01*
X006770Y014594D01*
X006798Y014579D01*
X006828Y014568D01*
X006859Y014561D01*
X006890Y014558D01*
X006922Y014559D01*
X006953Y014564D01*
X006983Y014572D01*
X007012Y014585D01*
X007040Y014600D01*
X007030Y014600D02*
X009760Y016850D01*
X009750Y016850D02*
X009775Y016867D01*
X009802Y016880D01*
X009831Y016890D01*
X009860Y016897D01*
X009890Y016900D01*
X009920Y016899D01*
X009950Y016895D01*
X009979Y016887D01*
X010007Y016876D01*
X010034Y016861D01*
X010058Y016844D01*
X010080Y016823D01*
X010100Y016800D01*
X010117Y016775D01*
X010130Y016748D01*
X010140Y016719D01*
X010147Y016690D01*
X010150Y016660D01*
X010149Y016630D01*
X010145Y016600D01*
X010137Y016571D01*
X010126Y016543D01*
X010111Y016516D01*
X010094Y016492D01*
X010073Y016470D01*
X010050Y016450D01*
X010070Y016470D02*
X008370Y014720D01*
X008400Y014750D02*
X008377Y014730D01*
X008356Y014708D01*
X008339Y014684D01*
X008324Y014657D01*
X008313Y014629D01*
X008305Y014600D01*
X008301Y014570D01*
X008300Y014540D01*
X008303Y014510D01*
X008310Y014481D01*
X008320Y014452D01*
X008333Y014425D01*
X008350Y014400D01*
X008370Y014377D01*
X008392Y014356D01*
X008416Y014339D01*
X008443Y014324D01*
X008471Y014313D01*
X008500Y014305D01*
X008530Y014301D01*
X008560Y014300D01*
X008590Y014303D01*
X008619Y014310D01*
X008648Y014320D01*
X008675Y014333D01*
X008700Y014350D01*
X008660Y014330D02*
X009850Y014720D01*
X009836Y014715D02*
X009867Y014719D01*
X009899Y014718D01*
X009930Y014714D01*
X009960Y014707D01*
X009990Y014696D01*
X010018Y014681D01*
X010044Y014663D01*
X010068Y014643D01*
X010089Y014620D01*
X010107Y014594D01*
X010122Y014567D01*
X010134Y014538D01*
X010143Y014507D01*
X010148Y014476D01*
X010149Y014445D01*
X010146Y014413D01*
X010140Y014382D01*
X010131Y014352D01*
X010118Y014324D01*
X010101Y014297D01*
X010082Y014272D01*
X010060Y014250D01*
X010035Y014230D01*
X010008Y014214D01*
X009980Y014200D01*
X007650Y013240D01*
X007670Y013250D02*
X007642Y013236D01*
X007615Y013220D01*
X007590Y013200D01*
X007568Y013178D01*
X007549Y013153D01*
X007532Y013126D01*
X007519Y013098D01*
X007510Y013068D01*
X007504Y013037D01*
X007501Y013005D01*
X007502Y012974D01*
X007507Y012943D01*
X007516Y012912D01*
X007528Y012883D01*
X007543Y012856D01*
X007561Y012830D01*
X007582Y012807D01*
X007606Y012787D01*
X007632Y012769D01*
X007660Y012754D01*
X007690Y012743D01*
X007720Y012736D01*
X007751Y012732D01*
X007783Y012731D01*
X007814Y012735D01*
X007790Y012730D02*
X009920Y012450D01*
X009900Y012450D02*
X009930Y012448D01*
X009960Y012443D01*
X009989Y012434D01*
X010016Y012421D01*
X010042Y012406D01*
X010066Y012387D01*
X010087Y012366D01*
X010106Y012342D01*
X010121Y012316D01*
X010134Y012289D01*
X010143Y012260D01*
X010148Y012230D01*
X010150Y012200D01*
X010148Y012170D01*
X010143Y012140D01*
X010134Y012111D01*
X010121Y012084D01*
X010106Y012058D01*
X010087Y012034D01*
X010066Y012013D01*
X010042Y011994D01*
X010016Y011979D01*
X009989Y011966D01*
X009960Y011957D01*
X009930Y011952D01*
X009900Y011950D01*
X005550Y011950D01*
X005550Y005250D01*
X009900Y005250D01*
X009930Y005248D01*
X009960Y005243D01*
X009989Y005234D01*
X010016Y005221D01*
X010042Y005206D01*
X010066Y005187D01*
X010087Y005166D01*
X010106Y005142D01*
X010121Y005116D01*
X010134Y005089D01*
X010143Y005060D01*
X010148Y005030D01*
X010150Y005000D01*
X010148Y004970D01*
X010143Y004940D01*
X010134Y004911D01*
X010121Y004884D01*
X010106Y004858D01*
X010087Y004834D01*
X010066Y004813D01*
X010042Y004794D01*
X010016Y004779D01*
X009989Y004766D01*
X009960Y004757D01*
X009930Y004752D01*
X009900Y004750D01*
X009920Y004750D02*
X007790Y004470D01*
X007814Y004465D02*
X007783Y004469D01*
X007751Y004468D01*
X007720Y004464D01*
X007690Y004457D01*
X007660Y004446D01*
X007632Y004431D01*
X007606Y004413D01*
X007582Y004393D01*
X007561Y004370D01*
X007543Y004344D01*
X007528Y004317D01*
X007516Y004288D01*
X007507Y004257D01*
X007502Y004226D01*
X007501Y004195D01*
X007504Y004163D01*
X007510Y004132D01*
X007519Y004102D01*
X007532Y004074D01*
X007549Y004047D01*
X007568Y004022D01*
X007590Y004000D01*
X007615Y003980D01*
X007642Y003964D01*
X007670Y003950D01*
X007650Y003960D02*
X009980Y003000D01*
X010008Y002986D01*
X010035Y002970D01*
X010060Y002950D01*
X010082Y002928D01*
X010101Y002903D01*
X010118Y002876D01*
X010131Y002847D01*
X010140Y002818D01*
X010146Y002787D01*
X010149Y002755D01*
X010148Y002724D01*
X010143Y002693D01*
X010134Y002662D01*
X010122Y002633D01*
X010107Y002606D01*
X010089Y002580D01*
X010068Y002557D01*
X010044Y002537D01*
X010018Y002519D01*
X009990Y002504D01*
X009960Y002493D01*
X009930Y002486D01*
X009899Y002482D01*
X009867Y002481D01*
X009836Y002485D01*
X009850Y002480D02*
X008660Y002870D01*
X008700Y002850D02*
X008675Y002867D01*
X008648Y002880D01*
X008619Y002890D01*
X008590Y002897D01*
X008560Y002900D01*
X008530Y002899D01*
X008500Y002895D01*
X008471Y002887D01*
X008443Y002876D01*
X008416Y002861D01*
X008392Y002844D01*
X008370Y002823D01*
X008350Y002800D01*
X008333Y002775D01*
X008320Y002748D01*
X008310Y002719D01*
X008303Y002690D01*
X008300Y002660D01*
X008301Y002630D01*
X008305Y002600D01*
X008313Y002571D01*
X008324Y002543D01*
X008339Y002516D01*
X008356Y002492D01*
X008377Y002470D01*
X008400Y002450D01*
X008370Y002480D02*
X010070Y000730D01*
X010050Y000750D02*
X010073Y000730D01*
X010094Y000708D01*
X010111Y000684D01*
X010126Y000657D01*
X010137Y000629D01*
X010145Y000600D01*
X010149Y000570D01*
X010150Y000540D01*
X010147Y000510D01*
X010140Y000481D01*
X010130Y000452D01*
X010117Y000425D01*
X010100Y000400D01*
X010080Y000377D01*
X010058Y000356D01*
X010034Y000339D01*
X010007Y000324D01*
X009979Y000313D01*
X009950Y000305D01*
X009920Y000301D01*
X009890Y000300D01*
X009860Y000303D01*
X009831Y000310D01*
X009802Y000320D01*
X009775Y000333D01*
X009750Y000350D01*
X009760Y000350D02*
X007030Y002600D01*
X007040Y002600D02*
X007012Y002616D01*
X006983Y002628D01*
X006953Y002636D01*
X006922Y002641D01*
X006890Y002642D01*
X006859Y002639D01*
X006828Y002632D01*
X006798Y002621D01*
X006770Y002606D01*
X006744Y002588D01*
X006721Y002567D01*
X006700Y002543D01*
X006683Y002517D01*
X006668Y002489D01*
X006658Y002459D01*
X006651Y002429D01*
X006648Y002397D01*
X006649Y002366D01*
X006654Y002334D01*
X006663Y002304D01*
X006676Y002275D01*
X006692Y002248D01*
X006680Y002270D02*
X007500Y000650D01*
X007511Y000621D01*
X007518Y000590D01*
X007521Y000559D01*
X007520Y000527D01*
X007515Y000496D01*
X007507Y000466D01*
X007494Y000437D01*
X007479Y000410D01*
X007460Y000385D01*
X007438Y000363D01*
X007413Y000344D01*
X007386Y000327D01*
X007357Y000315D01*
X007327Y000306D01*
X007297Y000300D01*
X007265Y000299D01*
X007234Y000302D01*
X007203Y000308D01*
X007174Y000318D01*
X007145Y000332D01*
X007119Y000349D01*
X007095Y000370D01*
X007074Y000393D01*
X007056Y000418D01*
X007042Y000446D01*
X007050Y000440D02*
X005750Y002750D01*
X004650Y002750D02*
X003350Y000440D01*
X003358Y000446D02*
X003344Y000418D01*
X003326Y000393D01*
X003305Y000370D01*
X003281Y000349D01*
X003255Y000332D01*
X003226Y000318D01*
X003197Y000308D01*
X003166Y000302D01*
X003135Y000299D01*
X003103Y000300D01*
X003073Y000306D01*
X003043Y000315D01*
X003014Y000327D01*
X002987Y000344D01*
X002962Y000363D01*
X002940Y000385D01*
X002921Y000410D01*
X002906Y000437D01*
X002893Y000466D01*
X002885Y000496D01*
X002880Y000527D01*
X002879Y000559D01*
X002882Y000590D01*
X002889Y000621D01*
X002900Y000650D01*
X003720Y002270D01*
X003708Y002248D02*
X003724Y002275D01*
X003737Y002304D01*
X003746Y002334D01*
X003751Y002366D01*
X003752Y002397D01*
X003749Y002429D01*
X003742Y002459D01*
X003732Y002489D01*
X003717Y002517D01*
X003700Y002543D01*
X003679Y002567D01*
X003656Y002588D01*
X003630Y002606D01*
X003602Y002621D01*
X003572Y002632D01*
X003541Y002639D01*
X003510Y002642D01*
X003478Y002641D01*
X003447Y002636D01*
X003417Y002628D01*
X003387Y002615D01*
X003360Y002600D01*
X007744Y005548D02*
X007744Y005898D01*
X007861Y006015D01*
X008095Y006015D01*
X008211Y005898D01*
X008211Y005548D01*
X008211Y005781D02*
X008445Y006015D01*
X008328Y006247D02*
X008095Y006247D01*
X007978Y006364D01*
X007978Y006598D01*
X008095Y006714D01*
X008211Y006714D01*
X008211Y006247D01*
X008328Y006247D02*
X008445Y006364D01*
X008445Y006598D01*
X008445Y006947D02*
X008328Y006947D01*
X008328Y007064D01*
X008445Y007064D01*
X008445Y006947D01*
X008445Y007297D02*
X008445Y007531D01*
X008445Y007414D02*
X007744Y007414D01*
X007744Y007297D01*
X007961Y007364D02*
X008197Y007364D01*
X008095Y007064D02*
X008095Y006947D01*
X007978Y006947D01*
X007978Y007064D01*
X008095Y007064D01*
X008095Y007764D02*
X008328Y007764D01*
X008445Y007880D01*
X008445Y008114D01*
X008328Y008231D01*
X008095Y008231D01*
X007978Y008114D01*
X007978Y007880D01*
X008095Y007764D01*
X008197Y007836D02*
X007961Y007836D01*
X008328Y008463D02*
X008211Y008580D01*
X008211Y008930D01*
X008095Y008930D02*
X008445Y008930D01*
X008445Y008580D01*
X008328Y008463D01*
X007978Y008580D02*
X007978Y008814D01*
X008095Y008930D01*
X008095Y009163D02*
X007978Y009280D01*
X007978Y009630D01*
X007744Y009630D02*
X008445Y009630D01*
X008445Y009280D01*
X008328Y009163D01*
X008095Y009163D01*
X007978Y010563D02*
X008445Y010796D01*
X007978Y011030D01*
X007978Y011263D02*
X007744Y011496D01*
X008445Y011496D01*
X008445Y011263D02*
X008445Y011730D01*
X011482Y008961D02*
X011718Y008961D01*
X011718Y008489D02*
X011482Y008489D01*
X014864Y008531D02*
X014864Y008294D01*
X015336Y008294D02*
X015336Y008531D01*
X015545Y007810D02*
X015545Y006390D01*
X015336Y005968D02*
X015336Y005732D01*
X014864Y005732D02*
X014864Y005968D01*
X014864Y006982D02*
X014864Y007218D01*
X015336Y007218D02*
X015336Y006982D01*
X017405Y006390D02*
X017405Y007810D01*
X017907Y007344D02*
X018143Y007344D01*
X018143Y006871D02*
X017907Y006871D01*
X013656Y004586D02*
X013419Y004586D01*
X013419Y004114D02*
X013656Y004114D01*
X013656Y003711D02*
X013419Y003711D01*
X013419Y003239D02*
X013656Y003239D01*
X008445Y005548D02*
X007744Y005548D01*
D15*
X007000Y006600D02*
X006050Y006600D01*
X005650Y006600D01*
X005650Y010600D01*
X006050Y010600D01*
X006050Y006600D01*
X007000Y006600D02*
X007034Y006601D01*
X007069Y006605D01*
X007102Y006613D01*
X007135Y006624D01*
X007166Y006639D01*
X007196Y006656D01*
X007224Y006677D01*
X007250Y006700D01*
X007273Y006726D01*
X007294Y006754D01*
X007311Y006784D01*
X007326Y006815D01*
X007337Y006848D01*
X007345Y006881D01*
X007349Y006916D01*
X007350Y006950D01*
X007350Y007100D01*
X007350Y010100D02*
X007350Y010250D01*
X007349Y010284D01*
X007345Y010319D01*
X007337Y010352D01*
X007326Y010385D01*
X007311Y010416D01*
X007294Y010446D01*
X007273Y010474D01*
X007250Y010500D01*
X007224Y010523D01*
X007196Y010544D01*
X007166Y010561D01*
X007135Y010576D01*
X007102Y010587D01*
X007069Y010595D01*
X007034Y010599D01*
X007000Y010600D01*
X006050Y010600D01*
X010685Y010200D02*
X010685Y011500D01*
X013265Y011500D01*
X013265Y010200D01*
X010685Y010200D01*
X012326Y008065D02*
X012326Y007238D01*
X012326Y006805D02*
X012326Y005978D01*
X013980Y005978D01*
X014413Y006411D01*
X014413Y006824D01*
X014413Y007238D02*
X014413Y007631D01*
X013980Y008065D01*
X012326Y008065D01*
X012405Y007238D02*
X012420Y007297D01*
X012438Y007354D01*
X012460Y007411D01*
X012485Y007466D01*
X012514Y007519D01*
X012546Y007571D01*
X012581Y007620D01*
X012619Y007667D01*
X012660Y007712D01*
X012704Y007754D01*
X012750Y007793D01*
X012798Y007829D01*
X012849Y007863D01*
X012902Y007893D01*
X012956Y007919D01*
X013012Y007943D01*
X013069Y007962D01*
X013128Y007978D01*
X013187Y007991D01*
X013247Y008000D01*
X013307Y008005D01*
X013368Y008006D01*
X013429Y008003D01*
X013489Y007997D01*
X013549Y007987D01*
X013608Y007973D01*
X013666Y007956D01*
X013723Y007935D01*
X013778Y007911D01*
X013832Y007883D01*
X013884Y007852D01*
X013934Y007818D01*
X013982Y007780D01*
X014027Y007740D01*
X014070Y007697D01*
X014110Y007652D01*
X014147Y007604D01*
X014181Y007554D01*
X014212Y007502D01*
X014239Y007448D01*
X014264Y007392D01*
X014284Y007335D01*
X014301Y007277D01*
X014315Y007218D01*
X014334Y006824D02*
X014319Y006764D01*
X014301Y006705D01*
X014278Y006647D01*
X014252Y006590D01*
X014223Y006536D01*
X014190Y006483D01*
X014154Y006432D01*
X014115Y006384D01*
X014073Y006338D01*
X014028Y006296D01*
X013981Y006255D01*
X013931Y006219D01*
X013879Y006185D01*
X013825Y006154D01*
X013769Y006127D01*
X013711Y006104D01*
X013652Y006084D01*
X013592Y006068D01*
X013532Y006056D01*
X013470Y006047D01*
X013408Y006043D01*
X013346Y006042D01*
X013284Y006045D01*
X013222Y006053D01*
X013161Y006064D01*
X013101Y006078D01*
X013042Y006097D01*
X012984Y006119D01*
X012927Y006145D01*
X012873Y006174D01*
X012820Y006207D01*
X012769Y006243D01*
X012721Y006282D01*
X012675Y006324D01*
X012632Y006369D01*
X012592Y006416D01*
X012555Y006466D01*
X012521Y006518D01*
X012491Y006572D01*
X012464Y006628D01*
X012440Y006686D01*
X012420Y006745D01*
X012404Y006805D01*
X014500Y004702D02*
X015730Y004702D01*
X015730Y004346D01*
X015730Y003479D02*
X015730Y003123D01*
X014500Y003123D01*
X015708Y006710D02*
X015710Y006725D01*
X015716Y006738D01*
X015725Y006750D01*
X015736Y006759D01*
X015750Y006765D01*
X015765Y006767D01*
X015780Y006765D01*
X015793Y006759D01*
X015805Y006750D01*
X015814Y006739D01*
X015820Y006725D01*
X015822Y006710D01*
X015820Y006695D01*
X015814Y006682D01*
X015805Y006670D01*
X015794Y006661D01*
X015780Y006655D01*
X015765Y006653D01*
X015750Y006655D01*
X015737Y006661D01*
X015725Y006670D01*
X015716Y006681D01*
X015710Y006695D01*
X015708Y006710D01*
X019200Y007999D02*
X019200Y008240D01*
X019280Y008320D01*
X019440Y008320D01*
X019520Y008240D01*
X019520Y007999D01*
X019680Y007999D02*
X019200Y007999D01*
X019520Y008159D02*
X019680Y008320D01*
X019680Y008515D02*
X019680Y008835D01*
X019680Y008675D02*
X019200Y008675D01*
X019360Y008515D01*
X018166Y009575D02*
X018166Y014330D01*
X014284Y014330D01*
X014284Y009575D01*
X018166Y009575D01*
X021680Y010475D02*
X022293Y010475D01*
X021987Y010782D02*
X021987Y010168D01*
X022100Y007043D02*
X022100Y006430D01*
D16*
X005850Y008600D03*
D17*
X005350Y008650D02*
X005350Y008950D01*
X005350Y008800D02*
X004900Y008800D01*
X005050Y008650D01*
X004975Y008490D02*
X005275Y008490D01*
X005350Y008415D01*
X005350Y008265D01*
X005275Y008190D01*
X004975Y008190D01*
X004900Y008265D01*
X004900Y008415D01*
X004975Y008490D01*
X005200Y008340D02*
X005350Y008490D01*
X016470Y004420D02*
X016545Y004345D01*
X016620Y004345D01*
X016695Y004420D01*
X016695Y004795D01*
X016620Y004795D02*
X016770Y004795D01*
X016930Y004795D02*
X017156Y004795D01*
X017231Y004720D01*
X017231Y004570D01*
X017156Y004495D01*
X016930Y004495D01*
X016930Y004345D02*
X016930Y004795D01*
X017391Y004645D02*
X017541Y004795D01*
X017541Y004345D01*
X017391Y004345D02*
X017691Y004345D01*
X020857Y004850D02*
X020859Y004916D01*
X020865Y004982D01*
X020875Y005048D01*
X020888Y005113D01*
X020906Y005177D01*
X020927Y005239D01*
X020952Y005301D01*
X020980Y005361D01*
X021012Y005419D01*
X021048Y005475D01*
X021086Y005528D01*
X021128Y005580D01*
X021173Y005629D01*
X021220Y005675D01*
X021271Y005718D01*
X021323Y005758D01*
X021378Y005795D01*
X021435Y005829D01*
X021494Y005859D01*
X021555Y005886D01*
X021617Y005909D01*
X021680Y005928D01*
X021745Y005944D01*
X021810Y005956D01*
X021876Y005964D01*
X021942Y005968D01*
X022008Y005968D01*
X022074Y005964D01*
X022140Y005956D01*
X022205Y005944D01*
X022270Y005928D01*
X022333Y005909D01*
X022395Y005886D01*
X022456Y005859D01*
X022515Y005829D01*
X022572Y005795D01*
X022627Y005758D01*
X022679Y005718D01*
X022730Y005675D01*
X022777Y005629D01*
X022822Y005580D01*
X022864Y005528D01*
X022902Y005475D01*
X022938Y005419D01*
X022970Y005361D01*
X022998Y005301D01*
X023023Y005239D01*
X023044Y005177D01*
X023062Y005113D01*
X023075Y005048D01*
X023085Y004982D01*
X023091Y004916D01*
X023093Y004850D01*
X023091Y004784D01*
X023085Y004718D01*
X023075Y004652D01*
X023062Y004587D01*
X023044Y004523D01*
X023023Y004461D01*
X022998Y004399D01*
X022970Y004339D01*
X022938Y004281D01*
X022902Y004225D01*
X022864Y004172D01*
X022822Y004120D01*
X022777Y004071D01*
X022730Y004025D01*
X022679Y003982D01*
X022627Y003942D01*
X022572Y003905D01*
X022515Y003871D01*
X022456Y003841D01*
X022395Y003814D01*
X022333Y003791D01*
X022270Y003772D01*
X022205Y003756D01*
X022140Y003744D01*
X022074Y003736D01*
X022008Y003732D01*
X021942Y003732D01*
X021876Y003736D01*
X021810Y003744D01*
X021745Y003756D01*
X021680Y003772D01*
X021617Y003791D01*
X021555Y003814D01*
X021494Y003841D01*
X021435Y003871D01*
X021378Y003905D01*
X021323Y003942D01*
X021271Y003982D01*
X021220Y004025D01*
X021173Y004071D01*
X021128Y004120D01*
X021086Y004172D01*
X021048Y004225D01*
X021012Y004281D01*
X020980Y004339D01*
X020952Y004399D01*
X020927Y004461D01*
X020906Y004523D01*
X020888Y004587D01*
X020875Y004652D01*
X020865Y004718D01*
X020859Y004784D01*
X020857Y004850D01*
X020857Y012350D02*
X020859Y012416D01*
X020865Y012482D01*
X020875Y012548D01*
X020888Y012613D01*
X020906Y012677D01*
X020927Y012739D01*
X020952Y012801D01*
X020980Y012861D01*
X021012Y012919D01*
X021048Y012975D01*
X021086Y013028D01*
X021128Y013080D01*
X021173Y013129D01*
X021220Y013175D01*
X021271Y013218D01*
X021323Y013258D01*
X021378Y013295D01*
X021435Y013329D01*
X021494Y013359D01*
X021555Y013386D01*
X021617Y013409D01*
X021680Y013428D01*
X021745Y013444D01*
X021810Y013456D01*
X021876Y013464D01*
X021942Y013468D01*
X022008Y013468D01*
X022074Y013464D01*
X022140Y013456D01*
X022205Y013444D01*
X022270Y013428D01*
X022333Y013409D01*
X022395Y013386D01*
X022456Y013359D01*
X022515Y013329D01*
X022572Y013295D01*
X022627Y013258D01*
X022679Y013218D01*
X022730Y013175D01*
X022777Y013129D01*
X022822Y013080D01*
X022864Y013028D01*
X022902Y012975D01*
X022938Y012919D01*
X022970Y012861D01*
X022998Y012801D01*
X023023Y012739D01*
X023044Y012677D01*
X023062Y012613D01*
X023075Y012548D01*
X023085Y012482D01*
X023091Y012416D01*
X023093Y012350D01*
X023091Y012284D01*
X023085Y012218D01*
X023075Y012152D01*
X023062Y012087D01*
X023044Y012023D01*
X023023Y011961D01*
X022998Y011899D01*
X022970Y011839D01*
X022938Y011781D01*
X022902Y011725D01*
X022864Y011672D01*
X022822Y011620D01*
X022777Y011571D01*
X022730Y011525D01*
X022679Y011482D01*
X022627Y011442D01*
X022572Y011405D01*
X022515Y011371D01*
X022456Y011341D01*
X022395Y011314D01*
X022333Y011291D01*
X022270Y011272D01*
X022205Y011256D01*
X022140Y011244D01*
X022074Y011236D01*
X022008Y011232D01*
X021942Y011232D01*
X021876Y011236D01*
X021810Y011244D01*
X021745Y011256D01*
X021680Y011272D01*
X021617Y011291D01*
X021555Y011314D01*
X021494Y011341D01*
X021435Y011371D01*
X021378Y011405D01*
X021323Y011442D01*
X021271Y011482D01*
X021220Y011525D01*
X021173Y011571D01*
X021128Y011620D01*
X021086Y011672D01*
X021048Y011725D01*
X021012Y011781D01*
X020980Y011839D01*
X020952Y011899D01*
X020927Y011961D01*
X020906Y012023D01*
X020888Y012087D01*
X020875Y012152D01*
X020865Y012218D01*
X020859Y012284D01*
X020857Y012350D01*
D18*
X017955Y013074D02*
X017495Y013074D01*
X017495Y013304D01*
X017571Y013381D01*
X017725Y013381D01*
X017802Y013304D01*
X017802Y013074D01*
X017802Y013228D02*
X017955Y013381D01*
X017878Y013535D02*
X017725Y013535D01*
X017725Y013765D01*
X017802Y013842D01*
X017878Y013842D01*
X017955Y013765D01*
X017955Y013611D01*
X017878Y013535D01*
X017725Y013535D02*
X017571Y013688D01*
X017495Y013842D01*
D19*
X013374Y010905D02*
X013274Y010805D01*
X013299Y010780D01*
X013349Y010780D01*
X013374Y010805D01*
X013374Y010905D01*
X013349Y010930D01*
X013299Y010930D01*
X013274Y010905D01*
X013274Y010805D01*
X013227Y010780D02*
X013126Y010780D01*
X013227Y010880D01*
X013227Y010905D01*
X013202Y010930D01*
X013151Y010930D01*
X013126Y010905D01*
X013079Y010905D02*
X013054Y010930D01*
X013004Y010930D01*
X012979Y010905D01*
X012979Y010880D01*
X013004Y010855D01*
X013079Y010855D01*
X013079Y010805D02*
X013079Y010905D01*
X013079Y010805D02*
X013054Y010780D01*
X013004Y010780D01*
X012979Y010805D01*
X012932Y010780D02*
X012832Y010780D01*
X012932Y010880D01*
X012932Y010905D01*
X012907Y010930D01*
X012857Y010930D01*
X012832Y010905D01*
X012785Y010905D02*
X012760Y010930D01*
X012710Y010930D01*
X012684Y010905D01*
X012684Y010805D01*
X012710Y010780D01*
X012760Y010780D01*
X012785Y010805D01*
X012636Y010780D02*
X012586Y010780D01*
X012611Y010780D02*
X012611Y010930D01*
X012586Y010930D02*
X012636Y010930D01*
X012539Y010930D02*
X012539Y010780D01*
X012439Y010780D02*
X012439Y010930D01*
X012489Y010880D01*
X012539Y010930D01*
X012392Y010755D02*
X012292Y010755D01*
X012244Y010805D02*
X012244Y010855D01*
X012194Y010855D01*
X012144Y010905D02*
X012144Y010805D01*
X012169Y010780D01*
X012219Y010780D01*
X012244Y010805D01*
X012244Y010905D02*
X012219Y010930D01*
X012169Y010930D01*
X012144Y010905D01*
X012097Y010930D02*
X011997Y010930D01*
X011997Y010780D01*
X012097Y010780D01*
X012047Y010855D02*
X011997Y010855D01*
X011950Y010855D02*
X011925Y010830D01*
X011850Y010830D01*
X011900Y010830D02*
X011950Y010780D01*
X011950Y010855D02*
X011950Y010905D01*
X011925Y010930D01*
X011850Y010930D01*
X011850Y010780D01*
X011802Y010755D02*
X011702Y010755D01*
X011655Y010830D02*
X011655Y010930D01*
X011655Y010830D02*
X011605Y010780D01*
X011555Y010830D01*
X011555Y010930D01*
X011852Y012605D02*
X011852Y012805D01*
X011827Y012780D02*
X011877Y012780D01*
X011902Y012755D01*
X011950Y012730D02*
X012000Y012780D01*
X012000Y012630D01*
X011950Y012630D02*
X012050Y012630D01*
X011902Y012655D02*
X011902Y012680D01*
X011877Y012705D01*
X011827Y012705D01*
X011802Y012730D01*
X011802Y012755D01*
X011827Y012780D01*
X011755Y012780D02*
X011755Y012655D01*
X011730Y012630D01*
X011680Y012630D01*
X011655Y012655D01*
X011655Y012780D01*
X011802Y012655D02*
X011827Y012630D01*
X011877Y012630D01*
X011902Y012655D01*
X017546Y007603D02*
X017596Y007653D01*
X017596Y007503D01*
X017546Y007503D02*
X017646Y007503D01*
X017693Y007528D02*
X017793Y007628D01*
X017793Y007528D01*
X017768Y007503D01*
X017718Y007503D01*
X017693Y007528D01*
X017693Y007628D01*
X017718Y007653D01*
X017768Y007653D01*
X017793Y007628D01*
X017841Y007653D02*
X017841Y007503D01*
X017841Y007553D02*
X017916Y007603D01*
X017841Y007553D02*
X017916Y007503D01*
X018111Y007503D02*
X018211Y007503D01*
X018258Y007503D02*
X018383Y007653D01*
X018283Y007653D02*
X018283Y007628D01*
X018258Y007628D01*
X018258Y007653D01*
X018283Y007653D01*
X018161Y007653D02*
X018161Y007503D01*
X018111Y007603D02*
X018161Y007653D01*
X018358Y007528D02*
X018383Y007528D01*
X018383Y007503D01*
X018358Y007503D01*
X018358Y007528D01*
X018258Y006778D02*
X018283Y006753D01*
X018283Y006728D01*
X018258Y006703D01*
X018208Y006703D01*
X018183Y006728D01*
X018183Y006753D01*
X018208Y006778D01*
X018258Y006778D01*
X018258Y006703D02*
X018283Y006678D01*
X018283Y006653D01*
X018258Y006628D01*
X018208Y006628D01*
X018183Y006653D01*
X018183Y006678D01*
X018208Y006703D01*
X018135Y006703D02*
X018110Y006678D01*
X018035Y006678D01*
X018085Y006678D02*
X018135Y006628D01*
X018135Y006703D02*
X018135Y006753D01*
X018110Y006778D01*
X018035Y006778D01*
X018035Y006628D01*
X017553Y006880D02*
X017553Y007005D01*
X017453Y007005D02*
X017453Y006880D01*
X017478Y006855D01*
X017528Y006855D01*
X017553Y006880D01*
X017406Y006855D02*
X017306Y006855D01*
X017306Y007005D01*
X017259Y006955D02*
X017259Y006855D01*
X017259Y006930D02*
X017159Y006930D01*
X017159Y006955D02*
X017209Y007005D01*
X017259Y006955D01*
X017159Y006955D02*
X017159Y006855D01*
X017111Y006880D02*
X017111Y007005D01*
X017011Y007005D02*
X017011Y006880D01*
X017036Y006855D01*
X017086Y006855D01*
X017111Y006880D01*
X016964Y006880D02*
X016939Y006855D01*
X016864Y006855D01*
X016864Y007005D01*
X016939Y007005D01*
X016964Y006980D01*
X016964Y006880D01*
X016817Y006930D02*
X016717Y006930D01*
X016669Y006930D02*
X016644Y006905D01*
X016569Y006905D01*
X016569Y006855D02*
X016569Y007005D01*
X016644Y007005D01*
X016669Y006980D01*
X016669Y006930D01*
X016522Y007005D02*
X016522Y006855D01*
X016422Y006855D02*
X016422Y007005D01*
X016472Y006955D01*
X016522Y007005D01*
X016375Y006955D02*
X016375Y006855D01*
X016375Y006930D02*
X016275Y006930D01*
X016275Y006955D02*
X016325Y007005D01*
X016375Y006955D01*
X016275Y006955D02*
X016275Y006855D01*
X016202Y006905D02*
X016127Y006905D01*
X016127Y006855D02*
X016127Y007005D01*
X016202Y007005D01*
X016227Y006980D01*
X016227Y006930D01*
X016202Y006905D01*
X016080Y006880D02*
X016055Y006855D01*
X016005Y006855D01*
X015980Y006880D01*
X015980Y006980D01*
X016005Y007005D01*
X016055Y007005D01*
X016080Y006980D01*
X016080Y006880D01*
X016103Y007105D02*
X016153Y007105D01*
X016178Y007130D01*
X016226Y007130D02*
X016251Y007105D01*
X016301Y007105D01*
X016326Y007130D01*
X016326Y007155D01*
X016301Y007180D01*
X016276Y007180D01*
X016301Y007180D02*
X016326Y007205D01*
X016326Y007230D01*
X016301Y007255D01*
X016251Y007255D01*
X016226Y007230D01*
X016178Y007230D02*
X016153Y007255D01*
X016103Y007255D01*
X016078Y007230D01*
X016078Y007130D01*
X016103Y007105D01*
X016030Y007105D02*
X015980Y007105D01*
X016005Y007105D02*
X016005Y007255D01*
X015980Y007255D02*
X016030Y007255D01*
X014705Y006208D02*
X014605Y006208D01*
X014705Y006208D02*
X014705Y006133D01*
X014680Y006108D01*
X014605Y006108D01*
X014555Y006010D02*
X014705Y006010D01*
X014705Y005960D02*
X014705Y006060D01*
X014605Y005960D02*
X014555Y006010D01*
X014680Y005912D02*
X014705Y005912D01*
X014705Y005887D01*
X014680Y005887D01*
X014680Y005912D01*
X014680Y005839D02*
X014705Y005814D01*
X014705Y005764D01*
X014680Y005739D01*
X014580Y005839D01*
X014680Y005839D01*
X014680Y005739D02*
X014580Y005739D01*
X014555Y005764D01*
X014555Y005814D01*
X014580Y005839D01*
X015430Y005885D02*
X015455Y005860D01*
X015555Y005860D01*
X015580Y005885D01*
X015580Y005935D01*
X015555Y005960D01*
X015505Y006008D02*
X015505Y006108D01*
X015580Y006083D02*
X015430Y006083D01*
X015505Y006008D01*
X015455Y005960D02*
X015430Y005935D01*
X015430Y005885D01*
M02*
