G75*
G70*
%OFA0B0*%
%FSLAX24Y24*%
%IPPOS*%
%LPD*%
%AMOC8*
5,1,8,0,0,1.08239X$1,22.5*
%
%ADD10C,0.0000*%
%ADD11OC8,0.0680*%
%ADD12C,0.0740*%
%ADD13C,0.0600*%
%ADD14C,0.2150*%
%ADD15R,0.0800X0.0800*%
%ADD16C,0.0800*%
%ADD17R,0.0740X0.0740*%
%ADD18OC8,0.1181*%
%ADD19C,0.0650*%
%ADD20C,0.0660*%
%ADD21R,0.0650X0.0650*%
%ADD22OC8,0.0520*%
%ADD23C,0.1750*%
%ADD24R,0.0472X0.0472*%
%ADD25R,0.0591X0.0630*%
%ADD26C,0.0001*%
%ADD27C,0.0160*%
%ADD28C,0.1670*%
D10*
X004225Y003191D02*
X004225Y014006D01*
X004227Y014052D01*
X004232Y014098D01*
X004241Y014144D01*
X004254Y014189D01*
X004270Y014232D01*
X004289Y014274D01*
X004312Y014315D01*
X004338Y014353D01*
X004367Y014390D01*
X004398Y014424D01*
X004432Y014455D01*
X004469Y014484D01*
X004507Y014510D01*
X004548Y014533D01*
X004590Y014552D01*
X004633Y014568D01*
X004678Y014581D01*
X004724Y014590D01*
X004770Y014595D01*
X004816Y014597D01*
X004816Y014596D02*
X023005Y014596D01*
X023005Y014597D02*
X023051Y014595D01*
X023097Y014590D01*
X023143Y014581D01*
X023188Y014568D01*
X023231Y014552D01*
X023273Y014533D01*
X023314Y014510D01*
X023352Y014484D01*
X023389Y014455D01*
X023423Y014424D01*
X023454Y014390D01*
X023483Y014353D01*
X023509Y014315D01*
X023532Y014274D01*
X023551Y014232D01*
X023567Y014189D01*
X023580Y014144D01*
X023589Y014098D01*
X023594Y014052D01*
X023596Y014006D01*
X023595Y014006D02*
X023595Y003191D01*
X023596Y003191D02*
X023594Y003145D01*
X023589Y003099D01*
X023580Y003053D01*
X023567Y003008D01*
X023551Y002965D01*
X023532Y002923D01*
X023509Y002882D01*
X023483Y002844D01*
X023454Y002807D01*
X023423Y002773D01*
X023389Y002742D01*
X023352Y002713D01*
X023314Y002687D01*
X023273Y002664D01*
X023231Y002645D01*
X023188Y002629D01*
X023143Y002616D01*
X023097Y002607D01*
X023051Y002602D01*
X023005Y002600D01*
X004816Y002600D01*
X004770Y002602D01*
X004724Y002607D01*
X004678Y002616D01*
X004633Y002629D01*
X004590Y002645D01*
X004548Y002664D01*
X004507Y002687D01*
X004469Y002713D01*
X004432Y002742D01*
X004398Y002773D01*
X004367Y002807D01*
X004338Y002844D01*
X004312Y002882D01*
X004289Y002923D01*
X004270Y002965D01*
X004254Y003008D01*
X004241Y003053D01*
X004232Y003099D01*
X004227Y003145D01*
X004225Y003191D01*
X016851Y008444D02*
X016851Y008696D01*
X016851Y008728D01*
X016879Y008736D01*
X016906Y008748D01*
X016938Y008756D01*
X016965Y008767D01*
X016993Y008779D01*
X017020Y008787D01*
X017048Y008799D01*
X017071Y008787D01*
X017099Y008775D01*
X017123Y008763D01*
X017123Y008405D01*
X017099Y008397D01*
X017071Y008385D01*
X017048Y008374D01*
X017020Y008385D01*
X016993Y008393D01*
X016965Y008405D01*
X016938Y008413D01*
X016906Y008425D01*
X016879Y008437D01*
X016851Y008444D01*
D11*
X016100Y006975D03*
X015100Y006975D03*
X014100Y006975D03*
X013100Y006975D03*
X013100Y003975D03*
X014100Y003975D03*
X015100Y003975D03*
X016100Y003975D03*
D12*
X015600Y003100D03*
X012600Y003100D03*
X011974Y003954D03*
X010975Y003954D03*
X010975Y006954D03*
X011974Y006954D03*
X011850Y008100D03*
X011850Y011100D03*
X013225Y014100D03*
X016225Y014100D03*
X018225Y011600D03*
X018225Y005600D03*
D13*
X007150Y007600D02*
X006550Y007600D01*
X006550Y008600D02*
X007150Y008600D01*
X007150Y009600D02*
X006550Y009600D01*
D14*
X021975Y013100D03*
X021975Y004100D03*
D15*
X021600Y007600D03*
D16*
X021600Y009569D03*
D17*
X015709Y013231D03*
X014725Y013231D03*
X013741Y013231D03*
D18*
X012993Y010475D03*
X016457Y010475D03*
D19*
X018350Y013225D03*
X010850Y011959D03*
X010850Y009991D03*
X019475Y005600D03*
X020475Y005600D03*
D20*
X019475Y003350D03*
X017975Y003350D03*
D21*
X017350Y013225D03*
D22*
X011975Y013475D03*
X011225Y012975D03*
X011975Y012475D03*
D23*
X005200Y013600D03*
X005200Y003600D03*
D24*
X012016Y005081D03*
X012016Y005869D03*
D25*
X013296Y005475D03*
D26*
X016900Y008427D02*
X017123Y008427D01*
X017123Y008426D02*
X016903Y008426D01*
X016905Y008425D02*
X017123Y008425D01*
X017123Y008424D02*
X016908Y008424D01*
X016910Y008423D02*
X017123Y008423D01*
X017123Y008422D02*
X016913Y008422D01*
X016916Y008421D02*
X017123Y008421D01*
X017123Y008420D02*
X016918Y008420D01*
X016921Y008419D02*
X017123Y008419D01*
X017123Y008418D02*
X016924Y008418D01*
X016926Y008417D02*
X017123Y008417D01*
X017123Y008416D02*
X016929Y008416D01*
X016932Y008415D02*
X017123Y008415D01*
X017123Y008414D02*
X016934Y008414D01*
X016937Y008413D02*
X017123Y008413D01*
X017123Y008412D02*
X016940Y008412D01*
X016944Y008411D02*
X017123Y008411D01*
X017123Y008410D02*
X016947Y008410D01*
X016951Y008409D02*
X017123Y008409D01*
X017123Y008408D02*
X016954Y008408D01*
X016958Y008407D02*
X017123Y008407D01*
X017123Y008406D02*
X016961Y008406D01*
X016965Y008405D02*
X017123Y008405D01*
X017120Y008404D02*
X016967Y008404D01*
X016969Y008403D02*
X017117Y008403D01*
X017114Y008402D02*
X016972Y008402D01*
X016974Y008401D02*
X017111Y008401D01*
X017108Y008400D02*
X016976Y008400D01*
X016979Y008399D02*
X017105Y008399D01*
X017102Y008398D02*
X016981Y008398D01*
X016983Y008397D02*
X017099Y008397D01*
X017097Y008396D02*
X016986Y008396D01*
X016988Y008395D02*
X017094Y008395D01*
X017092Y008394D02*
X016990Y008394D01*
X016993Y008393D02*
X017090Y008393D01*
X017087Y008392D02*
X016996Y008392D01*
X017000Y008391D02*
X017085Y008391D01*
X017083Y008390D02*
X017003Y008390D01*
X017007Y008389D02*
X017080Y008389D01*
X017078Y008388D02*
X017010Y008388D01*
X017014Y008387D02*
X017076Y008387D01*
X017073Y008386D02*
X017017Y008386D01*
X017021Y008385D02*
X017071Y008385D01*
X017069Y008384D02*
X017023Y008384D01*
X017025Y008383D02*
X017067Y008383D01*
X017065Y008382D02*
X017028Y008382D01*
X017030Y008381D02*
X017063Y008381D01*
X017061Y008380D02*
X017032Y008380D01*
X017035Y008379D02*
X017059Y008379D01*
X017057Y008378D02*
X017037Y008378D01*
X017039Y008377D02*
X017055Y008377D01*
X017053Y008376D02*
X017042Y008376D01*
X017044Y008375D02*
X017051Y008375D01*
X017049Y008374D02*
X017046Y008374D01*
X017123Y008428D02*
X016898Y008428D01*
X016896Y008429D02*
X017123Y008429D01*
X017123Y008430D02*
X016893Y008430D01*
X016891Y008431D02*
X017123Y008431D01*
X017123Y008432D02*
X016889Y008432D01*
X016886Y008433D02*
X017123Y008433D01*
X017123Y008434D02*
X016884Y008434D01*
X016882Y008435D02*
X017123Y008435D01*
X017123Y008436D02*
X016879Y008436D01*
X016876Y008437D02*
X017123Y008437D01*
X017123Y008438D02*
X016873Y008438D01*
X016869Y008439D02*
X017123Y008439D01*
X017123Y008440D02*
X016866Y008440D01*
X016862Y008441D02*
X017123Y008441D01*
X017123Y008442D02*
X016859Y008442D01*
X016855Y008443D02*
X017123Y008443D01*
X017123Y008444D02*
X016852Y008444D01*
X016851Y008445D02*
X017123Y008445D01*
X017123Y008446D02*
X016851Y008446D01*
X016851Y008447D02*
X017123Y008447D01*
X017123Y008448D02*
X016851Y008448D01*
X016851Y008449D02*
X017123Y008449D01*
X017123Y008450D02*
X016851Y008450D01*
X016851Y008451D02*
X017123Y008451D01*
X017123Y008452D02*
X016851Y008452D01*
X016851Y008453D02*
X017123Y008453D01*
X017123Y008454D02*
X016851Y008454D01*
X016851Y008455D02*
X017123Y008455D01*
X017123Y008456D02*
X016851Y008456D01*
X016851Y008457D02*
X017123Y008457D01*
X017123Y008458D02*
X016851Y008458D01*
X016851Y008459D02*
X017123Y008459D01*
X017123Y008460D02*
X016851Y008460D01*
X016851Y008461D02*
X017123Y008461D01*
X017123Y008462D02*
X016851Y008462D01*
X016851Y008463D02*
X017123Y008463D01*
X017123Y008464D02*
X016851Y008464D01*
X016851Y008465D02*
X017123Y008465D01*
X017123Y008466D02*
X016851Y008466D01*
X016851Y008467D02*
X017123Y008467D01*
X017123Y008468D02*
X016851Y008468D01*
X016851Y008469D02*
X017123Y008469D01*
X017123Y008470D02*
X016851Y008470D01*
X016851Y008471D02*
X017123Y008471D01*
X017123Y008472D02*
X016851Y008472D01*
X016851Y008473D02*
X017123Y008473D01*
X017123Y008474D02*
X016851Y008474D01*
X016851Y008475D02*
X017123Y008475D01*
X017123Y008476D02*
X016851Y008476D01*
X016851Y008477D02*
X017123Y008477D01*
X017123Y008478D02*
X016851Y008478D01*
X016851Y008479D02*
X017123Y008479D01*
X017123Y008480D02*
X016851Y008480D01*
X016851Y008481D02*
X017123Y008481D01*
X017123Y008482D02*
X016851Y008482D01*
X016851Y008483D02*
X017123Y008483D01*
X017123Y008484D02*
X016851Y008484D01*
X016851Y008485D02*
X017123Y008485D01*
X017123Y008486D02*
X016851Y008486D01*
X016851Y008487D02*
X017123Y008487D01*
X017123Y008488D02*
X016851Y008488D01*
X016851Y008489D02*
X017123Y008489D01*
X017123Y008490D02*
X016851Y008490D01*
X016851Y008491D02*
X017123Y008491D01*
X017123Y008492D02*
X016851Y008492D01*
X016851Y008493D02*
X017123Y008493D01*
X017123Y008494D02*
X016851Y008494D01*
X016851Y008495D02*
X017123Y008495D01*
X017123Y008496D02*
X016851Y008496D01*
X016851Y008497D02*
X017123Y008497D01*
X017123Y008498D02*
X016851Y008498D01*
X016851Y008499D02*
X017123Y008499D01*
X017123Y008500D02*
X016851Y008500D01*
X016851Y008501D02*
X017123Y008501D01*
X017123Y008502D02*
X016851Y008502D01*
X016851Y008503D02*
X017123Y008503D01*
X017123Y008504D02*
X016851Y008504D01*
X016851Y008505D02*
X017123Y008505D01*
X017123Y008506D02*
X016851Y008506D01*
X016851Y008507D02*
X017123Y008507D01*
X017123Y008508D02*
X016851Y008508D01*
X016851Y008509D02*
X017123Y008509D01*
X017123Y008510D02*
X016851Y008510D01*
X016851Y008511D02*
X017123Y008511D01*
X017123Y008512D02*
X016851Y008512D01*
X016851Y008513D02*
X017123Y008513D01*
X017123Y008514D02*
X016851Y008514D01*
X016851Y008515D02*
X017123Y008515D01*
X017123Y008516D02*
X016851Y008516D01*
X016851Y008517D02*
X017123Y008517D01*
X017123Y008518D02*
X016851Y008518D01*
X016851Y008519D02*
X017123Y008519D01*
X017123Y008520D02*
X016851Y008520D01*
X016851Y008521D02*
X017123Y008521D01*
X017123Y008522D02*
X016851Y008522D01*
X016851Y008523D02*
X017123Y008523D01*
X017123Y008524D02*
X016851Y008524D01*
X016851Y008525D02*
X017123Y008525D01*
X017123Y008526D02*
X016851Y008526D01*
X016851Y008527D02*
X017123Y008527D01*
X017123Y008528D02*
X016851Y008528D01*
X016851Y008529D02*
X017123Y008529D01*
X017123Y008530D02*
X016851Y008530D01*
X016851Y008531D02*
X017123Y008531D01*
X017123Y008532D02*
X016851Y008532D01*
X016851Y008533D02*
X017123Y008533D01*
X017123Y008534D02*
X016851Y008534D01*
X016851Y008535D02*
X017123Y008535D01*
X017123Y008536D02*
X016851Y008536D01*
X016851Y008537D02*
X017123Y008537D01*
X017123Y008538D02*
X016851Y008538D01*
X016851Y008539D02*
X017123Y008539D01*
X017123Y008540D02*
X016851Y008540D01*
X016851Y008541D02*
X017123Y008541D01*
X017123Y008542D02*
X016851Y008542D01*
X016851Y008543D02*
X017123Y008543D01*
X017123Y008544D02*
X016851Y008544D01*
X016851Y008545D02*
X017123Y008545D01*
X017123Y008546D02*
X016851Y008546D01*
X016851Y008547D02*
X017123Y008547D01*
X017123Y008548D02*
X016851Y008548D01*
X016851Y008549D02*
X017123Y008549D01*
X017123Y008550D02*
X016851Y008550D01*
X016851Y008551D02*
X017123Y008551D01*
X017123Y008552D02*
X016851Y008552D01*
X016851Y008553D02*
X017123Y008553D01*
X017123Y008554D02*
X016851Y008554D01*
X016851Y008555D02*
X017123Y008555D01*
X017123Y008556D02*
X016851Y008556D01*
X016851Y008557D02*
X017123Y008557D01*
X017123Y008558D02*
X016851Y008558D01*
X016851Y008559D02*
X017123Y008559D01*
X017123Y008560D02*
X016851Y008560D01*
X016851Y008561D02*
X017123Y008561D01*
X017123Y008562D02*
X016851Y008562D01*
X016851Y008563D02*
X017123Y008563D01*
X017123Y008564D02*
X016851Y008564D01*
X016851Y008565D02*
X017123Y008565D01*
X017123Y008566D02*
X016851Y008566D01*
X016851Y008567D02*
X017123Y008567D01*
X017123Y008568D02*
X016851Y008568D01*
X016851Y008569D02*
X017123Y008569D01*
X017123Y008570D02*
X016851Y008570D01*
X016851Y008571D02*
X017123Y008571D01*
X017123Y008572D02*
X016851Y008572D01*
X016851Y008573D02*
X017123Y008573D01*
X017123Y008574D02*
X016851Y008574D01*
X016851Y008575D02*
X017123Y008575D01*
X017123Y008576D02*
X016851Y008576D01*
X016851Y008577D02*
X017123Y008577D01*
X017123Y008578D02*
X016851Y008578D01*
X016851Y008579D02*
X017123Y008579D01*
X017123Y008580D02*
X016851Y008580D01*
X016851Y008581D02*
X017123Y008581D01*
X017123Y008582D02*
X016851Y008582D01*
X016851Y008583D02*
X017123Y008583D01*
X017123Y008584D02*
X016851Y008584D01*
X016851Y008585D02*
X017123Y008585D01*
X017123Y008586D02*
X016851Y008586D01*
X016851Y008587D02*
X017123Y008587D01*
X017123Y008588D02*
X016851Y008588D01*
X016851Y008589D02*
X017123Y008589D01*
X017123Y008590D02*
X016851Y008590D01*
X016851Y008591D02*
X017123Y008591D01*
X017123Y008592D02*
X016851Y008592D01*
X016851Y008593D02*
X017123Y008593D01*
X017123Y008594D02*
X016851Y008594D01*
X016851Y008595D02*
X017123Y008595D01*
X017123Y008596D02*
X016851Y008596D01*
X016851Y008597D02*
X017123Y008597D01*
X017123Y008598D02*
X016851Y008598D01*
X016851Y008599D02*
X017123Y008599D01*
X017123Y008600D02*
X016851Y008600D01*
X016851Y008601D02*
X017123Y008601D01*
X017123Y008602D02*
X016851Y008602D01*
X016851Y008603D02*
X017123Y008603D01*
X017123Y008604D02*
X016851Y008604D01*
X016851Y008605D02*
X017123Y008605D01*
X017123Y008606D02*
X016851Y008606D01*
X016851Y008607D02*
X017123Y008607D01*
X017123Y008608D02*
X016851Y008608D01*
X016851Y008609D02*
X017123Y008609D01*
X017123Y008610D02*
X016851Y008610D01*
X016851Y008611D02*
X017123Y008611D01*
X017123Y008612D02*
X016851Y008612D01*
X016851Y008613D02*
X017123Y008613D01*
X017123Y008614D02*
X016851Y008614D01*
X016851Y008615D02*
X017123Y008615D01*
X017123Y008616D02*
X016851Y008616D01*
X016851Y008617D02*
X017123Y008617D01*
X017123Y008618D02*
X016851Y008618D01*
X016851Y008619D02*
X017123Y008619D01*
X017123Y008620D02*
X016851Y008620D01*
X016851Y008621D02*
X017123Y008621D01*
X017123Y008622D02*
X016851Y008622D01*
X016851Y008623D02*
X017123Y008623D01*
X017123Y008624D02*
X016851Y008624D01*
X016851Y008625D02*
X017123Y008625D01*
X017123Y008626D02*
X016851Y008626D01*
X016851Y008627D02*
X017123Y008627D01*
X017123Y008628D02*
X016851Y008628D01*
X016851Y008629D02*
X017123Y008629D01*
X017123Y008630D02*
X016851Y008630D01*
X016851Y008631D02*
X017123Y008631D01*
X017123Y008632D02*
X016851Y008632D01*
X016851Y008633D02*
X017123Y008633D01*
X017123Y008634D02*
X016851Y008634D01*
X016851Y008635D02*
X017123Y008635D01*
X017123Y008636D02*
X016851Y008636D01*
X016851Y008637D02*
X017123Y008637D01*
X017123Y008638D02*
X016851Y008638D01*
X016851Y008639D02*
X017123Y008639D01*
X017123Y008640D02*
X016851Y008640D01*
X016851Y008641D02*
X017123Y008641D01*
X017123Y008642D02*
X016851Y008642D01*
X016851Y008643D02*
X017123Y008643D01*
X017123Y008644D02*
X016851Y008644D01*
X016851Y008645D02*
X017123Y008645D01*
X017123Y008646D02*
X016851Y008646D01*
X016851Y008647D02*
X017123Y008647D01*
X017123Y008648D02*
X016851Y008648D01*
X016851Y008649D02*
X017123Y008649D01*
X017123Y008650D02*
X016851Y008650D01*
X016851Y008651D02*
X017123Y008651D01*
X017123Y008652D02*
X016851Y008652D01*
X016851Y008653D02*
X017123Y008653D01*
X017123Y008654D02*
X016851Y008654D01*
X016851Y008655D02*
X017123Y008655D01*
X017123Y008656D02*
X016851Y008656D01*
X016851Y008657D02*
X017123Y008657D01*
X017123Y008658D02*
X016851Y008658D01*
X016851Y008659D02*
X017123Y008659D01*
X017123Y008660D02*
X016851Y008660D01*
X016851Y008661D02*
X017123Y008661D01*
X017123Y008662D02*
X016851Y008662D01*
X016851Y008663D02*
X017123Y008663D01*
X017123Y008664D02*
X016851Y008664D01*
X016851Y008665D02*
X017123Y008665D01*
X017123Y008666D02*
X016851Y008666D01*
X016851Y008667D02*
X017123Y008667D01*
X017123Y008668D02*
X016851Y008668D01*
X016851Y008669D02*
X017123Y008669D01*
X017123Y008670D02*
X016851Y008670D01*
X016851Y008671D02*
X017123Y008671D01*
X017123Y008672D02*
X016851Y008672D01*
X016851Y008673D02*
X017123Y008673D01*
X017123Y008674D02*
X016851Y008674D01*
X016851Y008675D02*
X017123Y008675D01*
X017123Y008676D02*
X016851Y008676D01*
X016851Y008677D02*
X017123Y008677D01*
X017123Y008678D02*
X016851Y008678D01*
X016851Y008679D02*
X017123Y008679D01*
X017123Y008680D02*
X016851Y008680D01*
X016851Y008681D02*
X017123Y008681D01*
X017123Y008682D02*
X016851Y008682D01*
X016851Y008683D02*
X017123Y008683D01*
X017123Y008684D02*
X016851Y008684D01*
X016851Y008685D02*
X017123Y008685D01*
X017123Y008686D02*
X016851Y008686D01*
X016851Y008687D02*
X017123Y008687D01*
X017123Y008688D02*
X016851Y008688D01*
X016851Y008689D02*
X017123Y008689D01*
X017123Y008690D02*
X016851Y008690D01*
X016851Y008691D02*
X017123Y008691D01*
X017123Y008692D02*
X016851Y008692D01*
X016851Y008693D02*
X017123Y008693D01*
X017123Y008694D02*
X016851Y008694D01*
X016851Y008695D02*
X017123Y008695D01*
X017123Y008696D02*
X016851Y008696D01*
X016851Y008697D02*
X017123Y008697D01*
X017123Y008698D02*
X016851Y008698D01*
X016851Y008699D02*
X017123Y008699D01*
X017123Y008700D02*
X016851Y008700D01*
X016851Y008701D02*
X017123Y008701D01*
X017123Y008702D02*
X016851Y008702D01*
X016851Y008703D02*
X017123Y008703D01*
X017123Y008704D02*
X016851Y008704D01*
X016851Y008705D02*
X017123Y008705D01*
X017123Y008706D02*
X016851Y008706D01*
X016851Y008707D02*
X017123Y008707D01*
X017123Y008708D02*
X016851Y008708D01*
X016851Y008709D02*
X017123Y008709D01*
X017123Y008710D02*
X016851Y008710D01*
X016851Y008711D02*
X017123Y008711D01*
X017123Y008712D02*
X016851Y008712D01*
X016851Y008713D02*
X017123Y008713D01*
X017123Y008714D02*
X016851Y008714D01*
X016851Y008715D02*
X017123Y008715D01*
X017123Y008716D02*
X016851Y008716D01*
X016851Y008717D02*
X017123Y008717D01*
X017123Y008718D02*
X016851Y008718D01*
X016851Y008719D02*
X017123Y008719D01*
X017123Y008720D02*
X016851Y008720D01*
X016851Y008721D02*
X017123Y008721D01*
X017123Y008722D02*
X016851Y008722D01*
X016851Y008723D02*
X017123Y008723D01*
X017123Y008724D02*
X016851Y008724D01*
X016851Y008725D02*
X017123Y008725D01*
X017123Y008726D02*
X016851Y008726D01*
X016851Y008727D02*
X017123Y008727D01*
X017123Y008728D02*
X016851Y008728D01*
X016855Y008729D02*
X017123Y008729D01*
X017123Y008730D02*
X016858Y008730D01*
X016862Y008731D02*
X017123Y008731D01*
X017123Y008732D02*
X016865Y008732D01*
X016869Y008733D02*
X017123Y008733D01*
X017123Y008734D02*
X016872Y008734D01*
X016875Y008735D02*
X017123Y008735D01*
X017123Y008736D02*
X016879Y008736D01*
X016881Y008737D02*
X017123Y008737D01*
X017123Y008738D02*
X016884Y008738D01*
X016886Y008739D02*
X017123Y008739D01*
X017123Y008740D02*
X016888Y008740D01*
X016890Y008741D02*
X017123Y008741D01*
X017123Y008742D02*
X016893Y008742D01*
X016895Y008743D02*
X017123Y008743D01*
X017123Y008744D02*
X016897Y008744D01*
X016900Y008745D02*
X017123Y008745D01*
X017123Y008746D02*
X016902Y008746D01*
X016904Y008747D02*
X017123Y008747D01*
X017123Y008748D02*
X016907Y008748D01*
X016911Y008749D02*
X017123Y008749D01*
X017123Y008750D02*
X016915Y008750D01*
X016919Y008751D02*
X017123Y008751D01*
X017123Y008752D02*
X016923Y008752D01*
X016927Y008753D02*
X017123Y008753D01*
X017123Y008754D02*
X016931Y008754D01*
X016935Y008755D02*
X017123Y008755D01*
X017123Y008756D02*
X016939Y008756D01*
X016941Y008757D02*
X017123Y008757D01*
X017123Y008758D02*
X016943Y008758D01*
X016946Y008759D02*
X017123Y008759D01*
X017123Y008760D02*
X016948Y008760D01*
X016950Y008761D02*
X017123Y008761D01*
X017123Y008762D02*
X016953Y008762D01*
X016955Y008763D02*
X017123Y008763D01*
X017122Y008764D02*
X016957Y008764D01*
X016960Y008765D02*
X017120Y008765D01*
X017118Y008766D02*
X016962Y008766D01*
X016964Y008767D02*
X017116Y008767D01*
X017114Y008768D02*
X016967Y008768D01*
X016969Y008769D02*
X017112Y008769D01*
X017110Y008770D02*
X016971Y008770D01*
X016974Y008771D02*
X017108Y008771D01*
X017106Y008772D02*
X016976Y008772D01*
X016978Y008773D02*
X017104Y008773D01*
X017102Y008774D02*
X016981Y008774D01*
X016983Y008775D02*
X017100Y008775D01*
X017097Y008776D02*
X016985Y008776D01*
X016988Y008777D02*
X017095Y008777D01*
X017093Y008778D02*
X016990Y008778D01*
X016992Y008779D02*
X017090Y008779D01*
X017088Y008780D02*
X016995Y008780D01*
X016999Y008781D02*
X017086Y008781D01*
X017083Y008782D02*
X017002Y008782D01*
X017006Y008783D02*
X017081Y008783D01*
X017079Y008784D02*
X017009Y008784D01*
X017013Y008785D02*
X017076Y008785D01*
X017074Y008786D02*
X017016Y008786D01*
X017020Y008787D02*
X017072Y008787D01*
X017070Y008788D02*
X017022Y008788D01*
X017025Y008789D02*
X017068Y008789D01*
X017066Y008790D02*
X017027Y008790D01*
X017029Y008791D02*
X017064Y008791D01*
X017062Y008792D02*
X017032Y008792D01*
X017034Y008793D02*
X017060Y008793D01*
X017058Y008794D02*
X017036Y008794D01*
X017039Y008795D02*
X017056Y008795D01*
X017054Y008796D02*
X017041Y008796D01*
X017043Y008797D02*
X017052Y008797D01*
X017050Y008798D02*
X017046Y008798D01*
D27*
X016998Y008930D02*
X016995Y008929D01*
X016991Y008931D01*
X016957Y008916D01*
X016949Y008913D01*
X016948Y008912D01*
X016946Y008911D01*
X016898Y008898D01*
X016898Y008896D01*
X016861Y008881D01*
X016816Y008869D01*
X016815Y008868D01*
X016793Y008868D01*
X016778Y008853D01*
X016757Y008847D01*
X016738Y008813D01*
X016711Y008786D01*
X016711Y008764D01*
X016700Y008745D01*
X016711Y008708D01*
X016711Y008675D01*
X015945Y009441D01*
X015945Y009954D01*
X016155Y009744D01*
X016760Y009744D01*
X017188Y010172D01*
X017188Y010778D01*
X016760Y011206D01*
X016155Y011206D01*
X015945Y010996D01*
X015945Y011009D01*
X017570Y012634D01*
X017570Y012760D01*
X017733Y012760D01*
X017815Y012842D01*
X017815Y013608D01*
X017733Y013690D01*
X016967Y013690D01*
X016885Y013608D01*
X016885Y012842D01*
X016967Y012760D01*
X017074Y012760D01*
X015634Y011320D01*
X015505Y011191D01*
X015505Y009259D01*
X019028Y005736D01*
X019010Y005692D01*
X019010Y005508D01*
X019081Y005337D01*
X019212Y005206D01*
X019383Y005135D01*
X019567Y005135D01*
X019738Y005206D01*
X019869Y005337D01*
X019940Y005508D01*
X019940Y005692D01*
X019869Y005863D01*
X019738Y005994D01*
X019567Y006065D01*
X019383Y006065D01*
X019339Y006047D01*
X017130Y008256D01*
X017154Y008265D01*
X017181Y008265D01*
X017198Y008283D01*
X017222Y008291D01*
X017238Y008322D01*
X017263Y008347D01*
X017263Y008372D01*
X017274Y008394D01*
X017263Y008428D01*
X017263Y008730D01*
X017274Y008753D01*
X017263Y008786D01*
X017263Y008821D01*
X017245Y008839D01*
X017237Y008863D01*
X017209Y008877D01*
X017207Y008881D01*
X017200Y008884D01*
X017181Y008903D01*
X017156Y008903D01*
X017155Y008904D01*
X017154Y008907D01*
X017125Y008919D01*
X017110Y008926D01*
X017108Y008926D01*
X017105Y008927D01*
X017059Y008950D01*
X017052Y008948D01*
X017046Y008950D01*
X016998Y008930D01*
X017022Y008940D02*
X016446Y008940D01*
X016288Y009099D02*
X021324Y009099D01*
X021294Y009111D02*
X021493Y009029D01*
X021707Y009029D01*
X021906Y009111D01*
X022058Y009263D01*
X022140Y009461D01*
X022140Y009676D01*
X022058Y009874D01*
X021906Y010026D01*
X021707Y010109D01*
X021493Y010109D01*
X021294Y010026D01*
X021142Y009874D01*
X021060Y009676D01*
X021060Y009461D01*
X021142Y009263D01*
X021294Y009111D01*
X021148Y009257D02*
X016129Y009257D01*
X015971Y009416D02*
X021079Y009416D01*
X021060Y009574D02*
X015945Y009574D01*
X015945Y009733D02*
X021083Y009733D01*
X021159Y009891D02*
X016906Y009891D01*
X017065Y010050D02*
X021350Y010050D01*
X021850Y010050D02*
X023415Y010050D01*
X023415Y010208D02*
X017188Y010208D01*
X017188Y010367D02*
X023415Y010367D01*
X023415Y010525D02*
X017188Y010525D01*
X017188Y010684D02*
X023415Y010684D01*
X023415Y010842D02*
X017123Y010842D01*
X016965Y011001D02*
X023415Y011001D01*
X023415Y011159D02*
X018554Y011159D01*
X018583Y011180D02*
X018513Y011130D01*
X018436Y011090D01*
X018354Y011064D01*
X018268Y011050D01*
X018263Y011050D01*
X018263Y011562D01*
X018263Y011638D01*
X018187Y011638D01*
X018187Y011562D01*
X017675Y011562D01*
X017675Y011557D01*
X017689Y011471D01*
X017715Y011389D01*
X017755Y011312D01*
X017805Y011242D01*
X017867Y011180D01*
X017937Y011130D01*
X018014Y011090D01*
X018096Y011064D01*
X018182Y011050D01*
X018187Y011050D01*
X018187Y011562D01*
X018263Y011562D01*
X018775Y011562D01*
X018775Y011557D01*
X018761Y011471D01*
X018735Y011389D01*
X018695Y011312D01*
X018645Y011242D01*
X018583Y011180D01*
X018698Y011318D02*
X023415Y011318D01*
X023415Y011476D02*
X018762Y011476D01*
X018775Y011638D02*
X018775Y011643D01*
X018761Y011729D01*
X018735Y011811D01*
X018695Y011888D01*
X018645Y011958D01*
X018583Y012020D01*
X018513Y012070D01*
X018436Y012110D01*
X018354Y012136D01*
X018268Y012150D01*
X018263Y012150D01*
X018263Y011638D01*
X018775Y011638D01*
X018741Y011793D02*
X023415Y011793D01*
X023415Y011635D02*
X018263Y011635D01*
X018225Y011600D02*
X018225Y013100D01*
X018350Y013225D01*
X018225Y013350D01*
X018225Y013600D01*
X017725Y014100D01*
X017225Y014100D01*
X016356Y013231D01*
X015709Y013231D01*
X015728Y013220D02*
X016885Y013220D01*
X016885Y013378D02*
X016259Y013378D01*
X016259Y013249D02*
X016259Y013590D01*
X016326Y013590D01*
X016514Y013668D01*
X016657Y013811D01*
X016735Y013999D01*
X016735Y014201D01*
X016657Y014389D01*
X016630Y014416D01*
X023005Y014416D01*
X023085Y014408D01*
X023233Y014347D01*
X023346Y014234D01*
X023407Y014086D01*
X023415Y014006D01*
X023415Y003191D01*
X023407Y003110D01*
X023346Y002962D01*
X023233Y002849D01*
X023085Y002788D01*
X023005Y002780D01*
X016001Y002780D01*
X016032Y002811D01*
X016110Y002999D01*
X016110Y003201D01*
X016032Y003389D01*
X015926Y003495D01*
X016299Y003495D01*
X016580Y003776D01*
X016580Y004174D01*
X016299Y004455D01*
X015901Y004455D01*
X015620Y004174D01*
X015620Y003776D01*
X015846Y003550D01*
X015701Y003610D01*
X015499Y003610D01*
X015354Y003550D01*
X015580Y003776D01*
X015580Y004174D01*
X015299Y004455D01*
X014901Y004455D01*
X014620Y004174D01*
X014620Y003776D01*
X014901Y003495D01*
X015274Y003495D01*
X015168Y003389D01*
X015090Y003201D01*
X015090Y002999D01*
X015168Y002811D01*
X015199Y002780D01*
X013001Y002780D01*
X013032Y002811D01*
X013110Y002999D01*
X013110Y003201D01*
X013032Y003389D01*
X012926Y003495D01*
X013299Y003495D01*
X013580Y003776D01*
X013580Y004174D01*
X013299Y004455D01*
X012901Y004455D01*
X012820Y004374D01*
X012820Y005376D01*
X012393Y005804D01*
X012393Y006163D01*
X012311Y006245D01*
X011722Y006245D01*
X011640Y006163D01*
X011640Y005574D01*
X011722Y005492D01*
X012081Y005492D01*
X012116Y005458D01*
X011722Y005458D01*
X011640Y005376D01*
X011640Y004787D01*
X011722Y004705D01*
X011796Y004705D01*
X011796Y004433D01*
X011685Y004387D01*
X011542Y004243D01*
X011475Y004081D01*
X011407Y004243D01*
X011264Y004387D01*
X011076Y004464D01*
X010874Y004464D01*
X010686Y004387D01*
X010543Y004243D01*
X010535Y004226D01*
X007467Y007294D01*
X007523Y007351D01*
X007590Y007512D01*
X007590Y007688D01*
X007523Y007849D01*
X007399Y007973D01*
X007238Y008040D01*
X006462Y008040D01*
X006301Y007973D01*
X006177Y007849D01*
X006110Y007688D01*
X006110Y007512D01*
X006177Y007351D01*
X006301Y007227D01*
X006462Y007160D01*
X006979Y007160D01*
X010405Y003734D01*
X010514Y003734D01*
X010543Y003665D01*
X010686Y003522D01*
X010874Y003444D01*
X011076Y003444D01*
X011264Y003522D01*
X011407Y003665D01*
X011475Y003828D01*
X011542Y003665D01*
X011685Y003522D01*
X011873Y003444D01*
X012075Y003444D01*
X012263Y003522D01*
X012380Y003639D01*
X012380Y003561D01*
X012311Y003532D01*
X012168Y003389D01*
X012090Y003201D01*
X012090Y002999D01*
X012168Y002811D01*
X012199Y002780D01*
X005810Y002780D01*
X005823Y002788D01*
X006012Y002977D01*
X006146Y003208D01*
X006215Y003466D01*
X006215Y003734D01*
X006146Y003992D01*
X006012Y004223D01*
X005823Y004412D01*
X005592Y004546D01*
X005334Y004615D01*
X005066Y004615D01*
X004808Y004546D01*
X004577Y004412D01*
X004405Y004240D01*
X004405Y012960D01*
X004577Y012788D01*
X004808Y012654D01*
X005066Y012585D01*
X005334Y012585D01*
X005592Y012654D01*
X005823Y012788D01*
X006012Y012977D01*
X006146Y013208D01*
X006215Y013466D01*
X006215Y013734D01*
X006146Y013992D01*
X006012Y014223D01*
X005823Y014412D01*
X005817Y014416D01*
X012820Y014416D01*
X012793Y014389D01*
X012715Y014201D01*
X012715Y013999D01*
X012793Y013811D01*
X012936Y013668D01*
X013124Y013590D01*
X013231Y013590D01*
X013231Y012803D01*
X013313Y012721D01*
X014169Y012721D01*
X014233Y012785D01*
X014297Y012721D01*
X014505Y012721D01*
X014505Y007691D01*
X014269Y007455D01*
X013901Y007455D01*
X013620Y007174D01*
X013620Y006776D01*
X013901Y006495D01*
X014299Y006495D01*
X014580Y006776D01*
X014580Y007144D01*
X014945Y007509D01*
X014945Y012721D01*
X015153Y012721D01*
X015191Y012758D01*
X015195Y012750D01*
X015229Y012717D01*
X015270Y012693D01*
X015316Y012681D01*
X015691Y012681D01*
X015691Y013212D01*
X015728Y013212D01*
X015728Y013249D01*
X016259Y013249D01*
X016259Y013212D02*
X015728Y013212D01*
X015728Y012681D01*
X016103Y012681D01*
X016149Y012693D01*
X016190Y012717D01*
X016223Y012750D01*
X016247Y012791D01*
X016259Y012837D01*
X016259Y013212D01*
X016259Y013061D02*
X016885Y013061D01*
X016885Y012903D02*
X016259Y012903D01*
X016217Y012744D02*
X017058Y012744D01*
X016899Y012586D02*
X014945Y012586D01*
X014945Y012427D02*
X016741Y012427D01*
X016582Y012269D02*
X014945Y012269D01*
X014945Y012110D02*
X016424Y012110D01*
X016265Y011952D02*
X014945Y011952D01*
X014945Y011793D02*
X016107Y011793D01*
X015948Y011635D02*
X014945Y011635D01*
X014945Y011476D02*
X015790Y011476D01*
X015631Y011318D02*
X014945Y011318D01*
X014945Y011159D02*
X015505Y011159D01*
X015505Y011001D02*
X014945Y011001D01*
X014945Y010842D02*
X015505Y010842D01*
X015505Y010684D02*
X014945Y010684D01*
X014945Y010525D02*
X015505Y010525D01*
X015505Y010367D02*
X014945Y010367D01*
X014945Y010208D02*
X015505Y010208D01*
X015505Y010050D02*
X014945Y010050D01*
X014945Y009891D02*
X015505Y009891D01*
X015505Y009733D02*
X014945Y009733D01*
X014945Y009574D02*
X015505Y009574D01*
X015505Y009416D02*
X014945Y009416D01*
X014945Y009257D02*
X015507Y009257D01*
X015665Y009099D02*
X014945Y009099D01*
X014945Y008940D02*
X015824Y008940D01*
X015982Y008782D02*
X014945Y008782D01*
X014945Y008623D02*
X016141Y008623D01*
X016299Y008465D02*
X014945Y008465D01*
X014945Y008306D02*
X016458Y008306D01*
X016616Y008148D02*
X014945Y008148D01*
X014945Y007989D02*
X016775Y007989D01*
X016933Y007831D02*
X014945Y007831D01*
X014945Y007672D02*
X017092Y007672D01*
X017250Y007514D02*
X014945Y007514D01*
X014901Y007455D02*
X014620Y007174D01*
X014620Y006776D01*
X014901Y006495D01*
X015299Y006495D01*
X015580Y006776D01*
X015580Y007174D01*
X015299Y007455D01*
X014901Y007455D01*
X014801Y007355D02*
X014791Y007355D01*
X014643Y007197D02*
X014633Y007197D01*
X014620Y007038D02*
X014580Y007038D01*
X014580Y006880D02*
X014620Y006880D01*
X014675Y006721D02*
X014525Y006721D01*
X014366Y006563D02*
X014834Y006563D01*
X015366Y006563D02*
X015834Y006563D01*
X015901Y006495D02*
X015620Y006776D01*
X015620Y007174D01*
X015901Y007455D01*
X016299Y007455D01*
X016580Y007174D01*
X016580Y006776D01*
X016299Y006495D01*
X015901Y006495D01*
X015675Y006721D02*
X015525Y006721D01*
X015580Y006880D02*
X015620Y006880D01*
X015620Y007038D02*
X015580Y007038D01*
X015557Y007197D02*
X015643Y007197D01*
X015801Y007355D02*
X015399Y007355D01*
X014725Y007600D02*
X014100Y006975D01*
X013675Y006721D02*
X013581Y006721D01*
X013620Y006760D02*
X013620Y006975D01*
X013620Y007190D01*
X013315Y007495D01*
X013100Y007495D01*
X013100Y006975D01*
X015225Y004850D01*
X019725Y004850D01*
X020475Y004850D01*
X020475Y005600D01*
X020980Y005600D01*
X020980Y005640D01*
X020968Y005718D01*
X020943Y005794D01*
X020907Y005865D01*
X020860Y005929D01*
X020804Y005985D01*
X020740Y006032D01*
X020669Y006068D01*
X020593Y006093D01*
X020515Y006105D01*
X020475Y006105D01*
X020475Y005600D01*
X020475Y005600D01*
X020475Y005600D01*
X020980Y005600D01*
X020980Y005560D01*
X020968Y005482D01*
X020943Y005406D01*
X020907Y005335D01*
X020860Y005271D01*
X020804Y005215D01*
X020740Y005168D01*
X020669Y005132D01*
X020593Y005107D01*
X020515Y005095D01*
X020475Y005095D01*
X020475Y005600D01*
X020475Y005600D01*
X020475Y005600D01*
X019970Y005600D01*
X019970Y005640D01*
X019982Y005718D01*
X020007Y005794D01*
X020043Y005865D01*
X020090Y005929D01*
X020146Y005985D01*
X020210Y006032D01*
X020281Y006068D01*
X020357Y006093D01*
X020435Y006105D01*
X020475Y006105D01*
X020475Y005600D01*
X020475Y005095D01*
X020435Y005095D01*
X020357Y005107D01*
X020281Y005132D01*
X020210Y005168D01*
X020146Y005215D01*
X020090Y005271D01*
X020043Y005335D01*
X020007Y005406D01*
X019982Y005482D01*
X019970Y005560D01*
X019970Y005600D01*
X020475Y005600D01*
X020475Y005612D02*
X020475Y005612D01*
X020475Y005770D02*
X020475Y005770D01*
X020475Y005929D02*
X020475Y005929D01*
X020475Y006087D02*
X020475Y006087D01*
X020340Y006087D02*
X019299Y006087D01*
X019141Y006246D02*
X023415Y006246D01*
X023415Y006404D02*
X018982Y006404D01*
X018824Y006563D02*
X023415Y006563D01*
X023415Y006721D02*
X018665Y006721D01*
X018507Y006880D02*
X023415Y006880D01*
X023415Y007038D02*
X022079Y007038D01*
X022069Y007032D02*
X022111Y007056D01*
X022144Y007089D01*
X022168Y007131D01*
X022180Y007176D01*
X022180Y007552D01*
X021648Y007552D01*
X021648Y007648D01*
X021552Y007648D01*
X021552Y008180D01*
X021176Y008180D01*
X021131Y008168D01*
X021089Y008144D01*
X021056Y008111D01*
X021032Y008069D01*
X021020Y008024D01*
X021020Y007648D01*
X021552Y007648D01*
X021552Y007552D01*
X021648Y007552D01*
X021648Y007020D01*
X022024Y007020D01*
X022069Y007032D01*
X022180Y007197D02*
X023415Y007197D01*
X023415Y007355D02*
X022180Y007355D01*
X022180Y007514D02*
X023415Y007514D01*
X023415Y007672D02*
X022180Y007672D01*
X022180Y007648D02*
X022180Y008024D01*
X022168Y008069D01*
X022144Y008111D01*
X022111Y008144D01*
X022069Y008168D01*
X022024Y008180D01*
X021648Y008180D01*
X021648Y007648D01*
X022180Y007648D01*
X022180Y007831D02*
X023415Y007831D01*
X023415Y007989D02*
X022180Y007989D01*
X022105Y008148D02*
X023415Y008148D01*
X023415Y008306D02*
X017230Y008306D01*
X017239Y008148D02*
X021095Y008148D01*
X021020Y007989D02*
X017397Y007989D01*
X017556Y007831D02*
X021020Y007831D01*
X021020Y007672D02*
X017714Y007672D01*
X017873Y007514D02*
X021020Y007514D01*
X021020Y007552D02*
X021020Y007176D01*
X021032Y007131D01*
X021056Y007089D01*
X021089Y007056D01*
X021131Y007032D01*
X021176Y007020D01*
X021552Y007020D01*
X021552Y007552D01*
X021020Y007552D01*
X021020Y007355D02*
X018031Y007355D01*
X018190Y007197D02*
X021020Y007197D01*
X021121Y007038D02*
X018348Y007038D01*
X018043Y006721D02*
X016525Y006721D01*
X016580Y006880D02*
X017884Y006880D01*
X017726Y007038D02*
X016580Y007038D01*
X016557Y007197D02*
X017567Y007197D01*
X017409Y007355D02*
X016399Y007355D01*
X016366Y006563D02*
X018201Y006563D01*
X018360Y006404D02*
X008357Y006404D01*
X008199Y006563D02*
X010646Y006563D01*
X010686Y006522D02*
X010543Y006665D01*
X010465Y006853D01*
X010465Y007056D01*
X010543Y007243D01*
X010686Y007387D01*
X010874Y007464D01*
X011076Y007464D01*
X011264Y007387D01*
X011407Y007243D01*
X011453Y007132D01*
X011464Y007165D01*
X011504Y007243D01*
X011554Y007313D01*
X011616Y007374D01*
X011686Y007425D01*
X011763Y007464D01*
X011845Y007491D01*
X011931Y007504D01*
X011965Y007504D01*
X011965Y006963D01*
X011983Y006963D01*
X012524Y006963D01*
X012524Y006998D01*
X012510Y007083D01*
X012484Y007165D01*
X012444Y007243D01*
X012394Y007313D01*
X012332Y007374D01*
X012262Y007425D01*
X012185Y007464D01*
X012103Y007491D01*
X012017Y007504D01*
X011983Y007504D01*
X011983Y006963D01*
X011983Y006946D01*
X012524Y006946D01*
X012524Y006911D01*
X012510Y006826D01*
X012484Y006743D01*
X012444Y006666D01*
X012394Y006596D01*
X012332Y006535D01*
X012262Y006484D01*
X012185Y006445D01*
X012103Y006418D01*
X012017Y006404D01*
X011983Y006404D01*
X011983Y006946D01*
X011965Y006946D01*
X011965Y006404D01*
X011931Y006404D01*
X011845Y006418D01*
X011763Y006445D01*
X011686Y006484D01*
X011616Y006535D01*
X011554Y006596D01*
X011504Y006666D01*
X011464Y006743D01*
X011453Y006777D01*
X011407Y006665D01*
X011264Y006522D01*
X011076Y006444D01*
X010874Y006444D01*
X010686Y006522D01*
X010520Y006721D02*
X008040Y006721D01*
X007882Y006880D02*
X010465Y006880D01*
X010465Y007038D02*
X007723Y007038D01*
X007565Y007197D02*
X010523Y007197D01*
X010654Y007355D02*
X007525Y007355D01*
X007590Y007514D02*
X014327Y007514D01*
X014486Y007672D02*
X012143Y007672D01*
X012139Y007668D02*
X012282Y007811D01*
X012360Y007999D01*
X012360Y008201D01*
X012282Y008389D01*
X012139Y008532D01*
X011951Y008610D01*
X011749Y008610D01*
X011561Y008532D01*
X011418Y008389D01*
X011340Y008201D01*
X011340Y007999D01*
X011418Y007811D01*
X011561Y007668D01*
X011749Y007590D01*
X011951Y007590D01*
X012139Y007668D01*
X012290Y007831D02*
X014505Y007831D01*
X014505Y007989D02*
X012356Y007989D01*
X012360Y008148D02*
X014505Y008148D01*
X014505Y008306D02*
X012317Y008306D01*
X012207Y008465D02*
X014505Y008465D01*
X014505Y008623D02*
X007590Y008623D01*
X007590Y008688D02*
X007523Y008849D01*
X007399Y008973D01*
X007238Y009040D01*
X006462Y009040D01*
X006301Y008973D01*
X006177Y008849D01*
X006110Y008688D01*
X006110Y008512D01*
X006177Y008351D01*
X006301Y008227D01*
X006462Y008160D01*
X007238Y008160D01*
X007399Y008227D01*
X007523Y008351D01*
X007590Y008512D01*
X007590Y008688D01*
X007551Y008782D02*
X014505Y008782D01*
X014505Y008940D02*
X007432Y008940D01*
X007399Y009227D02*
X007523Y009351D01*
X007590Y009512D01*
X007590Y009688D01*
X007523Y009849D01*
X007399Y009973D01*
X007238Y010040D01*
X006462Y010040D01*
X006301Y009973D01*
X006177Y009849D01*
X006110Y009688D01*
X006110Y009512D01*
X006177Y009351D01*
X006301Y009227D01*
X006462Y009160D01*
X007238Y009160D01*
X007399Y009227D01*
X007429Y009257D02*
X014505Y009257D01*
X014505Y009099D02*
X004405Y009099D01*
X004405Y009257D02*
X006271Y009257D01*
X006150Y009416D02*
X004405Y009416D01*
X004405Y009574D02*
X006110Y009574D01*
X006129Y009733D02*
X004405Y009733D01*
X004405Y009891D02*
X006219Y009891D01*
X007481Y009891D02*
X010388Y009891D01*
X010385Y009898D02*
X010456Y009727D01*
X010587Y009597D01*
X010758Y009526D01*
X010942Y009526D01*
X011113Y009597D01*
X011244Y009727D01*
X011315Y009898D01*
X011315Y010083D01*
X011244Y010254D01*
X011113Y010385D01*
X010942Y010456D01*
X010758Y010456D01*
X010587Y010385D01*
X010456Y010254D01*
X010385Y010083D01*
X010385Y009898D01*
X010385Y010050D02*
X004405Y010050D01*
X004405Y010208D02*
X010437Y010208D01*
X010568Y010367D02*
X004405Y010367D01*
X004405Y010525D02*
X012262Y010525D01*
X012262Y010367D02*
X011132Y010367D01*
X011263Y010208D02*
X012262Y010208D01*
X012262Y010172D02*
X012690Y009744D01*
X013295Y009744D01*
X013723Y010172D01*
X013723Y010778D01*
X013295Y011206D01*
X012690Y011206D01*
X012262Y010778D01*
X012262Y010172D01*
X012385Y010050D02*
X011315Y010050D01*
X011312Y009891D02*
X012544Y009891D01*
X012139Y010668D02*
X011951Y010590D01*
X011749Y010590D01*
X011561Y010668D01*
X011418Y010811D01*
X011340Y010999D01*
X011340Y011201D01*
X011418Y011389D01*
X011561Y011532D01*
X011749Y011610D01*
X011951Y011610D01*
X012139Y011532D01*
X012282Y011389D01*
X012360Y011201D01*
X012360Y010999D01*
X012282Y010811D01*
X012139Y010668D01*
X012155Y010684D02*
X012262Y010684D01*
X012295Y010842D02*
X012327Y010842D01*
X012360Y011001D02*
X012485Y011001D01*
X012360Y011159D02*
X012644Y011159D01*
X012312Y011318D02*
X014505Y011318D01*
X014505Y011476D02*
X012195Y011476D01*
X011505Y011476D02*
X010997Y011476D01*
X010968Y011467D02*
X011044Y011491D01*
X011115Y011527D01*
X011179Y011574D01*
X011235Y011630D01*
X011282Y011695D01*
X011318Y011765D01*
X011343Y011841D01*
X011355Y011920D01*
X011355Y011959D01*
X010850Y011959D01*
X010850Y011454D01*
X010890Y011454D01*
X010968Y011467D01*
X010850Y011476D02*
X010850Y011476D01*
X010850Y011454D02*
X010850Y011959D01*
X010850Y011959D01*
X010345Y011959D01*
X010345Y011920D01*
X010357Y011841D01*
X010382Y011765D01*
X010418Y011695D01*
X010465Y011630D01*
X010521Y011574D01*
X010585Y011527D01*
X010656Y011491D01*
X010732Y011467D01*
X010810Y011454D01*
X010850Y011454D01*
X010703Y011476D02*
X004405Y011476D01*
X004405Y011318D02*
X011388Y011318D01*
X011340Y011159D02*
X004405Y011159D01*
X004405Y011001D02*
X011340Y011001D01*
X011405Y010842D02*
X004405Y010842D01*
X004405Y010684D02*
X011545Y010684D01*
X011238Y011635D02*
X014505Y011635D01*
X014505Y011793D02*
X011327Y011793D01*
X011355Y011952D02*
X014505Y011952D01*
X014505Y012110D02*
X012176Y012110D01*
X012141Y012075D02*
X012375Y012309D01*
X012375Y012641D01*
X012141Y012875D01*
X011809Y012875D01*
X011575Y012641D01*
X011575Y012309D01*
X011809Y012075D01*
X012141Y012075D01*
X012334Y012269D02*
X014505Y012269D01*
X014505Y012427D02*
X012375Y012427D01*
X012375Y012586D02*
X014505Y012586D01*
X014274Y012744D02*
X014192Y012744D01*
X014725Y013231D02*
X014725Y007600D01*
X013801Y007355D02*
X013455Y007355D01*
X013614Y007197D02*
X013643Y007197D01*
X013620Y007038D02*
X013620Y007038D01*
X013620Y006975D02*
X013100Y006975D01*
X013100Y006975D01*
X013100Y006975D01*
X013620Y006975D01*
X013620Y006880D02*
X013620Y006880D01*
X013620Y006760D02*
X013315Y006455D01*
X013100Y006455D01*
X013100Y006975D01*
X013100Y006975D01*
X013100Y006975D01*
X012580Y006975D01*
X012580Y007190D01*
X012885Y007495D01*
X013100Y007495D01*
X013100Y006975D01*
X013100Y006455D01*
X012885Y006455D01*
X012580Y006760D01*
X012580Y006975D01*
X013100Y006975D01*
X013100Y007038D02*
X013100Y007038D01*
X013100Y006880D02*
X013100Y006880D01*
X013100Y006721D02*
X013100Y006721D01*
X013100Y006563D02*
X013100Y006563D01*
X012777Y006563D02*
X012360Y006563D01*
X012472Y006721D02*
X012619Y006721D01*
X012580Y006880D02*
X012519Y006880D01*
X012518Y007038D02*
X012580Y007038D01*
X012586Y007197D02*
X012468Y007197D01*
X012351Y007355D02*
X012745Y007355D01*
X013100Y007355D02*
X013100Y007355D01*
X013100Y007197D02*
X013100Y007197D01*
X013423Y006563D02*
X013834Y006563D01*
X013649Y005930D02*
X012943Y005930D01*
X012861Y005848D01*
X012861Y005102D01*
X012943Y005020D01*
X013440Y005020D01*
X013880Y004580D01*
X013880Y004434D01*
X013620Y004174D01*
X013620Y003776D01*
X013901Y003495D01*
X014299Y003495D01*
X014580Y003776D01*
X014580Y004174D01*
X014320Y004434D01*
X014320Y004762D01*
X013731Y005351D01*
X013731Y005848D01*
X013649Y005930D01*
X013651Y005929D02*
X017832Y005929D01*
X017793Y005889D02*
X017715Y005701D01*
X017715Y005499D01*
X017793Y005311D01*
X017936Y005168D01*
X018124Y005090D01*
X018326Y005090D01*
X018514Y005168D01*
X018657Y005311D01*
X018735Y005499D01*
X018735Y005701D01*
X018657Y005889D01*
X018514Y006032D01*
X018326Y006110D01*
X018124Y006110D01*
X017936Y006032D01*
X017793Y005889D01*
X017743Y005770D02*
X013731Y005770D01*
X013731Y005612D02*
X017715Y005612D01*
X017734Y005453D02*
X013731Y005453D01*
X013787Y005295D02*
X017809Y005295D01*
X018012Y005136D02*
X013946Y005136D01*
X014104Y004978D02*
X021078Y004978D01*
X021044Y004944D02*
X020966Y004849D01*
X020897Y004746D01*
X020839Y004637D01*
X020792Y004523D01*
X020756Y004405D01*
X020732Y004284D01*
X020722Y004180D01*
X021895Y004180D01*
X021895Y005353D01*
X021791Y005343D01*
X021670Y005319D01*
X021552Y005283D01*
X021438Y005236D01*
X021329Y005178D01*
X021226Y005109D01*
X021131Y005031D01*
X021044Y004944D01*
X020946Y004819D02*
X014263Y004819D01*
X014320Y004661D02*
X020852Y004661D01*
X020785Y004502D02*
X014320Y004502D01*
X014410Y004344D02*
X014790Y004344D01*
X014631Y004185D02*
X014569Y004185D01*
X014580Y004027D02*
X014620Y004027D01*
X014620Y003868D02*
X014580Y003868D01*
X014513Y003710D02*
X014687Y003710D01*
X014845Y003551D02*
X014355Y003551D01*
X014100Y003975D02*
X014100Y004671D01*
X013296Y005475D01*
X012861Y005453D02*
X012743Y005453D01*
X012820Y005295D02*
X012861Y005295D01*
X012861Y005136D02*
X012820Y005136D01*
X012820Y004978D02*
X013482Y004978D01*
X013641Y004819D02*
X012820Y004819D01*
X012820Y004661D02*
X013799Y004661D01*
X013880Y004502D02*
X012820Y004502D01*
X013410Y004344D02*
X013790Y004344D01*
X013631Y004185D02*
X013569Y004185D01*
X013580Y004027D02*
X013620Y004027D01*
X013620Y003868D02*
X013580Y003868D01*
X013513Y003710D02*
X013687Y003710D01*
X013845Y003551D02*
X013355Y003551D01*
X013029Y003393D02*
X015171Y003393D01*
X015103Y003234D02*
X013097Y003234D01*
X013110Y003076D02*
X015090Y003076D01*
X015124Y002917D02*
X013076Y002917D01*
X012600Y003100D02*
X012600Y005285D01*
X012016Y005869D01*
X012393Y005929D02*
X012941Y005929D01*
X012861Y005770D02*
X012426Y005770D01*
X012585Y005612D02*
X012861Y005612D01*
X012393Y006087D02*
X018068Y006087D01*
X018382Y006087D02*
X018677Y006087D01*
X018618Y005929D02*
X018835Y005929D01*
X018707Y005770D02*
X018994Y005770D01*
X019010Y005612D02*
X018735Y005612D01*
X018716Y005453D02*
X019033Y005453D01*
X019123Y005295D02*
X018641Y005295D01*
X018438Y005136D02*
X019380Y005136D01*
X019570Y005136D02*
X020273Y005136D01*
X020475Y005136D02*
X020475Y005136D01*
X020475Y005295D02*
X020475Y005295D01*
X020475Y005453D02*
X020475Y005453D01*
X020677Y005136D02*
X021267Y005136D01*
X021225Y004850D02*
X021975Y005600D01*
X022055Y005353D02*
X022159Y005343D01*
X022280Y005319D01*
X022398Y005283D01*
X022512Y005236D01*
X022621Y005178D01*
X022724Y005109D01*
X022819Y005031D01*
X022906Y004944D01*
X022984Y004849D01*
X023053Y004746D01*
X023111Y004637D01*
X023158Y004523D01*
X023194Y004405D01*
X023218Y004284D01*
X023228Y004180D01*
X022055Y004180D01*
X022055Y004020D01*
X023228Y004020D01*
X023218Y003916D01*
X023194Y003795D01*
X023158Y003677D01*
X023111Y003563D01*
X023053Y003454D01*
X022984Y003351D01*
X022906Y003256D01*
X022819Y003169D01*
X022724Y003091D01*
X022621Y003022D01*
X022512Y002964D01*
X022398Y002917D01*
X022280Y002881D01*
X022159Y002857D01*
X022055Y002847D01*
X022055Y004020D01*
X021895Y004020D01*
X021895Y002847D01*
X021791Y002857D01*
X021670Y002881D01*
X021552Y002917D01*
X021438Y002964D01*
X021329Y003022D01*
X021226Y003091D01*
X021131Y003169D01*
X021044Y003256D01*
X020966Y003351D01*
X020897Y003454D01*
X020839Y003563D01*
X020792Y003677D01*
X020756Y003795D01*
X020732Y003916D01*
X020722Y004020D01*
X021895Y004020D01*
X021895Y004180D01*
X022055Y004180D01*
X022055Y005353D01*
X022055Y005295D02*
X021895Y005295D01*
X021895Y005136D02*
X022055Y005136D01*
X022055Y004978D02*
X021895Y004978D01*
X021895Y004819D02*
X022055Y004819D01*
X022055Y004661D02*
X021895Y004661D01*
X021895Y004502D02*
X022055Y004502D01*
X022055Y004344D02*
X021895Y004344D01*
X021895Y004185D02*
X022055Y004185D01*
X021975Y004100D02*
X021225Y003350D01*
X019475Y003350D01*
X019493Y003368D02*
X019457Y003368D01*
X019457Y003332D01*
X018965Y003332D01*
X018965Y003310D01*
X018978Y003231D01*
X019002Y003154D01*
X019039Y003083D01*
X019086Y003018D01*
X019143Y002961D01*
X019208Y002914D01*
X019279Y002877D01*
X019356Y002853D01*
X019435Y002840D01*
X019457Y002840D01*
X019457Y003332D01*
X019493Y003332D01*
X019493Y003368D01*
X019493Y003860D01*
X019515Y003860D01*
X019594Y003847D01*
X019671Y003823D01*
X019742Y003786D01*
X019807Y003739D01*
X019864Y003682D01*
X019911Y003617D01*
X019948Y003546D01*
X019972Y003469D01*
X019985Y003390D01*
X019985Y003368D01*
X019493Y003368D01*
X019493Y003393D02*
X019457Y003393D01*
X019457Y003368D02*
X019457Y003860D01*
X019435Y003860D01*
X019356Y003847D01*
X019279Y003823D01*
X019208Y003786D01*
X019143Y003739D01*
X019086Y003682D01*
X019039Y003617D01*
X019002Y003546D01*
X018978Y003469D01*
X018965Y003390D01*
X018965Y003368D01*
X019457Y003368D01*
X019493Y003332D02*
X019985Y003332D01*
X019985Y003310D01*
X019972Y003231D01*
X019948Y003154D01*
X019911Y003083D01*
X019864Y003018D01*
X019807Y002961D01*
X019742Y002914D01*
X019671Y002877D01*
X019594Y002853D01*
X019515Y002840D01*
X019493Y002840D01*
X019493Y003332D01*
X019493Y003234D02*
X019457Y003234D01*
X019457Y003076D02*
X019493Y003076D01*
X019493Y002917D02*
X019457Y002917D01*
X019203Y002917D02*
X018158Y002917D01*
X018241Y002952D02*
X018068Y002880D01*
X017882Y002880D01*
X017709Y002952D01*
X017577Y003084D01*
X017505Y003257D01*
X017505Y003443D01*
X017577Y003616D01*
X017709Y003748D01*
X017882Y003820D01*
X018068Y003820D01*
X018241Y003748D01*
X018373Y003616D01*
X018445Y003443D01*
X018445Y003257D01*
X018373Y003084D01*
X018241Y002952D01*
X018365Y003076D02*
X019044Y003076D01*
X018977Y003234D02*
X018436Y003234D01*
X018445Y003393D02*
X018965Y003393D01*
X019005Y003551D02*
X018400Y003551D01*
X018280Y003710D02*
X019113Y003710D01*
X019457Y003710D02*
X019493Y003710D01*
X019493Y003551D02*
X019457Y003551D01*
X019837Y003710D02*
X020782Y003710D01*
X020742Y003868D02*
X016580Y003868D01*
X016580Y004027D02*
X021895Y004027D01*
X021895Y003868D02*
X022055Y003868D01*
X022055Y003710D02*
X021895Y003710D01*
X021895Y003551D02*
X022055Y003551D01*
X022055Y003393D02*
X021895Y003393D01*
X021895Y003234D02*
X022055Y003234D01*
X022055Y003076D02*
X021895Y003076D01*
X021895Y002917D02*
X022055Y002917D01*
X022398Y002917D02*
X023300Y002917D01*
X023393Y003076D02*
X022701Y003076D01*
X022884Y003234D02*
X023415Y003234D01*
X023415Y003393D02*
X023012Y003393D01*
X023105Y003551D02*
X023415Y003551D01*
X023415Y003710D02*
X023168Y003710D01*
X023208Y003868D02*
X023415Y003868D01*
X023415Y004027D02*
X022055Y004027D01*
X023165Y004502D02*
X023415Y004502D01*
X023415Y004344D02*
X023206Y004344D01*
X023228Y004185D02*
X023415Y004185D01*
X023415Y004661D02*
X023098Y004661D01*
X023004Y004819D02*
X023415Y004819D01*
X023415Y004978D02*
X022872Y004978D01*
X022683Y005136D02*
X023415Y005136D01*
X023415Y005295D02*
X022361Y005295D01*
X021589Y005295D02*
X020877Y005295D01*
X020958Y005453D02*
X023415Y005453D01*
X023415Y005612D02*
X020980Y005612D01*
X020951Y005770D02*
X023415Y005770D01*
X023415Y005929D02*
X020861Y005929D01*
X020610Y006087D02*
X023415Y006087D01*
X021648Y007038D02*
X021552Y007038D01*
X021552Y007197D02*
X021648Y007197D01*
X021648Y007355D02*
X021552Y007355D01*
X021552Y007514D02*
X021648Y007514D01*
X021648Y007672D02*
X021552Y007672D01*
X021552Y007831D02*
X021648Y007831D01*
X021648Y007989D02*
X021552Y007989D01*
X021552Y008148D02*
X021648Y008148D01*
X021876Y009099D02*
X023415Y009099D01*
X023415Y009257D02*
X022052Y009257D01*
X022121Y009416D02*
X023415Y009416D01*
X023415Y009574D02*
X022140Y009574D01*
X022117Y009733D02*
X023415Y009733D01*
X023415Y009891D02*
X022041Y009891D01*
X023415Y008940D02*
X017079Y008940D01*
X017264Y008782D02*
X023415Y008782D01*
X023415Y008623D02*
X017263Y008623D01*
X017263Y008465D02*
X023415Y008465D01*
X020089Y005929D02*
X019804Y005929D01*
X019908Y005770D02*
X019999Y005770D01*
X019970Y005612D02*
X019940Y005612D01*
X019917Y005453D02*
X019992Y005453D01*
X020073Y005295D02*
X019827Y005295D01*
X019475Y005600D02*
X015725Y009350D01*
X015725Y011100D01*
X017350Y012725D01*
X017350Y013225D01*
X017815Y013220D02*
X017845Y013220D01*
X017845Y013225D02*
X017845Y013185D01*
X017857Y013107D01*
X017882Y013031D01*
X017918Y012960D01*
X017965Y012896D01*
X018021Y012840D01*
X018085Y012793D01*
X018156Y012757D01*
X018232Y012732D01*
X018310Y012720D01*
X018350Y012720D01*
X018390Y012720D01*
X018468Y012732D01*
X018544Y012757D01*
X018615Y012793D01*
X018679Y012840D01*
X018735Y012896D01*
X018782Y012960D01*
X018818Y013031D01*
X018843Y013107D01*
X018855Y013185D01*
X018855Y013225D01*
X018855Y013265D01*
X018843Y013343D01*
X018818Y013419D01*
X018782Y013490D01*
X018735Y013554D01*
X018679Y013610D01*
X018615Y013657D01*
X018544Y013693D01*
X018468Y013718D01*
X018390Y013730D01*
X018350Y013730D01*
X018350Y013225D01*
X018855Y013225D01*
X018350Y013225D01*
X018350Y013225D01*
X018350Y013225D01*
X018350Y012720D01*
X018350Y013225D01*
X018350Y013225D01*
X018350Y013225D01*
X017845Y013225D01*
X017845Y013265D01*
X017857Y013343D01*
X017882Y013419D01*
X017918Y013490D01*
X017965Y013554D01*
X018021Y013610D01*
X018085Y013657D01*
X018156Y013693D01*
X018232Y013718D01*
X018310Y013730D01*
X018350Y013730D01*
X018350Y013225D01*
X017845Y013225D01*
X017869Y013378D02*
X017815Y013378D01*
X017815Y013537D02*
X017952Y013537D01*
X018162Y013695D02*
X016541Y013695D01*
X016675Y013854D02*
X021010Y013854D01*
X021003Y013846D02*
X020843Y013569D01*
X020760Y013260D01*
X020760Y012940D01*
X020843Y012631D01*
X021003Y012354D01*
X021229Y012128D01*
X021506Y011968D01*
X021815Y011885D01*
X022135Y011885D01*
X022444Y011968D01*
X022721Y012128D01*
X022947Y012354D01*
X023107Y012631D01*
X023190Y012940D01*
X023190Y013260D01*
X023107Y013569D01*
X022947Y013846D01*
X022721Y014072D01*
X022444Y014232D01*
X022135Y014315D01*
X021815Y014315D01*
X021506Y014232D01*
X021229Y014072D01*
X021003Y013846D01*
X020916Y013695D02*
X018538Y013695D01*
X018350Y013695D02*
X018350Y013695D01*
X018350Y013537D02*
X018350Y013537D01*
X018350Y013378D02*
X018350Y013378D01*
X018350Y013220D02*
X018350Y013220D01*
X018350Y013061D02*
X018350Y013061D01*
X018350Y012903D02*
X018350Y012903D01*
X018350Y012744D02*
X018350Y012744D01*
X018504Y012744D02*
X020813Y012744D01*
X020770Y012903D02*
X018740Y012903D01*
X018828Y013061D02*
X020760Y013061D01*
X020760Y013220D02*
X018855Y013220D01*
X018831Y013378D02*
X020792Y013378D01*
X020834Y013537D02*
X018748Y013537D01*
X017960Y012903D02*
X017815Y012903D01*
X017815Y013061D02*
X017872Y013061D01*
X017570Y012744D02*
X018196Y012744D01*
X017522Y012586D02*
X020869Y012586D01*
X020961Y012427D02*
X017363Y012427D01*
X017205Y012269D02*
X021088Y012269D01*
X021260Y012110D02*
X018435Y012110D01*
X018263Y012110D02*
X018187Y012110D01*
X018187Y012150D02*
X018182Y012150D01*
X018096Y012136D01*
X018014Y012110D01*
X017937Y012070D01*
X017867Y012020D01*
X017805Y011958D01*
X017755Y011888D01*
X017715Y011811D01*
X017689Y011729D01*
X017675Y011643D01*
X017675Y011638D01*
X018187Y011638D01*
X018187Y012150D01*
X018015Y012110D02*
X017046Y012110D01*
X016888Y011952D02*
X017801Y011952D01*
X017709Y011793D02*
X016729Y011793D01*
X016571Y011635D02*
X018187Y011635D01*
X018187Y011793D02*
X018263Y011793D01*
X018263Y011952D02*
X018187Y011952D01*
X018649Y011952D02*
X021567Y011952D01*
X022383Y011952D02*
X023415Y011952D01*
X023415Y012110D02*
X022690Y012110D01*
X022862Y012269D02*
X023415Y012269D01*
X023415Y012427D02*
X022989Y012427D01*
X023081Y012586D02*
X023415Y012586D01*
X023415Y012744D02*
X023137Y012744D01*
X023180Y012903D02*
X023415Y012903D01*
X023415Y013061D02*
X023190Y013061D01*
X023190Y013220D02*
X023415Y013220D01*
X023415Y013378D02*
X023158Y013378D01*
X023116Y013537D02*
X023415Y013537D01*
X023415Y013695D02*
X023034Y013695D01*
X022940Y013854D02*
X023415Y013854D01*
X023414Y014012D02*
X022781Y014012D01*
X022551Y014171D02*
X023372Y014171D01*
X023250Y014329D02*
X016682Y014329D01*
X016735Y014171D02*
X021399Y014171D01*
X021169Y014012D02*
X016735Y014012D01*
X016885Y013537D02*
X016259Y013537D01*
X015823Y013781D02*
X015728Y013781D01*
X015728Y013249D01*
X015691Y013249D01*
X015691Y013781D01*
X015316Y013781D01*
X015270Y013769D01*
X015229Y013745D01*
X015195Y013711D01*
X015191Y013703D01*
X015153Y013741D01*
X014297Y013741D01*
X014233Y013677D01*
X014169Y013741D01*
X013587Y013741D01*
X013657Y013811D01*
X013735Y013999D01*
X013735Y014201D01*
X013657Y014389D01*
X013630Y014416D01*
X015820Y014416D01*
X015793Y014389D01*
X015715Y014201D01*
X015715Y013999D01*
X015793Y013811D01*
X015823Y013781D01*
X015775Y013854D02*
X013675Y013854D01*
X013735Y014012D02*
X015715Y014012D01*
X015715Y014171D02*
X013735Y014171D01*
X013682Y014329D02*
X015768Y014329D01*
X015728Y013695D02*
X015691Y013695D01*
X015691Y013537D02*
X015728Y013537D01*
X015728Y013378D02*
X015691Y013378D01*
X015691Y013061D02*
X015728Y013061D01*
X015728Y012903D02*
X015691Y012903D01*
X015691Y012744D02*
X015728Y012744D01*
X015202Y012744D02*
X015176Y012744D01*
X014251Y013695D02*
X014215Y013695D01*
X013231Y013537D02*
X012375Y013537D01*
X012375Y013641D02*
X012375Y013309D01*
X012141Y013075D01*
X011809Y013075D01*
X011575Y013309D01*
X011575Y013641D01*
X011809Y013875D01*
X012141Y013875D01*
X012375Y013641D01*
X012321Y013695D02*
X012909Y013695D01*
X012775Y013854D02*
X012162Y013854D01*
X011788Y013854D02*
X006183Y013854D01*
X006215Y013695D02*
X011629Y013695D01*
X011575Y013537D02*
X006215Y013537D01*
X006191Y013378D02*
X011006Y013378D01*
X011043Y013415D02*
X010785Y013157D01*
X010785Y012975D01*
X011225Y012975D01*
X011225Y012975D01*
X011225Y013415D01*
X011407Y013415D01*
X011665Y013157D01*
X011665Y012975D01*
X011225Y012975D01*
X011225Y012975D01*
X011225Y012975D01*
X011225Y013415D01*
X011043Y013415D01*
X011225Y013378D02*
X011225Y013378D01*
X011225Y013220D02*
X011225Y013220D01*
X011225Y013061D02*
X011225Y013061D01*
X011225Y012975D02*
X010785Y012975D01*
X010785Y012793D01*
X011043Y012535D01*
X011225Y012535D01*
X011407Y012535D01*
X011665Y012793D01*
X011665Y012975D01*
X011225Y012975D01*
X011225Y012535D01*
X011225Y012975D01*
X011225Y012975D01*
X011225Y012903D02*
X011225Y012903D01*
X011225Y012744D02*
X011225Y012744D01*
X011225Y012586D02*
X011225Y012586D01*
X011115Y012391D02*
X011044Y012427D01*
X010968Y012452D01*
X010890Y012464D01*
X010850Y012464D01*
X010810Y012464D01*
X010732Y012452D01*
X010656Y012427D01*
X010585Y012391D01*
X010521Y012344D01*
X010465Y012288D01*
X010418Y012224D01*
X010382Y012153D01*
X010357Y012078D01*
X010345Y011999D01*
X010345Y011959D01*
X010850Y011959D01*
X010850Y011959D01*
X010850Y011959D01*
X011355Y011959D01*
X011355Y011999D01*
X011343Y012078D01*
X011318Y012153D01*
X011282Y012224D01*
X011235Y012288D01*
X011179Y012344D01*
X011115Y012391D01*
X011044Y012427D02*
X011575Y012427D01*
X011575Y012586D02*
X011458Y012586D01*
X011616Y012744D02*
X011678Y012744D01*
X011665Y012903D02*
X013231Y012903D01*
X013231Y013061D02*
X011665Y013061D01*
X011665Y013220D02*
X011603Y013220D01*
X011575Y013378D02*
X011444Y013378D01*
X010847Y013220D02*
X006149Y013220D01*
X006061Y013061D02*
X010785Y013061D01*
X010785Y012903D02*
X005938Y012903D01*
X005747Y012744D02*
X010834Y012744D01*
X010992Y012586D02*
X005336Y012586D01*
X005064Y012586D02*
X004405Y012586D01*
X004405Y012744D02*
X004653Y012744D01*
X004462Y012903D02*
X004405Y012903D01*
X004405Y012427D02*
X010656Y012427D01*
X010850Y012427D02*
X010850Y012427D01*
X010850Y012464D02*
X010850Y011959D01*
X010850Y011959D01*
X010850Y012464D01*
X010850Y012269D02*
X010850Y012269D01*
X010850Y012110D02*
X010850Y012110D01*
X010850Y011952D02*
X010850Y011952D01*
X010850Y011793D02*
X010850Y011793D01*
X010850Y011635D02*
X010850Y011635D01*
X010462Y011635D02*
X004405Y011635D01*
X004405Y011793D02*
X010373Y011793D01*
X010345Y011952D02*
X004405Y011952D01*
X004405Y012110D02*
X010368Y012110D01*
X010450Y012269D02*
X004405Y012269D01*
X006134Y014012D02*
X012715Y014012D01*
X012715Y014171D02*
X006043Y014171D01*
X005906Y014329D02*
X012768Y014329D01*
X012375Y013378D02*
X013231Y013378D01*
X013231Y013220D02*
X012285Y013220D01*
X012272Y012744D02*
X013290Y012744D01*
X011774Y012110D02*
X011332Y012110D01*
X011250Y012269D02*
X011616Y012269D01*
X013342Y011159D02*
X014505Y011159D01*
X014505Y011001D02*
X013500Y011001D01*
X013659Y010842D02*
X014505Y010842D01*
X014505Y010684D02*
X013723Y010684D01*
X013723Y010525D02*
X014505Y010525D01*
X014505Y010367D02*
X013723Y010367D01*
X013723Y010208D02*
X014505Y010208D01*
X014505Y010050D02*
X013600Y010050D01*
X013442Y009891D02*
X014505Y009891D01*
X014505Y009733D02*
X011246Y009733D01*
X011059Y009574D02*
X014505Y009574D01*
X014505Y009416D02*
X007550Y009416D01*
X007590Y009574D02*
X010641Y009574D01*
X010454Y009733D02*
X007571Y009733D01*
X006268Y008940D02*
X004405Y008940D01*
X004405Y008782D02*
X006149Y008782D01*
X006110Y008623D02*
X004405Y008623D01*
X004405Y008465D02*
X006130Y008465D01*
X006222Y008306D02*
X004405Y008306D01*
X004405Y008148D02*
X011340Y008148D01*
X011344Y007989D02*
X007361Y007989D01*
X007531Y007831D02*
X011410Y007831D01*
X011557Y007672D02*
X007590Y007672D01*
X006850Y007600D02*
X010496Y003954D01*
X010975Y003954D01*
X010524Y003710D02*
X006215Y003710D01*
X006215Y003551D02*
X010657Y003551D01*
X010271Y003868D02*
X006179Y003868D01*
X006126Y004027D02*
X010112Y004027D01*
X009954Y004185D02*
X006034Y004185D01*
X005892Y004344D02*
X009795Y004344D01*
X009637Y004502D02*
X005668Y004502D01*
X004732Y004502D02*
X004405Y004502D01*
X004405Y004344D02*
X004508Y004344D01*
X004405Y004661D02*
X009478Y004661D01*
X009320Y004819D02*
X004405Y004819D01*
X004405Y004978D02*
X009161Y004978D01*
X009003Y005136D02*
X004405Y005136D01*
X004405Y005295D02*
X008844Y005295D01*
X008686Y005453D02*
X004405Y005453D01*
X004405Y005612D02*
X008527Y005612D01*
X008369Y005770D02*
X004405Y005770D01*
X004405Y005929D02*
X008210Y005929D01*
X008052Y006087D02*
X004405Y006087D01*
X004405Y006246D02*
X007893Y006246D01*
X007735Y006404D02*
X004405Y006404D01*
X004405Y006563D02*
X007576Y006563D01*
X007418Y006721D02*
X004405Y006721D01*
X004405Y006880D02*
X007259Y006880D01*
X007101Y007038D02*
X004405Y007038D01*
X004405Y007197D02*
X006374Y007197D01*
X006175Y007355D02*
X004405Y007355D01*
X004405Y007514D02*
X006110Y007514D01*
X006110Y007672D02*
X004405Y007672D01*
X004405Y007831D02*
X006169Y007831D01*
X006339Y007989D02*
X004405Y007989D01*
X007478Y008306D02*
X011383Y008306D01*
X011493Y008465D02*
X007570Y008465D01*
X008516Y006246D02*
X018518Y006246D01*
X020475Y004850D02*
X021225Y004850D01*
X020744Y004344D02*
X016410Y004344D01*
X016569Y004185D02*
X020722Y004185D01*
X020845Y003551D02*
X019945Y003551D01*
X019985Y003393D02*
X020938Y003393D01*
X021066Y003234D02*
X019973Y003234D01*
X019906Y003076D02*
X021249Y003076D01*
X021552Y002917D02*
X019747Y002917D01*
X017792Y002917D02*
X016076Y002917D01*
X016110Y003076D02*
X017585Y003076D01*
X017514Y003234D02*
X016097Y003234D01*
X016029Y003393D02*
X017505Y003393D01*
X017550Y003551D02*
X016355Y003551D01*
X016513Y003710D02*
X017670Y003710D01*
X015845Y003551D02*
X015844Y003551D01*
X015687Y003710D02*
X015513Y003710D01*
X015580Y003868D02*
X015620Y003868D01*
X015620Y004027D02*
X015580Y004027D01*
X015569Y004185D02*
X015631Y004185D01*
X015790Y004344D02*
X015410Y004344D01*
X015355Y003551D02*
X015356Y003551D01*
X012356Y003551D02*
X012292Y003551D01*
X012171Y003393D02*
X006195Y003393D01*
X006153Y003234D02*
X012103Y003234D01*
X012090Y003076D02*
X006069Y003076D01*
X005952Y002917D02*
X012124Y002917D01*
X011656Y003551D02*
X011293Y003551D01*
X011426Y003710D02*
X011523Y003710D01*
X011974Y003954D02*
X012016Y003997D01*
X012016Y005081D01*
X011640Y005136D02*
X009625Y005136D01*
X009467Y005295D02*
X011640Y005295D01*
X011718Y005453D02*
X009308Y005453D01*
X009150Y005612D02*
X011640Y005612D01*
X011640Y005770D02*
X008991Y005770D01*
X008833Y005929D02*
X011640Y005929D01*
X011640Y006087D02*
X008674Y006087D01*
X009784Y004978D02*
X011640Y004978D01*
X011640Y004819D02*
X009942Y004819D01*
X010101Y004661D02*
X011796Y004661D01*
X011796Y004502D02*
X010259Y004502D01*
X010418Y004344D02*
X010643Y004344D01*
X011307Y004344D02*
X011642Y004344D01*
X011518Y004185D02*
X011431Y004185D01*
X011304Y006563D02*
X011588Y006563D01*
X011476Y006721D02*
X011430Y006721D01*
X011427Y007197D02*
X011480Y007197D01*
X011597Y007355D02*
X011296Y007355D01*
X011965Y007355D02*
X011983Y007355D01*
X011983Y007197D02*
X011965Y007197D01*
X011965Y007038D02*
X011983Y007038D01*
X011983Y006880D02*
X011965Y006880D01*
X011965Y006721D02*
X011983Y006721D01*
X011983Y006563D02*
X011965Y006563D01*
X016605Y008782D02*
X016711Y008782D01*
X016008Y009891D02*
X015945Y009891D01*
X015945Y011001D02*
X015950Y011001D01*
X016095Y011159D02*
X016108Y011159D01*
X016254Y011318D02*
X017752Y011318D01*
X017688Y011476D02*
X016412Y011476D01*
X016806Y011159D02*
X017896Y011159D01*
X018187Y011159D02*
X018263Y011159D01*
X018263Y011318D02*
X018187Y011318D01*
X018187Y011476D02*
X018263Y011476D01*
D28*
X018225Y011600D02*
X018225Y009600D01*
X020225Y007600D01*
X021600Y007600D01*
X021975Y007225D01*
X021975Y005600D01*
X021975Y004100D01*
M02*
