G75*
G70*
%OFA0B0*%
%FSLAX24Y24*%
%IPPOS*%
%LPD*%
%AMOC8*
5,1,8,0,0,1.08239X$1,22.5*
%
%ADD10C,0.0000*%
%ADD11OC8,0.0720*%
%ADD12C,0.0780*%
%ADD13C,0.0640*%
%ADD14C,0.2190*%
%ADD15R,0.0840X0.0840*%
%ADD16C,0.0840*%
%ADD17R,0.0780X0.0780*%
%ADD18OC8,0.1221*%
%ADD19C,0.0690*%
%ADD20C,0.0700*%
%ADD21R,0.0690X0.0690*%
%ADD22OC8,0.0560*%
%ADD23C,0.1790*%
%ADD24R,0.0512X0.0512*%
%ADD25R,0.0631X0.0670*%
%ADD26C,0.0001*%
D10*
X004225Y003191D02*
X004225Y014006D01*
X004227Y014052D01*
X004232Y014098D01*
X004241Y014144D01*
X004254Y014189D01*
X004270Y014232D01*
X004289Y014274D01*
X004312Y014315D01*
X004338Y014353D01*
X004367Y014390D01*
X004398Y014424D01*
X004432Y014455D01*
X004469Y014484D01*
X004507Y014510D01*
X004548Y014533D01*
X004590Y014552D01*
X004633Y014568D01*
X004678Y014581D01*
X004724Y014590D01*
X004770Y014595D01*
X004816Y014597D01*
X004816Y014596D02*
X023005Y014596D01*
X023005Y014597D02*
X023051Y014595D01*
X023097Y014590D01*
X023143Y014581D01*
X023188Y014568D01*
X023231Y014552D01*
X023273Y014533D01*
X023314Y014510D01*
X023352Y014484D01*
X023389Y014455D01*
X023423Y014424D01*
X023454Y014390D01*
X023483Y014353D01*
X023509Y014315D01*
X023532Y014274D01*
X023551Y014232D01*
X023567Y014189D01*
X023580Y014144D01*
X023589Y014098D01*
X023594Y014052D01*
X023596Y014006D01*
X023595Y014006D02*
X023595Y003191D01*
X023596Y003191D02*
X023594Y003145D01*
X023589Y003099D01*
X023580Y003053D01*
X023567Y003008D01*
X023551Y002965D01*
X023532Y002923D01*
X023509Y002882D01*
X023483Y002844D01*
X023454Y002807D01*
X023423Y002773D01*
X023389Y002742D01*
X023352Y002713D01*
X023314Y002687D01*
X023273Y002664D01*
X023231Y002645D01*
X023188Y002629D01*
X023143Y002616D01*
X023097Y002607D01*
X023051Y002602D01*
X023005Y002600D01*
X004816Y002600D01*
X004770Y002602D01*
X004724Y002607D01*
X004678Y002616D01*
X004633Y002629D01*
X004590Y002645D01*
X004548Y002664D01*
X004507Y002687D01*
X004469Y002713D01*
X004432Y002742D01*
X004398Y002773D01*
X004367Y002807D01*
X004338Y002844D01*
X004312Y002882D01*
X004289Y002923D01*
X004270Y002965D01*
X004254Y003008D01*
X004241Y003053D01*
X004232Y003099D01*
X004227Y003145D01*
X004225Y003191D01*
X016851Y008444D02*
X016851Y008696D01*
X016851Y008728D01*
X016879Y008736D01*
X016906Y008748D01*
X016938Y008756D01*
X016965Y008767D01*
X016993Y008779D01*
X017020Y008787D01*
X017048Y008799D01*
X017071Y008787D01*
X017099Y008775D01*
X017123Y008763D01*
X017123Y008405D01*
X017099Y008397D01*
X017071Y008385D01*
X017048Y008374D01*
X017020Y008385D01*
X016993Y008393D01*
X016965Y008405D01*
X016938Y008413D01*
X016906Y008425D01*
X016879Y008437D01*
X016851Y008444D01*
D11*
X016100Y006975D03*
X015100Y006975D03*
X014100Y006975D03*
X013100Y006975D03*
X013100Y003975D03*
X014100Y003975D03*
X015100Y003975D03*
X016100Y003975D03*
D12*
X015600Y003100D03*
X012600Y003100D03*
X011974Y003954D03*
X010975Y003954D03*
X010975Y006954D03*
X011974Y006954D03*
X011850Y008100D03*
X011850Y011100D03*
X013225Y014100D03*
X016225Y014100D03*
X018225Y011600D03*
X018225Y005600D03*
D13*
X007150Y007600D02*
X006550Y007600D01*
X006550Y008600D02*
X007150Y008600D01*
X007150Y009600D02*
X006550Y009600D01*
D14*
X021975Y013100D03*
X021975Y004100D03*
D15*
X021600Y007600D03*
D16*
X021600Y009569D03*
D17*
X015709Y013231D03*
X014725Y013231D03*
X013741Y013231D03*
D18*
X012993Y010475D03*
X016457Y010475D03*
D19*
X018350Y013225D03*
X010850Y011959D03*
X010850Y009991D03*
X019475Y005600D03*
X020475Y005600D03*
D20*
X019475Y003350D03*
X017975Y003350D03*
D21*
X017350Y013225D03*
D22*
X011975Y013475D03*
X011225Y012975D03*
X011975Y012475D03*
D23*
X005200Y013600D03*
X005200Y003600D03*
D24*
X012016Y005081D03*
X012016Y005869D03*
D25*
X013296Y005475D03*
D26*
X016900Y008427D02*
X017123Y008427D01*
X017123Y008426D02*
X016903Y008426D01*
X016905Y008425D02*
X017123Y008425D01*
X017123Y008424D02*
X016908Y008424D01*
X016910Y008423D02*
X017123Y008423D01*
X017123Y008422D02*
X016913Y008422D01*
X016916Y008421D02*
X017123Y008421D01*
X017123Y008420D02*
X016918Y008420D01*
X016921Y008419D02*
X017123Y008419D01*
X017123Y008418D02*
X016924Y008418D01*
X016926Y008417D02*
X017123Y008417D01*
X017123Y008416D02*
X016929Y008416D01*
X016932Y008415D02*
X017123Y008415D01*
X017123Y008414D02*
X016934Y008414D01*
X016937Y008413D02*
X017123Y008413D01*
X017123Y008412D02*
X016940Y008412D01*
X016944Y008411D02*
X017123Y008411D01*
X017123Y008410D02*
X016947Y008410D01*
X016951Y008409D02*
X017123Y008409D01*
X017123Y008408D02*
X016954Y008408D01*
X016958Y008407D02*
X017123Y008407D01*
X017123Y008406D02*
X016961Y008406D01*
X016965Y008405D02*
X017123Y008405D01*
X017120Y008404D02*
X016967Y008404D01*
X016969Y008403D02*
X017117Y008403D01*
X017114Y008402D02*
X016972Y008402D01*
X016974Y008401D02*
X017111Y008401D01*
X017108Y008400D02*
X016976Y008400D01*
X016979Y008399D02*
X017105Y008399D01*
X017102Y008398D02*
X016981Y008398D01*
X016983Y008397D02*
X017099Y008397D01*
X017097Y008396D02*
X016986Y008396D01*
X016988Y008395D02*
X017094Y008395D01*
X017092Y008394D02*
X016990Y008394D01*
X016993Y008393D02*
X017090Y008393D01*
X017087Y008392D02*
X016996Y008392D01*
X017000Y008391D02*
X017085Y008391D01*
X017083Y008390D02*
X017003Y008390D01*
X017007Y008389D02*
X017080Y008389D01*
X017078Y008388D02*
X017010Y008388D01*
X017014Y008387D02*
X017076Y008387D01*
X017073Y008386D02*
X017017Y008386D01*
X017021Y008385D02*
X017071Y008385D01*
X017069Y008384D02*
X017023Y008384D01*
X017025Y008383D02*
X017067Y008383D01*
X017065Y008382D02*
X017028Y008382D01*
X017030Y008381D02*
X017063Y008381D01*
X017061Y008380D02*
X017032Y008380D01*
X017035Y008379D02*
X017059Y008379D01*
X017057Y008378D02*
X017037Y008378D01*
X017039Y008377D02*
X017055Y008377D01*
X017053Y008376D02*
X017042Y008376D01*
X017044Y008375D02*
X017051Y008375D01*
X017049Y008374D02*
X017046Y008374D01*
X017123Y008428D02*
X016898Y008428D01*
X016896Y008429D02*
X017123Y008429D01*
X017123Y008430D02*
X016893Y008430D01*
X016891Y008431D02*
X017123Y008431D01*
X017123Y008432D02*
X016889Y008432D01*
X016886Y008433D02*
X017123Y008433D01*
X017123Y008434D02*
X016884Y008434D01*
X016882Y008435D02*
X017123Y008435D01*
X017123Y008436D02*
X016879Y008436D01*
X016876Y008437D02*
X017123Y008437D01*
X017123Y008438D02*
X016873Y008438D01*
X016869Y008439D02*
X017123Y008439D01*
X017123Y008440D02*
X016866Y008440D01*
X016862Y008441D02*
X017123Y008441D01*
X017123Y008442D02*
X016859Y008442D01*
X016855Y008443D02*
X017123Y008443D01*
X017123Y008444D02*
X016852Y008444D01*
X016851Y008445D02*
X017123Y008445D01*
X017123Y008446D02*
X016851Y008446D01*
X016851Y008447D02*
X017123Y008447D01*
X017123Y008448D02*
X016851Y008448D01*
X016851Y008449D02*
X017123Y008449D01*
X017123Y008450D02*
X016851Y008450D01*
X016851Y008451D02*
X017123Y008451D01*
X017123Y008452D02*
X016851Y008452D01*
X016851Y008453D02*
X017123Y008453D01*
X017123Y008454D02*
X016851Y008454D01*
X016851Y008455D02*
X017123Y008455D01*
X017123Y008456D02*
X016851Y008456D01*
X016851Y008457D02*
X017123Y008457D01*
X017123Y008458D02*
X016851Y008458D01*
X016851Y008459D02*
X017123Y008459D01*
X017123Y008460D02*
X016851Y008460D01*
X016851Y008461D02*
X017123Y008461D01*
X017123Y008462D02*
X016851Y008462D01*
X016851Y008463D02*
X017123Y008463D01*
X017123Y008464D02*
X016851Y008464D01*
X016851Y008465D02*
X017123Y008465D01*
X017123Y008466D02*
X016851Y008466D01*
X016851Y008467D02*
X017123Y008467D01*
X017123Y008468D02*
X016851Y008468D01*
X016851Y008469D02*
X017123Y008469D01*
X017123Y008470D02*
X016851Y008470D01*
X016851Y008471D02*
X017123Y008471D01*
X017123Y008472D02*
X016851Y008472D01*
X016851Y008473D02*
X017123Y008473D01*
X017123Y008474D02*
X016851Y008474D01*
X016851Y008475D02*
X017123Y008475D01*
X017123Y008476D02*
X016851Y008476D01*
X016851Y008477D02*
X017123Y008477D01*
X017123Y008478D02*
X016851Y008478D01*
X016851Y008479D02*
X017123Y008479D01*
X017123Y008480D02*
X016851Y008480D01*
X016851Y008481D02*
X017123Y008481D01*
X017123Y008482D02*
X016851Y008482D01*
X016851Y008483D02*
X017123Y008483D01*
X017123Y008484D02*
X016851Y008484D01*
X016851Y008485D02*
X017123Y008485D01*
X017123Y008486D02*
X016851Y008486D01*
X016851Y008487D02*
X017123Y008487D01*
X017123Y008488D02*
X016851Y008488D01*
X016851Y008489D02*
X017123Y008489D01*
X017123Y008490D02*
X016851Y008490D01*
X016851Y008491D02*
X017123Y008491D01*
X017123Y008492D02*
X016851Y008492D01*
X016851Y008493D02*
X017123Y008493D01*
X017123Y008494D02*
X016851Y008494D01*
X016851Y008495D02*
X017123Y008495D01*
X017123Y008496D02*
X016851Y008496D01*
X016851Y008497D02*
X017123Y008497D01*
X017123Y008498D02*
X016851Y008498D01*
X016851Y008499D02*
X017123Y008499D01*
X017123Y008500D02*
X016851Y008500D01*
X016851Y008501D02*
X017123Y008501D01*
X017123Y008502D02*
X016851Y008502D01*
X016851Y008503D02*
X017123Y008503D01*
X017123Y008504D02*
X016851Y008504D01*
X016851Y008505D02*
X017123Y008505D01*
X017123Y008506D02*
X016851Y008506D01*
X016851Y008507D02*
X017123Y008507D01*
X017123Y008508D02*
X016851Y008508D01*
X016851Y008509D02*
X017123Y008509D01*
X017123Y008510D02*
X016851Y008510D01*
X016851Y008511D02*
X017123Y008511D01*
X017123Y008512D02*
X016851Y008512D01*
X016851Y008513D02*
X017123Y008513D01*
X017123Y008514D02*
X016851Y008514D01*
X016851Y008515D02*
X017123Y008515D01*
X017123Y008516D02*
X016851Y008516D01*
X016851Y008517D02*
X017123Y008517D01*
X017123Y008518D02*
X016851Y008518D01*
X016851Y008519D02*
X017123Y008519D01*
X017123Y008520D02*
X016851Y008520D01*
X016851Y008521D02*
X017123Y008521D01*
X017123Y008522D02*
X016851Y008522D01*
X016851Y008523D02*
X017123Y008523D01*
X017123Y008524D02*
X016851Y008524D01*
X016851Y008525D02*
X017123Y008525D01*
X017123Y008526D02*
X016851Y008526D01*
X016851Y008527D02*
X017123Y008527D01*
X017123Y008528D02*
X016851Y008528D01*
X016851Y008529D02*
X017123Y008529D01*
X017123Y008530D02*
X016851Y008530D01*
X016851Y008531D02*
X017123Y008531D01*
X017123Y008532D02*
X016851Y008532D01*
X016851Y008533D02*
X017123Y008533D01*
X017123Y008534D02*
X016851Y008534D01*
X016851Y008535D02*
X017123Y008535D01*
X017123Y008536D02*
X016851Y008536D01*
X016851Y008537D02*
X017123Y008537D01*
X017123Y008538D02*
X016851Y008538D01*
X016851Y008539D02*
X017123Y008539D01*
X017123Y008540D02*
X016851Y008540D01*
X016851Y008541D02*
X017123Y008541D01*
X017123Y008542D02*
X016851Y008542D01*
X016851Y008543D02*
X017123Y008543D01*
X017123Y008544D02*
X016851Y008544D01*
X016851Y008545D02*
X017123Y008545D01*
X017123Y008546D02*
X016851Y008546D01*
X016851Y008547D02*
X017123Y008547D01*
X017123Y008548D02*
X016851Y008548D01*
X016851Y008549D02*
X017123Y008549D01*
X017123Y008550D02*
X016851Y008550D01*
X016851Y008551D02*
X017123Y008551D01*
X017123Y008552D02*
X016851Y008552D01*
X016851Y008553D02*
X017123Y008553D01*
X017123Y008554D02*
X016851Y008554D01*
X016851Y008555D02*
X017123Y008555D01*
X017123Y008556D02*
X016851Y008556D01*
X016851Y008557D02*
X017123Y008557D01*
X017123Y008558D02*
X016851Y008558D01*
X016851Y008559D02*
X017123Y008559D01*
X017123Y008560D02*
X016851Y008560D01*
X016851Y008561D02*
X017123Y008561D01*
X017123Y008562D02*
X016851Y008562D01*
X016851Y008563D02*
X017123Y008563D01*
X017123Y008564D02*
X016851Y008564D01*
X016851Y008565D02*
X017123Y008565D01*
X017123Y008566D02*
X016851Y008566D01*
X016851Y008567D02*
X017123Y008567D01*
X017123Y008568D02*
X016851Y008568D01*
X016851Y008569D02*
X017123Y008569D01*
X017123Y008570D02*
X016851Y008570D01*
X016851Y008571D02*
X017123Y008571D01*
X017123Y008572D02*
X016851Y008572D01*
X016851Y008573D02*
X017123Y008573D01*
X017123Y008574D02*
X016851Y008574D01*
X016851Y008575D02*
X017123Y008575D01*
X017123Y008576D02*
X016851Y008576D01*
X016851Y008577D02*
X017123Y008577D01*
X017123Y008578D02*
X016851Y008578D01*
X016851Y008579D02*
X017123Y008579D01*
X017123Y008580D02*
X016851Y008580D01*
X016851Y008581D02*
X017123Y008581D01*
X017123Y008582D02*
X016851Y008582D01*
X016851Y008583D02*
X017123Y008583D01*
X017123Y008584D02*
X016851Y008584D01*
X016851Y008585D02*
X017123Y008585D01*
X017123Y008586D02*
X016851Y008586D01*
X016851Y008587D02*
X017123Y008587D01*
X017123Y008588D02*
X016851Y008588D01*
X016851Y008589D02*
X017123Y008589D01*
X017123Y008590D02*
X016851Y008590D01*
X016851Y008591D02*
X017123Y008591D01*
X017123Y008592D02*
X016851Y008592D01*
X016851Y008593D02*
X017123Y008593D01*
X017123Y008594D02*
X016851Y008594D01*
X016851Y008595D02*
X017123Y008595D01*
X017123Y008596D02*
X016851Y008596D01*
X016851Y008597D02*
X017123Y008597D01*
X017123Y008598D02*
X016851Y008598D01*
X016851Y008599D02*
X017123Y008599D01*
X017123Y008600D02*
X016851Y008600D01*
X016851Y008601D02*
X017123Y008601D01*
X017123Y008602D02*
X016851Y008602D01*
X016851Y008603D02*
X017123Y008603D01*
X017123Y008604D02*
X016851Y008604D01*
X016851Y008605D02*
X017123Y008605D01*
X017123Y008606D02*
X016851Y008606D01*
X016851Y008607D02*
X017123Y008607D01*
X017123Y008608D02*
X016851Y008608D01*
X016851Y008609D02*
X017123Y008609D01*
X017123Y008610D02*
X016851Y008610D01*
X016851Y008611D02*
X017123Y008611D01*
X017123Y008612D02*
X016851Y008612D01*
X016851Y008613D02*
X017123Y008613D01*
X017123Y008614D02*
X016851Y008614D01*
X016851Y008615D02*
X017123Y008615D01*
X017123Y008616D02*
X016851Y008616D01*
X016851Y008617D02*
X017123Y008617D01*
X017123Y008618D02*
X016851Y008618D01*
X016851Y008619D02*
X017123Y008619D01*
X017123Y008620D02*
X016851Y008620D01*
X016851Y008621D02*
X017123Y008621D01*
X017123Y008622D02*
X016851Y008622D01*
X016851Y008623D02*
X017123Y008623D01*
X017123Y008624D02*
X016851Y008624D01*
X016851Y008625D02*
X017123Y008625D01*
X017123Y008626D02*
X016851Y008626D01*
X016851Y008627D02*
X017123Y008627D01*
X017123Y008628D02*
X016851Y008628D01*
X016851Y008629D02*
X017123Y008629D01*
X017123Y008630D02*
X016851Y008630D01*
X016851Y008631D02*
X017123Y008631D01*
X017123Y008632D02*
X016851Y008632D01*
X016851Y008633D02*
X017123Y008633D01*
X017123Y008634D02*
X016851Y008634D01*
X016851Y008635D02*
X017123Y008635D01*
X017123Y008636D02*
X016851Y008636D01*
X016851Y008637D02*
X017123Y008637D01*
X017123Y008638D02*
X016851Y008638D01*
X016851Y008639D02*
X017123Y008639D01*
X017123Y008640D02*
X016851Y008640D01*
X016851Y008641D02*
X017123Y008641D01*
X017123Y008642D02*
X016851Y008642D01*
X016851Y008643D02*
X017123Y008643D01*
X017123Y008644D02*
X016851Y008644D01*
X016851Y008645D02*
X017123Y008645D01*
X017123Y008646D02*
X016851Y008646D01*
X016851Y008647D02*
X017123Y008647D01*
X017123Y008648D02*
X016851Y008648D01*
X016851Y008649D02*
X017123Y008649D01*
X017123Y008650D02*
X016851Y008650D01*
X016851Y008651D02*
X017123Y008651D01*
X017123Y008652D02*
X016851Y008652D01*
X016851Y008653D02*
X017123Y008653D01*
X017123Y008654D02*
X016851Y008654D01*
X016851Y008655D02*
X017123Y008655D01*
X017123Y008656D02*
X016851Y008656D01*
X016851Y008657D02*
X017123Y008657D01*
X017123Y008658D02*
X016851Y008658D01*
X016851Y008659D02*
X017123Y008659D01*
X017123Y008660D02*
X016851Y008660D01*
X016851Y008661D02*
X017123Y008661D01*
X017123Y008662D02*
X016851Y008662D01*
X016851Y008663D02*
X017123Y008663D01*
X017123Y008664D02*
X016851Y008664D01*
X016851Y008665D02*
X017123Y008665D01*
X017123Y008666D02*
X016851Y008666D01*
X016851Y008667D02*
X017123Y008667D01*
X017123Y008668D02*
X016851Y008668D01*
X016851Y008669D02*
X017123Y008669D01*
X017123Y008670D02*
X016851Y008670D01*
X016851Y008671D02*
X017123Y008671D01*
X017123Y008672D02*
X016851Y008672D01*
X016851Y008673D02*
X017123Y008673D01*
X017123Y008674D02*
X016851Y008674D01*
X016851Y008675D02*
X017123Y008675D01*
X017123Y008676D02*
X016851Y008676D01*
X016851Y008677D02*
X017123Y008677D01*
X017123Y008678D02*
X016851Y008678D01*
X016851Y008679D02*
X017123Y008679D01*
X017123Y008680D02*
X016851Y008680D01*
X016851Y008681D02*
X017123Y008681D01*
X017123Y008682D02*
X016851Y008682D01*
X016851Y008683D02*
X017123Y008683D01*
X017123Y008684D02*
X016851Y008684D01*
X016851Y008685D02*
X017123Y008685D01*
X017123Y008686D02*
X016851Y008686D01*
X016851Y008687D02*
X017123Y008687D01*
X017123Y008688D02*
X016851Y008688D01*
X016851Y008689D02*
X017123Y008689D01*
X017123Y008690D02*
X016851Y008690D01*
X016851Y008691D02*
X017123Y008691D01*
X017123Y008692D02*
X016851Y008692D01*
X016851Y008693D02*
X017123Y008693D01*
X017123Y008694D02*
X016851Y008694D01*
X016851Y008695D02*
X017123Y008695D01*
X017123Y008696D02*
X016851Y008696D01*
X016851Y008697D02*
X017123Y008697D01*
X017123Y008698D02*
X016851Y008698D01*
X016851Y008699D02*
X017123Y008699D01*
X017123Y008700D02*
X016851Y008700D01*
X016851Y008701D02*
X017123Y008701D01*
X017123Y008702D02*
X016851Y008702D01*
X016851Y008703D02*
X017123Y008703D01*
X017123Y008704D02*
X016851Y008704D01*
X016851Y008705D02*
X017123Y008705D01*
X017123Y008706D02*
X016851Y008706D01*
X016851Y008707D02*
X017123Y008707D01*
X017123Y008708D02*
X016851Y008708D01*
X016851Y008709D02*
X017123Y008709D01*
X017123Y008710D02*
X016851Y008710D01*
X016851Y008711D02*
X017123Y008711D01*
X017123Y008712D02*
X016851Y008712D01*
X016851Y008713D02*
X017123Y008713D01*
X017123Y008714D02*
X016851Y008714D01*
X016851Y008715D02*
X017123Y008715D01*
X017123Y008716D02*
X016851Y008716D01*
X016851Y008717D02*
X017123Y008717D01*
X017123Y008718D02*
X016851Y008718D01*
X016851Y008719D02*
X017123Y008719D01*
X017123Y008720D02*
X016851Y008720D01*
X016851Y008721D02*
X017123Y008721D01*
X017123Y008722D02*
X016851Y008722D01*
X016851Y008723D02*
X017123Y008723D01*
X017123Y008724D02*
X016851Y008724D01*
X016851Y008725D02*
X017123Y008725D01*
X017123Y008726D02*
X016851Y008726D01*
X016851Y008727D02*
X017123Y008727D01*
X017123Y008728D02*
X016851Y008728D01*
X016855Y008729D02*
X017123Y008729D01*
X017123Y008730D02*
X016858Y008730D01*
X016862Y008731D02*
X017123Y008731D01*
X017123Y008732D02*
X016865Y008732D01*
X016869Y008733D02*
X017123Y008733D01*
X017123Y008734D02*
X016872Y008734D01*
X016875Y008735D02*
X017123Y008735D01*
X017123Y008736D02*
X016879Y008736D01*
X016881Y008737D02*
X017123Y008737D01*
X017123Y008738D02*
X016884Y008738D01*
X016886Y008739D02*
X017123Y008739D01*
X017123Y008740D02*
X016888Y008740D01*
X016890Y008741D02*
X017123Y008741D01*
X017123Y008742D02*
X016893Y008742D01*
X016895Y008743D02*
X017123Y008743D01*
X017123Y008744D02*
X016897Y008744D01*
X016900Y008745D02*
X017123Y008745D01*
X017123Y008746D02*
X016902Y008746D01*
X016904Y008747D02*
X017123Y008747D01*
X017123Y008748D02*
X016907Y008748D01*
X016911Y008749D02*
X017123Y008749D01*
X017123Y008750D02*
X016915Y008750D01*
X016919Y008751D02*
X017123Y008751D01*
X017123Y008752D02*
X016923Y008752D01*
X016927Y008753D02*
X017123Y008753D01*
X017123Y008754D02*
X016931Y008754D01*
X016935Y008755D02*
X017123Y008755D01*
X017123Y008756D02*
X016939Y008756D01*
X016941Y008757D02*
X017123Y008757D01*
X017123Y008758D02*
X016943Y008758D01*
X016946Y008759D02*
X017123Y008759D01*
X017123Y008760D02*
X016948Y008760D01*
X016950Y008761D02*
X017123Y008761D01*
X017123Y008762D02*
X016953Y008762D01*
X016955Y008763D02*
X017123Y008763D01*
X017122Y008764D02*
X016957Y008764D01*
X016960Y008765D02*
X017120Y008765D01*
X017118Y008766D02*
X016962Y008766D01*
X016964Y008767D02*
X017116Y008767D01*
X017114Y008768D02*
X016967Y008768D01*
X016969Y008769D02*
X017112Y008769D01*
X017110Y008770D02*
X016971Y008770D01*
X016974Y008771D02*
X017108Y008771D01*
X017106Y008772D02*
X016976Y008772D01*
X016978Y008773D02*
X017104Y008773D01*
X017102Y008774D02*
X016981Y008774D01*
X016983Y008775D02*
X017100Y008775D01*
X017097Y008776D02*
X016985Y008776D01*
X016988Y008777D02*
X017095Y008777D01*
X017093Y008778D02*
X016990Y008778D01*
X016992Y008779D02*
X017090Y008779D01*
X017088Y008780D02*
X016995Y008780D01*
X016999Y008781D02*
X017086Y008781D01*
X017083Y008782D02*
X017002Y008782D01*
X017006Y008783D02*
X017081Y008783D01*
X017079Y008784D02*
X017009Y008784D01*
X017013Y008785D02*
X017076Y008785D01*
X017074Y008786D02*
X017016Y008786D01*
X017020Y008787D02*
X017072Y008787D01*
X017070Y008788D02*
X017022Y008788D01*
X017025Y008789D02*
X017068Y008789D01*
X017066Y008790D02*
X017027Y008790D01*
X017029Y008791D02*
X017064Y008791D01*
X017062Y008792D02*
X017032Y008792D01*
X017034Y008793D02*
X017060Y008793D01*
X017058Y008794D02*
X017036Y008794D01*
X017039Y008795D02*
X017056Y008795D01*
X017054Y008796D02*
X017041Y008796D01*
X017043Y008797D02*
X017052Y008797D01*
X017050Y008798D02*
X017046Y008798D01*
M02*
