%
M48
M72
T01C0.0276
T02C0.0320
T03C0.0354
T04C0.0394
T05C0.0400
T06C0.0472
T07C0.0512
T08C0.0787
T09C0.1000
T10C0.1500
%
T01
X10855Y10556
X11855Y10556
X16980Y6806
X17980Y6806
T02
X16105Y6806
X15105Y6806
X14105Y6806
X13105Y6806
X13105Y3806
X14105Y3806
X15105Y3806
X16105Y3806
X11230Y11681
X11230Y12681
X11230Y13681
T03
X12855Y13556
X12855Y10556
X12855Y9681
X9855Y9681
X10355Y6806
X11230Y6806
X12105Y6806
X12105Y3806
X11230Y3806
X10355Y3806
T04
X18105Y3181
X19605Y3181
X16839Y13187
X15855Y13187
X14871Y13187
T05
X6730Y9431
X6730Y8431
X6730Y7431
T06
X19355Y5431
X19355Y11431
T07
X22355Y9399
X22355Y7431
T08
X17587Y10431
X14123Y10431
T09
X5080Y3431
X5080Y13431
T10
X22105Y12931
X22105Y3931
M30
