G75*
G70*
%OFA0B0*%
%FSLAX24Y24*%
%IPPOS*%
%LPD*%
%AMOC8*
5,1,8,0,0,1.08239X$1,22.5*
%
%ADD10C,0.0000*%
D10*
X004225Y003191D02*
X004225Y014411D01*
X004227Y014450D01*
X004233Y014488D01*
X004242Y014525D01*
X004255Y014562D01*
X004272Y014597D01*
X004291Y014630D01*
X004314Y014661D01*
X004340Y014690D01*
X004369Y014716D01*
X004400Y014739D01*
X004433Y014758D01*
X004468Y014775D01*
X004505Y014788D01*
X004542Y014797D01*
X004580Y014803D01*
X004619Y014805D01*
X013280Y014805D01*
X013379Y014805D01*
X013396Y014806D01*
X013413Y014811D01*
X013428Y014818D01*
X013442Y014828D01*
X013454Y014840D01*
X013464Y014854D01*
X013471Y014869D01*
X013476Y014886D01*
X013477Y014903D01*
X013477Y015198D01*
X013477Y015887D01*
X013476Y015904D01*
X013471Y015921D01*
X013464Y015936D01*
X013454Y015950D01*
X013442Y015962D01*
X013428Y015972D01*
X013413Y015979D01*
X013396Y015984D01*
X013379Y015985D01*
X013379Y015986D02*
X013280Y015986D01*
X013517Y015986D02*
X013519Y016011D01*
X013525Y016035D01*
X013534Y016057D01*
X013547Y016078D01*
X013563Y016097D01*
X013582Y016113D01*
X013603Y016126D01*
X013625Y016135D01*
X013649Y016141D01*
X013674Y016143D01*
X013699Y016141D01*
X013723Y016135D01*
X013745Y016126D01*
X013766Y016113D01*
X013785Y016097D01*
X013801Y016078D01*
X013814Y016057D01*
X013823Y016035D01*
X013829Y016011D01*
X013831Y015986D01*
X013829Y015961D01*
X013823Y015937D01*
X013814Y015915D01*
X013801Y015894D01*
X013785Y015875D01*
X013766Y015859D01*
X013745Y015846D01*
X013723Y015837D01*
X013699Y015831D01*
X013674Y015829D01*
X013649Y015831D01*
X013625Y015837D01*
X013603Y015846D01*
X013582Y015859D01*
X013563Y015875D01*
X013547Y015894D01*
X013534Y015915D01*
X013525Y015937D01*
X013519Y015961D01*
X013517Y015986D01*
X013911Y015986D02*
X013913Y016011D01*
X013919Y016035D01*
X013928Y016057D01*
X013941Y016078D01*
X013957Y016097D01*
X013976Y016113D01*
X013997Y016126D01*
X014019Y016135D01*
X014043Y016141D01*
X014068Y016143D01*
X014093Y016141D01*
X014117Y016135D01*
X014139Y016126D01*
X014160Y016113D01*
X014179Y016097D01*
X014195Y016078D01*
X014208Y016057D01*
X014217Y016035D01*
X014223Y016011D01*
X014225Y015986D01*
X014223Y015961D01*
X014217Y015937D01*
X014208Y015915D01*
X014195Y015894D01*
X014179Y015875D01*
X014160Y015859D01*
X014139Y015846D01*
X014117Y015837D01*
X014093Y015831D01*
X014068Y015829D01*
X014043Y015831D01*
X014019Y015837D01*
X013997Y015846D01*
X013976Y015859D01*
X013957Y015875D01*
X013941Y015894D01*
X013928Y015915D01*
X013919Y015937D01*
X013913Y015961D01*
X013911Y015986D01*
X014304Y015986D02*
X014306Y016011D01*
X014312Y016035D01*
X014321Y016057D01*
X014334Y016078D01*
X014350Y016097D01*
X014369Y016113D01*
X014390Y016126D01*
X014412Y016135D01*
X014436Y016141D01*
X014461Y016143D01*
X014486Y016141D01*
X014510Y016135D01*
X014532Y016126D01*
X014553Y016113D01*
X014572Y016097D01*
X014588Y016078D01*
X014601Y016057D01*
X014610Y016035D01*
X014616Y016011D01*
X014618Y015986D01*
X014616Y015961D01*
X014610Y015937D01*
X014601Y015915D01*
X014588Y015894D01*
X014572Y015875D01*
X014553Y015859D01*
X014532Y015846D01*
X014510Y015837D01*
X014486Y015831D01*
X014461Y015829D01*
X014436Y015831D01*
X014412Y015837D01*
X014390Y015846D01*
X014369Y015859D01*
X014350Y015875D01*
X014334Y015894D01*
X014321Y015915D01*
X014312Y015937D01*
X014306Y015961D01*
X014304Y015986D01*
X014658Y015887D02*
X014658Y015198D01*
X014658Y014903D01*
X014659Y014886D01*
X014664Y014869D01*
X014671Y014854D01*
X014681Y014840D01*
X014693Y014828D01*
X014707Y014818D01*
X014722Y014811D01*
X014739Y014806D01*
X014756Y014805D01*
X014855Y014805D01*
X023516Y014805D01*
X023555Y014803D01*
X023593Y014797D01*
X023630Y014788D01*
X023667Y014775D01*
X023702Y014758D01*
X023735Y014739D01*
X023766Y014716D01*
X023795Y014690D01*
X023821Y014661D01*
X023844Y014630D01*
X023863Y014597D01*
X023880Y014562D01*
X023893Y014525D01*
X023902Y014488D01*
X023908Y014450D01*
X023910Y014411D01*
X023910Y002994D01*
X023908Y002955D01*
X023902Y002917D01*
X023893Y002880D01*
X023880Y002843D01*
X023863Y002808D01*
X023844Y002775D01*
X023821Y002744D01*
X023795Y002715D01*
X023766Y002689D01*
X023735Y002666D01*
X023702Y002647D01*
X023667Y002630D01*
X023630Y002617D01*
X023593Y002608D01*
X023555Y002602D01*
X023516Y002600D01*
X014855Y002600D01*
X013280Y002600D02*
X004816Y002600D01*
X004770Y002602D01*
X004724Y002607D01*
X004678Y002616D01*
X004633Y002629D01*
X004590Y002645D01*
X004548Y002664D01*
X004507Y002687D01*
X004469Y002713D01*
X004432Y002742D01*
X004398Y002773D01*
X004367Y002807D01*
X004338Y002844D01*
X004312Y002882D01*
X004289Y002923D01*
X004270Y002965D01*
X004254Y003008D01*
X004241Y003053D01*
X004232Y003099D01*
X004227Y003145D01*
X004225Y003191D01*
X013517Y014805D02*
X013519Y014830D01*
X013525Y014854D01*
X013534Y014876D01*
X013547Y014897D01*
X013563Y014916D01*
X013582Y014932D01*
X013603Y014945D01*
X013625Y014954D01*
X013649Y014960D01*
X013674Y014962D01*
X013699Y014960D01*
X013723Y014954D01*
X013745Y014945D01*
X013766Y014932D01*
X013785Y014916D01*
X013801Y014897D01*
X013814Y014876D01*
X013823Y014854D01*
X013829Y014830D01*
X013831Y014805D01*
X013829Y014780D01*
X013823Y014756D01*
X013814Y014734D01*
X013801Y014713D01*
X013785Y014694D01*
X013766Y014678D01*
X013745Y014665D01*
X013723Y014656D01*
X013699Y014650D01*
X013674Y014648D01*
X013649Y014650D01*
X013625Y014656D01*
X013603Y014665D01*
X013582Y014678D01*
X013563Y014694D01*
X013547Y014713D01*
X013534Y014734D01*
X013525Y014756D01*
X013519Y014780D01*
X013517Y014805D01*
X013911Y014805D02*
X013913Y014830D01*
X013919Y014854D01*
X013928Y014876D01*
X013941Y014897D01*
X013957Y014916D01*
X013976Y014932D01*
X013997Y014945D01*
X014019Y014954D01*
X014043Y014960D01*
X014068Y014962D01*
X014093Y014960D01*
X014117Y014954D01*
X014139Y014945D01*
X014160Y014932D01*
X014179Y014916D01*
X014195Y014897D01*
X014208Y014876D01*
X014217Y014854D01*
X014223Y014830D01*
X014225Y014805D01*
X014223Y014780D01*
X014217Y014756D01*
X014208Y014734D01*
X014195Y014713D01*
X014179Y014694D01*
X014160Y014678D01*
X014139Y014665D01*
X014117Y014656D01*
X014093Y014650D01*
X014068Y014648D01*
X014043Y014650D01*
X014019Y014656D01*
X013997Y014665D01*
X013976Y014678D01*
X013957Y014694D01*
X013941Y014713D01*
X013928Y014734D01*
X013919Y014756D01*
X013913Y014780D01*
X013911Y014805D01*
X014304Y014805D02*
X014306Y014830D01*
X014312Y014854D01*
X014321Y014876D01*
X014334Y014897D01*
X014350Y014916D01*
X014369Y014932D01*
X014390Y014945D01*
X014412Y014954D01*
X014436Y014960D01*
X014461Y014962D01*
X014486Y014960D01*
X014510Y014954D01*
X014532Y014945D01*
X014553Y014932D01*
X014572Y014916D01*
X014588Y014897D01*
X014601Y014876D01*
X014610Y014854D01*
X014616Y014830D01*
X014618Y014805D01*
X014616Y014780D01*
X014610Y014756D01*
X014601Y014734D01*
X014588Y014713D01*
X014572Y014694D01*
X014553Y014678D01*
X014532Y014665D01*
X014510Y014656D01*
X014486Y014650D01*
X014461Y014648D01*
X014436Y014650D01*
X014412Y014656D01*
X014390Y014665D01*
X014369Y014678D01*
X014350Y014694D01*
X014334Y014713D01*
X014321Y014734D01*
X014312Y014756D01*
X014306Y014780D01*
X014304Y014805D01*
X014658Y015887D02*
X014659Y015904D01*
X014664Y015921D01*
X014671Y015936D01*
X014681Y015950D01*
X014693Y015962D01*
X014707Y015972D01*
X014722Y015979D01*
X014739Y015984D01*
X014756Y015985D01*
X014756Y015986D02*
X014855Y015986D01*
M02*
