G75*
G70*
%OFA0B0*%
%FSLAX24Y24*%
%IPPOS*%
%LPD*%
%AMOC8*
5,1,8,0,0,1.08239X$1,22.5*
%
%ADD10C,0.0600*%
%ADD11C,0.2150*%
%ADD12R,0.0740X0.0740*%
%ADD13OC8,0.1181*%
%ADD14C,0.1750*%
%ADD15C,0.0000*%
%ADD16C,0.0001*%
%ADD17C,0.0740*%
%ADD18C,0.1280*%
%ADD19C,0.0640*%
%ADD20C,0.0238*%
%ADD21C,0.0100*%
%ADD22C,0.0160*%
D10*
X006550Y007600D02*
X007150Y007600D01*
X007150Y008600D02*
X006550Y008600D01*
X006550Y009600D02*
X007150Y009600D01*
D11*
X021975Y012350D03*
X021975Y004850D03*
D12*
X017209Y009469D03*
X016225Y009469D03*
X015241Y009469D03*
D13*
X014493Y012225D03*
X017957Y012225D03*
D14*
X005200Y003600D03*
X005200Y013600D03*
D15*
X016851Y008728D02*
X016851Y008696D01*
X016851Y008444D01*
X016879Y008437D01*
X016906Y008425D01*
X016938Y008413D01*
X016965Y008405D01*
X016993Y008393D01*
X017020Y008385D01*
X017048Y008374D01*
X017071Y008385D01*
X017099Y008397D01*
X017123Y008405D01*
X017123Y008763D01*
X017099Y008775D01*
X017071Y008787D01*
X017048Y008799D01*
X017020Y008787D01*
X016993Y008779D01*
X016965Y008767D01*
X016938Y008756D01*
X016906Y008748D01*
X016879Y008736D01*
X016851Y008728D01*
D16*
X017123Y008728D01*
X017123Y008729D02*
X016855Y008729D01*
X016858Y008730D02*
X017123Y008730D01*
X017123Y008731D02*
X016862Y008731D01*
X016865Y008732D02*
X017123Y008732D01*
X017123Y008733D02*
X016869Y008733D01*
X016872Y008734D02*
X017123Y008734D01*
X017123Y008735D02*
X016875Y008735D01*
X016879Y008736D02*
X017123Y008736D01*
X017123Y008737D02*
X016881Y008737D01*
X016884Y008738D02*
X017123Y008738D01*
X017123Y008739D02*
X016886Y008739D01*
X016888Y008740D02*
X017123Y008740D01*
X017123Y008741D02*
X016890Y008741D01*
X016893Y008742D02*
X017123Y008742D01*
X017123Y008743D02*
X016895Y008743D01*
X016897Y008744D02*
X017123Y008744D01*
X017123Y008745D02*
X016900Y008745D01*
X016902Y008746D02*
X017123Y008746D01*
X017123Y008747D02*
X016904Y008747D01*
X016907Y008748D02*
X017123Y008748D01*
X017123Y008749D02*
X016911Y008749D01*
X016915Y008750D02*
X017123Y008750D01*
X017123Y008751D02*
X016919Y008751D01*
X016923Y008752D02*
X017123Y008752D01*
X017123Y008753D02*
X016927Y008753D01*
X016931Y008754D02*
X017123Y008754D01*
X017123Y008755D02*
X016935Y008755D01*
X016939Y008756D02*
X017123Y008756D01*
X017123Y008757D02*
X016941Y008757D01*
X016943Y008758D02*
X017123Y008758D01*
X017123Y008759D02*
X016946Y008759D01*
X016948Y008760D02*
X017123Y008760D01*
X017123Y008761D02*
X016950Y008761D01*
X016953Y008762D02*
X017123Y008762D01*
X017123Y008763D02*
X016955Y008763D01*
X016957Y008764D02*
X017122Y008764D01*
X017120Y008765D02*
X016960Y008765D01*
X016962Y008766D02*
X017118Y008766D01*
X017116Y008767D02*
X016964Y008767D01*
X016967Y008768D02*
X017114Y008768D01*
X017112Y008769D02*
X016969Y008769D01*
X016971Y008770D02*
X017110Y008770D01*
X017108Y008771D02*
X016974Y008771D01*
X016976Y008772D02*
X017106Y008772D01*
X017104Y008773D02*
X016978Y008773D01*
X016981Y008774D02*
X017102Y008774D01*
X017100Y008775D02*
X016983Y008775D01*
X016985Y008776D02*
X017097Y008776D01*
X017095Y008777D02*
X016988Y008777D01*
X016990Y008778D02*
X017093Y008778D01*
X017090Y008779D02*
X016992Y008779D01*
X016995Y008780D02*
X017088Y008780D01*
X017086Y008781D02*
X016999Y008781D01*
X017002Y008782D02*
X017083Y008782D01*
X017081Y008783D02*
X017006Y008783D01*
X017009Y008784D02*
X017079Y008784D01*
X017076Y008785D02*
X017013Y008785D01*
X017016Y008786D02*
X017074Y008786D01*
X017072Y008787D02*
X017020Y008787D01*
X017022Y008788D02*
X017070Y008788D01*
X017068Y008789D02*
X017025Y008789D01*
X017027Y008790D02*
X017066Y008790D01*
X017064Y008791D02*
X017029Y008791D01*
X017032Y008792D02*
X017062Y008792D01*
X017060Y008793D02*
X017034Y008793D01*
X017036Y008794D02*
X017058Y008794D01*
X017056Y008795D02*
X017039Y008795D01*
X017041Y008796D02*
X017054Y008796D01*
X017052Y008797D02*
X017043Y008797D01*
X017046Y008798D02*
X017050Y008798D01*
X017123Y008727D02*
X016851Y008727D01*
X016851Y008726D02*
X017123Y008726D01*
X017123Y008725D02*
X016851Y008725D01*
X016851Y008724D02*
X017123Y008724D01*
X017123Y008723D02*
X016851Y008723D01*
X016851Y008722D02*
X017123Y008722D01*
X017123Y008721D02*
X016851Y008721D01*
X016851Y008720D02*
X017123Y008720D01*
X017123Y008719D02*
X016851Y008719D01*
X016851Y008718D02*
X017123Y008718D01*
X017123Y008717D02*
X016851Y008717D01*
X016851Y008716D02*
X017123Y008716D01*
X017123Y008715D02*
X016851Y008715D01*
X016851Y008714D02*
X017123Y008714D01*
X017123Y008713D02*
X016851Y008713D01*
X016851Y008712D02*
X017123Y008712D01*
X017123Y008711D02*
X016851Y008711D01*
X016851Y008710D02*
X017123Y008710D01*
X017123Y008709D02*
X016851Y008709D01*
X016851Y008708D02*
X017123Y008708D01*
X017123Y008707D02*
X016851Y008707D01*
X016851Y008706D02*
X017123Y008706D01*
X017123Y008705D02*
X016851Y008705D01*
X016851Y008704D02*
X017123Y008704D01*
X017123Y008703D02*
X016851Y008703D01*
X016851Y008702D02*
X017123Y008702D01*
X017123Y008701D02*
X016851Y008701D01*
X016851Y008700D02*
X017123Y008700D01*
X017123Y008699D02*
X016851Y008699D01*
X016851Y008698D02*
X017123Y008698D01*
X017123Y008697D02*
X016851Y008697D01*
X016851Y008696D02*
X017123Y008696D01*
X017123Y008695D02*
X016851Y008695D01*
X016851Y008694D02*
X017123Y008694D01*
X017123Y008693D02*
X016851Y008693D01*
X016851Y008692D02*
X017123Y008692D01*
X017123Y008691D02*
X016851Y008691D01*
X016851Y008690D02*
X017123Y008690D01*
X017123Y008689D02*
X016851Y008689D01*
X016851Y008688D02*
X017123Y008688D01*
X017123Y008687D02*
X016851Y008687D01*
X016851Y008686D02*
X017123Y008686D01*
X017123Y008685D02*
X016851Y008685D01*
X016851Y008684D02*
X017123Y008684D01*
X017123Y008683D02*
X016851Y008683D01*
X016851Y008682D02*
X017123Y008682D01*
X017123Y008681D02*
X016851Y008681D01*
X016851Y008680D02*
X017123Y008680D01*
X017123Y008679D02*
X016851Y008679D01*
X016851Y008678D02*
X017123Y008678D01*
X017123Y008677D02*
X016851Y008677D01*
X016851Y008676D02*
X017123Y008676D01*
X017123Y008675D02*
X016851Y008675D01*
X016851Y008674D02*
X017123Y008674D01*
X017123Y008673D02*
X016851Y008673D01*
X016851Y008672D02*
X017123Y008672D01*
X017123Y008671D02*
X016851Y008671D01*
X016851Y008670D02*
X017123Y008670D01*
X017123Y008669D02*
X016851Y008669D01*
X016851Y008668D02*
X017123Y008668D01*
X017123Y008667D02*
X016851Y008667D01*
X016851Y008666D02*
X017123Y008666D01*
X017123Y008665D02*
X016851Y008665D01*
X016851Y008664D02*
X017123Y008664D01*
X017123Y008663D02*
X016851Y008663D01*
X016851Y008662D02*
X017123Y008662D01*
X017123Y008661D02*
X016851Y008661D01*
X016851Y008660D02*
X017123Y008660D01*
X017123Y008659D02*
X016851Y008659D01*
X016851Y008658D02*
X017123Y008658D01*
X017123Y008657D02*
X016851Y008657D01*
X016851Y008656D02*
X017123Y008656D01*
X017123Y008655D02*
X016851Y008655D01*
X016851Y008654D02*
X017123Y008654D01*
X017123Y008653D02*
X016851Y008653D01*
X016851Y008652D02*
X017123Y008652D01*
X017123Y008651D02*
X016851Y008651D01*
X016851Y008650D02*
X017123Y008650D01*
X017123Y008649D02*
X016851Y008649D01*
X016851Y008648D02*
X017123Y008648D01*
X017123Y008647D02*
X016851Y008647D01*
X016851Y008646D02*
X017123Y008646D01*
X017123Y008645D02*
X016851Y008645D01*
X016851Y008644D02*
X017123Y008644D01*
X017123Y008643D02*
X016851Y008643D01*
X016851Y008642D02*
X017123Y008642D01*
X017123Y008641D02*
X016851Y008641D01*
X016851Y008640D02*
X017123Y008640D01*
X017123Y008639D02*
X016851Y008639D01*
X016851Y008638D02*
X017123Y008638D01*
X017123Y008637D02*
X016851Y008637D01*
X016851Y008636D02*
X017123Y008636D01*
X017123Y008635D02*
X016851Y008635D01*
X016851Y008634D02*
X017123Y008634D01*
X017123Y008633D02*
X016851Y008633D01*
X016851Y008632D02*
X017123Y008632D01*
X017123Y008631D02*
X016851Y008631D01*
X016851Y008630D02*
X017123Y008630D01*
X017123Y008629D02*
X016851Y008629D01*
X016851Y008628D02*
X017123Y008628D01*
X017123Y008627D02*
X016851Y008627D01*
X016851Y008626D02*
X017123Y008626D01*
X017123Y008625D02*
X016851Y008625D01*
X016851Y008624D02*
X017123Y008624D01*
X017123Y008623D02*
X016851Y008623D01*
X016851Y008622D02*
X017123Y008622D01*
X017123Y008621D02*
X016851Y008621D01*
X016851Y008620D02*
X017123Y008620D01*
X017123Y008619D02*
X016851Y008619D01*
X016851Y008618D02*
X017123Y008618D01*
X017123Y008617D02*
X016851Y008617D01*
X016851Y008616D02*
X017123Y008616D01*
X017123Y008615D02*
X016851Y008615D01*
X016851Y008614D02*
X017123Y008614D01*
X017123Y008613D02*
X016851Y008613D01*
X016851Y008612D02*
X017123Y008612D01*
X017123Y008611D02*
X016851Y008611D01*
X016851Y008610D02*
X017123Y008610D01*
X017123Y008609D02*
X016851Y008609D01*
X016851Y008608D02*
X017123Y008608D01*
X017123Y008607D02*
X016851Y008607D01*
X016851Y008606D02*
X017123Y008606D01*
X017123Y008605D02*
X016851Y008605D01*
X016851Y008604D02*
X017123Y008604D01*
X017123Y008603D02*
X016851Y008603D01*
X016851Y008602D02*
X017123Y008602D01*
X017123Y008601D02*
X016851Y008601D01*
X016851Y008600D02*
X017123Y008600D01*
X017123Y008599D02*
X016851Y008599D01*
X016851Y008598D02*
X017123Y008598D01*
X017123Y008597D02*
X016851Y008597D01*
X016851Y008596D02*
X017123Y008596D01*
X017123Y008595D02*
X016851Y008595D01*
X016851Y008594D02*
X017123Y008594D01*
X017123Y008593D02*
X016851Y008593D01*
X016851Y008592D02*
X017123Y008592D01*
X017123Y008591D02*
X016851Y008591D01*
X016851Y008590D02*
X017123Y008590D01*
X017123Y008589D02*
X016851Y008589D01*
X016851Y008588D02*
X017123Y008588D01*
X017123Y008587D02*
X016851Y008587D01*
X016851Y008586D02*
X017123Y008586D01*
X017123Y008585D02*
X016851Y008585D01*
X016851Y008584D02*
X017123Y008584D01*
X017123Y008583D02*
X016851Y008583D01*
X016851Y008582D02*
X017123Y008582D01*
X017123Y008581D02*
X016851Y008581D01*
X016851Y008580D02*
X017123Y008580D01*
X017123Y008579D02*
X016851Y008579D01*
X016851Y008578D02*
X017123Y008578D01*
X017123Y008577D02*
X016851Y008577D01*
X016851Y008576D02*
X017123Y008576D01*
X017123Y008575D02*
X016851Y008575D01*
X016851Y008574D02*
X017123Y008574D01*
X017123Y008573D02*
X016851Y008573D01*
X016851Y008572D02*
X017123Y008572D01*
X017123Y008571D02*
X016851Y008571D01*
X016851Y008570D02*
X017123Y008570D01*
X017123Y008569D02*
X016851Y008569D01*
X016851Y008568D02*
X017123Y008568D01*
X017123Y008567D02*
X016851Y008567D01*
X016851Y008566D02*
X017123Y008566D01*
X017123Y008565D02*
X016851Y008565D01*
X016851Y008564D02*
X017123Y008564D01*
X017123Y008563D02*
X016851Y008563D01*
X016851Y008562D02*
X017123Y008562D01*
X017123Y008561D02*
X016851Y008561D01*
X016851Y008560D02*
X017123Y008560D01*
X017123Y008559D02*
X016851Y008559D01*
X016851Y008558D02*
X017123Y008558D01*
X017123Y008557D02*
X016851Y008557D01*
X016851Y008556D02*
X017123Y008556D01*
X017123Y008555D02*
X016851Y008555D01*
X016851Y008554D02*
X017123Y008554D01*
X017123Y008553D02*
X016851Y008553D01*
X016851Y008552D02*
X017123Y008552D01*
X017123Y008551D02*
X016851Y008551D01*
X016851Y008550D02*
X017123Y008550D01*
X017123Y008549D02*
X016851Y008549D01*
X016851Y008548D02*
X017123Y008548D01*
X017123Y008547D02*
X016851Y008547D01*
X016851Y008546D02*
X017123Y008546D01*
X017123Y008545D02*
X016851Y008545D01*
X016851Y008544D02*
X017123Y008544D01*
X017123Y008543D02*
X016851Y008543D01*
X016851Y008542D02*
X017123Y008542D01*
X017123Y008541D02*
X016851Y008541D01*
X016851Y008540D02*
X017123Y008540D01*
X017123Y008539D02*
X016851Y008539D01*
X016851Y008538D02*
X017123Y008538D01*
X017123Y008537D02*
X016851Y008537D01*
X016851Y008536D02*
X017123Y008536D01*
X017123Y008535D02*
X016851Y008535D01*
X016851Y008534D02*
X017123Y008534D01*
X017123Y008533D02*
X016851Y008533D01*
X016851Y008532D02*
X017123Y008532D01*
X017123Y008531D02*
X016851Y008531D01*
X016851Y008530D02*
X017123Y008530D01*
X017123Y008529D02*
X016851Y008529D01*
X016851Y008528D02*
X017123Y008528D01*
X017123Y008527D02*
X016851Y008527D01*
X016851Y008526D02*
X017123Y008526D01*
X017123Y008525D02*
X016851Y008525D01*
X016851Y008524D02*
X017123Y008524D01*
X017123Y008523D02*
X016851Y008523D01*
X016851Y008522D02*
X017123Y008522D01*
X017123Y008521D02*
X016851Y008521D01*
X016851Y008520D02*
X017123Y008520D01*
X017123Y008519D02*
X016851Y008519D01*
X016851Y008518D02*
X017123Y008518D01*
X017123Y008517D02*
X016851Y008517D01*
X016851Y008516D02*
X017123Y008516D01*
X017123Y008515D02*
X016851Y008515D01*
X016851Y008514D02*
X017123Y008514D01*
X017123Y008513D02*
X016851Y008513D01*
X016851Y008512D02*
X017123Y008512D01*
X017123Y008511D02*
X016851Y008511D01*
X016851Y008510D02*
X017123Y008510D01*
X017123Y008509D02*
X016851Y008509D01*
X016851Y008508D02*
X017123Y008508D01*
X017123Y008507D02*
X016851Y008507D01*
X016851Y008506D02*
X017123Y008506D01*
X017123Y008505D02*
X016851Y008505D01*
X016851Y008504D02*
X017123Y008504D01*
X017123Y008503D02*
X016851Y008503D01*
X016851Y008502D02*
X017123Y008502D01*
X017123Y008501D02*
X016851Y008501D01*
X016851Y008500D02*
X017123Y008500D01*
X017123Y008499D02*
X016851Y008499D01*
X016851Y008498D02*
X017123Y008498D01*
X017123Y008497D02*
X016851Y008497D01*
X016851Y008496D02*
X017123Y008496D01*
X017123Y008495D02*
X016851Y008495D01*
X016851Y008494D02*
X017123Y008494D01*
X017123Y008493D02*
X016851Y008493D01*
X016851Y008492D02*
X017123Y008492D01*
X017123Y008491D02*
X016851Y008491D01*
X016851Y008490D02*
X017123Y008490D01*
X017123Y008489D02*
X016851Y008489D01*
X016851Y008488D02*
X017123Y008488D01*
X017123Y008487D02*
X016851Y008487D01*
X016851Y008486D02*
X017123Y008486D01*
X017123Y008485D02*
X016851Y008485D01*
X016851Y008484D02*
X017123Y008484D01*
X017123Y008483D02*
X016851Y008483D01*
X016851Y008482D02*
X017123Y008482D01*
X017123Y008481D02*
X016851Y008481D01*
X016851Y008480D02*
X017123Y008480D01*
X017123Y008479D02*
X016851Y008479D01*
X016851Y008478D02*
X017123Y008478D01*
X017123Y008477D02*
X016851Y008477D01*
X016851Y008476D02*
X017123Y008476D01*
X017123Y008475D02*
X016851Y008475D01*
X016851Y008474D02*
X017123Y008474D01*
X017123Y008473D02*
X016851Y008473D01*
X016851Y008472D02*
X017123Y008472D01*
X017123Y008471D02*
X016851Y008471D01*
X016851Y008470D02*
X017123Y008470D01*
X017123Y008469D02*
X016851Y008469D01*
X016851Y008468D02*
X017123Y008468D01*
X017123Y008467D02*
X016851Y008467D01*
X016851Y008466D02*
X017123Y008466D01*
X017123Y008465D02*
X016851Y008465D01*
X016851Y008464D02*
X017123Y008464D01*
X017123Y008463D02*
X016851Y008463D01*
X016851Y008462D02*
X017123Y008462D01*
X017123Y008461D02*
X016851Y008461D01*
X016851Y008460D02*
X017123Y008460D01*
X017123Y008459D02*
X016851Y008459D01*
X016851Y008458D02*
X017123Y008458D01*
X017123Y008457D02*
X016851Y008457D01*
X016851Y008456D02*
X017123Y008456D01*
X017123Y008455D02*
X016851Y008455D01*
X016851Y008454D02*
X017123Y008454D01*
X017123Y008453D02*
X016851Y008453D01*
X016851Y008452D02*
X017123Y008452D01*
X017123Y008451D02*
X016851Y008451D01*
X016851Y008450D02*
X017123Y008450D01*
X017123Y008449D02*
X016851Y008449D01*
X016851Y008448D02*
X017123Y008448D01*
X017123Y008447D02*
X016851Y008447D01*
X016851Y008446D02*
X017123Y008446D01*
X017123Y008445D02*
X016851Y008445D01*
X016852Y008444D02*
X017123Y008444D01*
X017123Y008443D02*
X016855Y008443D01*
X016859Y008442D02*
X017123Y008442D01*
X017123Y008441D02*
X016862Y008441D01*
X016866Y008440D02*
X017123Y008440D01*
X017123Y008439D02*
X016869Y008439D01*
X016873Y008438D02*
X017123Y008438D01*
X017123Y008437D02*
X016876Y008437D01*
X016879Y008436D02*
X017123Y008436D01*
X017123Y008435D02*
X016882Y008435D01*
X016884Y008434D02*
X017123Y008434D01*
X017123Y008433D02*
X016886Y008433D01*
X016889Y008432D02*
X017123Y008432D01*
X017123Y008431D02*
X016891Y008431D01*
X016893Y008430D02*
X017123Y008430D01*
X017123Y008429D02*
X016896Y008429D01*
X016898Y008428D02*
X017123Y008428D01*
X017123Y008427D02*
X016900Y008427D01*
X016903Y008426D02*
X017123Y008426D01*
X017123Y008425D02*
X016905Y008425D01*
X016908Y008424D02*
X017123Y008424D01*
X017123Y008423D02*
X016910Y008423D01*
X016913Y008422D02*
X017123Y008422D01*
X017123Y008421D02*
X016916Y008421D01*
X016918Y008420D02*
X017123Y008420D01*
X017123Y008419D02*
X016921Y008419D01*
X016924Y008418D02*
X017123Y008418D01*
X017123Y008417D02*
X016926Y008417D01*
X016929Y008416D02*
X017123Y008416D01*
X017123Y008415D02*
X016932Y008415D01*
X016934Y008414D02*
X017123Y008414D01*
X017123Y008413D02*
X016937Y008413D01*
X016940Y008412D02*
X017123Y008412D01*
X017123Y008411D02*
X016944Y008411D01*
X016947Y008410D02*
X017123Y008410D01*
X017123Y008409D02*
X016951Y008409D01*
X016954Y008408D02*
X017123Y008408D01*
X017123Y008407D02*
X016958Y008407D01*
X016961Y008406D02*
X017123Y008406D01*
X017123Y008405D02*
X016965Y008405D01*
X016967Y008404D02*
X017120Y008404D01*
X017117Y008403D02*
X016969Y008403D01*
X016972Y008402D02*
X017114Y008402D01*
X017111Y008401D02*
X016974Y008401D01*
X016976Y008400D02*
X017108Y008400D01*
X017105Y008399D02*
X016979Y008399D01*
X016981Y008398D02*
X017102Y008398D01*
X017099Y008397D02*
X016983Y008397D01*
X016986Y008396D02*
X017097Y008396D01*
X017094Y008395D02*
X016988Y008395D01*
X016990Y008394D02*
X017092Y008394D01*
X017090Y008393D02*
X016993Y008393D01*
X016996Y008392D02*
X017087Y008392D01*
X017085Y008391D02*
X017000Y008391D01*
X017003Y008390D02*
X017083Y008390D01*
X017080Y008389D02*
X017007Y008389D01*
X017010Y008388D02*
X017078Y008388D01*
X017076Y008387D02*
X017014Y008387D01*
X017017Y008386D02*
X017073Y008386D01*
X017071Y008385D02*
X017021Y008385D01*
X017023Y008384D02*
X017069Y008384D01*
X017067Y008383D02*
X017025Y008383D01*
X017028Y008382D02*
X017065Y008382D01*
X017063Y008381D02*
X017030Y008381D01*
X017032Y008380D02*
X017061Y008380D01*
X017059Y008379D02*
X017035Y008379D01*
X017037Y008378D02*
X017057Y008378D01*
X017055Y008377D02*
X017039Y008377D01*
X017042Y008376D02*
X017053Y008376D01*
X017051Y008375D02*
X017044Y008375D01*
X017046Y008374D02*
X017049Y008374D01*
D17*
X017384Y003600D03*
X016384Y003600D03*
X018384Y003600D03*
D18*
X020475Y010850D02*
X010475Y010850D01*
X010225Y010850D01*
X007975Y008600D01*
X020475Y010850D02*
X021975Y012350D01*
D19*
X007975Y008600D02*
X006850Y008600D01*
D20*
X010600Y009850D03*
X012725Y006725D03*
X012134Y004350D03*
X017038Y006600D03*
D21*
X017038Y006725D01*
X016975Y006788D01*
X018538Y006788D01*
X020475Y004850D01*
X021975Y004850D01*
X016884Y004850D01*
X016384Y004350D01*
X016384Y003600D01*
X016384Y004350D02*
X012134Y004350D01*
X012725Y006725D02*
X015079Y006725D01*
X015100Y006746D01*
X015433Y006746D01*
X015475Y006788D01*
X016975Y006788D01*
X015475Y006788D02*
X015288Y006788D01*
X015241Y006834D01*
X015241Y009469D01*
X010600Y009850D02*
X010600Y010725D01*
X010475Y010850D01*
D22*
X010070Y011630D02*
X009783Y011511D01*
X007332Y009060D01*
X006758Y009060D01*
X006710Y009040D01*
X006462Y009040D01*
X006301Y008973D01*
X006177Y008849D01*
X006110Y008688D01*
X006110Y008512D01*
X006177Y008351D01*
X006301Y008227D01*
X006462Y008160D01*
X006710Y008160D01*
X006758Y008140D01*
X007332Y008140D01*
X007533Y007939D01*
X007820Y007820D01*
X008130Y007820D01*
X008417Y007939D01*
X010341Y009863D01*
X010341Y009798D01*
X010380Y009703D01*
X010453Y009630D01*
X010548Y009591D01*
X010652Y009591D01*
X010747Y009630D01*
X010820Y009703D01*
X010859Y009798D01*
X010859Y009902D01*
X010820Y009997D01*
X010790Y010026D01*
X010790Y010070D01*
X020630Y010070D01*
X020917Y010189D01*
X021863Y011135D01*
X022135Y011135D01*
X022444Y011218D01*
X022721Y011378D01*
X022947Y011604D01*
X023107Y011881D01*
X023190Y012190D01*
X023190Y012510D01*
X023107Y012819D01*
X022947Y013096D01*
X022721Y013322D01*
X022444Y013482D01*
X022135Y013565D01*
X021815Y013565D01*
X021506Y013482D01*
X021229Y013322D01*
X021003Y013096D01*
X020843Y012819D01*
X020760Y012510D01*
X020760Y012238D01*
X020152Y011630D01*
X018395Y011630D01*
X018688Y011922D01*
X018688Y012528D01*
X018260Y012956D01*
X017655Y012956D01*
X017227Y012528D01*
X017227Y011922D01*
X017519Y011630D01*
X014931Y011630D01*
X015223Y011922D01*
X015223Y012528D01*
X014795Y012956D01*
X014190Y012956D01*
X013762Y012528D01*
X013762Y011922D01*
X014055Y011630D01*
X010070Y011630D01*
X009748Y011476D02*
X004405Y011476D01*
X004405Y011318D02*
X009589Y011318D01*
X009431Y011159D02*
X004405Y011159D01*
X004405Y011001D02*
X009272Y011001D01*
X009114Y010842D02*
X004405Y010842D01*
X004405Y010684D02*
X008955Y010684D01*
X008797Y010525D02*
X004405Y010525D01*
X004405Y010367D02*
X008638Y010367D01*
X008480Y010208D02*
X004405Y010208D01*
X004405Y010050D02*
X008321Y010050D01*
X008163Y009891D02*
X007481Y009891D01*
X007523Y009849D02*
X007399Y009973D01*
X007238Y010040D01*
X006462Y010040D01*
X006301Y009973D01*
X006177Y009849D01*
X006110Y009688D01*
X006110Y009512D01*
X006177Y009351D01*
X006301Y009227D01*
X006462Y009160D01*
X007238Y009160D01*
X007399Y009227D01*
X007523Y009351D01*
X007590Y009512D01*
X007590Y009688D01*
X007523Y009849D01*
X007571Y009733D02*
X008004Y009733D01*
X007846Y009574D02*
X007590Y009574D01*
X007550Y009416D02*
X007687Y009416D01*
X007529Y009257D02*
X007429Y009257D01*
X007370Y009099D02*
X004405Y009099D01*
X004405Y008995D02*
X004405Y012960D01*
X004577Y012788D01*
X004808Y012654D01*
X005066Y012585D01*
X005334Y012585D01*
X005592Y012654D01*
X005823Y012788D01*
X006012Y012977D01*
X006146Y013208D01*
X006215Y013466D01*
X006215Y013734D01*
X006146Y013992D01*
X006012Y014223D01*
X005823Y014412D01*
X005592Y014546D01*
X005334Y014615D01*
X005066Y014615D01*
X004808Y014546D01*
X004577Y014412D01*
X004405Y014240D01*
X004405Y014411D01*
X004409Y014453D01*
X004441Y014530D01*
X004500Y014589D01*
X004577Y014621D01*
X004619Y014625D01*
X023516Y014625D01*
X023558Y014621D01*
X023635Y014589D01*
X023694Y014530D01*
X023726Y014453D01*
X023730Y014411D01*
X023730Y008995D01*
X023731Y008993D01*
X023719Y008988D01*
X023624Y008894D01*
X023573Y008769D01*
X023573Y008635D01*
X023624Y008511D01*
X023630Y008506D01*
X023624Y008500D01*
X023573Y008376D01*
X023573Y008242D01*
X023624Y008117D01*
X023719Y008023D01*
X023731Y008018D01*
X023730Y008016D01*
X023730Y002994D01*
X023726Y002952D01*
X023694Y002875D01*
X023635Y002816D01*
X023558Y002784D01*
X023516Y002780D01*
X005810Y002780D01*
X005823Y002788D01*
X006012Y002977D01*
X006146Y003208D01*
X006215Y003466D01*
X006215Y003734D01*
X006146Y003992D01*
X006012Y004223D01*
X005823Y004412D01*
X005592Y004546D01*
X005334Y004615D01*
X005066Y004615D01*
X004808Y004546D01*
X004577Y004412D01*
X004405Y004240D01*
X004405Y008016D01*
X004404Y008018D01*
X004416Y008023D01*
X004511Y008117D01*
X004562Y008242D01*
X004562Y008376D01*
X004511Y008500D01*
X004505Y008506D01*
X004511Y008511D01*
X004562Y008635D01*
X004562Y008769D01*
X004511Y008894D01*
X004416Y008988D01*
X004404Y008993D01*
X004405Y008995D01*
X004465Y008940D02*
X006268Y008940D01*
X006149Y008782D02*
X004558Y008782D01*
X004557Y008623D02*
X006110Y008623D01*
X006130Y008465D02*
X004526Y008465D01*
X004562Y008306D02*
X006222Y008306D01*
X006339Y007989D02*
X004405Y007989D01*
X004405Y007831D02*
X006169Y007831D01*
X006177Y007849D02*
X006110Y007688D01*
X006110Y007512D01*
X006177Y007351D01*
X006301Y007227D01*
X006462Y007160D01*
X007238Y007160D01*
X007399Y007227D01*
X007523Y007351D01*
X007590Y007512D01*
X007590Y007688D01*
X007523Y007849D01*
X007399Y007973D01*
X007238Y008040D01*
X006462Y008040D01*
X006301Y007973D01*
X006177Y007849D01*
X006110Y007672D02*
X004405Y007672D01*
X004405Y007514D02*
X006110Y007514D01*
X006175Y007355D02*
X004405Y007355D01*
X004405Y007197D02*
X006374Y007197D01*
X007326Y007197D02*
X023730Y007197D01*
X023730Y007355D02*
X007525Y007355D01*
X007590Y007514D02*
X023730Y007514D01*
X023730Y007672D02*
X007590Y007672D01*
X007531Y007831D02*
X007794Y007831D01*
X007483Y007989D02*
X007361Y007989D01*
X006740Y008148D02*
X004524Y008148D01*
X004405Y009257D02*
X006271Y009257D01*
X006150Y009416D02*
X004405Y009416D01*
X004405Y009574D02*
X006110Y009574D01*
X006129Y009733D02*
X004405Y009733D01*
X004405Y009891D02*
X006219Y009891D01*
X004405Y011635D02*
X014050Y011635D01*
X013892Y011793D02*
X004405Y011793D01*
X004405Y011952D02*
X013762Y011952D01*
X013762Y012110D02*
X004405Y012110D01*
X004405Y012269D02*
X013762Y012269D01*
X013762Y012427D02*
X004405Y012427D01*
X004405Y012586D02*
X005064Y012586D01*
X005336Y012586D02*
X013820Y012586D01*
X013979Y012744D02*
X005747Y012744D01*
X005938Y012903D02*
X010936Y012903D01*
X010853Y012937D02*
X011151Y012814D01*
X011473Y012814D01*
X011770Y012937D01*
X011998Y013165D01*
X012122Y013463D01*
X012122Y013785D01*
X011998Y014082D01*
X011770Y014310D01*
X011473Y014434D01*
X011151Y014434D01*
X010853Y014310D01*
X010625Y014082D01*
X010502Y013785D01*
X010502Y013463D01*
X010625Y013165D01*
X010853Y012937D01*
X010729Y013061D02*
X006061Y013061D01*
X006149Y013220D02*
X010602Y013220D01*
X010537Y013378D02*
X006191Y013378D01*
X006215Y013537D02*
X010502Y013537D01*
X010502Y013695D02*
X006215Y013695D01*
X006183Y013854D02*
X010530Y013854D01*
X010596Y014012D02*
X006134Y014012D01*
X006043Y014171D02*
X010713Y014171D01*
X010898Y014329D02*
X005906Y014329D01*
X005693Y014488D02*
X023712Y014488D01*
X023730Y014329D02*
X020386Y014329D01*
X020432Y014310D02*
X020134Y014434D01*
X019812Y014434D01*
X019514Y014310D01*
X019286Y014082D01*
X019163Y013785D01*
X019163Y013463D01*
X019286Y013165D01*
X019514Y012937D01*
X019812Y012814D01*
X020134Y012814D01*
X020432Y012937D01*
X020660Y013165D01*
X020783Y013463D01*
X020783Y013785D01*
X020660Y014082D01*
X020432Y014310D01*
X020572Y014171D02*
X023730Y014171D01*
X023730Y014012D02*
X020689Y014012D01*
X020754Y013854D02*
X023730Y013854D01*
X023730Y013695D02*
X020783Y013695D01*
X020783Y013537D02*
X021709Y013537D01*
X021326Y013378D02*
X020748Y013378D01*
X020682Y013220D02*
X021126Y013220D01*
X020983Y013061D02*
X020556Y013061D01*
X020349Y012903D02*
X020891Y012903D01*
X020823Y012744D02*
X018471Y012744D01*
X018313Y012903D02*
X019598Y012903D01*
X019390Y013061D02*
X011894Y013061D01*
X012021Y013220D02*
X019264Y013220D01*
X019198Y013378D02*
X012087Y013378D01*
X012122Y013537D02*
X019163Y013537D01*
X019163Y013695D02*
X012122Y013695D01*
X012093Y013854D02*
X019192Y013854D01*
X019257Y014012D02*
X012027Y014012D01*
X011910Y014171D02*
X019375Y014171D01*
X019560Y014329D02*
X011725Y014329D01*
X011687Y012903D02*
X014137Y012903D01*
X014848Y012903D02*
X017602Y012903D01*
X017443Y012744D02*
X015007Y012744D01*
X015165Y012586D02*
X017285Y012586D01*
X017227Y012427D02*
X015223Y012427D01*
X015223Y012269D02*
X017227Y012269D01*
X017227Y012110D02*
X015223Y012110D01*
X015223Y011952D02*
X017227Y011952D01*
X017356Y011793D02*
X015094Y011793D01*
X014935Y011635D02*
X017515Y011635D01*
X018400Y011635D02*
X020156Y011635D01*
X020315Y011793D02*
X018558Y011793D01*
X018688Y011952D02*
X020473Y011952D01*
X020632Y012110D02*
X018688Y012110D01*
X018688Y012269D02*
X020760Y012269D01*
X020760Y012427D02*
X018688Y012427D01*
X018630Y012586D02*
X020780Y012586D01*
X022241Y013537D02*
X023730Y013537D01*
X023730Y013378D02*
X022624Y013378D01*
X022824Y013220D02*
X023730Y013220D01*
X023730Y013061D02*
X022967Y013061D01*
X023059Y012903D02*
X023730Y012903D01*
X023730Y012744D02*
X023127Y012744D01*
X023170Y012586D02*
X023730Y012586D01*
X023730Y012427D02*
X023190Y012427D01*
X023190Y012269D02*
X023730Y012269D01*
X023730Y012110D02*
X023169Y012110D01*
X023126Y011952D02*
X023730Y011952D01*
X023730Y011793D02*
X023056Y011793D01*
X022965Y011635D02*
X023730Y011635D01*
X023730Y011476D02*
X022819Y011476D01*
X022617Y011318D02*
X023730Y011318D01*
X023730Y011159D02*
X022225Y011159D01*
X021729Y011001D02*
X023730Y011001D01*
X023730Y010842D02*
X021570Y010842D01*
X021412Y010684D02*
X023730Y010684D01*
X023730Y010525D02*
X021253Y010525D01*
X021095Y010367D02*
X023730Y010367D01*
X023730Y010208D02*
X020936Y010208D01*
X023578Y008782D02*
X017264Y008782D01*
X017263Y008786D02*
X017263Y008821D01*
X017245Y008839D01*
X017237Y008863D01*
X017209Y008877D01*
X017207Y008881D01*
X017200Y008884D01*
X017181Y008903D01*
X017156Y008903D01*
X017155Y008904D01*
X017154Y008907D01*
X017125Y008919D01*
X017110Y008926D01*
X017108Y008926D01*
X017105Y008927D01*
X017059Y008950D01*
X017052Y008948D01*
X017046Y008950D01*
X016998Y008930D01*
X016995Y008929D01*
X016991Y008931D01*
X016957Y008916D01*
X016949Y008913D01*
X016948Y008912D01*
X016946Y008911D01*
X016898Y008898D01*
X016898Y008896D01*
X016861Y008881D01*
X016816Y008869D01*
X016815Y008868D01*
X016793Y008868D01*
X016778Y008853D01*
X016757Y008847D01*
X016738Y008813D01*
X016711Y008786D01*
X016711Y008764D01*
X016700Y008745D01*
X016711Y008708D01*
X016711Y008464D01*
X016700Y008427D01*
X016711Y008408D01*
X016711Y008386D01*
X016738Y008359D01*
X016757Y008326D01*
X016778Y008320D01*
X016793Y008304D01*
X016828Y008304D01*
X016840Y008300D01*
X016843Y008294D01*
X016879Y008284D01*
X016898Y008276D01*
X016898Y008275D01*
X016938Y008263D01*
X016943Y008262D01*
X016946Y008261D01*
X016948Y008260D01*
X016949Y008259D01*
X016957Y008256D01*
X016991Y008242D01*
X016995Y008244D01*
X016998Y008243D01*
X017046Y008222D01*
X017052Y008225D01*
X017059Y008222D01*
X017105Y008246D01*
X017154Y008265D01*
X017181Y008265D01*
X017198Y008283D01*
X017222Y008291D01*
X017238Y008322D01*
X017263Y008347D01*
X017263Y008372D01*
X017274Y008394D01*
X017263Y008428D01*
X017263Y008730D01*
X017274Y008753D01*
X017263Y008786D01*
X017263Y008623D02*
X023578Y008623D01*
X023609Y008465D02*
X017263Y008465D01*
X017230Y008306D02*
X023573Y008306D01*
X023612Y008148D02*
X008626Y008148D01*
X008784Y008306D02*
X016791Y008306D01*
X016943Y008262D02*
X016943Y008262D01*
X016711Y008465D02*
X008943Y008465D01*
X009101Y008623D02*
X016711Y008623D01*
X016711Y008782D02*
X009260Y008782D01*
X009418Y008940D02*
X014786Y008940D01*
X014801Y008931D02*
X014847Y008919D01*
X015222Y008919D01*
X015222Y009451D01*
X014691Y009451D01*
X014691Y009075D01*
X014703Y009030D01*
X014727Y008989D01*
X014760Y008955D01*
X014801Y008931D01*
X014691Y009099D02*
X009577Y009099D01*
X009735Y009257D02*
X014691Y009257D01*
X014691Y009416D02*
X009894Y009416D01*
X010052Y009574D02*
X014691Y009574D01*
X014691Y009488D02*
X015222Y009488D01*
X015222Y010019D01*
X014847Y010019D01*
X014801Y010007D01*
X014760Y009983D01*
X014727Y009950D01*
X014703Y009909D01*
X014691Y009863D01*
X014691Y009488D01*
X014691Y009733D02*
X010832Y009733D01*
X010859Y009891D02*
X014698Y009891D01*
X015222Y009891D02*
X015259Y009891D01*
X015259Y010019D02*
X015259Y009488D01*
X015222Y009488D01*
X015222Y009451D01*
X015259Y009451D01*
X015259Y008919D01*
X015634Y008919D01*
X015680Y008931D01*
X015721Y008955D01*
X015755Y008989D01*
X015759Y008997D01*
X015797Y008959D01*
X016653Y008959D01*
X016717Y009023D01*
X016781Y008959D01*
X017637Y008959D01*
X017719Y009041D01*
X017719Y009897D01*
X017637Y009979D01*
X016781Y009979D01*
X016717Y009915D01*
X016653Y009979D01*
X015797Y009979D01*
X015759Y009942D01*
X015755Y009950D01*
X015721Y009983D01*
X015680Y010007D01*
X015634Y010019D01*
X015259Y010019D01*
X015259Y009733D02*
X015222Y009733D01*
X015222Y009574D02*
X015259Y009574D01*
X015259Y009416D02*
X015222Y009416D01*
X015222Y009257D02*
X015259Y009257D01*
X015259Y009099D02*
X015222Y009099D01*
X015222Y008940D02*
X015259Y008940D01*
X015695Y008940D02*
X017022Y008940D01*
X017079Y008940D02*
X023670Y008940D01*
X023730Y009099D02*
X017719Y009099D01*
X017719Y009257D02*
X023730Y009257D01*
X023730Y009416D02*
X017719Y009416D01*
X017719Y009574D02*
X023730Y009574D01*
X023730Y009733D02*
X017719Y009733D01*
X017719Y009891D02*
X023730Y009891D01*
X023730Y010050D02*
X010790Y010050D01*
X010368Y009733D02*
X010211Y009733D01*
X008467Y007989D02*
X023730Y007989D01*
X023730Y007831D02*
X008156Y007831D01*
X004405Y007038D02*
X023730Y007038D01*
X023730Y006880D02*
X004405Y006880D01*
X004405Y006721D02*
X023730Y006721D01*
X023730Y006563D02*
X004405Y006563D01*
X004405Y006404D02*
X023730Y006404D01*
X023730Y006246D02*
X004405Y006246D01*
X004405Y006087D02*
X021761Y006087D01*
X021791Y006093D02*
X021670Y006069D01*
X021552Y006033D01*
X021438Y005986D01*
X021329Y005928D01*
X021226Y005859D01*
X021131Y005781D01*
X021044Y005694D01*
X020966Y005599D01*
X020897Y005496D01*
X020839Y005387D01*
X020792Y005273D01*
X020756Y005155D01*
X020732Y005034D01*
X020722Y004930D01*
X021895Y004930D01*
X021895Y006103D01*
X021791Y006093D01*
X021895Y006087D02*
X022055Y006087D01*
X022055Y006103D02*
X022159Y006093D01*
X022280Y006069D01*
X022398Y006033D01*
X022512Y005986D01*
X022621Y005928D01*
X022724Y005859D01*
X022819Y005781D01*
X022906Y005694D01*
X022984Y005599D01*
X023053Y005496D01*
X023111Y005387D01*
X023158Y005273D01*
X023194Y005155D01*
X023218Y005034D01*
X023228Y004930D01*
X022055Y004930D01*
X022055Y004770D01*
X023228Y004770D01*
X023218Y004666D01*
X023194Y004545D01*
X023158Y004427D01*
X023111Y004313D01*
X023053Y004204D01*
X022984Y004101D01*
X022906Y004006D01*
X022819Y003919D01*
X022724Y003841D01*
X022621Y003772D01*
X022512Y003714D01*
X022398Y003667D01*
X022280Y003631D01*
X022159Y003607D01*
X022055Y003597D01*
X022055Y004770D01*
X021895Y004770D01*
X021895Y003597D01*
X021791Y003607D01*
X021670Y003631D01*
X021552Y003667D01*
X021438Y003714D01*
X021329Y003772D01*
X021226Y003841D01*
X021131Y003919D01*
X021044Y004006D01*
X020966Y004101D01*
X020897Y004204D01*
X020839Y004313D01*
X020792Y004427D01*
X020756Y004545D01*
X020732Y004666D01*
X020722Y004770D01*
X021895Y004770D01*
X021895Y004930D01*
X022055Y004930D01*
X022055Y006103D01*
X022189Y006087D02*
X023730Y006087D01*
X023730Y005929D02*
X022620Y005929D01*
X022830Y005770D02*
X023730Y005770D01*
X023730Y005612D02*
X022974Y005612D01*
X023076Y005453D02*
X023730Y005453D01*
X023730Y005295D02*
X023149Y005295D01*
X023198Y005136D02*
X023730Y005136D01*
X023730Y004978D02*
X023224Y004978D01*
X023217Y004661D02*
X023730Y004661D01*
X023730Y004819D02*
X022055Y004819D01*
X022055Y004661D02*
X021895Y004661D01*
X021895Y004819D02*
X004405Y004819D01*
X004405Y004661D02*
X020733Y004661D01*
X020769Y004502D02*
X020349Y004502D01*
X020432Y004468D02*
X020134Y004591D01*
X019812Y004591D01*
X019514Y004468D01*
X019286Y004240D01*
X019163Y003942D01*
X019163Y003620D01*
X019286Y003322D01*
X019514Y003094D01*
X019812Y002971D01*
X020134Y002971D01*
X020432Y003094D01*
X020660Y003322D01*
X020783Y003620D01*
X020783Y003942D01*
X020660Y004240D01*
X020432Y004468D01*
X020556Y004344D02*
X020826Y004344D01*
X020910Y004185D02*
X020682Y004185D01*
X020748Y004027D02*
X021027Y004027D01*
X021193Y003868D02*
X020783Y003868D01*
X020783Y003710D02*
X021449Y003710D01*
X021895Y003710D02*
X022055Y003710D01*
X022055Y003868D02*
X021895Y003868D01*
X021895Y004027D02*
X022055Y004027D01*
X022055Y004185D02*
X021895Y004185D01*
X021895Y004344D02*
X022055Y004344D01*
X022055Y004502D02*
X021895Y004502D01*
X021895Y004978D02*
X022055Y004978D01*
X022055Y005136D02*
X021895Y005136D01*
X021895Y005295D02*
X022055Y005295D01*
X022055Y005453D02*
X021895Y005453D01*
X021895Y005612D02*
X022055Y005612D01*
X022055Y005770D02*
X021895Y005770D01*
X021895Y005929D02*
X022055Y005929D01*
X021330Y005929D02*
X004405Y005929D01*
X004405Y005770D02*
X021120Y005770D01*
X020976Y005612D02*
X004405Y005612D01*
X004405Y005453D02*
X020874Y005453D01*
X020801Y005295D02*
X004405Y005295D01*
X004405Y005136D02*
X020752Y005136D01*
X020726Y004978D02*
X004405Y004978D01*
X004405Y004502D02*
X004732Y004502D01*
X004508Y004344D02*
X004405Y004344D01*
X005668Y004502D02*
X010936Y004502D01*
X010853Y004468D02*
X010625Y004240D01*
X010502Y003942D01*
X010502Y003620D01*
X010625Y003322D01*
X010853Y003094D01*
X011151Y002971D01*
X011473Y002971D01*
X011770Y003094D01*
X011998Y003322D01*
X012122Y003620D01*
X012122Y003942D01*
X011998Y004240D01*
X011770Y004468D01*
X011473Y004591D01*
X011151Y004591D01*
X010853Y004468D01*
X010729Y004344D02*
X005892Y004344D01*
X006034Y004185D02*
X010602Y004185D01*
X010537Y004027D02*
X006126Y004027D01*
X006179Y003868D02*
X010502Y003868D01*
X010502Y003710D02*
X006215Y003710D01*
X006215Y003551D02*
X010530Y003551D01*
X010596Y003393D02*
X006195Y003393D01*
X006153Y003234D02*
X010713Y003234D01*
X010899Y003076D02*
X006069Y003076D01*
X005952Y002917D02*
X023711Y002917D01*
X023730Y003076D02*
X020386Y003076D01*
X020571Y003234D02*
X023730Y003234D01*
X023730Y003393D02*
X020689Y003393D01*
X020754Y003551D02*
X023730Y003551D01*
X023730Y003710D02*
X022501Y003710D01*
X022757Y003868D02*
X023730Y003868D01*
X023730Y004027D02*
X022923Y004027D01*
X023040Y004185D02*
X023730Y004185D01*
X023730Y004344D02*
X023124Y004344D01*
X023181Y004502D02*
X023730Y004502D01*
X019597Y004502D02*
X011688Y004502D01*
X011895Y004344D02*
X019390Y004344D01*
X019264Y004185D02*
X012021Y004185D01*
X012087Y004027D02*
X016036Y004027D01*
X016026Y004020D02*
X015965Y003958D01*
X015914Y003888D01*
X015875Y003811D01*
X015848Y003729D01*
X015834Y003643D01*
X015834Y003620D01*
X016364Y003620D01*
X016364Y003580D01*
X015834Y003580D01*
X015834Y003557D01*
X015848Y003471D01*
X015875Y003389D01*
X015914Y003312D01*
X015965Y003242D01*
X016026Y003180D01*
X016096Y003130D01*
X016173Y003090D01*
X016256Y003064D01*
X016341Y003050D01*
X016364Y003050D01*
X016364Y003580D01*
X016404Y003580D01*
X016404Y003050D01*
X016428Y003050D01*
X016513Y003064D01*
X016596Y003090D01*
X016673Y003130D01*
X016743Y003180D01*
X016804Y003242D01*
X016855Y003312D01*
X016894Y003389D01*
X016905Y003424D01*
X016952Y003311D01*
X017096Y003168D01*
X017283Y003090D01*
X017486Y003090D01*
X017673Y003168D01*
X017817Y003311D01*
X017884Y003474D01*
X017952Y003311D01*
X018096Y003168D01*
X018283Y003090D01*
X018486Y003090D01*
X018673Y003168D01*
X018817Y003311D01*
X018894Y003499D01*
X018894Y003701D01*
X018817Y003889D01*
X018673Y004032D01*
X018486Y004110D01*
X018283Y004110D01*
X018096Y004032D01*
X017952Y003889D01*
X017884Y003726D01*
X017817Y003889D01*
X017673Y004032D01*
X017486Y004110D01*
X017283Y004110D01*
X017096Y004032D01*
X016952Y003889D01*
X016905Y003776D01*
X016894Y003811D01*
X016855Y003888D01*
X016804Y003958D01*
X016743Y004020D01*
X016673Y004070D01*
X016596Y004110D01*
X016513Y004136D01*
X016428Y004150D01*
X016404Y004150D01*
X016404Y003620D01*
X016364Y003620D01*
X016364Y004150D01*
X016341Y004150D01*
X016256Y004136D01*
X016173Y004110D01*
X016096Y004070D01*
X016026Y004020D01*
X015904Y003868D02*
X012122Y003868D01*
X012122Y003710D02*
X015845Y003710D01*
X015835Y003551D02*
X012093Y003551D01*
X012027Y003393D02*
X015874Y003393D01*
X015973Y003234D02*
X011910Y003234D01*
X011725Y003076D02*
X016219Y003076D01*
X016364Y003076D02*
X016404Y003076D01*
X016550Y003076D02*
X019560Y003076D01*
X019375Y003234D02*
X018740Y003234D01*
X018851Y003393D02*
X019257Y003393D01*
X019192Y003551D02*
X018894Y003551D01*
X018891Y003710D02*
X019163Y003710D01*
X019163Y003868D02*
X018825Y003868D01*
X018679Y004027D02*
X019198Y004027D01*
X018090Y004027D02*
X017679Y004027D01*
X017825Y003868D02*
X017943Y003868D01*
X017918Y003393D02*
X017851Y003393D01*
X017740Y003234D02*
X018029Y003234D01*
X017029Y003234D02*
X016796Y003234D01*
X016895Y003393D02*
X016918Y003393D01*
X016404Y003393D02*
X016364Y003393D01*
X016364Y003551D02*
X016404Y003551D01*
X016404Y003710D02*
X016364Y003710D01*
X016364Y003868D02*
X016404Y003868D01*
X016404Y004027D02*
X016364Y004027D01*
X016733Y004027D02*
X017090Y004027D01*
X016943Y003868D02*
X016865Y003868D01*
X016404Y003234D02*
X016364Y003234D01*
X004653Y012744D02*
X004405Y012744D01*
X004405Y012903D02*
X004462Y012903D01*
X004494Y014329D02*
X004405Y014329D01*
X004424Y014488D02*
X004707Y014488D01*
M02*
