G75*
G70*
%OFA0B0*%
%FSLAX24Y24*%
%IPPOS*%
%LPD*%
%AMOC8*
5,1,8,0,0,1.08239X$1,22.5*
%
%ADD10C,0.0000*%
%ADD11C,0.0030*%
%ADD12C,0.0020*%
%ADD13C,0.0160*%
%ADD14C,0.0050*%
%ADD15C,0.0080*%
%ADD16C,0.0100*%
%ADD17R,0.0400X0.4000*%
%ADD18C,0.0010*%
%ADD19C,0.0060*%
%ADD20C,0.0059*%
D10*
X004225Y003191D02*
X004225Y014006D01*
X004227Y014052D01*
X004232Y014098D01*
X004241Y014144D01*
X004254Y014189D01*
X004270Y014232D01*
X004289Y014274D01*
X004312Y014315D01*
X004338Y014353D01*
X004367Y014390D01*
X004398Y014424D01*
X004432Y014455D01*
X004469Y014484D01*
X004507Y014510D01*
X004548Y014533D01*
X004590Y014552D01*
X004633Y014568D01*
X004678Y014581D01*
X004724Y014590D01*
X004770Y014595D01*
X004816Y014597D01*
X004816Y014596D02*
X023005Y014596D01*
X023005Y014597D02*
X023051Y014595D01*
X023097Y014590D01*
X023143Y014581D01*
X023188Y014568D01*
X023231Y014552D01*
X023273Y014533D01*
X023314Y014510D01*
X023352Y014484D01*
X023389Y014455D01*
X023423Y014424D01*
X023454Y014390D01*
X023483Y014353D01*
X023509Y014315D01*
X023532Y014274D01*
X023551Y014232D01*
X023567Y014189D01*
X023580Y014144D01*
X023589Y014098D01*
X023594Y014052D01*
X023596Y014006D01*
X023595Y014006D02*
X023595Y003191D01*
X023596Y003191D02*
X023594Y003145D01*
X023589Y003099D01*
X023580Y003053D01*
X023567Y003008D01*
X023551Y002965D01*
X023532Y002923D01*
X023509Y002882D01*
X023483Y002844D01*
X023454Y002807D01*
X023423Y002773D01*
X023389Y002742D01*
X023352Y002713D01*
X023314Y002687D01*
X023273Y002664D01*
X023231Y002645D01*
X023188Y002629D01*
X023143Y002616D01*
X023097Y002607D01*
X023051Y002602D01*
X023005Y002600D01*
X004816Y002600D01*
X004770Y002602D01*
X004724Y002607D01*
X004678Y002616D01*
X004633Y002629D01*
X004590Y002645D01*
X004548Y002664D01*
X004507Y002687D01*
X004469Y002713D01*
X004432Y002742D01*
X004398Y002773D01*
X004367Y002807D01*
X004338Y002844D01*
X004312Y002882D01*
X004289Y002923D01*
X004270Y002965D01*
X004254Y003008D01*
X004241Y003053D01*
X004232Y003099D01*
X004227Y003145D01*
X004225Y003191D01*
D11*
X011795Y005195D02*
X011795Y005340D01*
X011843Y005389D01*
X011940Y005389D01*
X011988Y005340D01*
X011988Y005195D01*
X012085Y005195D02*
X011795Y005195D01*
X011988Y005292D02*
X012085Y005389D01*
X012037Y005490D02*
X012085Y005538D01*
X012085Y005635D01*
X012037Y005683D01*
X011940Y005683D01*
X011892Y005635D01*
X011892Y005587D01*
X011940Y005490D01*
X011795Y005490D01*
X011795Y005683D01*
X013195Y003210D02*
X013340Y003210D01*
X013389Y003162D01*
X013389Y003065D01*
X013340Y003017D01*
X013195Y003017D01*
X013195Y002920D02*
X013195Y003210D01*
X013292Y003017D02*
X013389Y002920D01*
X013490Y003065D02*
X013683Y003065D01*
X013635Y002920D02*
X013635Y003210D01*
X013490Y003065D01*
X017488Y004240D02*
X017681Y004240D01*
X017584Y004240D02*
X017584Y004530D01*
X017488Y004433D01*
X017782Y004433D02*
X017782Y004240D01*
X017782Y004385D02*
X017976Y004385D01*
X017976Y004433D02*
X017976Y004240D01*
X017976Y004433D02*
X017879Y004530D01*
X017782Y004433D01*
X017929Y004049D02*
X017929Y003802D01*
X017806Y003925D02*
X018053Y003925D01*
X018372Y004337D02*
X018565Y004337D01*
X018565Y004433D02*
X018372Y004433D01*
X018961Y004482D02*
X018961Y004288D01*
X019154Y004482D01*
X019154Y004288D01*
X019106Y004240D01*
X019009Y004240D01*
X018961Y004288D01*
X019256Y004288D02*
X019304Y004288D01*
X019304Y004240D01*
X019256Y004240D01*
X019256Y004288D01*
X019403Y004240D02*
X019596Y004240D01*
X019500Y004240D02*
X019500Y004530D01*
X019403Y004433D01*
X019154Y004482D02*
X019106Y004530D01*
X019009Y004530D01*
X018961Y004482D01*
X019698Y004530D02*
X019698Y004337D01*
X019794Y004240D01*
X019891Y004337D01*
X019891Y004530D01*
X019553Y003925D02*
X019306Y003925D01*
X017608Y006295D02*
X017415Y006295D01*
X017512Y006295D02*
X017512Y006585D01*
X017415Y006488D01*
X017314Y006537D02*
X017265Y006585D01*
X017169Y006585D01*
X017120Y006537D01*
X017120Y006343D01*
X017169Y006295D01*
X017265Y006295D01*
X017314Y006343D01*
X017253Y008965D02*
X017060Y008965D01*
X017253Y009158D01*
X017253Y009207D01*
X017205Y009255D01*
X017108Y009255D01*
X017060Y009207D01*
X016958Y009207D02*
X016910Y009255D01*
X016813Y009255D01*
X016765Y009207D01*
X016765Y009013D01*
X016813Y008965D01*
X016910Y008965D01*
X016958Y009013D01*
X015460Y009365D02*
X015460Y009510D01*
X015412Y009558D01*
X015218Y009558D01*
X015170Y009510D01*
X015170Y009365D01*
X015460Y009365D01*
X015460Y009660D02*
X015460Y009853D01*
X015460Y009756D02*
X015170Y009756D01*
X015267Y009660D01*
X017770Y011690D02*
X017770Y011787D01*
X017770Y011738D02*
X018060Y011738D01*
X018060Y011690D02*
X018060Y011787D01*
X018012Y011886D02*
X017818Y011886D01*
X017770Y011935D01*
X017770Y012032D01*
X017818Y012080D01*
X017818Y012181D02*
X017770Y012229D01*
X017770Y012326D01*
X017818Y012375D01*
X017867Y012375D01*
X018060Y012181D01*
X018060Y012375D01*
X018012Y012080D02*
X018060Y012032D01*
X018060Y011935D01*
X018012Y011886D01*
X017885Y013865D02*
X017788Y013865D01*
X017740Y013913D01*
X017639Y013865D02*
X017542Y013962D01*
X017590Y013962D02*
X017445Y013962D01*
X017445Y013865D02*
X017445Y014155D01*
X017590Y014155D01*
X017639Y014107D01*
X017639Y014010D01*
X017590Y013962D01*
X017740Y014107D02*
X017788Y014155D01*
X017885Y014155D01*
X017933Y014107D01*
X017933Y014058D01*
X017885Y014010D01*
X017933Y013962D01*
X017933Y013913D01*
X017885Y013865D01*
X017885Y014010D02*
X017837Y014010D01*
X014960Y013130D02*
X014960Y013033D01*
X014912Y012985D01*
X014912Y012883D02*
X014960Y012835D01*
X014960Y012738D01*
X014912Y012690D01*
X014718Y012690D01*
X014670Y012738D01*
X014670Y012835D01*
X014718Y012883D01*
X014718Y012985D02*
X014670Y013033D01*
X014670Y013130D01*
X014718Y013178D01*
X014767Y013178D01*
X014815Y013130D01*
X014863Y013178D01*
X014912Y013178D01*
X014960Y013130D01*
X014815Y013130D02*
X014815Y013081D01*
D12*
X017409Y004955D02*
X017372Y004918D01*
X017372Y004772D01*
X017409Y004735D01*
X017482Y004735D01*
X017519Y004772D01*
X017593Y004772D02*
X017630Y004735D01*
X017740Y004735D01*
X017740Y004882D01*
X017814Y004882D02*
X017814Y004735D01*
X017814Y004808D02*
X017888Y004882D01*
X017924Y004882D01*
X017998Y004882D02*
X017998Y004735D01*
X017998Y004808D02*
X018072Y004882D01*
X018108Y004882D01*
X018183Y004845D02*
X018183Y004772D01*
X018219Y004735D01*
X018293Y004735D01*
X018329Y004808D02*
X018183Y004808D01*
X018183Y004845D02*
X018219Y004882D01*
X018293Y004882D01*
X018329Y004845D01*
X018329Y004808D01*
X018404Y004735D02*
X018404Y004882D01*
X018514Y004882D01*
X018550Y004845D01*
X018550Y004735D01*
X018661Y004772D02*
X018661Y004918D01*
X018625Y004882D02*
X018698Y004882D01*
X018661Y004772D02*
X018698Y004735D01*
X018993Y004772D02*
X019030Y004735D01*
X019103Y004735D01*
X019140Y004772D01*
X019140Y004808D01*
X019103Y004845D01*
X019030Y004845D01*
X018993Y004882D01*
X018993Y004918D01*
X019030Y004955D01*
X019103Y004955D01*
X019140Y004918D01*
X019214Y004845D02*
X019251Y004882D01*
X019324Y004882D01*
X019361Y004845D01*
X019361Y004808D01*
X019214Y004808D01*
X019214Y004772D02*
X019214Y004845D01*
X019214Y004772D02*
X019251Y004735D01*
X019324Y004735D01*
X019435Y004735D02*
X019435Y004882D01*
X019545Y004882D01*
X019582Y004845D01*
X019582Y004735D01*
X019656Y004735D02*
X019766Y004735D01*
X019803Y004772D01*
X019766Y004808D01*
X019692Y004808D01*
X019656Y004845D01*
X019692Y004882D01*
X019803Y004882D01*
X019877Y004845D02*
X019877Y004772D01*
X019913Y004735D01*
X019987Y004735D01*
X020024Y004808D02*
X019877Y004808D01*
X019877Y004845D02*
X019913Y004882D01*
X019987Y004882D01*
X020024Y004845D01*
X020024Y004808D01*
X017593Y004772D02*
X017593Y004882D01*
X017519Y004918D02*
X017482Y004955D01*
X017409Y004955D01*
D13*
X017260Y005100D02*
X017237Y005098D01*
X017215Y005094D01*
X017194Y005086D01*
X017173Y005075D01*
X017155Y005061D01*
X017139Y005045D01*
X017125Y005027D01*
X017114Y005006D01*
X017106Y004985D01*
X017102Y004963D01*
X017100Y004940D01*
X017100Y003010D01*
X017102Y002987D01*
X017106Y002965D01*
X017114Y002944D01*
X017125Y002923D01*
X017139Y002905D01*
X017155Y002889D01*
X017173Y002875D01*
X017194Y002864D01*
X017215Y002856D01*
X017237Y002852D01*
X017260Y002850D01*
X020190Y002850D01*
X020213Y002852D01*
X020235Y002856D01*
X020256Y002864D01*
X020277Y002875D01*
X020295Y002889D01*
X020311Y002905D01*
X020325Y002923D01*
X020336Y002944D01*
X020344Y002965D01*
X020348Y002987D01*
X020350Y003010D01*
X020350Y004940D01*
X020348Y004963D01*
X020344Y004985D01*
X020336Y005006D01*
X020325Y005027D01*
X020311Y005045D01*
X020295Y005061D01*
X020277Y005075D01*
X020256Y005086D01*
X020235Y005094D01*
X020213Y005098D01*
X020190Y005100D01*
X017260Y005100D01*
D14*
X014700Y005036D02*
X014700Y004886D01*
X014700Y004961D02*
X014250Y004961D01*
X014250Y004886D02*
X014250Y005036D01*
X014325Y005193D02*
X014625Y005193D01*
X014700Y005268D01*
X014700Y005418D01*
X014625Y005493D01*
X014700Y005653D02*
X014700Y005954D01*
X014700Y005804D02*
X014250Y005804D01*
X014400Y005653D01*
X014325Y005493D02*
X014250Y005418D01*
X014250Y005268D01*
X014325Y005193D01*
X009200Y005384D02*
X008589Y005384D01*
X008589Y005689D01*
X008691Y005791D01*
X008895Y005791D01*
X008996Y005689D01*
X008996Y005384D01*
X008996Y005587D02*
X009200Y005791D01*
X009098Y005992D02*
X008895Y005992D01*
X008793Y006093D01*
X008793Y006297D01*
X008895Y006399D01*
X008996Y006399D01*
X008996Y005992D01*
X009098Y005992D02*
X009200Y006093D01*
X009200Y006297D01*
X009200Y006599D02*
X009098Y006599D01*
X009098Y006701D01*
X009200Y006701D01*
X009200Y006599D01*
X008895Y006599D02*
X008793Y006599D01*
X008793Y006701D01*
X008895Y006701D01*
X008895Y006599D01*
X009200Y006903D02*
X009200Y007107D01*
X009200Y007005D02*
X008589Y007005D01*
X008589Y006903D01*
X008895Y007308D02*
X009098Y007308D01*
X009200Y007410D01*
X009200Y007614D01*
X009098Y007715D01*
X008895Y007715D01*
X008793Y007614D01*
X008793Y007410D01*
X008895Y007308D01*
X009098Y007916D02*
X008996Y008018D01*
X008996Y008323D01*
X008895Y008323D02*
X009200Y008323D01*
X009200Y008018D01*
X009098Y007916D01*
X008793Y008018D02*
X008793Y008221D01*
X008895Y008323D01*
X008895Y008524D02*
X008793Y008625D01*
X008793Y008931D01*
X008589Y008931D02*
X009200Y008931D01*
X009200Y008625D01*
X009098Y008524D01*
X008895Y008524D01*
X008793Y009739D02*
X009200Y009943D01*
X008793Y010146D01*
X008691Y010347D02*
X008589Y010449D01*
X008589Y010652D01*
X008691Y010754D01*
X009098Y010347D01*
X009200Y010449D01*
X009200Y010652D01*
X009098Y010754D01*
X008691Y010754D01*
X008691Y010347D02*
X009098Y010347D01*
X009098Y010955D02*
X009098Y011056D01*
X009200Y011056D01*
X009200Y010955D01*
X009098Y010955D01*
X009200Y011258D02*
X009200Y011665D01*
X009200Y011462D02*
X008589Y011462D01*
X008793Y011258D01*
X005350Y008950D02*
X005350Y008650D01*
X005350Y008800D02*
X004900Y008800D01*
X005050Y008650D01*
X004975Y008490D02*
X005275Y008490D01*
X005350Y008415D01*
X005350Y008265D01*
X005275Y008190D01*
X004975Y008190D01*
X004900Y008265D01*
X004900Y008415D01*
X004975Y008490D01*
X005200Y008340D02*
X005350Y008490D01*
X020857Y004100D02*
X020859Y004166D01*
X020865Y004232D01*
X020875Y004298D01*
X020888Y004363D01*
X020906Y004427D01*
X020927Y004489D01*
X020952Y004551D01*
X020980Y004611D01*
X021012Y004669D01*
X021048Y004725D01*
X021086Y004778D01*
X021128Y004830D01*
X021173Y004879D01*
X021220Y004925D01*
X021271Y004968D01*
X021323Y005008D01*
X021378Y005045D01*
X021435Y005079D01*
X021494Y005109D01*
X021555Y005136D01*
X021617Y005159D01*
X021680Y005178D01*
X021745Y005194D01*
X021810Y005206D01*
X021876Y005214D01*
X021942Y005218D01*
X022008Y005218D01*
X022074Y005214D01*
X022140Y005206D01*
X022205Y005194D01*
X022270Y005178D01*
X022333Y005159D01*
X022395Y005136D01*
X022456Y005109D01*
X022515Y005079D01*
X022572Y005045D01*
X022627Y005008D01*
X022679Y004968D01*
X022730Y004925D01*
X022777Y004879D01*
X022822Y004830D01*
X022864Y004778D01*
X022902Y004725D01*
X022938Y004669D01*
X022970Y004611D01*
X022998Y004551D01*
X023023Y004489D01*
X023044Y004427D01*
X023062Y004363D01*
X023075Y004298D01*
X023085Y004232D01*
X023091Y004166D01*
X023093Y004100D01*
X023091Y004034D01*
X023085Y003968D01*
X023075Y003902D01*
X023062Y003837D01*
X023044Y003773D01*
X023023Y003711D01*
X022998Y003649D01*
X022970Y003589D01*
X022938Y003531D01*
X022902Y003475D01*
X022864Y003422D01*
X022822Y003370D01*
X022777Y003321D01*
X022730Y003275D01*
X022679Y003232D01*
X022627Y003192D01*
X022572Y003155D01*
X022515Y003121D01*
X022456Y003091D01*
X022395Y003064D01*
X022333Y003041D01*
X022270Y003022D01*
X022205Y003006D01*
X022140Y002994D01*
X022074Y002986D01*
X022008Y002982D01*
X021942Y002982D01*
X021876Y002986D01*
X021810Y002994D01*
X021745Y003006D01*
X021680Y003022D01*
X021617Y003041D01*
X021555Y003064D01*
X021494Y003091D01*
X021435Y003121D01*
X021378Y003155D01*
X021323Y003192D01*
X021271Y003232D01*
X021220Y003275D01*
X021173Y003321D01*
X021128Y003370D01*
X021086Y003422D01*
X021048Y003475D01*
X021012Y003531D01*
X020980Y003589D01*
X020952Y003649D01*
X020927Y003711D01*
X020906Y003773D01*
X020888Y003837D01*
X020875Y003902D01*
X020865Y003968D01*
X020859Y004034D01*
X020857Y004100D01*
X020857Y013100D02*
X020859Y013166D01*
X020865Y013232D01*
X020875Y013298D01*
X020888Y013363D01*
X020906Y013427D01*
X020927Y013489D01*
X020952Y013551D01*
X020980Y013611D01*
X021012Y013669D01*
X021048Y013725D01*
X021086Y013778D01*
X021128Y013830D01*
X021173Y013879D01*
X021220Y013925D01*
X021271Y013968D01*
X021323Y014008D01*
X021378Y014045D01*
X021435Y014079D01*
X021494Y014109D01*
X021555Y014136D01*
X021617Y014159D01*
X021680Y014178D01*
X021745Y014194D01*
X021810Y014206D01*
X021876Y014214D01*
X021942Y014218D01*
X022008Y014218D01*
X022074Y014214D01*
X022140Y014206D01*
X022205Y014194D01*
X022270Y014178D01*
X022333Y014159D01*
X022395Y014136D01*
X022456Y014109D01*
X022515Y014079D01*
X022572Y014045D01*
X022627Y014008D01*
X022679Y013968D01*
X022730Y013925D01*
X022777Y013879D01*
X022822Y013830D01*
X022864Y013778D01*
X022902Y013725D01*
X022938Y013669D01*
X022970Y013611D01*
X022998Y013551D01*
X023023Y013489D01*
X023044Y013427D01*
X023062Y013363D01*
X023075Y013298D01*
X023085Y013232D01*
X023091Y013166D01*
X023093Y013100D01*
X023091Y013034D01*
X023085Y012968D01*
X023075Y012902D01*
X023062Y012837D01*
X023044Y012773D01*
X023023Y012711D01*
X022998Y012649D01*
X022970Y012589D01*
X022938Y012531D01*
X022902Y012475D01*
X022864Y012422D01*
X022822Y012370D01*
X022777Y012321D01*
X022730Y012275D01*
X022679Y012232D01*
X022627Y012192D01*
X022572Y012155D01*
X022515Y012121D01*
X022456Y012091D01*
X022395Y012064D01*
X022333Y012041D01*
X022270Y012022D01*
X022205Y012006D01*
X022140Y011994D01*
X022074Y011986D01*
X022008Y011982D01*
X021942Y011982D01*
X021876Y011986D01*
X021810Y011994D01*
X021745Y012006D01*
X021680Y012022D01*
X021617Y012041D01*
X021555Y012064D01*
X021494Y012091D01*
X021435Y012121D01*
X021378Y012155D01*
X021323Y012192D01*
X021271Y012232D01*
X021220Y012275D01*
X021173Y012321D01*
X021128Y012370D01*
X021086Y012422D01*
X021048Y012475D01*
X021012Y012531D01*
X020980Y012589D01*
X020952Y012649D01*
X020927Y012711D01*
X020906Y012773D01*
X020888Y012837D01*
X020875Y012902D01*
X020865Y012968D01*
X020859Y013034D01*
X020857Y013100D01*
D15*
X018725Y013675D02*
X016725Y013675D01*
X016725Y013975D01*
X016625Y013975D01*
X016725Y013975D02*
X016725Y014275D01*
X018725Y014275D01*
X018725Y013975D01*
X018825Y013975D01*
X018725Y013975D02*
X018725Y013675D01*
X015600Y012975D02*
X015100Y012975D01*
X015350Y010700D02*
X015350Y010600D01*
X015650Y010600D01*
X015650Y008600D01*
X015350Y008600D01*
X015350Y008500D01*
X015350Y008600D02*
X015050Y008600D01*
X015050Y010600D01*
X015350Y010600D01*
X015100Y010350D02*
X015600Y010350D01*
X016275Y010275D02*
X016675Y010275D01*
X015991Y009725D02*
X015993Y009787D01*
X015999Y009850D01*
X016009Y009911D01*
X016023Y009972D01*
X016040Y010032D01*
X016061Y010091D01*
X016087Y010148D01*
X016115Y010203D01*
X016147Y010257D01*
X016183Y010308D01*
X016221Y010358D01*
X016263Y010404D01*
X016307Y010448D01*
X016355Y010489D01*
X016404Y010527D01*
X016456Y010561D01*
X016510Y010592D01*
X016566Y010620D01*
X016624Y010644D01*
X016683Y010665D01*
X016743Y010681D01*
X016804Y010694D01*
X016866Y010703D01*
X016928Y010708D01*
X016991Y010709D01*
X017053Y010706D01*
X017115Y010699D01*
X017177Y010688D01*
X017237Y010673D01*
X017297Y010655D01*
X017355Y010633D01*
X017412Y010607D01*
X017467Y010577D01*
X017520Y010544D01*
X017571Y010508D01*
X017619Y010469D01*
X017665Y010426D01*
X017708Y010381D01*
X017748Y010333D01*
X017785Y010283D01*
X017819Y010230D01*
X017850Y010176D01*
X017876Y010120D01*
X017900Y010062D01*
X017919Y010002D01*
X017935Y009942D01*
X017947Y009880D01*
X017955Y009819D01*
X017959Y009756D01*
X017959Y009694D01*
X017955Y009631D01*
X017947Y009570D01*
X017935Y009508D01*
X017919Y009448D01*
X017900Y009388D01*
X017876Y009330D01*
X017850Y009274D01*
X017819Y009220D01*
X017785Y009167D01*
X017748Y009117D01*
X017708Y009069D01*
X017665Y009024D01*
X017619Y008981D01*
X017571Y008942D01*
X017520Y008906D01*
X017467Y008873D01*
X017412Y008843D01*
X017355Y008817D01*
X017297Y008795D01*
X017237Y008777D01*
X017177Y008762D01*
X017115Y008751D01*
X017053Y008744D01*
X016991Y008741D01*
X016928Y008742D01*
X016866Y008747D01*
X016804Y008756D01*
X016743Y008769D01*
X016683Y008785D01*
X016624Y008806D01*
X016566Y008830D01*
X016510Y008858D01*
X016456Y008889D01*
X016404Y008923D01*
X016355Y008961D01*
X016307Y009002D01*
X016263Y009046D01*
X016221Y009092D01*
X016183Y009142D01*
X016147Y009193D01*
X016115Y009247D01*
X016087Y009302D01*
X016061Y009359D01*
X016040Y009418D01*
X016023Y009478D01*
X016009Y009539D01*
X015999Y009600D01*
X015993Y009663D01*
X015991Y009725D01*
X018339Y010864D02*
X018339Y006336D01*
X020111Y006336D01*
X020111Y010864D01*
X018339Y010864D01*
X020571Y010789D02*
X023131Y010789D01*
X023131Y006380D01*
X020571Y006380D01*
X020571Y010789D01*
X019370Y009085D02*
X019370Y008765D01*
X019370Y008925D02*
X018890Y008925D01*
X019050Y008765D01*
X018970Y008570D02*
X019130Y008570D01*
X019210Y008490D01*
X019210Y008249D01*
X019370Y008249D02*
X018890Y008249D01*
X018890Y008490D01*
X018970Y008570D01*
X019210Y008409D02*
X019370Y008570D01*
X017350Y007225D02*
X017350Y006725D01*
X016475Y006475D02*
X016475Y006075D01*
X016475Y005875D01*
X016475Y006075D02*
X016475Y004475D01*
X012475Y004475D01*
X012475Y006475D01*
X016475Y006475D01*
X012275Y006475D02*
X012275Y004475D01*
X011975Y004475D01*
X011975Y004375D01*
X011975Y004475D02*
X011675Y004475D01*
X011675Y006475D01*
X011975Y006475D01*
X011975Y006575D01*
X011975Y006475D02*
X012275Y006475D01*
X012475Y003400D02*
X014475Y003400D01*
X014475Y003100D01*
X014575Y003100D01*
X014475Y003100D02*
X014475Y002800D01*
X012475Y002800D01*
X012475Y003100D01*
X012375Y003100D01*
X012475Y003100D02*
X012475Y003400D01*
X007350Y006950D02*
X007350Y007100D01*
X007350Y006950D02*
X007349Y006916D01*
X007345Y006881D01*
X007337Y006848D01*
X007326Y006815D01*
X007311Y006784D01*
X007294Y006754D01*
X007273Y006726D01*
X007250Y006700D01*
X007224Y006677D01*
X007196Y006656D01*
X007166Y006639D01*
X007135Y006624D01*
X007102Y006613D01*
X007069Y006605D01*
X007034Y006601D01*
X007000Y006600D01*
X006050Y006600D01*
X005650Y006600D01*
X005650Y010600D01*
X006050Y010600D01*
X006050Y006600D01*
X007350Y010100D02*
X007350Y010250D01*
X007349Y010284D01*
X007345Y010319D01*
X007337Y010352D01*
X007326Y010385D01*
X007311Y010416D01*
X007294Y010446D01*
X007273Y010474D01*
X007250Y010500D01*
X007224Y010523D01*
X007196Y010544D01*
X007166Y010561D01*
X007135Y010576D01*
X007102Y010587D01*
X007069Y010595D01*
X007034Y010599D01*
X007000Y010600D01*
X006050Y010600D01*
X023131Y010789D02*
X023524Y010789D01*
X023524Y006380D01*
X023131Y006380D01*
D16*
X015692Y005975D02*
X015694Y006008D01*
X015700Y006041D01*
X015710Y006074D01*
X015723Y006104D01*
X015740Y006133D01*
X015761Y006160D01*
X015784Y006184D01*
X015810Y006205D01*
X015838Y006223D01*
X015869Y006237D01*
X015900Y006248D01*
X015933Y006255D01*
X015967Y006258D01*
X016000Y006257D01*
X016033Y006252D01*
X016066Y006243D01*
X016097Y006230D01*
X016126Y006214D01*
X016153Y006195D01*
X016178Y006172D01*
X016200Y006147D01*
X016219Y006119D01*
X016234Y006089D01*
X016246Y006058D01*
X016254Y006025D01*
X016258Y005992D01*
X016258Y005958D01*
X016254Y005925D01*
X016246Y005892D01*
X016234Y005861D01*
X016219Y005831D01*
X016200Y005803D01*
X016178Y005778D01*
X016153Y005755D01*
X016126Y005736D01*
X016097Y005720D01*
X016066Y005707D01*
X016033Y005698D01*
X016000Y005693D01*
X015967Y005692D01*
X015933Y005695D01*
X015900Y005702D01*
X015869Y005713D01*
X015838Y005727D01*
X015810Y005745D01*
X015784Y005766D01*
X015761Y005790D01*
X015740Y005817D01*
X015723Y005846D01*
X015710Y005876D01*
X015700Y005909D01*
X015694Y005942D01*
X015692Y005975D01*
D17*
X005850Y008600D03*
D18*
X021070Y007450D02*
X021220Y007450D01*
X021220Y007400D02*
X021220Y007500D01*
X021120Y007400D02*
X021070Y007450D01*
X021095Y007352D02*
X021145Y007352D01*
X021170Y007327D01*
X021170Y007252D01*
X021220Y007252D02*
X021070Y007252D01*
X021070Y007327D01*
X021095Y007352D01*
X021070Y007205D02*
X021070Y007155D01*
X021070Y007180D02*
X021195Y007180D01*
X021220Y007155D01*
X021220Y007130D01*
X021195Y007105D01*
D19*
X003370Y002600D02*
X000640Y000350D01*
X000650Y000350D02*
X000625Y000333D01*
X000598Y000320D01*
X000569Y000310D01*
X000540Y000303D01*
X000510Y000300D01*
X000480Y000301D01*
X000450Y000305D01*
X000421Y000313D01*
X000393Y000324D01*
X000366Y000339D01*
X000342Y000356D01*
X000320Y000377D01*
X000300Y000400D01*
X000283Y000425D01*
X000270Y000452D01*
X000260Y000481D01*
X000253Y000510D01*
X000250Y000540D01*
X000251Y000570D01*
X000255Y000600D01*
X000263Y000629D01*
X000274Y000657D01*
X000289Y000684D01*
X000306Y000708D01*
X000327Y000730D01*
X000350Y000750D01*
X000330Y000730D02*
X002030Y002480D01*
X002000Y002450D02*
X002023Y002470D01*
X002044Y002492D01*
X002061Y002516D01*
X002076Y002543D01*
X002087Y002571D01*
X002095Y002600D01*
X002099Y002630D01*
X002100Y002660D01*
X002097Y002690D01*
X002090Y002719D01*
X002080Y002748D01*
X002067Y002775D01*
X002050Y002800D01*
X002030Y002823D01*
X002008Y002844D01*
X001984Y002861D01*
X001957Y002876D01*
X001929Y002887D01*
X001900Y002895D01*
X001870Y002899D01*
X001840Y002900D01*
X001810Y002897D01*
X001781Y002890D01*
X001752Y002880D01*
X001725Y002867D01*
X001700Y002850D01*
X001740Y002870D02*
X000550Y002480D01*
X000564Y002485D02*
X000533Y002481D01*
X000501Y002482D01*
X000470Y002486D01*
X000440Y002493D01*
X000410Y002504D01*
X000382Y002519D01*
X000356Y002537D01*
X000332Y002557D01*
X000311Y002580D01*
X000293Y002606D01*
X000278Y002633D01*
X000266Y002662D01*
X000257Y002693D01*
X000252Y002724D01*
X000251Y002755D01*
X000254Y002787D01*
X000260Y002818D01*
X000269Y002847D01*
X000282Y002876D01*
X000299Y002903D01*
X000318Y002928D01*
X000340Y002950D01*
X000365Y002970D01*
X000392Y002986D01*
X000420Y003000D01*
X002750Y003960D01*
X002730Y003950D02*
X002758Y003964D01*
X002785Y003980D01*
X002810Y004000D01*
X002832Y004022D01*
X002851Y004047D01*
X002868Y004074D01*
X002881Y004102D01*
X002890Y004132D01*
X002896Y004163D01*
X002899Y004195D01*
X002898Y004226D01*
X002893Y004257D01*
X002884Y004288D01*
X002872Y004317D01*
X002857Y004344D01*
X002839Y004370D01*
X002818Y004393D01*
X002794Y004413D01*
X002768Y004431D01*
X002740Y004446D01*
X002710Y004457D01*
X002680Y004464D01*
X002649Y004468D01*
X002617Y004469D01*
X002586Y004465D01*
X002610Y004470D02*
X000480Y004750D01*
X000500Y004750D02*
X000470Y004752D01*
X000440Y004757D01*
X000411Y004766D01*
X000384Y004779D01*
X000358Y004794D01*
X000334Y004813D01*
X000313Y004834D01*
X000294Y004858D01*
X000279Y004884D01*
X000266Y004911D01*
X000257Y004940D01*
X000252Y004970D01*
X000250Y005000D01*
X000252Y005030D01*
X000257Y005060D01*
X000266Y005089D01*
X000279Y005116D01*
X000294Y005142D01*
X000313Y005166D01*
X000334Y005187D01*
X000358Y005206D01*
X000384Y005221D01*
X000411Y005234D01*
X000440Y005243D01*
X000470Y005248D01*
X000500Y005250D01*
X004850Y005250D01*
X004850Y005600D01*
X004800Y005600D01*
X004650Y005600D01*
X004600Y005700D01*
X004600Y005500D01*
X004650Y005600D01*
X003850Y005600D01*
X004600Y005500D02*
X004600Y005450D01*
X004850Y005600D01*
X004600Y005750D01*
X004600Y005700D01*
X004800Y005600D01*
X004600Y005500D01*
X004850Y005600D02*
X004850Y011950D01*
X000500Y011950D01*
X000470Y011952D01*
X000440Y011957D01*
X000411Y011966D01*
X000384Y011979D01*
X000358Y011994D01*
X000334Y012013D01*
X000313Y012034D01*
X000294Y012058D01*
X000279Y012084D01*
X000266Y012111D01*
X000257Y012140D01*
X000252Y012170D01*
X000250Y012200D01*
X000252Y012230D01*
X000257Y012260D01*
X000266Y012289D01*
X000279Y012316D01*
X000294Y012342D01*
X000313Y012366D01*
X000334Y012387D01*
X000358Y012406D01*
X000384Y012421D01*
X000411Y012434D01*
X000440Y012443D01*
X000470Y012448D01*
X000500Y012450D01*
X000480Y012450D02*
X002610Y012730D01*
X002586Y012735D02*
X002617Y012731D01*
X002649Y012732D01*
X002680Y012736D01*
X002710Y012743D01*
X002740Y012754D01*
X002768Y012769D01*
X002794Y012787D01*
X002818Y012807D01*
X002839Y012830D01*
X002857Y012856D01*
X002872Y012883D01*
X002884Y012912D01*
X002893Y012943D01*
X002898Y012974D01*
X002899Y013005D01*
X002896Y013037D01*
X002890Y013068D01*
X002881Y013098D01*
X002868Y013126D01*
X002851Y013153D01*
X002832Y013178D01*
X002810Y013200D01*
X002785Y013220D01*
X002758Y013236D01*
X002730Y013250D01*
X002750Y013240D02*
X000420Y014200D01*
X000392Y014214D01*
X000365Y014230D01*
X000340Y014250D01*
X000318Y014272D01*
X000299Y014297D01*
X000282Y014324D01*
X000269Y014352D01*
X000260Y014382D01*
X000254Y014413D01*
X000251Y014445D01*
X000252Y014476D01*
X000257Y014507D01*
X000266Y014538D01*
X000278Y014567D01*
X000293Y014594D01*
X000311Y014620D01*
X000332Y014643D01*
X000356Y014663D01*
X000382Y014681D01*
X000410Y014696D01*
X000440Y014707D01*
X000470Y014714D01*
X000501Y014718D01*
X000533Y014719D01*
X000564Y014715D01*
X000550Y014720D02*
X001740Y014330D01*
X001700Y014350D02*
X001725Y014333D01*
X001752Y014320D01*
X001781Y014310D01*
X001810Y014303D01*
X001840Y014300D01*
X001870Y014301D01*
X001900Y014305D01*
X001929Y014313D01*
X001957Y014324D01*
X001984Y014339D01*
X002008Y014356D01*
X002030Y014377D01*
X002050Y014400D01*
X002067Y014425D01*
X002080Y014452D01*
X002090Y014481D01*
X002097Y014510D01*
X002100Y014540D01*
X002099Y014570D01*
X002095Y014600D01*
X002087Y014629D01*
X002076Y014657D01*
X002061Y014684D01*
X002044Y014708D01*
X002023Y014730D01*
X002000Y014750D01*
X002030Y014720D02*
X000330Y016470D01*
X000350Y016450D02*
X000327Y016470D01*
X000306Y016492D01*
X000289Y016516D01*
X000274Y016543D01*
X000263Y016571D01*
X000255Y016600D01*
X000251Y016630D01*
X000250Y016660D01*
X000253Y016690D01*
X000260Y016719D01*
X000270Y016748D01*
X000283Y016775D01*
X000300Y016800D01*
X000320Y016823D01*
X000342Y016844D01*
X000366Y016861D01*
X000393Y016876D01*
X000421Y016887D01*
X000450Y016895D01*
X000480Y016899D01*
X000510Y016900D01*
X000540Y016897D01*
X000569Y016890D01*
X000598Y016880D01*
X000625Y016867D01*
X000650Y016850D01*
X000640Y016850D02*
X003370Y014600D01*
X003360Y014600D02*
X003388Y014584D01*
X003417Y014572D01*
X003447Y014564D01*
X003478Y014559D01*
X003510Y014558D01*
X003541Y014561D01*
X003572Y014568D01*
X003602Y014579D01*
X003630Y014594D01*
X003656Y014612D01*
X003679Y014633D01*
X003700Y014657D01*
X003717Y014683D01*
X003732Y014711D01*
X003742Y014741D01*
X003749Y014771D01*
X003752Y014803D01*
X003751Y014834D01*
X003746Y014866D01*
X003737Y014896D01*
X003724Y014925D01*
X003708Y014952D01*
X003720Y014930D02*
X002900Y016550D01*
X002889Y016579D01*
X002882Y016610D01*
X002879Y016641D01*
X002880Y016673D01*
X002885Y016704D01*
X002893Y016734D01*
X002906Y016763D01*
X002921Y016790D01*
X002940Y016815D01*
X002962Y016837D01*
X002987Y016856D01*
X003014Y016873D01*
X003043Y016885D01*
X003073Y016894D01*
X003103Y016900D01*
X003135Y016901D01*
X003166Y016898D01*
X003197Y016892D01*
X003226Y016882D01*
X003255Y016868D01*
X003281Y016851D01*
X003305Y016830D01*
X003326Y016807D01*
X003344Y016782D01*
X003358Y016754D01*
X003350Y016760D02*
X004650Y014450D01*
X005750Y014450D02*
X007050Y016760D01*
X007042Y016754D02*
X007056Y016782D01*
X007074Y016807D01*
X007095Y016830D01*
X007119Y016851D01*
X007145Y016868D01*
X007174Y016882D01*
X007203Y016892D01*
X007234Y016898D01*
X007265Y016901D01*
X007297Y016900D01*
X007327Y016894D01*
X007357Y016885D01*
X007386Y016873D01*
X007413Y016856D01*
X007438Y016837D01*
X007460Y016815D01*
X007479Y016790D01*
X007494Y016763D01*
X007507Y016734D01*
X007515Y016704D01*
X007520Y016673D01*
X007521Y016641D01*
X007518Y016610D01*
X007511Y016579D01*
X007500Y016550D01*
X006680Y014930D01*
X006692Y014952D02*
X006676Y014925D01*
X006663Y014896D01*
X006654Y014866D01*
X006649Y014834D01*
X006648Y014803D01*
X006651Y014771D01*
X006658Y014741D01*
X006668Y014711D01*
X006683Y014683D01*
X006700Y014657D01*
X006721Y014633D01*
X006744Y014612D01*
X006770Y014594D01*
X006798Y014579D01*
X006828Y014568D01*
X006859Y014561D01*
X006890Y014558D01*
X006922Y014559D01*
X006953Y014564D01*
X006983Y014572D01*
X007012Y014585D01*
X007040Y014600D01*
X007030Y014600D02*
X009760Y016850D01*
X009750Y016850D02*
X009775Y016867D01*
X009802Y016880D01*
X009831Y016890D01*
X009860Y016897D01*
X009890Y016900D01*
X009920Y016899D01*
X009950Y016895D01*
X009979Y016887D01*
X010007Y016876D01*
X010034Y016861D01*
X010058Y016844D01*
X010080Y016823D01*
X010100Y016800D01*
X010117Y016775D01*
X010130Y016748D01*
X010140Y016719D01*
X010147Y016690D01*
X010150Y016660D01*
X010149Y016630D01*
X010145Y016600D01*
X010137Y016571D01*
X010126Y016543D01*
X010111Y016516D01*
X010094Y016492D01*
X010073Y016470D01*
X010050Y016450D01*
X010070Y016470D02*
X008370Y014720D01*
X008400Y014750D02*
X008377Y014730D01*
X008356Y014708D01*
X008339Y014684D01*
X008324Y014657D01*
X008313Y014629D01*
X008305Y014600D01*
X008301Y014570D01*
X008300Y014540D01*
X008303Y014510D01*
X008310Y014481D01*
X008320Y014452D01*
X008333Y014425D01*
X008350Y014400D01*
X008370Y014377D01*
X008392Y014356D01*
X008416Y014339D01*
X008443Y014324D01*
X008471Y014313D01*
X008500Y014305D01*
X008530Y014301D01*
X008560Y014300D01*
X008590Y014303D01*
X008619Y014310D01*
X008648Y014320D01*
X008675Y014333D01*
X008700Y014350D01*
X008660Y014330D02*
X009850Y014720D01*
X009836Y014715D02*
X009867Y014719D01*
X009899Y014718D01*
X009930Y014714D01*
X009960Y014707D01*
X009990Y014696D01*
X010018Y014681D01*
X010044Y014663D01*
X010068Y014643D01*
X010089Y014620D01*
X010107Y014594D01*
X010122Y014567D01*
X010134Y014538D01*
X010143Y014507D01*
X010148Y014476D01*
X010149Y014445D01*
X010146Y014413D01*
X010140Y014382D01*
X010131Y014352D01*
X010118Y014324D01*
X010101Y014297D01*
X010082Y014272D01*
X010060Y014250D01*
X010035Y014230D01*
X010008Y014214D01*
X009980Y014200D01*
X007650Y013240D01*
X007670Y013250D02*
X007642Y013236D01*
X007615Y013220D01*
X007590Y013200D01*
X007568Y013178D01*
X007549Y013153D01*
X007532Y013126D01*
X007519Y013098D01*
X007510Y013068D01*
X007504Y013037D01*
X007501Y013005D01*
X007502Y012974D01*
X007507Y012943D01*
X007516Y012912D01*
X007528Y012883D01*
X007543Y012856D01*
X007561Y012830D01*
X007582Y012807D01*
X007606Y012787D01*
X007632Y012769D01*
X007660Y012754D01*
X007690Y012743D01*
X007720Y012736D01*
X007751Y012732D01*
X007783Y012731D01*
X007814Y012735D01*
X007790Y012730D02*
X009920Y012450D01*
X009900Y012450D02*
X009930Y012448D01*
X009960Y012443D01*
X009989Y012434D01*
X010016Y012421D01*
X010042Y012406D01*
X010066Y012387D01*
X010087Y012366D01*
X010106Y012342D01*
X010121Y012316D01*
X010134Y012289D01*
X010143Y012260D01*
X010148Y012230D01*
X010150Y012200D01*
X010148Y012170D01*
X010143Y012140D01*
X010134Y012111D01*
X010121Y012084D01*
X010106Y012058D01*
X010087Y012034D01*
X010066Y012013D01*
X010042Y011994D01*
X010016Y011979D01*
X009989Y011966D01*
X009960Y011957D01*
X009930Y011952D01*
X009900Y011950D01*
X005550Y011950D01*
X005550Y005250D01*
X009900Y005250D01*
X009930Y005248D01*
X009960Y005243D01*
X009989Y005234D01*
X010016Y005221D01*
X010042Y005206D01*
X010066Y005187D01*
X010087Y005166D01*
X010106Y005142D01*
X010121Y005116D01*
X010134Y005089D01*
X010143Y005060D01*
X010148Y005030D01*
X010150Y005000D01*
X010148Y004970D01*
X010143Y004940D01*
X010134Y004911D01*
X010121Y004884D01*
X010106Y004858D01*
X010087Y004834D01*
X010066Y004813D01*
X010042Y004794D01*
X010016Y004779D01*
X009989Y004766D01*
X009960Y004757D01*
X009930Y004752D01*
X009900Y004750D01*
X009920Y004750D02*
X007790Y004470D01*
X007814Y004465D02*
X007783Y004469D01*
X007751Y004468D01*
X007720Y004464D01*
X007690Y004457D01*
X007660Y004446D01*
X007632Y004431D01*
X007606Y004413D01*
X007582Y004393D01*
X007561Y004370D01*
X007543Y004344D01*
X007528Y004317D01*
X007516Y004288D01*
X007507Y004257D01*
X007502Y004226D01*
X007501Y004195D01*
X007504Y004163D01*
X007510Y004132D01*
X007519Y004102D01*
X007532Y004074D01*
X007549Y004047D01*
X007568Y004022D01*
X007590Y004000D01*
X007615Y003980D01*
X007642Y003964D01*
X007670Y003950D01*
X007650Y003960D02*
X009980Y003000D01*
X010008Y002986D01*
X010035Y002970D01*
X010060Y002950D01*
X010082Y002928D01*
X010101Y002903D01*
X010118Y002876D01*
X010131Y002847D01*
X010140Y002818D01*
X010146Y002787D01*
X010149Y002755D01*
X010148Y002724D01*
X010143Y002693D01*
X010134Y002662D01*
X010122Y002633D01*
X010107Y002606D01*
X010089Y002580D01*
X010068Y002557D01*
X010044Y002537D01*
X010018Y002519D01*
X009990Y002504D01*
X009960Y002493D01*
X009930Y002486D01*
X009899Y002482D01*
X009867Y002481D01*
X009836Y002485D01*
X009850Y002480D02*
X008660Y002870D01*
X008700Y002850D02*
X008675Y002867D01*
X008648Y002880D01*
X008619Y002890D01*
X008590Y002897D01*
X008560Y002900D01*
X008530Y002899D01*
X008500Y002895D01*
X008471Y002887D01*
X008443Y002876D01*
X008416Y002861D01*
X008392Y002844D01*
X008370Y002823D01*
X008350Y002800D01*
X008333Y002775D01*
X008320Y002748D01*
X008310Y002719D01*
X008303Y002690D01*
X008300Y002660D01*
X008301Y002630D01*
X008305Y002600D01*
X008313Y002571D01*
X008324Y002543D01*
X008339Y002516D01*
X008356Y002492D01*
X008377Y002470D01*
X008400Y002450D01*
X008370Y002480D02*
X010070Y000730D01*
X010050Y000750D02*
X010073Y000730D01*
X010094Y000708D01*
X010111Y000684D01*
X010126Y000657D01*
X010137Y000629D01*
X010145Y000600D01*
X010149Y000570D01*
X010150Y000540D01*
X010147Y000510D01*
X010140Y000481D01*
X010130Y000452D01*
X010117Y000425D01*
X010100Y000400D01*
X010080Y000377D01*
X010058Y000356D01*
X010034Y000339D01*
X010007Y000324D01*
X009979Y000313D01*
X009950Y000305D01*
X009920Y000301D01*
X009890Y000300D01*
X009860Y000303D01*
X009831Y000310D01*
X009802Y000320D01*
X009775Y000333D01*
X009750Y000350D01*
X009760Y000350D02*
X007030Y002600D01*
X007040Y002600D02*
X007012Y002616D01*
X006983Y002628D01*
X006953Y002636D01*
X006922Y002641D01*
X006890Y002642D01*
X006859Y002639D01*
X006828Y002632D01*
X006798Y002621D01*
X006770Y002606D01*
X006744Y002588D01*
X006721Y002567D01*
X006700Y002543D01*
X006683Y002517D01*
X006668Y002489D01*
X006658Y002459D01*
X006651Y002429D01*
X006648Y002397D01*
X006649Y002366D01*
X006654Y002334D01*
X006663Y002304D01*
X006676Y002275D01*
X006692Y002248D01*
X006680Y002270D02*
X007500Y000650D01*
X007511Y000621D01*
X007518Y000590D01*
X007521Y000559D01*
X007520Y000527D01*
X007515Y000496D01*
X007507Y000466D01*
X007494Y000437D01*
X007479Y000410D01*
X007460Y000385D01*
X007438Y000363D01*
X007413Y000344D01*
X007386Y000327D01*
X007357Y000315D01*
X007327Y000306D01*
X007297Y000300D01*
X007265Y000299D01*
X007234Y000302D01*
X007203Y000308D01*
X007174Y000318D01*
X007145Y000332D01*
X007119Y000349D01*
X007095Y000370D01*
X007074Y000393D01*
X007056Y000418D01*
X007042Y000446D01*
X007050Y000440D02*
X005750Y002750D01*
X004650Y002750D02*
X003350Y000440D01*
X003358Y000446D02*
X003344Y000418D01*
X003326Y000393D01*
X003305Y000370D01*
X003281Y000349D01*
X003255Y000332D01*
X003226Y000318D01*
X003197Y000308D01*
X003166Y000302D01*
X003135Y000299D01*
X003103Y000300D01*
X003073Y000306D01*
X003043Y000315D01*
X003014Y000327D01*
X002987Y000344D01*
X002962Y000363D01*
X002940Y000385D01*
X002921Y000410D01*
X002906Y000437D01*
X002893Y000466D01*
X002885Y000496D01*
X002880Y000527D01*
X002879Y000559D01*
X002882Y000590D01*
X002889Y000621D01*
X002900Y000650D01*
X003720Y002270D01*
X003708Y002248D02*
X003724Y002275D01*
X003737Y002304D01*
X003746Y002334D01*
X003751Y002366D01*
X003752Y002397D01*
X003749Y002429D01*
X003742Y002459D01*
X003732Y002489D01*
X003717Y002517D01*
X003700Y002543D01*
X003679Y002567D01*
X003656Y002588D01*
X003630Y002606D01*
X003602Y002621D01*
X003572Y002632D01*
X003541Y002639D01*
X003510Y002642D01*
X003478Y002641D01*
X003447Y002636D01*
X003417Y002628D01*
X003387Y002615D01*
X003360Y002600D01*
X017075Y010930D02*
X017075Y011088D01*
X017625Y011150D02*
X017625Y012800D01*
X017075Y012862D02*
X017075Y013020D01*
X017075Y012088D02*
X017075Y011862D01*
X017625Y011150D02*
X017574Y011113D01*
X017521Y011078D01*
X017465Y011046D01*
X017408Y011018D01*
X017349Y010994D01*
X017289Y010973D01*
X017228Y010956D01*
X017166Y010942D01*
X017103Y010933D01*
X017040Y010927D01*
X016976Y010925D01*
X016912Y010927D01*
X016849Y010933D01*
X016786Y010942D01*
X016724Y010955D01*
X016663Y010973D01*
X016603Y010993D01*
X016544Y011018D01*
X016487Y011045D01*
X016431Y011077D01*
X016378Y011111D01*
X016327Y011149D01*
X016278Y011190D01*
X016232Y011234D01*
X016188Y011280D01*
X016147Y011329D01*
X016110Y011380D01*
X016075Y011434D01*
X016044Y011489D01*
X016016Y011546D01*
X015992Y011605D01*
X015972Y011665D01*
X015972Y012285D02*
X015992Y012345D01*
X016016Y012404D01*
X016044Y012461D01*
X016075Y012516D01*
X016110Y012570D01*
X016147Y012621D01*
X016188Y012670D01*
X016232Y012716D01*
X016278Y012760D01*
X016327Y012801D01*
X016378Y012839D01*
X016431Y012873D01*
X016487Y012905D01*
X016544Y012932D01*
X016603Y012957D01*
X016663Y012977D01*
X016724Y012995D01*
X016786Y013008D01*
X016849Y013017D01*
X016912Y013023D01*
X016976Y013025D01*
X017040Y013023D01*
X017103Y013017D01*
X017166Y013008D01*
X017228Y012994D01*
X017289Y012977D01*
X017349Y012956D01*
X017408Y012932D01*
X017465Y012904D01*
X017521Y012872D01*
X017574Y012837D01*
X017625Y012800D01*
D20*
X010297Y007686D02*
X010153Y007686D01*
X010134Y007496D01*
X010070Y007475D01*
X010010Y007444D01*
X009861Y007565D01*
X009760Y007464D01*
X009881Y007315D01*
X009850Y007255D01*
X009829Y007191D01*
X009639Y007172D01*
X009639Y007028D01*
X009829Y007009D01*
X009850Y006945D01*
X009881Y006885D01*
X009760Y006736D01*
X009861Y006635D01*
X010010Y006756D01*
X010070Y006725D01*
X010134Y006704D01*
X010153Y006514D01*
X010297Y006514D01*
X010316Y006704D01*
X010380Y006725D01*
X010440Y006756D01*
X010589Y006635D01*
X010690Y006736D01*
X010569Y006885D01*
X010600Y006945D01*
X010396Y007029D01*
X010374Y006992D01*
X010345Y006960D01*
X010309Y006936D01*
X010268Y006921D01*
X010225Y006915D01*
X010181Y006921D01*
X010140Y006936D01*
X010103Y006961D01*
X010074Y006994D01*
X010053Y007033D01*
X010042Y007076D01*
X010042Y007120D01*
X010052Y007163D01*
X010072Y007202D01*
X010100Y007236D01*
X010136Y007262D01*
X010177Y007278D01*
X010221Y007284D01*
X010265Y007280D01*
X010307Y007265D01*
X010344Y007241D01*
X010374Y007209D01*
X010396Y007171D01*
X010600Y007255D01*
X010569Y007315D01*
X010690Y007464D01*
X010589Y007565D01*
X010440Y007444D01*
X010380Y007475D01*
X010316Y007496D01*
X010297Y007686D01*
X010299Y007665D02*
X010151Y007665D01*
X010145Y007607D02*
X010305Y007607D01*
X010311Y007550D02*
X010139Y007550D01*
X010123Y007492D02*
X010327Y007492D01*
X010499Y007492D02*
X010662Y007492D01*
X010667Y007435D02*
X009783Y007435D01*
X009788Y007492D02*
X009951Y007492D01*
X009881Y007550D02*
X009846Y007550D01*
X009830Y007377D02*
X010620Y007377D01*
X010573Y007320D02*
X009877Y007320D01*
X009853Y007262D02*
X010137Y007262D01*
X010073Y007204D02*
X009834Y007204D01*
X009639Y007147D02*
X010048Y007147D01*
X010042Y007089D02*
X009639Y007089D01*
X009639Y007032D02*
X010054Y007032D01*
X010092Y006974D02*
X009840Y006974D01*
X009864Y006917D02*
X010215Y006917D01*
X010235Y006917D02*
X010586Y006917D01*
X010590Y006859D02*
X009860Y006859D01*
X009813Y006802D02*
X010637Y006802D01*
X010684Y006744D02*
X010454Y006744D01*
X010417Y006744D02*
X010033Y006744D01*
X009996Y006744D02*
X009766Y006744D01*
X009810Y006686D02*
X009925Y006686D01*
X010135Y006686D02*
X010315Y006686D01*
X010309Y006629D02*
X010141Y006629D01*
X010147Y006571D02*
X010303Y006571D01*
X010525Y006686D02*
X010640Y006686D01*
X010529Y006974D02*
X010358Y006974D01*
X010376Y007204D02*
X010477Y007204D01*
X010597Y007262D02*
X010312Y007262D01*
X010569Y007550D02*
X010604Y007550D01*
M02*
