%
M48
M72
T01C0.0118
T02C0.0394
T03C0.0400
T04C0.0787
T05C0.1000
T06C0.1500
%
T01
X11475Y8100
X13225Y8300
X13778Y7100
X17217Y6788
X12350Y3850
T02
X15241Y9469
X16225Y9469
X17209Y9469
T03
X17475Y3350
X16475Y3350
X18475Y3350
X6850Y7600
X6850Y8600
X6850Y9600
X5425Y9600
X5425Y8600
X5425Y7600
T04
X14493Y12225
X17957Y12225
T05
X5200Y3600
X5200Y13600
T06
X21975Y12350
X21975Y4850
M30
