%
M48
M72
T01C0.0118
T02C0.0315
T03C0.0394
T04C0.0400
T05C0.0787
T06C0.1000
T07C0.1500
%
T01
X12725Y4350
X12725Y6725
X10600Y9850
X17038Y6600
T02
X14461Y14805
X14068Y14805
X13674Y14805
X13674Y15986
X14068Y15986
X14461Y15986
T03
X15241Y9469
X16225Y9469
X17209Y9469
T04
X16975Y3600
X17975Y3600
X18975Y3600
X6850Y7600
X6850Y8600
X6850Y9600
T05
X14493Y12225
X17957Y12225
T06
X5200Y3600
X5200Y13600
T07
X21975Y12350
X21975Y4850
M30
