G75*
G70*
%OFA0B0*%
%FSLAX24Y24*%
%IPPOS*%
%LPD*%
%AMOC8*
5,1,8,0,0,1.08239X$1,22.5*
%
%ADD10C,0.0000*%
%ADD11OC8,0.0680*%
%ADD12C,0.0740*%
%ADD13C,0.0600*%
%ADD14C,0.2150*%
%ADD15R,0.0800X0.0800*%
%ADD16C,0.0800*%
%ADD17R,0.0740X0.0740*%
%ADD18OC8,0.1181*%
%ADD19C,0.0650*%
%ADD20C,0.0660*%
%ADD21R,0.0650X0.0650*%
%ADD22OC8,0.0520*%
%ADD23C,0.1750*%
%ADD24C,0.0100*%
%ADD25C,0.1670*%
%ADD26C,0.0160*%
%ADD27C,0.0787*%
%ADD28C,0.1000*%
%ADD29C,0.1500*%
%ADD30C,0.1600*%
D10*
X004225Y003191D02*
X004225Y014006D01*
X004227Y014052D01*
X004232Y014098D01*
X004241Y014144D01*
X004254Y014189D01*
X004270Y014232D01*
X004289Y014274D01*
X004312Y014315D01*
X004338Y014353D01*
X004367Y014390D01*
X004398Y014424D01*
X004432Y014455D01*
X004469Y014484D01*
X004507Y014510D01*
X004548Y014533D01*
X004590Y014552D01*
X004633Y014568D01*
X004678Y014581D01*
X004724Y014590D01*
X004770Y014595D01*
X004816Y014597D01*
X004816Y014596D02*
X023005Y014596D01*
X023005Y014597D02*
X023051Y014595D01*
X023097Y014590D01*
X023143Y014581D01*
X023188Y014568D01*
X023231Y014552D01*
X023273Y014533D01*
X023314Y014510D01*
X023352Y014484D01*
X023389Y014455D01*
X023423Y014424D01*
X023454Y014390D01*
X023483Y014353D01*
X023509Y014315D01*
X023532Y014274D01*
X023551Y014232D01*
X023567Y014189D01*
X023580Y014144D01*
X023589Y014098D01*
X023594Y014052D01*
X023596Y014006D01*
X023595Y014006D02*
X023595Y003191D01*
X023596Y003191D02*
X023594Y003145D01*
X023589Y003099D01*
X023580Y003053D01*
X023567Y003008D01*
X023551Y002965D01*
X023532Y002923D01*
X023509Y002882D01*
X023483Y002844D01*
X023454Y002807D01*
X023423Y002773D01*
X023389Y002742D01*
X023352Y002713D01*
X023314Y002687D01*
X023273Y002664D01*
X023231Y002645D01*
X023188Y002629D01*
X023143Y002616D01*
X023097Y002607D01*
X023051Y002602D01*
X023005Y002600D01*
X004816Y002600D01*
X004770Y002602D01*
X004724Y002607D01*
X004678Y002616D01*
X004633Y002629D01*
X004590Y002645D01*
X004548Y002664D01*
X004507Y002687D01*
X004469Y002713D01*
X004432Y002742D01*
X004398Y002773D01*
X004367Y002807D01*
X004338Y002844D01*
X004312Y002882D01*
X004289Y002923D01*
X004270Y002965D01*
X004254Y003008D01*
X004241Y003053D01*
X004232Y003099D01*
X004227Y003145D01*
X004225Y003191D01*
D11*
X012975Y003975D03*
X013975Y003975D03*
X014975Y003975D03*
X015975Y003975D03*
X015975Y006975D03*
X014975Y006975D03*
X013975Y006975D03*
X012975Y006975D03*
D12*
X011975Y006975D03*
X015350Y008100D03*
X019225Y005600D03*
X014975Y003100D03*
X011975Y003100D03*
X011975Y003975D03*
X015350Y011100D03*
X019225Y011600D03*
X019225Y013975D03*
X016225Y013975D03*
D13*
X007150Y009600D02*
X006550Y009600D01*
X006550Y008600D02*
X007150Y008600D01*
X007150Y007600D02*
X006550Y007600D01*
D14*
X021975Y004100D03*
X021975Y013100D03*
D15*
X022225Y007600D03*
D16*
X022225Y009569D03*
D17*
X013584Y013356D03*
X012600Y013356D03*
X011616Y013356D03*
D18*
X010868Y010600D03*
X014332Y010600D03*
D19*
X015350Y011991D03*
X015350Y013959D03*
X016475Y009725D03*
X016850Y006975D03*
X017850Y006975D03*
D20*
X017975Y003350D03*
X019475Y003350D03*
D21*
X017475Y009725D03*
D22*
X016975Y011475D03*
X016225Y011975D03*
X016975Y012475D03*
D23*
X005200Y013600D03*
X005200Y003600D03*
D24*
X006975Y007475D02*
X006850Y007600D01*
X006975Y007475D02*
X015725Y007475D01*
X015975Y007225D01*
X015975Y006975D01*
D25*
X015225Y005600D02*
X019225Y005600D01*
X018600Y008475D02*
X016725Y008475D01*
X012725Y008475D01*
X012225Y008475D01*
X008725Y008475D01*
X008100Y008475D01*
X006041Y005600D02*
X006020Y005601D01*
X006000Y005605D01*
X005980Y005612D01*
X005961Y005621D01*
X005944Y005633D01*
X005928Y005647D01*
X006041Y005600D02*
X006225Y005600D01*
X006725Y005600D01*
X013225Y005600D01*
X015225Y005600D01*
X018600Y008475D02*
X019725Y009600D01*
X020350Y009600D01*
X022194Y009600D01*
X022225Y009569D01*
X022225Y012850D01*
X021975Y013100D01*
D26*
X019225Y013725D02*
X016975Y011475D01*
X017475Y010975D01*
X017475Y009725D01*
X016725Y008475D02*
X016850Y008350D01*
X014975Y006975D02*
X014975Y005850D01*
X015225Y005600D01*
X015350Y005725D01*
X015225Y005600D02*
X014975Y005850D01*
X015100Y005975D01*
X013350Y005475D02*
X013225Y005600D01*
X012975Y005350D01*
X013100Y005225D01*
X012975Y005100D01*
X012975Y003975D01*
X013100Y003100D02*
X013975Y003975D01*
X014975Y003975D02*
X014975Y003100D01*
X015225Y003350D01*
X015600Y003350D01*
X017975Y003350D01*
X013100Y003100D02*
X011975Y003100D01*
X011975Y003975D01*
X009725Y008475D02*
X009725Y008600D01*
X015350Y011100D02*
X015350Y011991D01*
X015834Y012475D01*
X016975Y012475D01*
X015606Y013356D02*
X016225Y013975D01*
X015606Y013356D02*
X013584Y013356D01*
X019225Y013725D02*
X019225Y013975D01*
D27*
X015350Y008100D02*
X012845Y008850D01*
X012427Y008677D02*
X012225Y008475D01*
X012427Y008677D02*
X012461Y008708D01*
X012498Y008737D01*
X012536Y008763D01*
X012577Y008786D01*
X012619Y008805D01*
X012662Y008821D01*
X012707Y008834D01*
X012753Y008843D01*
X012799Y008848D01*
X012845Y008850D01*
X009725Y008600D02*
X009697Y008575D01*
X009668Y008552D01*
X009637Y008532D01*
X009603Y008515D01*
X009569Y008501D01*
X009534Y008490D01*
X009497Y008481D01*
X009460Y008477D01*
X009423Y008475D01*
X008725Y008475D01*
X008423Y008600D02*
X006850Y008600D01*
X008423Y008600D02*
X008460Y008598D01*
X008497Y008594D01*
X008534Y008585D01*
X008569Y008574D01*
X008603Y008560D01*
X008637Y008543D01*
X008668Y008523D01*
X008697Y008500D01*
X008725Y008475D01*
D28*
X006850Y009600D02*
X005225Y009600D01*
D29*
X005147Y009522D02*
X005133Y009506D01*
X005121Y009489D01*
X005112Y009470D01*
X005105Y009450D01*
X005101Y009430D01*
X005100Y009409D01*
X005100Y006475D01*
X005928Y005647D01*
D30*
X005147Y009522D02*
X005225Y009600D01*
M02*
