G75*
G70*
%OFA0B0*%
%FSLAX24Y24*%
%IPPOS*%
%LPD*%
%AMOC8*
5,1,8,0,0,1.08239X$1,22.5*
%
%ADD10C,0.1300*%
%ADD11R,0.1300X0.0749*%
%ADD12C,0.0640*%
%ADD13C,0.2190*%
%ADD14R,0.0780X0.0780*%
%ADD15OC8,0.1221*%
%ADD16R,0.0355X0.0512*%
%ADD17C,0.1790*%
%ADD18R,0.0512X0.0512*%
%ADD19R,0.0631X0.0670*%
%ADD20R,0.0276X0.0906*%
%ADD21R,0.0520X0.0920*%
%ADD22R,0.1457X0.0906*%
%ADD23C,0.0780*%
%ADD24R,0.0540X0.0290*%
%ADD25R,0.0290X0.0540*%
D10*
X011312Y003781D03*
X019973Y003781D03*
X019973Y013624D03*
X011312Y013624D03*
D11*
X019739Y009702D03*
X019739Y007498D03*
D12*
X007150Y007600D02*
X006550Y007600D01*
X005725Y007600D02*
X005125Y007600D01*
X005125Y008600D02*
X005725Y008600D01*
X006550Y008600D02*
X007150Y008600D01*
X007150Y009600D02*
X006550Y009600D01*
X005725Y009600D02*
X005125Y009600D01*
D13*
X021975Y012350D03*
X021975Y004850D03*
D14*
X017209Y009469D03*
X016225Y009469D03*
X015241Y009469D03*
D15*
X014493Y012225D03*
X017957Y012225D03*
D16*
X014882Y008100D03*
X014174Y008100D03*
X014174Y007100D03*
X014882Y007100D03*
X014882Y006100D03*
X014174Y006100D03*
X013079Y004350D03*
X012371Y004350D03*
X012371Y003350D03*
X013079Y003350D03*
X011559Y007100D03*
X010850Y007100D03*
X011079Y008100D03*
X010371Y008100D03*
X011871Y008100D03*
X012579Y008100D03*
X018077Y007100D03*
X018786Y007100D03*
D17*
X005200Y003600D03*
X005200Y013600D03*
D18*
X013766Y004244D03*
X013766Y003456D03*
D19*
X015046Y003850D03*
D20*
X015725Y006076D03*
X016225Y006076D03*
X016725Y006076D03*
X017225Y006076D03*
X017225Y008124D03*
X016725Y008124D03*
X016225Y008124D03*
X015725Y008124D03*
D21*
X012510Y009630D03*
X011600Y009630D03*
X010690Y009630D03*
D22*
X011600Y012070D03*
D23*
X016475Y003350D03*
X017475Y003350D03*
X018475Y003350D03*
D24*
X008952Y008282D03*
X008952Y008607D03*
D25*
X013205Y008800D03*
X013525Y008800D03*
X013845Y008800D03*
X013845Y009700D03*
X013525Y009700D03*
X013205Y009700D03*
M02*
