%
M48
M72
T01C0.0276
T02C0.0320
T03C0.0354
T04C0.0394
T05C0.0400
T06C0.0472
T07C0.0512
T08C0.0787
T09C0.1000
T10C0.1500
%
T01
X16475Y9725
X17475Y9725
X15350Y11991
X15350Y13959
X16850Y6975
X17850Y6975
T02
X15975Y6975
X14975Y6975
X13975Y6975
X12975Y6975
X12975Y3975
X13975Y3975
X14975Y3975
X15975Y3975
X16975Y11475
X16225Y11975
X16975Y12475
T03
X15350Y11100
X15350Y8100
X11975Y6975
X11975Y3975
X11975Y3100
X14975Y3100
X16225Y13975
X19225Y13975
T04
X13584Y13356
X12600Y13356
X11616Y13356
X17975Y3350
X19475Y3350
T05
X6850Y7600
X6850Y8600
X6850Y9600
T06
X19225Y11600
X19225Y5600
T07
X22225Y7600
X22225Y9569
T08
X14332Y10600
X10868Y10600
T09
X5200Y3600
X5200Y13600
T10
X21975Y13100
X21975Y4100
M30
