G75*
G70*
%OFA0B0*%
%FSLAX24Y24*%
%IPPOS*%
%LPD*%
%AMOC8*
5,1,8,0,0,1.08239X$1,22.5*
%
%ADD10C,0.0000*%
%ADD11OC8,0.0720*%
%ADD12C,0.0780*%
%ADD13C,0.0640*%
%ADD14C,0.2190*%
%ADD15R,0.0840X0.0840*%
%ADD16C,0.0840*%
%ADD17R,0.0780X0.0780*%
%ADD18OC8,0.1221*%
%ADD19C,0.0700*%
%ADD20R,0.0700X0.0700*%
%ADD21C,0.0690*%
%ADD22C,0.1040*%
%ADD23C,0.0700*%
D10*
X004355Y003021D02*
X004355Y013836D01*
X004357Y013882D01*
X004362Y013928D01*
X004371Y013974D01*
X004384Y014019D01*
X004400Y014062D01*
X004419Y014104D01*
X004442Y014145D01*
X004468Y014183D01*
X004497Y014220D01*
X004528Y014254D01*
X004562Y014285D01*
X004599Y014314D01*
X004637Y014340D01*
X004678Y014363D01*
X004720Y014382D01*
X004763Y014398D01*
X004808Y014411D01*
X004854Y014420D01*
X004900Y014425D01*
X004946Y014427D01*
X023135Y014427D01*
X023181Y014425D01*
X023227Y014420D01*
X023273Y014411D01*
X023318Y014398D01*
X023361Y014382D01*
X023403Y014363D01*
X023444Y014340D01*
X023482Y014314D01*
X023519Y014285D01*
X023553Y014254D01*
X023584Y014220D01*
X023613Y014183D01*
X023639Y014145D01*
X023662Y014104D01*
X023681Y014062D01*
X023697Y014019D01*
X023710Y013974D01*
X023719Y013928D01*
X023724Y013882D01*
X023726Y013836D01*
X023725Y013836D02*
X023725Y003021D01*
X023726Y003021D02*
X023724Y002975D01*
X023719Y002929D01*
X023710Y002883D01*
X023697Y002838D01*
X023681Y002795D01*
X023662Y002753D01*
X023639Y002712D01*
X023613Y002674D01*
X023584Y002637D01*
X023553Y002603D01*
X023519Y002572D01*
X023482Y002543D01*
X023444Y002517D01*
X023403Y002494D01*
X023361Y002475D01*
X023318Y002459D01*
X023273Y002446D01*
X023227Y002437D01*
X023181Y002432D01*
X023135Y002430D01*
X023135Y002431D02*
X004946Y002431D01*
X004946Y002430D02*
X004900Y002432D01*
X004854Y002437D01*
X004808Y002446D01*
X004763Y002459D01*
X004720Y002475D01*
X004678Y002494D01*
X004637Y002517D01*
X004599Y002543D01*
X004562Y002572D01*
X004528Y002603D01*
X004497Y002637D01*
X004468Y002674D01*
X004442Y002712D01*
X004419Y002753D01*
X004400Y002795D01*
X004384Y002838D01*
X004371Y002883D01*
X004362Y002929D01*
X004357Y002975D01*
X004355Y003021D01*
X004580Y003431D02*
X004582Y003475D01*
X004588Y003519D01*
X004598Y003562D01*
X004611Y003604D01*
X004628Y003645D01*
X004649Y003684D01*
X004673Y003721D01*
X004700Y003756D01*
X004730Y003788D01*
X004763Y003818D01*
X004799Y003844D01*
X004836Y003868D01*
X004876Y003887D01*
X004917Y003904D01*
X004960Y003916D01*
X005003Y003925D01*
X005047Y003930D01*
X005091Y003931D01*
X005135Y003928D01*
X005179Y003921D01*
X005222Y003910D01*
X005264Y003896D01*
X005304Y003878D01*
X005343Y003856D01*
X005379Y003832D01*
X005413Y003804D01*
X005445Y003773D01*
X005474Y003739D01*
X005500Y003703D01*
X005522Y003665D01*
X005541Y003625D01*
X005556Y003583D01*
X005568Y003541D01*
X005576Y003497D01*
X005580Y003453D01*
X005580Y003409D01*
X005576Y003365D01*
X005568Y003321D01*
X005556Y003279D01*
X005541Y003237D01*
X005522Y003197D01*
X005500Y003159D01*
X005474Y003123D01*
X005445Y003089D01*
X005413Y003058D01*
X005379Y003030D01*
X005343Y003006D01*
X005304Y002984D01*
X005264Y002966D01*
X005222Y002952D01*
X005179Y002941D01*
X005135Y002934D01*
X005091Y002931D01*
X005047Y002932D01*
X005003Y002937D01*
X004960Y002946D01*
X004917Y002958D01*
X004876Y002975D01*
X004836Y002994D01*
X004799Y003018D01*
X004763Y003044D01*
X004730Y003074D01*
X004700Y003106D01*
X004673Y003141D01*
X004649Y003178D01*
X004628Y003217D01*
X004611Y003258D01*
X004598Y003300D01*
X004588Y003343D01*
X004582Y003387D01*
X004580Y003431D01*
X004580Y013431D02*
X004582Y013475D01*
X004588Y013519D01*
X004598Y013562D01*
X004611Y013604D01*
X004628Y013645D01*
X004649Y013684D01*
X004673Y013721D01*
X004700Y013756D01*
X004730Y013788D01*
X004763Y013818D01*
X004799Y013844D01*
X004836Y013868D01*
X004876Y013887D01*
X004917Y013904D01*
X004960Y013916D01*
X005003Y013925D01*
X005047Y013930D01*
X005091Y013931D01*
X005135Y013928D01*
X005179Y013921D01*
X005222Y013910D01*
X005264Y013896D01*
X005304Y013878D01*
X005343Y013856D01*
X005379Y013832D01*
X005413Y013804D01*
X005445Y013773D01*
X005474Y013739D01*
X005500Y013703D01*
X005522Y013665D01*
X005541Y013625D01*
X005556Y013583D01*
X005568Y013541D01*
X005576Y013497D01*
X005580Y013453D01*
X005580Y013409D01*
X005576Y013365D01*
X005568Y013321D01*
X005556Y013279D01*
X005541Y013237D01*
X005522Y013197D01*
X005500Y013159D01*
X005474Y013123D01*
X005445Y013089D01*
X005413Y013058D01*
X005379Y013030D01*
X005343Y013006D01*
X005304Y012984D01*
X005264Y012966D01*
X005222Y012952D01*
X005179Y012941D01*
X005135Y012934D01*
X005091Y012931D01*
X005047Y012932D01*
X005003Y012937D01*
X004960Y012946D01*
X004917Y012958D01*
X004876Y012975D01*
X004836Y012994D01*
X004799Y013018D01*
X004763Y013044D01*
X004730Y013074D01*
X004700Y013106D01*
X004673Y013141D01*
X004649Y013178D01*
X004628Y013217D01*
X004611Y013258D01*
X004598Y013300D01*
X004588Y013343D01*
X004582Y013387D01*
X004580Y013431D01*
D11*
X013105Y006806D03*
X014105Y006806D03*
X015105Y006806D03*
X016105Y006806D03*
X016105Y003806D03*
X015105Y003806D03*
X014105Y003806D03*
X013105Y003806D03*
D12*
X012105Y003806D03*
X011230Y003806D03*
X010355Y003806D03*
X010355Y006806D03*
X011230Y006806D03*
X012105Y006806D03*
X012855Y009681D03*
X012855Y010556D03*
X009855Y009681D03*
X012855Y013556D03*
X019355Y011431D03*
X019355Y005431D03*
D13*
X007030Y007431D02*
X006430Y007431D01*
X006430Y008431D02*
X007030Y008431D01*
X007030Y009431D02*
X006430Y009431D01*
D14*
X022105Y012931D03*
X022105Y003931D03*
D15*
X022355Y007431D03*
D16*
X022355Y009399D03*
D17*
X016839Y013187D03*
X015855Y013187D03*
X014871Y013187D03*
D18*
X014123Y010431D03*
X017587Y010431D03*
D19*
X011560Y013681D02*
X010900Y013681D01*
D20*
X011230Y011681D03*
D21*
X010855Y010556D03*
X011855Y010556D03*
X016980Y006806D03*
X017980Y006806D03*
D22*
X005080Y003431D03*
X005080Y013431D03*
D23*
X018105Y003181D03*
X019605Y003181D03*
M02*
