G75*
G70*
%OFA0B0*%
%FSLAX24Y24*%
%IPPOS*%
%LPD*%
%AMOC8*
5,1,8,0,0,1.08239X$1,22.5*
%
%ADD10C,0.0000*%
D10*
X003831Y002403D02*
X003831Y007915D01*
X003833Y007941D01*
X003838Y007966D01*
X003846Y007990D01*
X003857Y008014D01*
X003872Y008035D01*
X003889Y008054D01*
X003908Y008071D01*
X003930Y008086D01*
X003953Y008097D01*
X003977Y008105D01*
X004002Y008110D01*
X004028Y008112D01*
X004054Y008110D01*
X004079Y008105D01*
X004103Y008097D01*
X004127Y008086D01*
X004148Y008071D01*
X004167Y008054D01*
X004184Y008035D01*
X004199Y008014D01*
X004210Y007990D01*
X004218Y007966D01*
X004223Y007941D01*
X004225Y007915D01*
X004225Y003191D01*
X004227Y003145D01*
X004232Y003099D01*
X004241Y003053D01*
X004254Y003008D01*
X004270Y002965D01*
X004289Y002923D01*
X004312Y002882D01*
X004338Y002844D01*
X004367Y002807D01*
X004398Y002773D01*
X004432Y002742D01*
X004469Y002713D01*
X004507Y002687D01*
X004548Y002664D01*
X004590Y002645D01*
X004633Y002629D01*
X004678Y002616D01*
X004724Y002607D01*
X004770Y002602D01*
X004816Y002600D01*
X023516Y002600D01*
X023555Y002602D01*
X023593Y002608D01*
X023630Y002617D01*
X023667Y002630D01*
X023702Y002647D01*
X023735Y002666D01*
X023766Y002689D01*
X023795Y002715D01*
X023821Y002744D01*
X023844Y002775D01*
X023863Y002808D01*
X023880Y002843D01*
X023893Y002880D01*
X023902Y002917D01*
X023908Y002955D01*
X023910Y002994D01*
X023910Y007915D01*
X024107Y008112D02*
X024133Y008110D01*
X024158Y008105D01*
X024182Y008097D01*
X024206Y008086D01*
X024227Y008071D01*
X024246Y008054D01*
X024263Y008035D01*
X024278Y008014D01*
X024289Y007990D01*
X024297Y007966D01*
X024302Y007941D01*
X024304Y007915D01*
X024304Y002403D01*
X019343Y003781D02*
X019345Y003831D01*
X019351Y003881D01*
X019361Y003930D01*
X019375Y003978D01*
X019392Y004025D01*
X019413Y004070D01*
X019438Y004114D01*
X019466Y004155D01*
X019498Y004194D01*
X019532Y004231D01*
X019569Y004265D01*
X019609Y004295D01*
X019651Y004322D01*
X019695Y004346D01*
X019741Y004367D01*
X019788Y004383D01*
X019836Y004396D01*
X019886Y004405D01*
X019935Y004410D01*
X019986Y004411D01*
X020036Y004408D01*
X020085Y004401D01*
X020134Y004390D01*
X020182Y004375D01*
X020228Y004357D01*
X020273Y004335D01*
X020316Y004309D01*
X020357Y004280D01*
X020396Y004248D01*
X020432Y004213D01*
X020464Y004175D01*
X020494Y004135D01*
X020521Y004092D01*
X020544Y004048D01*
X020563Y004002D01*
X020579Y003954D01*
X020591Y003905D01*
X020599Y003856D01*
X020603Y003806D01*
X020603Y003756D01*
X020599Y003706D01*
X020591Y003657D01*
X020579Y003608D01*
X020563Y003560D01*
X020544Y003514D01*
X020521Y003470D01*
X020494Y003427D01*
X020464Y003387D01*
X020432Y003349D01*
X020396Y003314D01*
X020357Y003282D01*
X020316Y003253D01*
X020273Y003227D01*
X020228Y003205D01*
X020182Y003187D01*
X020134Y003172D01*
X020085Y003161D01*
X020036Y003154D01*
X019986Y003151D01*
X019935Y003152D01*
X019886Y003157D01*
X019836Y003166D01*
X019788Y003179D01*
X019741Y003195D01*
X019695Y003216D01*
X019651Y003240D01*
X019609Y003267D01*
X019569Y003297D01*
X019532Y003331D01*
X019498Y003368D01*
X019466Y003407D01*
X019438Y003448D01*
X019413Y003492D01*
X019392Y003537D01*
X019375Y003584D01*
X019361Y003632D01*
X019351Y003681D01*
X019345Y003731D01*
X019343Y003781D01*
X023910Y007915D02*
X023912Y007941D01*
X023917Y007966D01*
X023925Y007990D01*
X023936Y008014D01*
X023951Y008035D01*
X023968Y008054D01*
X023987Y008071D01*
X024009Y008086D01*
X024032Y008097D01*
X024056Y008105D01*
X024081Y008110D01*
X024107Y008112D01*
X023753Y008309D02*
X023755Y008334D01*
X023761Y008358D01*
X023770Y008380D01*
X023783Y008401D01*
X023799Y008420D01*
X023818Y008436D01*
X023839Y008449D01*
X023861Y008458D01*
X023885Y008464D01*
X023910Y008466D01*
X023935Y008464D01*
X023959Y008458D01*
X023981Y008449D01*
X024002Y008436D01*
X024021Y008420D01*
X024037Y008401D01*
X024050Y008380D01*
X024059Y008358D01*
X024065Y008334D01*
X024067Y008309D01*
X024065Y008284D01*
X024059Y008260D01*
X024050Y008238D01*
X024037Y008217D01*
X024021Y008198D01*
X024002Y008182D01*
X023981Y008169D01*
X023959Y008160D01*
X023935Y008154D01*
X023910Y008152D01*
X023885Y008154D01*
X023861Y008160D01*
X023839Y008169D01*
X023818Y008182D01*
X023799Y008198D01*
X023783Y008217D01*
X023770Y008238D01*
X023761Y008260D01*
X023755Y008284D01*
X023753Y008309D01*
X023753Y008702D02*
X023755Y008727D01*
X023761Y008751D01*
X023770Y008773D01*
X023783Y008794D01*
X023799Y008813D01*
X023818Y008829D01*
X023839Y008842D01*
X023861Y008851D01*
X023885Y008857D01*
X023910Y008859D01*
X023935Y008857D01*
X023959Y008851D01*
X023981Y008842D01*
X024002Y008829D01*
X024021Y008813D01*
X024037Y008794D01*
X024050Y008773D01*
X024059Y008751D01*
X024065Y008727D01*
X024067Y008702D01*
X024065Y008677D01*
X024059Y008653D01*
X024050Y008631D01*
X024037Y008610D01*
X024021Y008591D01*
X024002Y008575D01*
X023981Y008562D01*
X023959Y008553D01*
X023935Y008547D01*
X023910Y008545D01*
X023885Y008547D01*
X023861Y008553D01*
X023839Y008562D01*
X023818Y008575D01*
X023799Y008591D01*
X023783Y008610D01*
X023770Y008631D01*
X023761Y008653D01*
X023755Y008677D01*
X023753Y008702D01*
X023910Y009096D02*
X023910Y014411D01*
X023908Y014450D01*
X023902Y014488D01*
X023893Y014525D01*
X023880Y014562D01*
X023863Y014597D01*
X023844Y014630D01*
X023821Y014661D01*
X023795Y014690D01*
X023766Y014716D01*
X023735Y014739D01*
X023702Y014758D01*
X023667Y014775D01*
X023630Y014788D01*
X023593Y014797D01*
X023555Y014803D01*
X023516Y014805D01*
X004619Y014805D01*
X004580Y014803D01*
X004542Y014797D01*
X004505Y014788D01*
X004468Y014775D01*
X004433Y014758D01*
X004400Y014739D01*
X004369Y014716D01*
X004340Y014690D01*
X004314Y014661D01*
X004291Y014630D01*
X004272Y014597D01*
X004255Y014562D01*
X004242Y014525D01*
X004233Y014488D01*
X004227Y014450D01*
X004225Y014411D01*
X004225Y009096D01*
X004028Y008899D02*
X004002Y008901D01*
X003977Y008906D01*
X003953Y008914D01*
X003929Y008925D01*
X003908Y008940D01*
X003889Y008957D01*
X003872Y008976D01*
X003857Y008998D01*
X003846Y009021D01*
X003838Y009045D01*
X003833Y009070D01*
X003831Y009096D01*
X003831Y015002D01*
X010682Y013624D02*
X010684Y013674D01*
X010690Y013724D01*
X010700Y013773D01*
X010714Y013821D01*
X010731Y013868D01*
X010752Y013913D01*
X010777Y013957D01*
X010805Y013998D01*
X010837Y014037D01*
X010871Y014074D01*
X010908Y014108D01*
X010948Y014138D01*
X010990Y014165D01*
X011034Y014189D01*
X011080Y014210D01*
X011127Y014226D01*
X011175Y014239D01*
X011225Y014248D01*
X011274Y014253D01*
X011325Y014254D01*
X011375Y014251D01*
X011424Y014244D01*
X011473Y014233D01*
X011521Y014218D01*
X011567Y014200D01*
X011612Y014178D01*
X011655Y014152D01*
X011696Y014123D01*
X011735Y014091D01*
X011771Y014056D01*
X011803Y014018D01*
X011833Y013978D01*
X011860Y013935D01*
X011883Y013891D01*
X011902Y013845D01*
X011918Y013797D01*
X011930Y013748D01*
X011938Y013699D01*
X011942Y013649D01*
X011942Y013599D01*
X011938Y013549D01*
X011930Y013500D01*
X011918Y013451D01*
X011902Y013403D01*
X011883Y013357D01*
X011860Y013313D01*
X011833Y013270D01*
X011803Y013230D01*
X011771Y013192D01*
X011735Y013157D01*
X011696Y013125D01*
X011655Y013096D01*
X011612Y013070D01*
X011567Y013048D01*
X011521Y013030D01*
X011473Y013015D01*
X011424Y013004D01*
X011375Y012997D01*
X011325Y012994D01*
X011274Y012995D01*
X011225Y013000D01*
X011175Y013009D01*
X011127Y013022D01*
X011080Y013038D01*
X011034Y013059D01*
X010990Y013083D01*
X010948Y013110D01*
X010908Y013140D01*
X010871Y013174D01*
X010837Y013211D01*
X010805Y013250D01*
X010777Y013291D01*
X010752Y013335D01*
X010731Y013380D01*
X010714Y013427D01*
X010700Y013475D01*
X010690Y013524D01*
X010684Y013574D01*
X010682Y013624D01*
X004225Y009096D02*
X004223Y009070D01*
X004218Y009045D01*
X004210Y009021D01*
X004199Y008998D01*
X004184Y008976D01*
X004167Y008957D01*
X004148Y008940D01*
X004127Y008925D01*
X004103Y008914D01*
X004079Y008906D01*
X004054Y008901D01*
X004028Y008899D01*
X004068Y008702D02*
X004070Y008727D01*
X004076Y008751D01*
X004085Y008773D01*
X004098Y008794D01*
X004114Y008813D01*
X004133Y008829D01*
X004154Y008842D01*
X004176Y008851D01*
X004200Y008857D01*
X004225Y008859D01*
X004250Y008857D01*
X004274Y008851D01*
X004296Y008842D01*
X004317Y008829D01*
X004336Y008813D01*
X004352Y008794D01*
X004365Y008773D01*
X004374Y008751D01*
X004380Y008727D01*
X004382Y008702D01*
X004380Y008677D01*
X004374Y008653D01*
X004365Y008631D01*
X004352Y008610D01*
X004336Y008591D01*
X004317Y008575D01*
X004296Y008562D01*
X004274Y008553D01*
X004250Y008547D01*
X004225Y008545D01*
X004200Y008547D01*
X004176Y008553D01*
X004154Y008562D01*
X004133Y008575D01*
X004114Y008591D01*
X004098Y008610D01*
X004085Y008631D01*
X004076Y008653D01*
X004070Y008677D01*
X004068Y008702D01*
X004068Y008309D02*
X004070Y008334D01*
X004076Y008358D01*
X004085Y008380D01*
X004098Y008401D01*
X004114Y008420D01*
X004133Y008436D01*
X004154Y008449D01*
X004176Y008458D01*
X004200Y008464D01*
X004225Y008466D01*
X004250Y008464D01*
X004274Y008458D01*
X004296Y008449D01*
X004317Y008436D01*
X004336Y008420D01*
X004352Y008401D01*
X004365Y008380D01*
X004374Y008358D01*
X004380Y008334D01*
X004382Y008309D01*
X004380Y008284D01*
X004374Y008260D01*
X004365Y008238D01*
X004352Y008217D01*
X004336Y008198D01*
X004317Y008182D01*
X004296Y008169D01*
X004274Y008160D01*
X004250Y008154D01*
X004225Y008152D01*
X004200Y008154D01*
X004176Y008160D01*
X004154Y008169D01*
X004133Y008182D01*
X004114Y008198D01*
X004098Y008217D01*
X004085Y008238D01*
X004076Y008260D01*
X004070Y008284D01*
X004068Y008309D01*
X010682Y003781D02*
X010684Y003831D01*
X010690Y003881D01*
X010700Y003930D01*
X010714Y003978D01*
X010731Y004025D01*
X010752Y004070D01*
X010777Y004114D01*
X010805Y004155D01*
X010837Y004194D01*
X010871Y004231D01*
X010908Y004265D01*
X010948Y004295D01*
X010990Y004322D01*
X011034Y004346D01*
X011080Y004367D01*
X011127Y004383D01*
X011175Y004396D01*
X011225Y004405D01*
X011274Y004410D01*
X011325Y004411D01*
X011375Y004408D01*
X011424Y004401D01*
X011473Y004390D01*
X011521Y004375D01*
X011567Y004357D01*
X011612Y004335D01*
X011655Y004309D01*
X011696Y004280D01*
X011735Y004248D01*
X011771Y004213D01*
X011803Y004175D01*
X011833Y004135D01*
X011860Y004092D01*
X011883Y004048D01*
X011902Y004002D01*
X011918Y003954D01*
X011930Y003905D01*
X011938Y003856D01*
X011942Y003806D01*
X011942Y003756D01*
X011938Y003706D01*
X011930Y003657D01*
X011918Y003608D01*
X011902Y003560D01*
X011883Y003514D01*
X011860Y003470D01*
X011833Y003427D01*
X011803Y003387D01*
X011771Y003349D01*
X011735Y003314D01*
X011696Y003282D01*
X011655Y003253D01*
X011612Y003227D01*
X011567Y003205D01*
X011521Y003187D01*
X011473Y003172D01*
X011424Y003161D01*
X011375Y003154D01*
X011325Y003151D01*
X011274Y003152D01*
X011225Y003157D01*
X011175Y003166D01*
X011127Y003179D01*
X011080Y003195D01*
X011034Y003216D01*
X010990Y003240D01*
X010948Y003267D01*
X010908Y003297D01*
X010871Y003331D01*
X010837Y003368D01*
X010805Y003407D01*
X010777Y003448D01*
X010752Y003492D01*
X010731Y003537D01*
X010714Y003584D01*
X010700Y003632D01*
X010690Y003681D01*
X010684Y003731D01*
X010682Y003781D01*
X024107Y008899D02*
X024133Y008901D01*
X024158Y008906D01*
X024182Y008914D01*
X024206Y008925D01*
X024227Y008940D01*
X024246Y008957D01*
X024263Y008976D01*
X024278Y008998D01*
X024289Y009021D01*
X024297Y009045D01*
X024302Y009070D01*
X024304Y009096D01*
X024304Y015002D01*
X019343Y013624D02*
X019345Y013674D01*
X019351Y013724D01*
X019361Y013773D01*
X019375Y013821D01*
X019392Y013868D01*
X019413Y013913D01*
X019438Y013957D01*
X019466Y013998D01*
X019498Y014037D01*
X019532Y014074D01*
X019569Y014108D01*
X019609Y014138D01*
X019651Y014165D01*
X019695Y014189D01*
X019741Y014210D01*
X019788Y014226D01*
X019836Y014239D01*
X019886Y014248D01*
X019935Y014253D01*
X019986Y014254D01*
X020036Y014251D01*
X020085Y014244D01*
X020134Y014233D01*
X020182Y014218D01*
X020228Y014200D01*
X020273Y014178D01*
X020316Y014152D01*
X020357Y014123D01*
X020396Y014091D01*
X020432Y014056D01*
X020464Y014018D01*
X020494Y013978D01*
X020521Y013935D01*
X020544Y013891D01*
X020563Y013845D01*
X020579Y013797D01*
X020591Y013748D01*
X020599Y013699D01*
X020603Y013649D01*
X020603Y013599D01*
X020599Y013549D01*
X020591Y013500D01*
X020579Y013451D01*
X020563Y013403D01*
X020544Y013357D01*
X020521Y013313D01*
X020494Y013270D01*
X020464Y013230D01*
X020432Y013192D01*
X020396Y013157D01*
X020357Y013125D01*
X020316Y013096D01*
X020273Y013070D01*
X020228Y013048D01*
X020182Y013030D01*
X020134Y013015D01*
X020085Y013004D01*
X020036Y012997D01*
X019986Y012994D01*
X019935Y012995D01*
X019886Y013000D01*
X019836Y013009D01*
X019788Y013022D01*
X019741Y013038D01*
X019695Y013059D01*
X019651Y013083D01*
X019609Y013110D01*
X019569Y013140D01*
X019532Y013174D01*
X019498Y013211D01*
X019466Y013250D01*
X019438Y013291D01*
X019413Y013335D01*
X019392Y013380D01*
X019375Y013427D01*
X019361Y013475D01*
X019351Y013524D01*
X019345Y013574D01*
X019343Y013624D01*
X023910Y009096D02*
X023912Y009070D01*
X023917Y009045D01*
X023925Y009021D01*
X023936Y008998D01*
X023951Y008976D01*
X023968Y008957D01*
X023987Y008940D01*
X024009Y008925D01*
X024032Y008914D01*
X024056Y008906D01*
X024081Y008901D01*
X024107Y008899D01*
M02*
