%
M48
M72
T01C0.0276
T02C0.0320
T03C0.0354
T04C0.0394
T05C0.0400
T06C0.0472
T07C0.0512
T08C0.0787
T09C0.1000
T10C0.1500
%
T01
X10850Y9991
X10850Y11959
X17350Y13225
X18350Y13225
X19475Y5600
X20475Y5600
T02
X16100Y6975
X15100Y6975
X14100Y6975
X13100Y6975
X13100Y3975
X14100Y3975
X15100Y3975
X16100Y3975
X11975Y12475
X11225Y12975
X11975Y13475
T03
X13225Y14100
X16225Y14100
X11850Y11100
X11850Y8100
X11974Y6954
X10975Y6954
X10975Y3954
X11974Y3954
X12600Y3100
X15600Y3100
T04
X17975Y3350
X19475Y3350
X15709Y13231
X14725Y13231
X13741Y13231
T05
X6850Y9600
X6850Y8600
X6850Y7600
T06
X18225Y5600
X18225Y11600
T07
X21600Y9569
X21600Y7600
T08
X16457Y10475
X12993Y10475
T09
X5200Y3600
X5200Y13600
T10
X21975Y13100
X21975Y4100
M30
