G75*
G70*
%OFA0B0*%
%FSLAX24Y24*%
%IPPOS*%
%LPD*%
%AMOC8*
5,1,8,0,0,1.08239X$1,22.5*
%
%ADD10C,0.0000*%
%ADD11R,0.1260X0.0709*%
%ADD12C,0.0600*%
%ADD13C,0.2150*%
%ADD14R,0.0740X0.0740*%
%ADD15OC8,0.1181*%
%ADD16R,0.0472X0.0315*%
%ADD17R,0.0315X0.0472*%
%ADD18R,0.0866X0.0256*%
%ADD19C,0.1750*%
%ADD20R,0.0472X0.0472*%
%ADD21R,0.0591X0.0630*%
%ADD22R,0.0240X0.0870*%
%ADD23R,0.0480X0.0880*%
%ADD24R,0.1417X0.0866*%
%ADD25C,0.0740*%
%ADD26C,0.0238*%
%ADD27C,0.0100*%
%ADD28C,0.1280*%
%ADD29C,0.0060*%
%ADD30C,0.0640*%
D10*
X004225Y003191D02*
X004225Y014411D01*
X004227Y014450D01*
X004233Y014488D01*
X004242Y014525D01*
X004255Y014562D01*
X004272Y014597D01*
X004291Y014630D01*
X004314Y014661D01*
X004340Y014690D01*
X004369Y014716D01*
X004400Y014739D01*
X004433Y014758D01*
X004468Y014775D01*
X004505Y014788D01*
X004542Y014797D01*
X004580Y014803D01*
X004619Y014805D01*
X013280Y014805D01*
X013379Y014805D01*
X013396Y014806D01*
X013413Y014811D01*
X013428Y014818D01*
X013442Y014828D01*
X013454Y014840D01*
X013464Y014854D01*
X013471Y014869D01*
X013476Y014886D01*
X013477Y014903D01*
X013477Y015198D01*
X013477Y015887D01*
X013476Y015904D01*
X013471Y015921D01*
X013464Y015936D01*
X013454Y015950D01*
X013442Y015962D01*
X013428Y015972D01*
X013413Y015979D01*
X013396Y015984D01*
X013379Y015985D01*
X013379Y015986D02*
X013280Y015986D01*
X013517Y015986D02*
X013519Y016011D01*
X013525Y016035D01*
X013534Y016057D01*
X013547Y016078D01*
X013563Y016097D01*
X013582Y016113D01*
X013603Y016126D01*
X013625Y016135D01*
X013649Y016141D01*
X013674Y016143D01*
X013699Y016141D01*
X013723Y016135D01*
X013745Y016126D01*
X013766Y016113D01*
X013785Y016097D01*
X013801Y016078D01*
X013814Y016057D01*
X013823Y016035D01*
X013829Y016011D01*
X013831Y015986D01*
X013829Y015961D01*
X013823Y015937D01*
X013814Y015915D01*
X013801Y015894D01*
X013785Y015875D01*
X013766Y015859D01*
X013745Y015846D01*
X013723Y015837D01*
X013699Y015831D01*
X013674Y015829D01*
X013649Y015831D01*
X013625Y015837D01*
X013603Y015846D01*
X013582Y015859D01*
X013563Y015875D01*
X013547Y015894D01*
X013534Y015915D01*
X013525Y015937D01*
X013519Y015961D01*
X013517Y015986D01*
X013911Y015986D02*
X013913Y016011D01*
X013919Y016035D01*
X013928Y016057D01*
X013941Y016078D01*
X013957Y016097D01*
X013976Y016113D01*
X013997Y016126D01*
X014019Y016135D01*
X014043Y016141D01*
X014068Y016143D01*
X014093Y016141D01*
X014117Y016135D01*
X014139Y016126D01*
X014160Y016113D01*
X014179Y016097D01*
X014195Y016078D01*
X014208Y016057D01*
X014217Y016035D01*
X014223Y016011D01*
X014225Y015986D01*
X014223Y015961D01*
X014217Y015937D01*
X014208Y015915D01*
X014195Y015894D01*
X014179Y015875D01*
X014160Y015859D01*
X014139Y015846D01*
X014117Y015837D01*
X014093Y015831D01*
X014068Y015829D01*
X014043Y015831D01*
X014019Y015837D01*
X013997Y015846D01*
X013976Y015859D01*
X013957Y015875D01*
X013941Y015894D01*
X013928Y015915D01*
X013919Y015937D01*
X013913Y015961D01*
X013911Y015986D01*
X014304Y015986D02*
X014306Y016011D01*
X014312Y016035D01*
X014321Y016057D01*
X014334Y016078D01*
X014350Y016097D01*
X014369Y016113D01*
X014390Y016126D01*
X014412Y016135D01*
X014436Y016141D01*
X014461Y016143D01*
X014486Y016141D01*
X014510Y016135D01*
X014532Y016126D01*
X014553Y016113D01*
X014572Y016097D01*
X014588Y016078D01*
X014601Y016057D01*
X014610Y016035D01*
X014616Y016011D01*
X014618Y015986D01*
X014616Y015961D01*
X014610Y015937D01*
X014601Y015915D01*
X014588Y015894D01*
X014572Y015875D01*
X014553Y015859D01*
X014532Y015846D01*
X014510Y015837D01*
X014486Y015831D01*
X014461Y015829D01*
X014436Y015831D01*
X014412Y015837D01*
X014390Y015846D01*
X014369Y015859D01*
X014350Y015875D01*
X014334Y015894D01*
X014321Y015915D01*
X014312Y015937D01*
X014306Y015961D01*
X014304Y015986D01*
X014658Y015887D02*
X014658Y015198D01*
X014658Y014903D01*
X014659Y014886D01*
X014664Y014869D01*
X014671Y014854D01*
X014681Y014840D01*
X014693Y014828D01*
X014707Y014818D01*
X014722Y014811D01*
X014739Y014806D01*
X014756Y014805D01*
X014855Y014805D01*
X023516Y014805D01*
X023555Y014803D01*
X023593Y014797D01*
X023630Y014788D01*
X023667Y014775D01*
X023702Y014758D01*
X023735Y014739D01*
X023766Y014716D01*
X023795Y014690D01*
X023821Y014661D01*
X023844Y014630D01*
X023863Y014597D01*
X023880Y014562D01*
X023893Y014525D01*
X023902Y014488D01*
X023908Y014450D01*
X023910Y014411D01*
X023910Y002994D01*
X023908Y002955D01*
X023902Y002917D01*
X023893Y002880D01*
X023880Y002843D01*
X023863Y002808D01*
X023844Y002775D01*
X023821Y002744D01*
X023795Y002715D01*
X023766Y002689D01*
X023735Y002666D01*
X023702Y002647D01*
X023667Y002630D01*
X023630Y002617D01*
X023593Y002608D01*
X023555Y002602D01*
X023516Y002600D01*
X014855Y002600D01*
X013280Y002600D02*
X004816Y002600D01*
X004770Y002602D01*
X004724Y002607D01*
X004678Y002616D01*
X004633Y002629D01*
X004590Y002645D01*
X004548Y002664D01*
X004507Y002687D01*
X004469Y002713D01*
X004432Y002742D01*
X004398Y002773D01*
X004367Y002807D01*
X004338Y002844D01*
X004312Y002882D01*
X004289Y002923D01*
X004270Y002965D01*
X004254Y003008D01*
X004241Y003053D01*
X004232Y003099D01*
X004227Y003145D01*
X004225Y003191D01*
X013517Y014805D02*
X013519Y014830D01*
X013525Y014854D01*
X013534Y014876D01*
X013547Y014897D01*
X013563Y014916D01*
X013582Y014932D01*
X013603Y014945D01*
X013625Y014954D01*
X013649Y014960D01*
X013674Y014962D01*
X013699Y014960D01*
X013723Y014954D01*
X013745Y014945D01*
X013766Y014932D01*
X013785Y014916D01*
X013801Y014897D01*
X013814Y014876D01*
X013823Y014854D01*
X013829Y014830D01*
X013831Y014805D01*
X013829Y014780D01*
X013823Y014756D01*
X013814Y014734D01*
X013801Y014713D01*
X013785Y014694D01*
X013766Y014678D01*
X013745Y014665D01*
X013723Y014656D01*
X013699Y014650D01*
X013674Y014648D01*
X013649Y014650D01*
X013625Y014656D01*
X013603Y014665D01*
X013582Y014678D01*
X013563Y014694D01*
X013547Y014713D01*
X013534Y014734D01*
X013525Y014756D01*
X013519Y014780D01*
X013517Y014805D01*
X013911Y014805D02*
X013913Y014830D01*
X013919Y014854D01*
X013928Y014876D01*
X013941Y014897D01*
X013957Y014916D01*
X013976Y014932D01*
X013997Y014945D01*
X014019Y014954D01*
X014043Y014960D01*
X014068Y014962D01*
X014093Y014960D01*
X014117Y014954D01*
X014139Y014945D01*
X014160Y014932D01*
X014179Y014916D01*
X014195Y014897D01*
X014208Y014876D01*
X014217Y014854D01*
X014223Y014830D01*
X014225Y014805D01*
X014223Y014780D01*
X014217Y014756D01*
X014208Y014734D01*
X014195Y014713D01*
X014179Y014694D01*
X014160Y014678D01*
X014139Y014665D01*
X014117Y014656D01*
X014093Y014650D01*
X014068Y014648D01*
X014043Y014650D01*
X014019Y014656D01*
X013997Y014665D01*
X013976Y014678D01*
X013957Y014694D01*
X013941Y014713D01*
X013928Y014734D01*
X013919Y014756D01*
X013913Y014780D01*
X013911Y014805D01*
X014304Y014805D02*
X014306Y014830D01*
X014312Y014854D01*
X014321Y014876D01*
X014334Y014897D01*
X014350Y014916D01*
X014369Y014932D01*
X014390Y014945D01*
X014412Y014954D01*
X014436Y014960D01*
X014461Y014962D01*
X014486Y014960D01*
X014510Y014954D01*
X014532Y014945D01*
X014553Y014932D01*
X014572Y014916D01*
X014588Y014897D01*
X014601Y014876D01*
X014610Y014854D01*
X014616Y014830D01*
X014618Y014805D01*
X014616Y014780D01*
X014610Y014756D01*
X014601Y014734D01*
X014588Y014713D01*
X014572Y014694D01*
X014553Y014678D01*
X014532Y014665D01*
X014510Y014656D01*
X014486Y014650D01*
X014461Y014648D01*
X014436Y014650D01*
X014412Y014656D01*
X014390Y014665D01*
X014369Y014678D01*
X014350Y014694D01*
X014334Y014713D01*
X014321Y014734D01*
X014312Y014756D01*
X014306Y014780D01*
X014304Y014805D01*
X014658Y015887D02*
X014659Y015904D01*
X014664Y015921D01*
X014671Y015936D01*
X014681Y015950D01*
X014693Y015962D01*
X014707Y015972D01*
X014722Y015979D01*
X014739Y015984D01*
X014756Y015985D01*
X014756Y015986D02*
X014855Y015986D01*
D11*
X019345Y009702D03*
X019345Y007498D03*
D12*
X007150Y007600D02*
X006550Y007600D01*
X006550Y008600D02*
X007150Y008600D01*
X007150Y009600D02*
X006550Y009600D01*
D13*
X021975Y012350D03*
X021975Y004850D03*
D14*
X017209Y009469D03*
X016225Y009469D03*
X015241Y009469D03*
D15*
X014493Y012225D03*
X017957Y012225D03*
D16*
X015100Y008767D03*
X015100Y008058D03*
X015100Y007454D03*
X015100Y006746D03*
X015100Y006204D03*
X015100Y005496D03*
D17*
X013892Y004350D03*
X013183Y004350D03*
X013183Y003475D03*
X013892Y003475D03*
X017671Y007108D03*
X018379Y007108D03*
X011954Y008725D03*
X011246Y008725D03*
X008434Y007600D03*
X007725Y007600D03*
D18*
X012641Y007021D03*
X014098Y007021D03*
D19*
X005200Y003600D03*
X005200Y013600D03*
D20*
X014391Y004306D03*
X014391Y003519D03*
D21*
X015671Y003913D03*
D22*
X015725Y006070D03*
X016225Y006070D03*
X016725Y006070D03*
X017225Y006070D03*
X017225Y008130D03*
X016725Y008130D03*
X016225Y008130D03*
X015725Y008130D03*
D23*
X012885Y009630D03*
X011975Y009630D03*
X011065Y009630D03*
D24*
X011975Y012070D03*
D25*
X016975Y003600D03*
X017975Y003600D03*
X018975Y003600D03*
D26*
X017038Y006600D03*
X012725Y006725D03*
X012725Y004350D03*
X010600Y009850D03*
D27*
X010845Y009850D01*
X011065Y009630D01*
X011065Y008906D01*
X011246Y008725D01*
X011168Y008647D01*
X010978Y008609D02*
X007560Y008609D01*
X007560Y008682D02*
X007498Y008832D01*
X007382Y008948D01*
X007232Y009010D01*
X006468Y009010D01*
X006318Y008948D01*
X006202Y008832D01*
X006140Y008682D01*
X006140Y008518D01*
X006202Y008368D01*
X006318Y008252D01*
X006468Y008190D01*
X007232Y008190D01*
X007382Y008252D01*
X007498Y008368D01*
X007560Y008518D01*
X007560Y008682D01*
X007549Y008707D02*
X010978Y008707D01*
X010978Y008766D02*
X010978Y008443D01*
X011043Y008379D01*
X011449Y008379D01*
X011513Y008443D01*
X011513Y009007D01*
X011449Y009071D01*
X011225Y009071D01*
X011225Y009080D01*
X011351Y009080D01*
X011415Y009144D01*
X011415Y010100D01*
X011588Y010100D01*
X011585Y010090D01*
X011585Y009680D01*
X011925Y009680D01*
X011925Y009580D01*
X011585Y009580D01*
X011585Y009170D01*
X011595Y009132D01*
X011615Y009098D01*
X011643Y009070D01*
X011676Y009051D01*
X011657Y009019D01*
X011647Y008981D01*
X011647Y008754D01*
X011926Y008754D01*
X011926Y009111D01*
X011925Y009111D01*
X011925Y009580D01*
X012025Y009580D01*
X012025Y009680D01*
X012365Y009680D01*
X012365Y010090D01*
X012362Y010100D01*
X012535Y010100D01*
X012535Y009144D01*
X012599Y009080D01*
X012725Y009080D01*
X012725Y008168D01*
X013634Y007259D01*
X013619Y007259D01*
X013555Y007195D01*
X013555Y006848D01*
X013619Y006783D01*
X014577Y006783D01*
X014641Y006848D01*
X014641Y007195D01*
X014577Y007259D01*
X014562Y007259D01*
X014597Y007294D01*
X014754Y007294D01*
X014754Y007251D01*
X014818Y007187D01*
X015382Y007187D01*
X015446Y007251D01*
X015446Y007625D01*
X015495Y007674D01*
X015495Y007649D01*
X015559Y007585D01*
X015815Y007585D01*
X015815Y007284D01*
X016522Y006577D01*
X016495Y006551D01*
X016495Y005656D01*
X016455Y005656D01*
X016455Y006551D01*
X016391Y006615D01*
X016059Y006615D01*
X015995Y006551D01*
X015995Y005656D01*
X015955Y005656D01*
X015955Y006551D01*
X015891Y006615D01*
X015559Y006615D01*
X015495Y006551D01*
X015495Y006364D01*
X015446Y006364D01*
X015446Y006407D01*
X015401Y006452D01*
X015428Y006468D01*
X015456Y006496D01*
X015476Y006530D01*
X015486Y006568D01*
X015486Y006717D01*
X015129Y006717D01*
X015129Y006774D01*
X015486Y006774D01*
X015486Y006923D01*
X015476Y006961D01*
X015456Y006995D01*
X015428Y007023D01*
X015394Y007043D01*
X015356Y007053D01*
X015129Y007053D01*
X015129Y006774D01*
X015071Y006774D01*
X015071Y006717D01*
X014714Y006717D01*
X014714Y006568D01*
X014724Y006530D01*
X014744Y006496D01*
X014772Y006468D01*
X014799Y006452D01*
X014754Y006407D01*
X014754Y006260D01*
X011541Y006260D01*
X010041Y007760D01*
X008701Y007760D01*
X008701Y007882D01*
X008637Y007946D01*
X008231Y007946D01*
X008166Y007882D01*
X008166Y007318D01*
X008231Y007254D01*
X008637Y007254D01*
X008701Y007318D01*
X008701Y007440D01*
X009909Y007440D01*
X011315Y006034D01*
X011409Y005940D01*
X014815Y005940D01*
X014818Y005937D01*
X015382Y005937D01*
X015446Y006001D01*
X015446Y006044D01*
X015495Y006044D01*
X015495Y005656D01*
X015446Y005656D01*
X015446Y005699D01*
X015382Y005763D01*
X014818Y005763D01*
X014754Y005699D01*
X014754Y005293D01*
X014818Y005228D01*
X015382Y005228D01*
X015446Y005293D01*
X015446Y005336D01*
X017513Y005336D01*
X016167Y003990D01*
X016076Y003990D01*
X016076Y004273D01*
X016012Y004337D01*
X015330Y004337D01*
X015266Y004273D01*
X015266Y003552D01*
X015330Y003488D01*
X016012Y003488D01*
X016076Y003552D01*
X016076Y003710D01*
X016283Y003710D01*
X016365Y003792D01*
X017945Y005372D01*
X017945Y004080D01*
X017880Y004080D01*
X017703Y004007D01*
X017568Y003872D01*
X017495Y003695D01*
X017495Y003505D01*
X017541Y003393D01*
X017409Y003260D01*
X017370Y003260D01*
X017372Y003261D01*
X017420Y003327D01*
X017457Y003400D01*
X017482Y003478D01*
X017494Y003550D01*
X017025Y003550D01*
X017025Y003650D01*
X016925Y003650D01*
X016925Y004119D01*
X016853Y004107D01*
X016775Y004082D01*
X016702Y004045D01*
X016636Y003997D01*
X016578Y003939D01*
X016530Y003873D01*
X016493Y003800D01*
X016468Y003722D01*
X016456Y003650D01*
X016925Y003650D01*
X016925Y003550D01*
X016456Y003550D01*
X016468Y003478D01*
X016493Y003400D01*
X016530Y003327D01*
X016578Y003261D01*
X016580Y003260D01*
X014738Y003260D01*
X014738Y003801D01*
X014673Y003865D01*
X014110Y003865D01*
X014066Y003821D01*
X013689Y003821D01*
X013624Y003757D01*
X013624Y003260D01*
X013451Y003434D01*
X013451Y003757D01*
X013386Y003821D01*
X012980Y003821D01*
X012916Y003757D01*
X012916Y003193D01*
X012980Y003129D01*
X013303Y003129D01*
X013492Y002940D01*
X017541Y002940D01*
X017635Y003034D01*
X017768Y003166D01*
X017880Y003120D01*
X018070Y003120D01*
X018247Y003193D01*
X018382Y003328D01*
X018455Y003505D01*
X018455Y003695D01*
X018382Y003872D01*
X018247Y004007D01*
X018225Y004016D01*
X018225Y006761D01*
X018582Y006761D01*
X018647Y006826D01*
X018647Y007010D01*
X018657Y007004D01*
X018695Y006993D01*
X019295Y006993D01*
X019295Y007448D01*
X018588Y007448D01*
X018582Y007454D01*
X018539Y007454D01*
X018539Y008670D01*
X018931Y009062D01*
X019196Y008952D01*
X019494Y008952D01*
X019770Y009067D01*
X019941Y009238D01*
X020020Y009238D01*
X020085Y009302D01*
X020085Y009529D01*
X020095Y009553D01*
X020095Y009852D01*
X020085Y009876D01*
X020085Y010102D01*
X020020Y010167D01*
X019941Y010167D01*
X018622Y011486D01*
X018347Y011600D01*
X018323Y011600D01*
X018658Y011935D01*
X018658Y012515D01*
X018247Y012926D01*
X017667Y012926D01*
X017257Y012515D01*
X017257Y011935D01*
X017592Y011600D01*
X014858Y011600D01*
X015193Y011935D01*
X015193Y012515D01*
X014783Y012926D01*
X014203Y012926D01*
X013792Y012515D01*
X013792Y011935D01*
X014127Y011600D01*
X012794Y011600D01*
X012794Y012549D01*
X012729Y012613D01*
X011221Y012613D01*
X011156Y012549D01*
X011156Y011600D01*
X010076Y011600D01*
X009800Y011486D01*
X009589Y011275D01*
X008664Y010350D01*
X007826Y010350D01*
X007550Y010236D01*
X007344Y010030D01*
X006764Y010030D01*
X006716Y010010D01*
X006468Y010010D01*
X006318Y009948D01*
X006202Y009832D01*
X006140Y009682D01*
X006140Y009518D01*
X006202Y009368D01*
X006318Y009252D01*
X006468Y009190D01*
X006716Y009190D01*
X006764Y009170D01*
X007344Y009170D01*
X007550Y008964D01*
X007826Y008850D01*
X009124Y008850D01*
X009400Y008964D01*
X010371Y009935D01*
X010371Y009755D01*
X010505Y009621D01*
X010695Y009621D01*
X010715Y009641D01*
X010715Y009144D01*
X010779Y009080D01*
X010905Y009080D01*
X010905Y008839D01*
X010978Y008766D01*
X010939Y008806D02*
X007509Y008806D01*
X007426Y008904D02*
X007695Y008904D01*
X007512Y009003D02*
X007250Y009003D01*
X007413Y009101D02*
X005650Y009101D01*
X005650Y009003D02*
X006450Y009003D01*
X006445Y009200D02*
X005650Y009200D01*
X005650Y009298D02*
X006272Y009298D01*
X006191Y009397D02*
X005650Y009397D01*
X005650Y009495D02*
X006150Y009495D01*
X006140Y009594D02*
X005650Y009594D01*
X005650Y009692D02*
X006144Y009692D01*
X006185Y009791D02*
X005650Y009791D01*
X005650Y009889D02*
X006259Y009889D01*
X006414Y009988D02*
X005650Y009988D01*
X005650Y010086D02*
X007400Y010086D01*
X007499Y010185D02*
X005650Y010185D01*
X005650Y010283D02*
X007664Y010283D01*
X008696Y010382D02*
X005650Y010382D01*
X005650Y010480D02*
X008794Y010480D01*
X008893Y010579D02*
X005650Y010579D01*
X005650Y010677D02*
X008991Y010677D01*
X009090Y010776D02*
X005650Y010776D01*
X005650Y010874D02*
X009188Y010874D01*
X009287Y010973D02*
X005650Y010973D01*
X005650Y011071D02*
X009385Y011071D01*
X009484Y011170D02*
X005650Y011170D01*
X005650Y011268D02*
X009582Y011268D01*
X009681Y011367D02*
X005650Y011367D01*
X005650Y011465D02*
X009779Y011465D01*
X009988Y011564D02*
X005650Y011564D01*
X005650Y011662D02*
X011156Y011662D01*
X011156Y011761D02*
X005650Y011761D01*
X005650Y011800D02*
X010371Y011800D01*
X010400Y011829D01*
X010400Y014655D01*
X013403Y014655D01*
X013413Y014631D01*
X013500Y014544D01*
X013613Y014497D01*
X013735Y014497D01*
X013848Y014544D01*
X013871Y014567D01*
X013893Y014544D01*
X014006Y014497D01*
X014129Y014497D01*
X014242Y014544D01*
X014264Y014567D01*
X014287Y014544D01*
X014400Y014497D01*
X014522Y014497D01*
X014635Y014544D01*
X014722Y014631D01*
X014732Y014655D01*
X023516Y014655D01*
X023564Y014650D01*
X023652Y014614D01*
X023719Y014546D01*
X023755Y014459D01*
X023760Y014411D01*
X023760Y002994D01*
X017595Y002994D01*
X017694Y003093D02*
X023760Y003093D01*
X023760Y003191D02*
X019242Y003191D01*
X019247Y003193D02*
X019334Y003280D01*
X023131Y003280D01*
X023431Y003580D01*
X023525Y003674D01*
X023525Y011026D01*
X022925Y011626D01*
X023079Y011893D01*
X023160Y012194D01*
X023160Y012506D01*
X023079Y012807D01*
X022923Y013078D01*
X022703Y013298D01*
X022432Y013454D01*
X022131Y013535D01*
X021819Y013535D01*
X021518Y013454D01*
X021247Y013298D01*
X021027Y013078D01*
X020871Y012807D01*
X020790Y012506D01*
X020790Y012194D01*
X020871Y011893D01*
X021027Y011622D01*
X021247Y011402D01*
X021518Y011246D01*
X021819Y011165D01*
X022131Y011165D01*
X022432Y011246D01*
X022699Y011400D01*
X023205Y010894D01*
X023205Y003806D01*
X022999Y003600D01*
X019455Y003600D01*
X019455Y003695D01*
X019382Y003872D01*
X019247Y004007D01*
X019070Y004080D01*
X018880Y004080D01*
X018703Y004007D01*
X018568Y003872D01*
X018495Y003695D01*
X018495Y003505D01*
X018568Y003328D01*
X018703Y003193D01*
X018880Y003120D01*
X019070Y003120D01*
X019247Y003193D01*
X019135Y003440D02*
X018975Y003600D01*
X019135Y003440D02*
X023065Y003440D01*
X023365Y003740D01*
X023365Y010960D01*
X021975Y012350D01*
X023001Y012943D02*
X023760Y012943D01*
X023760Y013041D02*
X022944Y013041D01*
X022861Y013140D02*
X023760Y013140D01*
X023760Y013238D02*
X022763Y013238D01*
X022636Y013337D02*
X023760Y013337D01*
X023760Y013435D02*
X022466Y013435D01*
X022136Y013534D02*
X023760Y013534D01*
X023760Y013632D02*
X010400Y013632D01*
X010400Y013534D02*
X021814Y013534D01*
X021484Y013435D02*
X010400Y013435D01*
X010400Y013337D02*
X021314Y013337D01*
X021187Y013238D02*
X010400Y013238D01*
X010400Y013140D02*
X021089Y013140D01*
X021006Y013041D02*
X010400Y013041D01*
X010400Y012943D02*
X020949Y012943D01*
X020892Y012844D02*
X018329Y012844D01*
X018427Y012746D02*
X020854Y012746D01*
X020828Y012647D02*
X018526Y012647D01*
X018624Y012549D02*
X020801Y012549D01*
X020790Y012450D02*
X018658Y012450D01*
X018658Y012352D02*
X020790Y012352D01*
X020790Y012253D02*
X018658Y012253D01*
X018658Y012155D02*
X020801Y012155D01*
X020827Y012056D02*
X018658Y012056D01*
X018658Y011958D02*
X020853Y011958D01*
X020890Y011859D02*
X018582Y011859D01*
X018484Y011761D02*
X020947Y011761D01*
X021004Y011662D02*
X018385Y011662D01*
X018435Y011564D02*
X021086Y011564D01*
X021184Y011465D02*
X018643Y011465D01*
X018741Y011367D02*
X021308Y011367D01*
X021479Y011268D02*
X018840Y011268D01*
X018938Y011170D02*
X021802Y011170D01*
X022148Y011170D02*
X022929Y011170D01*
X022831Y011268D02*
X022471Y011268D01*
X022642Y011367D02*
X022732Y011367D01*
X022988Y011564D02*
X023760Y011564D01*
X023760Y011662D02*
X022946Y011662D01*
X023003Y011761D02*
X023760Y011761D01*
X023760Y011859D02*
X023060Y011859D01*
X023097Y011958D02*
X023760Y011958D01*
X023760Y012056D02*
X023123Y012056D01*
X023149Y012155D02*
X023760Y012155D01*
X023760Y012253D02*
X023160Y012253D01*
X023160Y012352D02*
X023760Y012352D01*
X023760Y012450D02*
X023160Y012450D01*
X023149Y012549D02*
X023760Y012549D01*
X023760Y012647D02*
X023122Y012647D01*
X023096Y012746D02*
X023760Y012746D01*
X023760Y012844D02*
X023058Y012844D01*
X023760Y013731D02*
X010400Y013731D01*
X010400Y013829D02*
X023760Y013829D01*
X023760Y013928D02*
X010400Y013928D01*
X010400Y014026D02*
X023760Y014026D01*
X023760Y014125D02*
X010400Y014125D01*
X010400Y014223D02*
X023760Y014223D01*
X023760Y014322D02*
X010400Y014322D01*
X010400Y014420D02*
X023759Y014420D01*
X023731Y014519D02*
X014574Y014519D01*
X014708Y014617D02*
X023644Y014617D01*
X023760Y011465D02*
X023086Y011465D01*
X023185Y011367D02*
X023760Y011367D01*
X023760Y011268D02*
X023283Y011268D01*
X023382Y011170D02*
X023760Y011170D01*
X023760Y011071D02*
X023480Y011071D01*
X023525Y010973D02*
X023760Y010973D01*
X023760Y010874D02*
X023525Y010874D01*
X023525Y010776D02*
X023760Y010776D01*
X023760Y010677D02*
X023525Y010677D01*
X023525Y010579D02*
X023760Y010579D01*
X023760Y010480D02*
X023525Y010480D01*
X023525Y010382D02*
X023760Y010382D01*
X023760Y010283D02*
X023525Y010283D01*
X023525Y010185D02*
X023760Y010185D01*
X023760Y010086D02*
X023525Y010086D01*
X023525Y009988D02*
X023760Y009988D01*
X023760Y009889D02*
X023525Y009889D01*
X023525Y009791D02*
X023760Y009791D01*
X023760Y009692D02*
X023525Y009692D01*
X023525Y009594D02*
X023760Y009594D01*
X023760Y009495D02*
X023525Y009495D01*
X023525Y009397D02*
X023760Y009397D01*
X023760Y009298D02*
X023525Y009298D01*
X023525Y009200D02*
X023760Y009200D01*
X023760Y009101D02*
X023525Y009101D01*
X023525Y009003D02*
X023760Y009003D01*
X023760Y008904D02*
X023525Y008904D01*
X023525Y008806D02*
X023760Y008806D01*
X023760Y008707D02*
X023525Y008707D01*
X023525Y008609D02*
X023760Y008609D01*
X023760Y008510D02*
X023525Y008510D01*
X023525Y008412D02*
X023760Y008412D01*
X023760Y008313D02*
X023525Y008313D01*
X023525Y008215D02*
X023760Y008215D01*
X023760Y008116D02*
X023525Y008116D01*
X023525Y008018D02*
X023760Y008018D01*
X023760Y007919D02*
X023525Y007919D01*
X023525Y007821D02*
X023760Y007821D01*
X023760Y007722D02*
X023525Y007722D01*
X023525Y007624D02*
X023760Y007624D01*
X023760Y007525D02*
X023525Y007525D01*
X023525Y007427D02*
X023760Y007427D01*
X023760Y007328D02*
X023525Y007328D01*
X023525Y007230D02*
X023760Y007230D01*
X023760Y007131D02*
X023525Y007131D01*
X023525Y007033D02*
X023760Y007033D01*
X023760Y006934D02*
X023525Y006934D01*
X023525Y006836D02*
X023760Y006836D01*
X023760Y006737D02*
X023525Y006737D01*
X023525Y006639D02*
X023760Y006639D01*
X023760Y006540D02*
X023525Y006540D01*
X023525Y006442D02*
X023760Y006442D01*
X023760Y006343D02*
X023525Y006343D01*
X023525Y006245D02*
X023760Y006245D01*
X023760Y006146D02*
X023525Y006146D01*
X023525Y006048D02*
X023760Y006048D01*
X023760Y005949D02*
X023525Y005949D01*
X023525Y005851D02*
X023760Y005851D01*
X023760Y005752D02*
X023525Y005752D01*
X023525Y005654D02*
X023760Y005654D01*
X023760Y005555D02*
X023525Y005555D01*
X023525Y005457D02*
X023760Y005457D01*
X023760Y005358D02*
X023525Y005358D01*
X023525Y005260D02*
X023760Y005260D01*
X023760Y005161D02*
X023525Y005161D01*
X023525Y005063D02*
X023760Y005063D01*
X023760Y004964D02*
X023525Y004964D01*
X023525Y004866D02*
X023760Y004866D01*
X023760Y004767D02*
X023525Y004767D01*
X023525Y004669D02*
X023760Y004669D01*
X023760Y004570D02*
X023525Y004570D01*
X023525Y004472D02*
X023760Y004472D01*
X023760Y004373D02*
X023525Y004373D01*
X023525Y004275D02*
X023760Y004275D01*
X023760Y004176D02*
X023525Y004176D01*
X023525Y004078D02*
X023760Y004078D01*
X023760Y003979D02*
X023525Y003979D01*
X023525Y003881D02*
X023760Y003881D01*
X023760Y003782D02*
X023525Y003782D01*
X023525Y003684D02*
X023760Y003684D01*
X023760Y003585D02*
X023436Y003585D01*
X023338Y003487D02*
X023760Y003487D01*
X023760Y003388D02*
X023239Y003388D01*
X023141Y003290D02*
X023760Y003290D01*
X023760Y002994D02*
X023755Y002946D01*
X023719Y002858D01*
X023652Y002791D01*
X023564Y002755D01*
X023516Y002750D01*
X014793Y002750D01*
X014705Y002662D01*
X014705Y002600D01*
X013430Y002600D01*
X013430Y002662D01*
X013342Y002750D01*
X010400Y002750D01*
X010400Y005371D01*
X010371Y005400D01*
X005650Y005400D01*
X005650Y011800D01*
X009438Y009003D02*
X010905Y009003D01*
X010905Y008904D02*
X009255Y008904D01*
X009537Y009101D02*
X010758Y009101D01*
X010715Y009200D02*
X009635Y009200D01*
X009734Y009298D02*
X010715Y009298D01*
X010715Y009397D02*
X009832Y009397D01*
X009931Y009495D02*
X010715Y009495D01*
X010715Y009594D02*
X010029Y009594D01*
X010128Y009692D02*
X010434Y009692D01*
X010371Y009791D02*
X010226Y009791D01*
X010325Y009889D02*
X010371Y009889D01*
X011415Y009889D02*
X011585Y009889D01*
X011585Y009791D02*
X011415Y009791D01*
X011415Y009692D02*
X011585Y009692D01*
X011415Y009594D02*
X011925Y009594D01*
X011975Y009630D02*
X011975Y008746D01*
X011954Y008725D01*
X011954Y007708D01*
X012641Y007021D01*
X012641Y006809D01*
X012725Y006725D01*
X012655Y006743D02*
X013094Y006743D01*
X013132Y006754D01*
X013167Y006773D01*
X013194Y006801D01*
X013214Y006835D01*
X013224Y006874D01*
X013224Y007007D01*
X012655Y007007D01*
X012655Y006743D01*
X012627Y006743D02*
X012627Y007007D01*
X012058Y007007D01*
X012058Y006874D01*
X012068Y006835D01*
X012088Y006801D01*
X012116Y006773D01*
X012150Y006754D01*
X012189Y006743D01*
X012627Y006743D01*
X012627Y006836D02*
X012655Y006836D01*
X012655Y006934D02*
X012627Y006934D01*
X012627Y007007D02*
X012655Y007007D01*
X012655Y007035D01*
X012627Y007035D01*
X012627Y007007D01*
X012627Y007033D02*
X010769Y007033D01*
X010670Y007131D02*
X012058Y007131D01*
X012058Y007169D02*
X012058Y007035D01*
X012627Y007035D01*
X012627Y007299D01*
X012189Y007299D01*
X012150Y007289D01*
X012116Y007269D01*
X012088Y007241D01*
X012068Y007207D01*
X012058Y007169D01*
X012081Y007230D02*
X010572Y007230D01*
X010473Y007328D02*
X013565Y007328D01*
X013590Y007230D02*
X013201Y007230D01*
X013194Y007241D02*
X013167Y007269D01*
X013132Y007289D01*
X013094Y007299D01*
X012655Y007299D01*
X012655Y007035D01*
X013224Y007035D01*
X013224Y007169D01*
X013214Y007207D01*
X013194Y007241D01*
X013224Y007131D02*
X013555Y007131D01*
X013555Y007033D02*
X012655Y007033D01*
X012655Y007131D02*
X012627Y007131D01*
X012627Y007230D02*
X012655Y007230D01*
X013224Y006934D02*
X013555Y006934D01*
X013567Y006836D02*
X013214Y006836D01*
X013467Y007427D02*
X010375Y007427D01*
X010276Y007525D02*
X013368Y007525D01*
X013270Y007624D02*
X010178Y007624D01*
X010079Y007722D02*
X013171Y007722D01*
X013073Y007821D02*
X008701Y007821D01*
X008664Y007919D02*
X012974Y007919D01*
X012876Y008018D02*
X005650Y008018D01*
X005650Y008116D02*
X012777Y008116D01*
X012725Y008215D02*
X007291Y008215D01*
X007443Y008313D02*
X012725Y008313D01*
X012725Y008412D02*
X012240Y008412D01*
X012232Y008397D02*
X012252Y008431D01*
X012262Y008469D01*
X012262Y008696D01*
X011983Y008696D01*
X011983Y008339D01*
X012132Y008339D01*
X012170Y008349D01*
X012204Y008369D01*
X012232Y008397D01*
X012262Y008510D02*
X012725Y008510D01*
X012725Y008609D02*
X012262Y008609D01*
X012262Y008754D02*
X012262Y008981D01*
X012252Y009019D01*
X012239Y009041D01*
X012273Y009050D01*
X012307Y009070D01*
X012335Y009098D01*
X012355Y009132D01*
X012365Y009170D01*
X012365Y009580D01*
X012025Y009580D01*
X012025Y009111D01*
X011983Y009111D01*
X011983Y008754D01*
X011926Y008754D01*
X011926Y008696D01*
X011983Y008696D01*
X011983Y008754D01*
X012262Y008754D01*
X012262Y008806D02*
X012725Y008806D01*
X012725Y008904D02*
X012262Y008904D01*
X012256Y009003D02*
X012725Y009003D01*
X012578Y009101D02*
X012337Y009101D01*
X012365Y009200D02*
X012535Y009200D01*
X012535Y009298D02*
X012365Y009298D01*
X012365Y009397D02*
X012535Y009397D01*
X012535Y009495D02*
X012365Y009495D01*
X012535Y009594D02*
X012025Y009594D01*
X012025Y009495D02*
X011925Y009495D01*
X011925Y009397D02*
X012025Y009397D01*
X012025Y009298D02*
X011925Y009298D01*
X011925Y009200D02*
X012025Y009200D01*
X011983Y009101D02*
X011926Y009101D01*
X011926Y009003D02*
X011983Y009003D01*
X011983Y008904D02*
X011926Y008904D01*
X011926Y008806D02*
X011983Y008806D01*
X011983Y008707D02*
X012725Y008707D01*
X012885Y008234D02*
X014098Y007021D01*
X014531Y007454D01*
X015100Y007454D01*
X015100Y008058D01*
X015446Y007624D02*
X015521Y007624D01*
X015446Y007525D02*
X015815Y007525D01*
X015815Y007427D02*
X015446Y007427D01*
X015446Y007328D02*
X015815Y007328D01*
X015869Y007230D02*
X015424Y007230D01*
X015412Y007033D02*
X016066Y007033D01*
X015968Y007131D02*
X014641Y007131D01*
X014641Y007033D02*
X014788Y007033D01*
X014772Y007023D02*
X014744Y006995D01*
X014724Y006961D01*
X014714Y006923D01*
X014714Y006774D01*
X015071Y006774D01*
X015071Y007053D01*
X014844Y007053D01*
X014806Y007043D01*
X014772Y007023D01*
X014717Y006934D02*
X014641Y006934D01*
X014629Y006836D02*
X014714Y006836D01*
X014714Y006639D02*
X011163Y006639D01*
X011064Y006737D02*
X015071Y006737D01*
X015100Y006746D02*
X015058Y006788D01*
X015071Y006836D02*
X015129Y006836D01*
X015129Y006934D02*
X015071Y006934D01*
X015071Y007033D02*
X015129Y007033D01*
X015129Y006737D02*
X016362Y006737D01*
X016460Y006639D02*
X015486Y006639D01*
X015479Y006540D02*
X015495Y006540D01*
X015495Y006442D02*
X015412Y006442D01*
X015591Y006204D02*
X015100Y006204D01*
X014996Y006100D01*
X011475Y006100D01*
X009975Y007600D01*
X008434Y007600D01*
X008701Y007427D02*
X009922Y007427D01*
X010021Y007328D02*
X008701Y007328D01*
X008166Y007328D02*
X007992Y007328D01*
X007992Y007318D02*
X007992Y007882D01*
X007928Y007946D01*
X007522Y007946D01*
X007458Y007882D01*
X007458Y007872D01*
X007382Y007948D01*
X007232Y008010D01*
X006468Y008010D01*
X006318Y007948D01*
X006202Y007832D01*
X006140Y007682D01*
X006140Y007518D01*
X006202Y007368D01*
X006318Y007252D01*
X006468Y007190D01*
X007232Y007190D01*
X007382Y007252D01*
X007458Y007328D01*
X007458Y007318D01*
X007522Y007254D01*
X007928Y007254D01*
X007992Y007318D01*
X007992Y007427D02*
X008166Y007427D01*
X008166Y007525D02*
X007992Y007525D01*
X007992Y007624D02*
X008166Y007624D01*
X008166Y007722D02*
X007992Y007722D01*
X007992Y007821D02*
X008166Y007821D01*
X008203Y007919D02*
X007955Y007919D01*
X007725Y007600D02*
X006850Y007600D01*
X007327Y007230D02*
X010119Y007230D01*
X010218Y007131D02*
X005650Y007131D01*
X005650Y007033D02*
X010316Y007033D01*
X010415Y006934D02*
X005650Y006934D01*
X005650Y006836D02*
X010513Y006836D01*
X010612Y006737D02*
X005650Y006737D01*
X005650Y006639D02*
X010710Y006639D01*
X010809Y006540D02*
X005650Y006540D01*
X005650Y006442D02*
X010907Y006442D01*
X011006Y006343D02*
X005650Y006343D01*
X005650Y006245D02*
X011104Y006245D01*
X011203Y006146D02*
X005650Y006146D01*
X005650Y006048D02*
X011301Y006048D01*
X011400Y005949D02*
X005650Y005949D01*
X005650Y005851D02*
X015495Y005851D01*
X015495Y005949D02*
X015394Y005949D01*
X015393Y005752D02*
X015495Y005752D01*
X015725Y006070D02*
X015591Y006204D01*
X015955Y006245D02*
X015995Y006245D01*
X015995Y006343D02*
X015955Y006343D01*
X015955Y006442D02*
X015995Y006442D01*
X015995Y006540D02*
X015955Y006540D01*
X016263Y006836D02*
X015486Y006836D01*
X015483Y006934D02*
X016165Y006934D01*
X016420Y007131D02*
X017403Y007131D01*
X017403Y007033D02*
X016519Y007033D01*
X016617Y006934D02*
X017403Y006934D01*
X017403Y006836D02*
X016716Y006836D01*
X016791Y006760D02*
X016135Y007416D01*
X016135Y007585D01*
X016391Y007585D01*
X016455Y007649D01*
X016455Y008611D01*
X016414Y008651D01*
X016523Y008760D01*
X016787Y008760D01*
X016702Y008675D01*
X016559Y008675D01*
X016495Y008611D01*
X016495Y007649D01*
X016559Y007585D01*
X016891Y007585D01*
X016955Y007649D01*
X016955Y008532D01*
X016995Y008572D01*
X016995Y007649D01*
X017059Y007585D01*
X017391Y007585D01*
X017455Y007649D01*
X017455Y007674D01*
X017511Y007618D01*
X017511Y007454D01*
X017468Y007454D01*
X017403Y007389D01*
X017403Y006826D01*
X017468Y006761D01*
X017505Y006761D01*
X017505Y005726D01*
X017495Y005716D01*
X017495Y006060D01*
X017235Y006060D01*
X017235Y006080D01*
X017215Y006080D01*
X017215Y006655D01*
X017085Y006655D01*
X017047Y006645D01*
X017013Y006625D01*
X016985Y006597D01*
X016965Y006563D01*
X016955Y006525D01*
X016955Y006080D01*
X017215Y006080D01*
X017215Y006060D01*
X016955Y006060D01*
X016955Y005656D01*
X016955Y006551D01*
X016891Y006615D01*
X016885Y006615D01*
X016885Y006666D01*
X016791Y006760D01*
X016814Y006737D02*
X017505Y006737D01*
X017505Y006639D02*
X017414Y006639D01*
X017403Y006645D02*
X017365Y006655D01*
X017235Y006655D01*
X017235Y006080D01*
X017495Y006080D01*
X017495Y006525D01*
X017485Y006563D01*
X017465Y006597D01*
X017437Y006625D01*
X017403Y006645D01*
X017491Y006540D02*
X017505Y006540D01*
X017495Y006442D02*
X017505Y006442D01*
X017495Y006343D02*
X017505Y006343D01*
X017495Y006245D02*
X017505Y006245D01*
X017495Y006146D02*
X017505Y006146D01*
X017495Y006048D02*
X017505Y006048D01*
X017495Y005949D02*
X017505Y005949D01*
X017495Y005851D02*
X017505Y005851D01*
X017495Y005752D02*
X017505Y005752D01*
X017665Y005660D02*
X017665Y007102D01*
X017671Y007108D01*
X017671Y007684D01*
X017225Y008130D01*
X016995Y008116D02*
X016955Y008116D01*
X016955Y008018D02*
X016995Y008018D01*
X016995Y007919D02*
X016955Y007919D01*
X016955Y007821D02*
X016995Y007821D01*
X016995Y007722D02*
X016955Y007722D01*
X016929Y007624D02*
X017021Y007624D01*
X017429Y007624D02*
X017505Y007624D01*
X017511Y007525D02*
X016135Y007525D01*
X016135Y007427D02*
X017440Y007427D01*
X017403Y007328D02*
X016223Y007328D01*
X016322Y007230D02*
X017403Y007230D01*
X018225Y006737D02*
X023205Y006737D01*
X023205Y006639D02*
X018225Y006639D01*
X018225Y006540D02*
X023205Y006540D01*
X023205Y006442D02*
X018225Y006442D01*
X018225Y006343D02*
X023205Y006343D01*
X023205Y006245D02*
X018225Y006245D01*
X018225Y006146D02*
X023205Y006146D01*
X023205Y006048D02*
X022233Y006048D01*
X022181Y006060D02*
X022044Y006075D01*
X022025Y006075D01*
X022025Y004900D01*
X023200Y004900D01*
X023200Y004919D01*
X023185Y005056D01*
X023154Y005190D01*
X023109Y005320D01*
X023049Y005443D01*
X022976Y005560D01*
X022890Y005668D01*
X022793Y005765D01*
X022685Y005851D01*
X022568Y005924D01*
X022445Y005984D01*
X022315Y006029D01*
X022181Y006060D01*
X022025Y006048D02*
X021925Y006048D01*
X021925Y006075D02*
X021906Y006075D01*
X021769Y006060D01*
X021635Y006029D01*
X021505Y005984D01*
X021382Y005924D01*
X021265Y005851D01*
X021157Y005765D01*
X021060Y005668D01*
X020974Y005560D01*
X020901Y005443D01*
X020841Y005320D01*
X020796Y005190D01*
X020765Y005056D01*
X020750Y004919D01*
X020750Y004900D01*
X021925Y004900D01*
X021925Y006075D01*
X021925Y005949D02*
X022025Y005949D01*
X022025Y005851D02*
X021925Y005851D01*
X021925Y005752D02*
X022025Y005752D01*
X022025Y005654D02*
X021925Y005654D01*
X021925Y005555D02*
X022025Y005555D01*
X022025Y005457D02*
X021925Y005457D01*
X021925Y005358D02*
X022025Y005358D01*
X022025Y005260D02*
X021925Y005260D01*
X021925Y005161D02*
X022025Y005161D01*
X022025Y005063D02*
X021925Y005063D01*
X021925Y004964D02*
X022025Y004964D01*
X022025Y004900D02*
X021925Y004900D01*
X021925Y004800D01*
X022025Y004800D01*
X022025Y004900D01*
X022025Y004866D02*
X023205Y004866D01*
X023200Y004800D02*
X022025Y004800D01*
X022025Y003625D01*
X022044Y003625D01*
X022181Y003640D01*
X022315Y003671D01*
X022445Y003716D01*
X022568Y003776D01*
X022685Y003849D01*
X022793Y003935D01*
X022890Y004032D01*
X022976Y004140D01*
X023049Y004257D01*
X023109Y004380D01*
X023154Y004510D01*
X023185Y004644D01*
X023200Y004781D01*
X023200Y004800D01*
X023198Y004767D02*
X023205Y004767D01*
X023205Y004669D02*
X023187Y004669D01*
X023168Y004570D02*
X023205Y004570D01*
X023205Y004472D02*
X023140Y004472D01*
X023105Y004373D02*
X023205Y004373D01*
X023205Y004275D02*
X023058Y004275D01*
X022998Y004176D02*
X023205Y004176D01*
X023205Y004078D02*
X022926Y004078D01*
X022836Y003979D02*
X023205Y003979D01*
X023205Y003881D02*
X022724Y003881D01*
X022578Y003782D02*
X023181Y003782D01*
X023082Y003684D02*
X022350Y003684D01*
X022025Y003684D02*
X021925Y003684D01*
X021925Y003625D02*
X021925Y004800D01*
X020750Y004800D01*
X020750Y004781D01*
X020765Y004644D01*
X020796Y004510D01*
X020841Y004380D01*
X020901Y004257D01*
X020974Y004140D01*
X021060Y004032D01*
X021157Y003935D01*
X021265Y003849D01*
X021382Y003776D01*
X021505Y003716D01*
X021635Y003671D01*
X021769Y003640D01*
X021906Y003625D01*
X021925Y003625D01*
X021925Y003782D02*
X022025Y003782D01*
X022025Y003881D02*
X021925Y003881D01*
X021925Y003979D02*
X022025Y003979D01*
X022025Y004078D02*
X021925Y004078D01*
X021925Y004176D02*
X022025Y004176D01*
X022025Y004275D02*
X021925Y004275D01*
X021925Y004373D02*
X022025Y004373D01*
X022025Y004472D02*
X021925Y004472D01*
X021925Y004570D02*
X022025Y004570D01*
X022025Y004669D02*
X021925Y004669D01*
X021925Y004767D02*
X022025Y004767D01*
X021925Y004866D02*
X018225Y004866D01*
X018225Y004964D02*
X020755Y004964D01*
X020767Y005063D02*
X018225Y005063D01*
X018225Y005161D02*
X020789Y005161D01*
X020820Y005260D02*
X018225Y005260D01*
X018225Y005358D02*
X020860Y005358D01*
X020909Y005457D02*
X018225Y005457D01*
X018225Y005555D02*
X020971Y005555D01*
X021049Y005654D02*
X018225Y005654D01*
X018225Y005752D02*
X021145Y005752D01*
X021265Y005851D02*
X018225Y005851D01*
X018225Y005949D02*
X021434Y005949D01*
X021717Y006048D02*
X018225Y006048D01*
X017665Y005660D02*
X017501Y005496D01*
X016225Y005496D01*
X016225Y006070D01*
X016455Y006048D02*
X016495Y006048D01*
X016495Y006146D02*
X016455Y006146D01*
X016455Y006245D02*
X016495Y006245D01*
X016495Y006343D02*
X016455Y006343D01*
X016455Y006442D02*
X016495Y006442D01*
X016495Y006540D02*
X016455Y006540D01*
X016725Y006600D02*
X016725Y006070D01*
X016955Y006048D02*
X016955Y006048D01*
X016955Y006146D02*
X016955Y006146D01*
X016955Y006245D02*
X016955Y006245D01*
X016955Y006343D02*
X016955Y006343D01*
X016955Y006442D02*
X016955Y006442D01*
X016955Y006540D02*
X016959Y006540D01*
X017038Y006600D02*
X017225Y006413D01*
X017225Y006070D01*
X017215Y006146D02*
X017235Y006146D01*
X017235Y006245D02*
X017215Y006245D01*
X017215Y006343D02*
X017235Y006343D01*
X017235Y006442D02*
X017215Y006442D01*
X017215Y006540D02*
X017235Y006540D01*
X017235Y006639D02*
X017215Y006639D01*
X017036Y006639D02*
X016885Y006639D01*
X016725Y006600D02*
X015975Y007350D01*
X015975Y009100D01*
X016225Y009350D01*
X016225Y009469D01*
X016913Y009975D02*
X014725Y009975D01*
X014725Y008913D01*
X014850Y008788D01*
X015079Y008788D01*
X015100Y008767D01*
X015725Y008130D02*
X015100Y007505D01*
X015100Y007454D01*
X014776Y007230D02*
X014606Y007230D01*
X014721Y006540D02*
X011261Y006540D01*
X011360Y006442D02*
X014788Y006442D01*
X014754Y006343D02*
X011458Y006343D01*
X010966Y006836D02*
X012068Y006836D01*
X012058Y006934D02*
X010867Y006934D01*
X011010Y008412D02*
X007516Y008412D01*
X007557Y008510D02*
X010978Y008510D01*
X011481Y008412D02*
X011668Y008412D01*
X011677Y008397D02*
X011705Y008369D01*
X011739Y008349D01*
X011777Y008339D01*
X011926Y008339D01*
X011926Y008696D01*
X011647Y008696D01*
X011647Y008469D01*
X011657Y008431D01*
X011677Y008397D01*
X011647Y008510D02*
X011513Y008510D01*
X011513Y008609D02*
X011647Y008609D01*
X011513Y008707D02*
X011926Y008707D01*
X011926Y008609D02*
X011983Y008609D01*
X011983Y008510D02*
X011926Y008510D01*
X011926Y008412D02*
X011983Y008412D01*
X011647Y008806D02*
X011513Y008806D01*
X011513Y008904D02*
X011647Y008904D01*
X011653Y009003D02*
X011513Y009003D01*
X011613Y009101D02*
X011372Y009101D01*
X011415Y009200D02*
X011585Y009200D01*
X011585Y009298D02*
X011415Y009298D01*
X011415Y009397D02*
X011585Y009397D01*
X011585Y009495D02*
X011415Y009495D01*
X011415Y009988D02*
X011585Y009988D01*
X011585Y010086D02*
X011415Y010086D01*
X012365Y010086D02*
X012535Y010086D01*
X012535Y009988D02*
X012365Y009988D01*
X012365Y009889D02*
X012535Y009889D01*
X012535Y009791D02*
X012365Y009791D01*
X012365Y009692D02*
X012535Y009692D01*
X012885Y009630D02*
X012885Y008234D01*
X015955Y006146D02*
X015995Y006146D01*
X015995Y006048D02*
X015955Y006048D01*
X015955Y005949D02*
X015995Y005949D01*
X015995Y005851D02*
X015955Y005851D01*
X015955Y005752D02*
X015995Y005752D01*
X016225Y005496D02*
X015100Y005496D01*
X014754Y005457D02*
X005650Y005457D01*
X005650Y005555D02*
X014754Y005555D01*
X014754Y005654D02*
X005650Y005654D01*
X005650Y005752D02*
X014807Y005752D01*
X014754Y005358D02*
X010400Y005358D01*
X010400Y005260D02*
X014787Y005260D01*
X015413Y005260D02*
X017437Y005260D01*
X017338Y005161D02*
X010400Y005161D01*
X010400Y005063D02*
X017240Y005063D01*
X017141Y004964D02*
X010400Y004964D01*
X010400Y004866D02*
X017043Y004866D01*
X016944Y004767D02*
X010400Y004767D01*
X010400Y004669D02*
X012900Y004669D01*
X012906Y004678D02*
X012886Y004644D01*
X012876Y004606D01*
X012876Y004379D01*
X013154Y004379D01*
X013154Y004321D01*
X012876Y004321D01*
X012876Y004094D01*
X012886Y004056D01*
X012906Y004022D01*
X012934Y003994D01*
X012968Y003974D01*
X013006Y003964D01*
X013154Y003964D01*
X013154Y004321D01*
X013212Y004321D01*
X013212Y003964D01*
X013360Y003964D01*
X013399Y003974D01*
X013433Y003994D01*
X013461Y004022D01*
X013480Y004056D01*
X013491Y004094D01*
X013491Y004321D01*
X013212Y004321D01*
X013212Y004379D01*
X013154Y004379D01*
X013154Y004736D01*
X013006Y004736D01*
X012968Y004726D01*
X012934Y004706D01*
X012906Y004678D01*
X012876Y004570D02*
X010400Y004570D01*
X010400Y004472D02*
X012876Y004472D01*
X012725Y004350D02*
X013183Y004350D01*
X013154Y004373D02*
X010400Y004373D01*
X010400Y004275D02*
X012876Y004275D01*
X012876Y004176D02*
X010400Y004176D01*
X010400Y004078D02*
X012880Y004078D01*
X012959Y003979D02*
X010400Y003979D01*
X010400Y003881D02*
X015266Y003881D01*
X015266Y003979D02*
X014692Y003979D01*
X014673Y003960D02*
X014738Y004024D01*
X014738Y004588D01*
X014673Y004652D01*
X014139Y004652D01*
X014095Y004696D01*
X013689Y004696D01*
X013624Y004632D01*
X013624Y004068D01*
X013689Y004004D01*
X014066Y004004D01*
X014110Y003960D01*
X014673Y003960D01*
X014738Y004078D02*
X015266Y004078D01*
X015266Y004176D02*
X014738Y004176D01*
X014738Y004275D02*
X015267Y004275D01*
X014738Y004373D02*
X016550Y004373D01*
X016452Y004275D02*
X016075Y004275D01*
X016076Y004176D02*
X016353Y004176D01*
X016255Y004078D02*
X016076Y004078D01*
X016076Y003684D02*
X016462Y003684D01*
X016487Y003782D02*
X016355Y003782D01*
X016453Y003881D02*
X016536Y003881D01*
X016552Y003979D02*
X016619Y003979D01*
X016650Y004078D02*
X016767Y004078D01*
X016749Y004176D02*
X017945Y004176D01*
X017945Y004275D02*
X016847Y004275D01*
X016946Y004373D02*
X017945Y004373D01*
X017945Y004472D02*
X017044Y004472D01*
X017143Y004570D02*
X017945Y004570D01*
X017945Y004669D02*
X017241Y004669D01*
X017340Y004767D02*
X017945Y004767D01*
X017945Y004866D02*
X017438Y004866D01*
X017537Y004964D02*
X017945Y004964D01*
X017945Y005063D02*
X017635Y005063D01*
X017734Y005161D02*
X017945Y005161D01*
X017945Y005260D02*
X017832Y005260D01*
X017931Y005358D02*
X017945Y005358D01*
X018225Y004767D02*
X020752Y004767D01*
X020763Y004669D02*
X018225Y004669D01*
X018225Y004570D02*
X020782Y004570D01*
X020810Y004472D02*
X018225Y004472D01*
X018225Y004373D02*
X020845Y004373D01*
X020892Y004275D02*
X018225Y004275D01*
X018225Y004176D02*
X020952Y004176D01*
X021024Y004078D02*
X019077Y004078D01*
X018873Y004078D02*
X018225Y004078D01*
X018275Y003979D02*
X018675Y003979D01*
X018577Y003881D02*
X018373Y003881D01*
X018419Y003782D02*
X018531Y003782D01*
X018495Y003684D02*
X018455Y003684D01*
X018455Y003585D02*
X018495Y003585D01*
X018502Y003487D02*
X018448Y003487D01*
X018407Y003388D02*
X018543Y003388D01*
X018607Y003290D02*
X018343Y003290D01*
X018242Y003191D02*
X018708Y003191D01*
X017975Y003600D02*
X017475Y003100D01*
X016975Y003100D01*
X013558Y003100D01*
X013183Y003475D01*
X012916Y003487D02*
X010400Y003487D01*
X010400Y003585D02*
X012916Y003585D01*
X012916Y003684D02*
X010400Y003684D01*
X010400Y003782D02*
X012941Y003782D01*
X013154Y003979D02*
X013212Y003979D01*
X013212Y004078D02*
X013154Y004078D01*
X013154Y004176D02*
X013212Y004176D01*
X013212Y004275D02*
X013154Y004275D01*
X013212Y004373D02*
X013624Y004373D01*
X013624Y004275D02*
X013491Y004275D01*
X013491Y004176D02*
X013624Y004176D01*
X013624Y004078D02*
X013486Y004078D01*
X013407Y003979D02*
X014091Y003979D01*
X013936Y004306D02*
X013892Y004350D01*
X013936Y004306D02*
X014391Y004306D01*
X014738Y004472D02*
X016649Y004472D01*
X016747Y004570D02*
X014738Y004570D01*
X014123Y004669D02*
X016846Y004669D01*
X017025Y004119D02*
X017025Y003650D01*
X017494Y003650D01*
X017482Y003722D01*
X017457Y003800D01*
X017420Y003873D01*
X017372Y003939D01*
X017314Y003997D01*
X017248Y004045D01*
X017175Y004082D01*
X017097Y004107D01*
X017025Y004119D01*
X017025Y004078D02*
X016925Y004078D01*
X016925Y003979D02*
X017025Y003979D01*
X017025Y003881D02*
X016925Y003881D01*
X016925Y003782D02*
X017025Y003782D01*
X017025Y003684D02*
X016925Y003684D01*
X016925Y003585D02*
X016076Y003585D01*
X016466Y003487D02*
X014738Y003487D01*
X014738Y003585D02*
X015266Y003585D01*
X015266Y003684D02*
X014738Y003684D01*
X014738Y003782D02*
X015266Y003782D01*
X014738Y003388D02*
X016499Y003388D01*
X016558Y003290D02*
X014738Y003290D01*
X014391Y003519D02*
X013936Y003519D01*
X013892Y003475D01*
X013624Y003487D02*
X013451Y003487D01*
X013451Y003585D02*
X013624Y003585D01*
X013624Y003684D02*
X013451Y003684D01*
X013425Y003782D02*
X013650Y003782D01*
X013624Y003388D02*
X013496Y003388D01*
X013595Y003290D02*
X013624Y003290D01*
X013339Y003093D02*
X010400Y003093D01*
X010400Y003191D02*
X012918Y003191D01*
X012916Y003290D02*
X010400Y003290D01*
X010400Y003388D02*
X012916Y003388D01*
X013438Y002994D02*
X010400Y002994D01*
X010400Y002896D02*
X023734Y002896D01*
X023658Y002797D02*
X010400Y002797D01*
X013154Y004472D02*
X013212Y004472D01*
X013212Y004379D02*
X013212Y004736D01*
X013360Y004736D01*
X013399Y004726D01*
X013433Y004706D01*
X013461Y004678D01*
X013480Y004644D01*
X013491Y004606D01*
X013491Y004379D01*
X013212Y004379D01*
X013212Y004570D02*
X013154Y004570D01*
X013154Y004669D02*
X013212Y004669D01*
X013466Y004669D02*
X013661Y004669D01*
X013624Y004570D02*
X013491Y004570D01*
X013491Y004472D02*
X013624Y004472D01*
X013394Y002699D02*
X014741Y002699D01*
X014705Y002600D02*
X013430Y002600D01*
X017025Y003585D02*
X017495Y003585D01*
X017488Y003684D02*
X017495Y003684D01*
X017463Y003782D02*
X017531Y003782D01*
X017577Y003881D02*
X017414Y003881D01*
X017331Y003979D02*
X017675Y003979D01*
X017873Y004078D02*
X017183Y004078D01*
X017484Y003487D02*
X017502Y003487D01*
X017537Y003388D02*
X017451Y003388D01*
X017438Y003290D02*
X017392Y003290D01*
X019275Y003979D02*
X021114Y003979D01*
X021226Y003881D02*
X019373Y003881D01*
X019419Y003782D02*
X021372Y003782D01*
X021600Y003684D02*
X019455Y003684D01*
X020225Y004850D02*
X019345Y005730D01*
X019345Y005980D01*
X018647Y006836D02*
X023205Y006836D01*
X023205Y006934D02*
X018647Y006934D01*
X018379Y007108D02*
X018379Y008737D01*
X019345Y009702D01*
X020095Y009692D02*
X023205Y009692D01*
X023205Y009594D02*
X020095Y009594D01*
X020085Y009495D02*
X023205Y009495D01*
X023205Y009397D02*
X020085Y009397D01*
X020080Y009298D02*
X023205Y009298D01*
X023205Y009200D02*
X019903Y009200D01*
X019804Y009101D02*
X023205Y009101D01*
X023205Y009003D02*
X019615Y009003D01*
X019075Y009003D02*
X018871Y009003D01*
X018773Y008904D02*
X023205Y008904D01*
X023205Y008806D02*
X018674Y008806D01*
X018576Y008707D02*
X023205Y008707D01*
X023205Y008609D02*
X018539Y008609D01*
X018539Y008510D02*
X023205Y008510D01*
X023205Y008412D02*
X018539Y008412D01*
X018539Y008313D02*
X023205Y008313D01*
X023205Y008215D02*
X018539Y008215D01*
X018539Y008116D02*
X023205Y008116D01*
X023205Y008018D02*
X018539Y008018D01*
X018595Y007944D02*
X018575Y007910D01*
X018565Y007872D01*
X018565Y007548D01*
X019295Y007548D01*
X019295Y008002D01*
X018695Y008002D01*
X018657Y007992D01*
X018623Y007972D01*
X018595Y007944D01*
X018581Y007919D02*
X018539Y007919D01*
X018539Y007821D02*
X018565Y007821D01*
X018565Y007722D02*
X018539Y007722D01*
X018539Y007624D02*
X018565Y007624D01*
X018539Y007525D02*
X019295Y007525D01*
X019295Y007548D02*
X019295Y007448D01*
X019395Y007448D01*
X019395Y007548D01*
X019295Y007548D01*
X019295Y007624D02*
X019395Y007624D01*
X019395Y007548D02*
X019395Y008002D01*
X019995Y008002D01*
X020033Y007992D01*
X020067Y007972D01*
X020095Y007944D01*
X020115Y007910D01*
X020125Y007872D01*
X020125Y007548D01*
X019395Y007548D01*
X019395Y007525D02*
X023205Y007525D01*
X023205Y007427D02*
X020125Y007427D01*
X020125Y007448D02*
X019395Y007448D01*
X019395Y006993D01*
X019995Y006993D01*
X020033Y007004D01*
X020067Y007023D01*
X020095Y007051D01*
X020115Y007085D01*
X020125Y007124D01*
X020125Y007448D01*
X020125Y007328D02*
X023205Y007328D01*
X023205Y007230D02*
X020125Y007230D01*
X020125Y007131D02*
X023205Y007131D01*
X023205Y007033D02*
X020076Y007033D01*
X019395Y007033D02*
X019295Y007033D01*
X019295Y007131D02*
X019395Y007131D01*
X019395Y007230D02*
X019295Y007230D01*
X019295Y007328D02*
X019395Y007328D01*
X019395Y007427D02*
X019295Y007427D01*
X019295Y007722D02*
X019395Y007722D01*
X019395Y007821D02*
X019295Y007821D01*
X019295Y007919D02*
X019395Y007919D01*
X020109Y007919D02*
X023205Y007919D01*
X023205Y007821D02*
X020125Y007821D01*
X020125Y007722D02*
X023205Y007722D01*
X023205Y007624D02*
X020125Y007624D01*
X022516Y005949D02*
X023205Y005949D01*
X023205Y005851D02*
X022685Y005851D01*
X022805Y005752D02*
X023205Y005752D01*
X023205Y005654D02*
X022901Y005654D01*
X022979Y005555D02*
X023205Y005555D01*
X023205Y005457D02*
X023041Y005457D01*
X023090Y005358D02*
X023205Y005358D01*
X023205Y005260D02*
X023130Y005260D01*
X023161Y005161D02*
X023205Y005161D01*
X023205Y005063D02*
X023183Y005063D01*
X023195Y004964D02*
X023205Y004964D01*
X016955Y005656D02*
X016955Y005656D01*
X016955Y005752D02*
X016955Y005752D01*
X016955Y005851D02*
X016955Y005851D01*
X016955Y005949D02*
X016955Y005949D01*
X016495Y005949D02*
X016455Y005949D01*
X016455Y005851D02*
X016495Y005851D01*
X016495Y005752D02*
X016455Y005752D01*
X016429Y007624D02*
X016521Y007624D01*
X016495Y007722D02*
X016455Y007722D01*
X016455Y007821D02*
X016495Y007821D01*
X016495Y007919D02*
X016455Y007919D01*
X016455Y008018D02*
X016495Y008018D01*
X016495Y008116D02*
X016455Y008116D01*
X016455Y008215D02*
X016495Y008215D01*
X016495Y008313D02*
X016455Y008313D01*
X016455Y008412D02*
X016495Y008412D01*
X016495Y008510D02*
X016455Y008510D01*
X016455Y008609D02*
X016495Y008609D01*
X016470Y008707D02*
X016734Y008707D01*
X016955Y008510D02*
X016995Y008510D01*
X016995Y008412D02*
X016955Y008412D01*
X016955Y008313D02*
X016995Y008313D01*
X016995Y008215D02*
X016955Y008215D01*
X017209Y009469D02*
X017209Y009678D01*
X016913Y009975D01*
X019037Y011071D02*
X023028Y011071D01*
X023126Y010973D02*
X019135Y010973D01*
X019234Y010874D02*
X023205Y010874D01*
X023205Y010776D02*
X019333Y010776D01*
X019431Y010677D02*
X023205Y010677D01*
X023205Y010579D02*
X019530Y010579D01*
X019628Y010480D02*
X023205Y010480D01*
X023205Y010382D02*
X019727Y010382D01*
X019825Y010283D02*
X023205Y010283D01*
X023205Y010185D02*
X019924Y010185D01*
X020085Y010086D02*
X023205Y010086D01*
X023205Y009988D02*
X020085Y009988D01*
X020085Y009889D02*
X023205Y009889D01*
X023205Y009791D02*
X020095Y009791D01*
X017530Y011662D02*
X014920Y011662D01*
X015019Y011761D02*
X017431Y011761D01*
X017333Y011859D02*
X015117Y011859D01*
X015193Y011958D02*
X017257Y011958D01*
X017257Y012056D02*
X015193Y012056D01*
X015193Y012155D02*
X017257Y012155D01*
X017257Y012253D02*
X015193Y012253D01*
X015193Y012352D02*
X017257Y012352D01*
X017257Y012450D02*
X015193Y012450D01*
X015160Y012549D02*
X017290Y012549D01*
X017389Y012647D02*
X015061Y012647D01*
X014963Y012746D02*
X017487Y012746D01*
X017586Y012844D02*
X014864Y012844D01*
X014121Y012844D02*
X010400Y012844D01*
X010400Y012746D02*
X014023Y012746D01*
X013924Y012647D02*
X010400Y012647D01*
X010400Y012549D02*
X011156Y012549D01*
X011156Y012450D02*
X010400Y012450D01*
X010400Y012352D02*
X011156Y012352D01*
X011156Y012253D02*
X010400Y012253D01*
X010400Y012155D02*
X011156Y012155D01*
X011156Y012056D02*
X010400Y012056D01*
X010400Y011958D02*
X011156Y011958D01*
X011156Y011859D02*
X010400Y011859D01*
X012794Y011859D02*
X013868Y011859D01*
X013792Y011958D02*
X012794Y011958D01*
X012794Y012056D02*
X013792Y012056D01*
X013792Y012155D02*
X012794Y012155D01*
X012794Y012253D02*
X013792Y012253D01*
X013792Y012352D02*
X012794Y012352D01*
X012794Y012450D02*
X013792Y012450D01*
X013826Y012549D02*
X012794Y012549D01*
X012794Y011761D02*
X013966Y011761D01*
X014065Y011662D02*
X012794Y011662D01*
X013561Y014519D02*
X010400Y014519D01*
X010400Y014617D02*
X013427Y014617D01*
X013786Y014519D02*
X013955Y014519D01*
X014180Y014519D02*
X014349Y014519D01*
X006274Y008904D02*
X005650Y008904D01*
X005650Y008806D02*
X006191Y008806D01*
X006151Y008707D02*
X005650Y008707D01*
X005650Y008609D02*
X006140Y008609D01*
X006143Y008510D02*
X005650Y008510D01*
X005650Y008412D02*
X006184Y008412D01*
X006257Y008313D02*
X005650Y008313D01*
X005650Y008215D02*
X006409Y008215D01*
X006289Y007919D02*
X005650Y007919D01*
X005650Y007821D02*
X006198Y007821D01*
X006157Y007722D02*
X005650Y007722D01*
X005650Y007624D02*
X006140Y007624D01*
X006140Y007525D02*
X005650Y007525D01*
X005650Y007427D02*
X006178Y007427D01*
X006242Y007328D02*
X005650Y007328D01*
X005650Y007230D02*
X006373Y007230D01*
X007411Y007919D02*
X007495Y007919D01*
D28*
X007975Y009600D02*
X008975Y009600D01*
X010225Y010850D01*
X018197Y010850D01*
X019345Y009702D01*
X019345Y007498D02*
X019345Y005980D01*
X020475Y004850D01*
X021975Y004850D01*
D29*
X018085Y003710D02*
X017975Y003600D01*
X018085Y003710D02*
X018085Y008660D01*
X017845Y008900D01*
X016465Y008900D01*
X016225Y008660D01*
X016225Y008130D01*
X016725Y008130D02*
X016725Y008500D01*
X016945Y008720D01*
X017845Y008720D01*
X017965Y008600D01*
X017965Y005590D01*
X016225Y003850D01*
X015733Y003850D01*
X015671Y003913D01*
D30*
X007975Y009600D02*
X006850Y009600D01*
M02*
