G75*
G70*
%OFA0B0*%
%FSLAX24Y24*%
%IPPOS*%
%LPD*%
%AMOC8*
5,1,8,0,0,1.08239X$1,22.5*
%
%ADD10C,0.0000*%
%ADD11OC8,0.0680*%
%ADD12C,0.0740*%
%ADD13C,0.0600*%
%ADD14C,0.2150*%
%ADD15R,0.0800X0.0800*%
%ADD16C,0.0800*%
%ADD17R,0.0740X0.0740*%
%ADD18OC8,0.1181*%
%ADD19C,0.0650*%
%ADD20C,0.0660*%
%ADD21R,0.0650X0.0650*%
%ADD22OC8,0.0520*%
%ADD23C,0.1750*%
%ADD24C,0.1670*%
%ADD25C,0.0160*%
D10*
X004225Y003191D02*
X004225Y014006D01*
X004227Y014052D01*
X004232Y014098D01*
X004241Y014144D01*
X004254Y014189D01*
X004270Y014232D01*
X004289Y014274D01*
X004312Y014315D01*
X004338Y014353D01*
X004367Y014390D01*
X004398Y014424D01*
X004432Y014455D01*
X004469Y014484D01*
X004507Y014510D01*
X004548Y014533D01*
X004590Y014552D01*
X004633Y014568D01*
X004678Y014581D01*
X004724Y014590D01*
X004770Y014595D01*
X004816Y014597D01*
X004816Y014596D02*
X023005Y014596D01*
X023005Y014597D02*
X023051Y014595D01*
X023097Y014590D01*
X023143Y014581D01*
X023188Y014568D01*
X023231Y014552D01*
X023273Y014533D01*
X023314Y014510D01*
X023352Y014484D01*
X023389Y014455D01*
X023423Y014424D01*
X023454Y014390D01*
X023483Y014353D01*
X023509Y014315D01*
X023532Y014274D01*
X023551Y014232D01*
X023567Y014189D01*
X023580Y014144D01*
X023589Y014098D01*
X023594Y014052D01*
X023596Y014006D01*
X023595Y014006D02*
X023595Y003191D01*
X023596Y003191D02*
X023594Y003145D01*
X023589Y003099D01*
X023580Y003053D01*
X023567Y003008D01*
X023551Y002965D01*
X023532Y002923D01*
X023509Y002882D01*
X023483Y002844D01*
X023454Y002807D01*
X023423Y002773D01*
X023389Y002742D01*
X023352Y002713D01*
X023314Y002687D01*
X023273Y002664D01*
X023231Y002645D01*
X023188Y002629D01*
X023143Y002616D01*
X023097Y002607D01*
X023051Y002602D01*
X023005Y002600D01*
X004816Y002600D01*
X004770Y002602D01*
X004724Y002607D01*
X004678Y002616D01*
X004633Y002629D01*
X004590Y002645D01*
X004548Y002664D01*
X004507Y002687D01*
X004469Y002713D01*
X004432Y002742D01*
X004398Y002773D01*
X004367Y002807D01*
X004338Y002844D01*
X004312Y002882D01*
X004289Y002923D01*
X004270Y002965D01*
X004254Y003008D01*
X004241Y003053D01*
X004232Y003099D01*
X004227Y003145D01*
X004225Y003191D01*
D11*
X012975Y003975D03*
X013975Y003975D03*
X014975Y003975D03*
X015975Y003975D03*
X015975Y006975D03*
X014975Y006975D03*
X013975Y006975D03*
X012975Y006975D03*
D12*
X011975Y006975D03*
X015350Y008100D03*
X019225Y005600D03*
X014975Y003100D03*
X011975Y003100D03*
X011975Y003975D03*
X015350Y011100D03*
X019225Y011600D03*
X019225Y013975D03*
X016225Y013975D03*
D13*
X007150Y009600D02*
X006550Y009600D01*
X006550Y008600D02*
X007150Y008600D01*
X007150Y007600D02*
X006550Y007600D01*
D14*
X021975Y004100D03*
X021975Y013100D03*
D15*
X022225Y007600D03*
D16*
X022225Y009569D03*
D17*
X013584Y013356D03*
X012600Y013356D03*
X011616Y013356D03*
D18*
X010868Y010600D03*
X014332Y010600D03*
D19*
X015350Y011991D03*
X015350Y013959D03*
X016475Y009725D03*
X016850Y006975D03*
X017850Y006975D03*
D20*
X017975Y003350D03*
X019475Y003350D03*
D21*
X017475Y009725D03*
D22*
X016975Y011475D03*
X016225Y011975D03*
X016975Y012475D03*
D23*
X005200Y013600D03*
X005200Y003600D03*
D24*
X019225Y008100D02*
X019225Y009600D01*
X019225Y010350D01*
X019225Y011600D01*
X019225Y008100D02*
X019725Y007600D01*
X020225Y007600D01*
X022225Y007600D01*
X022225Y004350D01*
X021975Y004100D01*
D25*
X021225Y003350D01*
X019475Y003350D01*
X019493Y003368D02*
X019457Y003368D01*
X019457Y003332D01*
X018965Y003332D01*
X018965Y003310D01*
X018978Y003231D01*
X019002Y003154D01*
X019039Y003083D01*
X019086Y003018D01*
X019143Y002961D01*
X019208Y002914D01*
X019279Y002877D01*
X019356Y002853D01*
X019435Y002840D01*
X019457Y002840D01*
X019457Y003332D01*
X019493Y003332D01*
X019493Y003368D01*
X019493Y003860D01*
X019515Y003860D01*
X019594Y003847D01*
X019671Y003823D01*
X019742Y003786D01*
X019807Y003739D01*
X019864Y003682D01*
X019911Y003617D01*
X019948Y003546D01*
X019972Y003469D01*
X019985Y003390D01*
X019985Y003368D01*
X019493Y003368D01*
X019493Y003393D02*
X019457Y003393D01*
X019457Y003368D02*
X019457Y003860D01*
X019435Y003860D01*
X019356Y003847D01*
X019279Y003823D01*
X019208Y003786D01*
X019143Y003739D01*
X019086Y003682D01*
X019039Y003617D01*
X019002Y003546D01*
X018978Y003469D01*
X018965Y003390D01*
X018965Y003368D01*
X019457Y003368D01*
X019493Y003332D02*
X019985Y003332D01*
X019985Y003310D01*
X019972Y003231D01*
X019948Y003154D01*
X019911Y003083D01*
X019864Y003018D01*
X019807Y002961D01*
X019742Y002914D01*
X019671Y002877D01*
X019594Y002853D01*
X019515Y002840D01*
X019493Y002840D01*
X019493Y003332D01*
X019493Y003234D02*
X019457Y003234D01*
X019457Y003076D02*
X019493Y003076D01*
X019493Y002917D02*
X019457Y002917D01*
X019203Y002917D02*
X018158Y002917D01*
X018241Y002952D02*
X018068Y002880D01*
X017882Y002880D01*
X017709Y002952D01*
X017577Y003084D01*
X017505Y003257D01*
X017505Y003443D01*
X017577Y003616D01*
X017709Y003748D01*
X017882Y003820D01*
X018068Y003820D01*
X018241Y003748D01*
X018373Y003616D01*
X018445Y003443D01*
X018445Y003257D01*
X018373Y003084D01*
X018241Y002952D01*
X018365Y003076D02*
X019044Y003076D01*
X018977Y003234D02*
X018436Y003234D01*
X018445Y003393D02*
X018965Y003393D01*
X019005Y003551D02*
X018400Y003551D01*
X018280Y003710D02*
X019113Y003710D01*
X019457Y003710D02*
X019493Y003710D01*
X019493Y003551D02*
X019457Y003551D01*
X019837Y003710D02*
X020782Y003710D01*
X020792Y003677D02*
X020839Y003563D01*
X020897Y003454D01*
X020966Y003351D01*
X021044Y003256D01*
X021131Y003169D01*
X021226Y003091D01*
X021329Y003022D01*
X021438Y002964D01*
X021552Y002917D01*
X021670Y002881D01*
X021791Y002857D01*
X021895Y002847D01*
X021895Y004020D01*
X022055Y004020D01*
X022055Y004180D01*
X023228Y004180D01*
X023218Y004284D01*
X023194Y004405D01*
X023158Y004523D01*
X023111Y004637D01*
X023053Y004746D01*
X022984Y004849D01*
X022906Y004944D01*
X022819Y005031D01*
X022724Y005109D01*
X022621Y005178D01*
X022512Y005236D01*
X022398Y005283D01*
X022280Y005319D01*
X022159Y005343D01*
X022055Y005353D01*
X022055Y004180D01*
X021895Y004180D01*
X021895Y005353D01*
X021791Y005343D01*
X021670Y005319D01*
X021552Y005283D01*
X021438Y005236D01*
X021329Y005178D01*
X021226Y005109D01*
X021131Y005031D01*
X021044Y004944D01*
X020966Y004849D01*
X020897Y004746D01*
X020839Y004637D01*
X020792Y004523D01*
X020756Y004405D01*
X020732Y004284D01*
X020722Y004180D01*
X021895Y004180D01*
X021895Y004020D01*
X020722Y004020D01*
X020732Y003916D01*
X020756Y003795D01*
X020792Y003677D01*
X020845Y003551D02*
X019945Y003551D01*
X019985Y003393D02*
X020938Y003393D01*
X021066Y003234D02*
X019973Y003234D01*
X019906Y003076D02*
X021249Y003076D01*
X021552Y002917D02*
X019747Y002917D01*
X020742Y003868D02*
X016455Y003868D01*
X016455Y003776D02*
X016455Y004144D01*
X018070Y005759D01*
X018070Y006563D01*
X018113Y006581D01*
X018244Y006712D01*
X018315Y006883D01*
X018315Y007067D01*
X018244Y007238D01*
X018113Y007369D01*
X018070Y007387D01*
X018070Y009441D01*
X017940Y009571D01*
X017940Y010108D01*
X017858Y010190D01*
X017092Y010190D01*
X017010Y010108D01*
X017010Y009342D01*
X017092Y009260D01*
X017629Y009260D01*
X017630Y009259D01*
X017630Y007387D01*
X017587Y007369D01*
X017456Y007238D01*
X017385Y007067D01*
X017385Y006883D01*
X017456Y006712D01*
X017587Y006581D01*
X017630Y006563D01*
X017630Y005941D01*
X016144Y004455D01*
X015776Y004455D01*
X015495Y004174D01*
X015495Y003776D01*
X015776Y003495D01*
X016174Y003495D01*
X016455Y003776D01*
X016388Y003710D02*
X017670Y003710D01*
X017550Y003551D02*
X016230Y003551D01*
X015720Y003551D02*
X015230Y003551D01*
X015227Y003548D02*
X015455Y003776D01*
X015455Y004174D01*
X015174Y004455D01*
X014776Y004455D01*
X014495Y004174D01*
X014495Y003776D01*
X014723Y003548D01*
X014686Y003532D01*
X014543Y003389D01*
X014465Y003201D01*
X014465Y002999D01*
X014543Y002811D01*
X014574Y002780D01*
X012376Y002780D01*
X012407Y002811D01*
X012485Y002999D01*
X012485Y003201D01*
X012407Y003389D01*
X012264Y003532D01*
X012251Y003538D01*
X012264Y003543D01*
X012407Y003686D01*
X012485Y003874D01*
X012485Y004076D01*
X012407Y004264D01*
X012264Y004407D01*
X012076Y004485D01*
X011874Y004485D01*
X011686Y004407D01*
X011543Y004264D01*
X011465Y004076D01*
X011465Y003874D01*
X011543Y003686D01*
X011686Y003543D01*
X011699Y003538D01*
X011686Y003532D01*
X011543Y003389D01*
X011465Y003201D01*
X011465Y002999D01*
X011543Y002811D01*
X011574Y002780D01*
X005810Y002780D01*
X005823Y002788D01*
X006012Y002977D01*
X006146Y003208D01*
X006215Y003466D01*
X006215Y003734D01*
X006146Y003992D01*
X006012Y004223D01*
X005823Y004412D01*
X005592Y004546D01*
X005334Y004615D01*
X005066Y004615D01*
X004808Y004546D01*
X004577Y004412D01*
X004405Y004240D01*
X004405Y012960D01*
X004577Y012788D01*
X004808Y012654D01*
X005066Y012585D01*
X005334Y012585D01*
X005592Y012654D01*
X005823Y012788D01*
X006012Y012977D01*
X006146Y013208D01*
X006215Y013466D01*
X006215Y013734D01*
X006146Y013992D01*
X006012Y014223D01*
X005823Y014412D01*
X005817Y014416D01*
X015134Y014416D01*
X015085Y014391D01*
X015021Y014344D01*
X014965Y014288D01*
X014918Y014224D01*
X014882Y014153D01*
X014857Y014078D01*
X014845Y013999D01*
X014845Y013959D01*
X014845Y013920D01*
X014857Y013841D01*
X014882Y013765D01*
X014918Y013695D01*
X014094Y013695D01*
X014094Y013784D02*
X014012Y013866D01*
X013156Y013866D01*
X013092Y013802D01*
X013028Y013866D01*
X012172Y013866D01*
X012134Y013828D01*
X012130Y013836D01*
X012096Y013870D01*
X012055Y013894D01*
X012009Y013906D01*
X011634Y013906D01*
X011634Y013374D01*
X011597Y013374D01*
X011597Y013337D01*
X011634Y013337D01*
X011634Y012806D01*
X012009Y012806D01*
X012055Y012818D01*
X012096Y012842D01*
X012130Y012875D01*
X012134Y012883D01*
X012172Y012846D01*
X012380Y012846D01*
X012380Y008259D01*
X013144Y007495D01*
X012975Y007495D01*
X012975Y006975D01*
X011975Y006975D01*
X011984Y006984D02*
X011966Y006984D01*
X011966Y007525D01*
X011932Y007525D01*
X011846Y007511D01*
X011764Y007485D01*
X011687Y007445D01*
X011617Y007395D01*
X011555Y007333D01*
X011505Y007263D01*
X011465Y007186D01*
X011439Y007104D01*
X011425Y007018D01*
X011425Y006984D01*
X011966Y006984D01*
X011966Y006966D01*
X011984Y006966D01*
X011984Y006984D01*
X011984Y007525D01*
X012018Y007525D01*
X012104Y007511D01*
X012186Y007485D01*
X012263Y007445D01*
X012333Y007395D01*
X012395Y007333D01*
X012445Y007263D01*
X012473Y007209D01*
X012760Y007495D01*
X012975Y007495D01*
X012975Y006975D01*
X013850Y006100D01*
X016225Y006100D01*
X016850Y006725D01*
X016850Y006975D01*
X016850Y008975D01*
X016475Y009725D01*
X016725Y010350D01*
X019225Y010350D01*
X019100Y009725D02*
X019225Y009600D01*
X018070Y009416D02*
X021704Y009416D01*
X021685Y009461D02*
X021767Y009263D01*
X021919Y009111D01*
X022118Y009029D01*
X022332Y009029D01*
X022531Y009111D01*
X022683Y009263D01*
X022765Y009461D01*
X022765Y009676D01*
X022683Y009874D01*
X022531Y010026D01*
X022332Y010109D01*
X022118Y010109D01*
X021919Y010026D01*
X021767Y009874D01*
X021685Y009676D01*
X021685Y009461D01*
X021685Y009574D02*
X017940Y009574D01*
X017940Y009733D02*
X021708Y009733D01*
X021784Y009891D02*
X017940Y009891D01*
X017940Y010050D02*
X021975Y010050D01*
X022475Y010050D02*
X023415Y010050D01*
X023415Y010208D02*
X016623Y010208D01*
X016593Y010218D02*
X016515Y010230D01*
X016475Y010230D01*
X016475Y009725D01*
X016980Y009725D01*
X016980Y009765D01*
X016968Y009843D01*
X016943Y009919D01*
X016907Y009990D01*
X016860Y010054D01*
X016804Y010110D01*
X016740Y010157D01*
X016669Y010193D01*
X016593Y010218D01*
X016475Y010208D02*
X016475Y010208D01*
X016475Y010230D02*
X016435Y010230D01*
X016357Y010218D01*
X016281Y010193D01*
X016210Y010157D01*
X016146Y010110D01*
X016090Y010054D01*
X016043Y009990D01*
X016007Y009919D01*
X015982Y009843D01*
X015970Y009765D01*
X015970Y009725D01*
X016475Y009725D01*
X016475Y009725D01*
X016475Y009725D01*
X016980Y009725D01*
X016980Y009685D01*
X016968Y009607D01*
X016943Y009531D01*
X016907Y009460D01*
X016860Y009396D01*
X016804Y009340D01*
X016740Y009293D01*
X016669Y009257D01*
X017630Y009257D01*
X017630Y009099D02*
X012820Y009099D01*
X012820Y009257D02*
X016281Y009257D01*
X016357Y009232D01*
X016435Y009220D01*
X016475Y009220D01*
X016515Y009220D01*
X016593Y009232D01*
X016669Y009257D01*
X016475Y009257D02*
X016475Y009257D01*
X016475Y009220D02*
X016475Y009725D01*
X016475Y009725D01*
X016475Y009725D01*
X016475Y010230D01*
X016327Y010208D02*
X014973Y010208D01*
X015063Y010297D02*
X015063Y010667D01*
X015249Y010590D01*
X015451Y010590D01*
X015639Y010668D01*
X015782Y010811D01*
X015860Y010999D01*
X015860Y011201D01*
X015782Y011389D01*
X015639Y011532D01*
X015549Y011570D01*
X015613Y011597D01*
X015744Y011727D01*
X015785Y011826D01*
X015785Y011793D01*
X015771Y011793D01*
X015785Y011793D02*
X016043Y011535D01*
X016225Y011535D01*
X016407Y011535D01*
X016665Y011793D01*
X016727Y011793D01*
X016665Y011793D02*
X016665Y011975D01*
X016665Y012157D01*
X016407Y012415D01*
X016225Y012415D01*
X016225Y011975D01*
X014975Y012850D01*
X015350Y013959D01*
X015350Y013454D01*
X015390Y013454D01*
X015468Y013467D01*
X015544Y013491D01*
X015615Y013527D01*
X015679Y013574D01*
X015735Y013630D01*
X015782Y013695D01*
X015789Y013695D01*
X015782Y013695D02*
X015786Y013702D01*
X015793Y013686D01*
X015936Y013543D01*
X016124Y013465D01*
X016326Y013465D01*
X016514Y013543D01*
X016657Y013686D01*
X016735Y013874D01*
X016735Y014076D01*
X016657Y014264D01*
X016514Y014407D01*
X016493Y014416D01*
X018957Y014416D01*
X018936Y014407D01*
X018793Y014264D01*
X018715Y014076D01*
X018715Y013874D01*
X018793Y013686D01*
X018936Y013543D01*
X019124Y013465D01*
X019326Y013465D01*
X019514Y013543D01*
X019657Y013686D01*
X019735Y013874D01*
X019735Y014076D01*
X019657Y014264D01*
X019514Y014407D01*
X019493Y014416D01*
X023005Y014416D01*
X023085Y014408D01*
X023233Y014347D01*
X023346Y014234D01*
X023407Y014086D01*
X023415Y014006D01*
X023415Y003191D01*
X023407Y003110D01*
X023346Y002962D01*
X023233Y002849D01*
X023085Y002788D01*
X023005Y002780D01*
X015376Y002780D01*
X015407Y002811D01*
X015485Y002999D01*
X015485Y003201D01*
X015407Y003389D01*
X015264Y003532D01*
X015227Y003548D01*
X015388Y003710D02*
X015562Y003710D01*
X015495Y003868D02*
X015455Y003868D01*
X015455Y004027D02*
X015495Y004027D01*
X015506Y004185D02*
X015444Y004185D01*
X015285Y004344D02*
X015665Y004344D01*
X015975Y003975D02*
X017850Y005850D01*
X017850Y006975D01*
X017850Y007975D01*
X017850Y008975D01*
X017850Y009350D01*
X017475Y009725D01*
X017010Y009733D02*
X016980Y009733D01*
X016952Y009891D02*
X017010Y009891D01*
X017010Y010050D02*
X016863Y010050D01*
X016475Y010050D02*
X016475Y010050D01*
X016475Y009891D02*
X016475Y009891D01*
X016475Y009733D02*
X016475Y009733D01*
X016475Y009725D02*
X015970Y009725D01*
X015970Y009685D01*
X015982Y009607D01*
X016007Y009531D01*
X016043Y009460D01*
X016090Y009396D01*
X016146Y009340D01*
X016210Y009293D01*
X016281Y009257D01*
X016475Y009220D02*
X016475Y009725D01*
X016475Y009574D02*
X016475Y009574D01*
X016475Y009416D02*
X016475Y009416D01*
X016076Y009416D02*
X012820Y009416D01*
X012820Y009574D02*
X015993Y009574D01*
X015970Y009733D02*
X012820Y009733D01*
X012820Y009891D02*
X014008Y009891D01*
X014030Y009869D02*
X014635Y009869D01*
X015063Y010297D01*
X015063Y010367D02*
X023415Y010367D01*
X023415Y010525D02*
X015063Y010525D01*
X015655Y010684D02*
X023415Y010684D01*
X023415Y010842D02*
X015795Y010842D01*
X015860Y011001D02*
X023415Y011001D01*
X023415Y011159D02*
X019554Y011159D01*
X019583Y011180D02*
X019513Y011130D01*
X019436Y011090D01*
X019354Y011064D01*
X019268Y011050D01*
X019263Y011050D01*
X019263Y011562D01*
X019263Y011638D01*
X019187Y011638D01*
X019187Y011562D01*
X018675Y011562D01*
X018675Y011557D01*
X018689Y011471D01*
X018715Y011389D01*
X018755Y011312D01*
X018805Y011242D01*
X018867Y011180D01*
X018937Y011130D01*
X019014Y011090D01*
X019096Y011064D01*
X019182Y011050D01*
X019187Y011050D01*
X019187Y011562D01*
X019263Y011562D01*
X019775Y011562D01*
X019775Y011557D01*
X019761Y011471D01*
X019735Y011389D01*
X019695Y011312D01*
X019645Y011242D01*
X019583Y011180D01*
X019698Y011318D02*
X023415Y011318D01*
X023415Y011476D02*
X019762Y011476D01*
X019775Y011638D02*
X019775Y011643D01*
X019761Y011729D01*
X019735Y011811D01*
X019695Y011888D01*
X019645Y011958D01*
X019583Y012020D01*
X019513Y012070D01*
X019436Y012110D01*
X019354Y012136D01*
X019268Y012150D01*
X019263Y012150D01*
X019263Y011638D01*
X019775Y011638D01*
X019741Y011793D02*
X023415Y011793D01*
X023415Y011635D02*
X019263Y011635D01*
X019225Y011600D02*
X018850Y011975D01*
X016225Y011975D01*
X016225Y011975D01*
X016665Y011975D01*
X016225Y011975D01*
X016225Y011975D01*
X016225Y012415D01*
X016043Y012415D01*
X015785Y012157D01*
X015785Y012156D01*
X015744Y012254D01*
X015613Y012385D01*
X015442Y012456D01*
X015258Y012456D01*
X015087Y012385D01*
X014956Y012254D01*
X014885Y012083D01*
X014885Y011898D01*
X014956Y011727D01*
X015087Y011597D01*
X015151Y011570D01*
X015061Y011532D01*
X014918Y011389D01*
X014840Y011201D01*
X014840Y011125D01*
X014635Y011331D01*
X014030Y011331D01*
X013602Y010903D01*
X013602Y010297D01*
X014030Y009869D01*
X013850Y010050D02*
X012820Y010050D01*
X012820Y010208D02*
X013691Y010208D01*
X013602Y010367D02*
X012820Y010367D01*
X012820Y010525D02*
X013602Y010525D01*
X013602Y010684D02*
X012820Y010684D01*
X012820Y010842D02*
X013602Y010842D01*
X013700Y011001D02*
X012820Y011001D01*
X012820Y011159D02*
X013858Y011159D01*
X014017Y011318D02*
X012820Y011318D01*
X012820Y011476D02*
X015005Y011476D01*
X015049Y011635D02*
X012820Y011635D01*
X012820Y011793D02*
X014929Y011793D01*
X014885Y011952D02*
X012820Y011952D01*
X012820Y012110D02*
X014896Y012110D01*
X014970Y012269D02*
X012820Y012269D01*
X012820Y012427D02*
X015188Y012427D01*
X015512Y012427D02*
X016575Y012427D01*
X016575Y012309D02*
X016809Y012075D01*
X017141Y012075D01*
X017375Y012309D01*
X017375Y012641D01*
X017141Y012875D01*
X016809Y012875D01*
X016575Y012641D01*
X016575Y012309D01*
X016554Y012269D02*
X016616Y012269D01*
X016665Y012110D02*
X016774Y012110D01*
X016665Y011952D02*
X018801Y011952D01*
X018805Y011958D02*
X018755Y011888D01*
X018715Y011811D01*
X018689Y011729D01*
X018675Y011643D01*
X018675Y011638D01*
X019187Y011638D01*
X019187Y012150D01*
X019182Y012150D01*
X019096Y012136D01*
X019014Y012110D01*
X018937Y012070D01*
X018867Y012020D01*
X018805Y011958D01*
X018709Y011793D02*
X017223Y011793D01*
X017141Y011875D02*
X016809Y011875D01*
X016575Y011641D01*
X016575Y011309D01*
X016809Y011075D01*
X017141Y011075D01*
X017375Y011309D01*
X017375Y011641D01*
X017141Y011875D01*
X017176Y012110D02*
X019015Y012110D01*
X019187Y012110D02*
X019263Y012110D01*
X019263Y011952D02*
X019187Y011952D01*
X019187Y011793D02*
X019263Y011793D01*
X019187Y011635D02*
X017375Y011635D01*
X017375Y011476D02*
X018688Y011476D01*
X018752Y011318D02*
X017375Y011318D01*
X017225Y011159D02*
X018896Y011159D01*
X019187Y011159D02*
X019263Y011159D01*
X019263Y011318D02*
X019187Y011318D01*
X019187Y011476D02*
X019263Y011476D01*
X019649Y011952D02*
X021567Y011952D01*
X021506Y011968D02*
X021815Y011885D01*
X022135Y011885D01*
X022444Y011968D01*
X022721Y012128D01*
X022947Y012354D01*
X023107Y012631D01*
X023190Y012940D01*
X023190Y013260D01*
X023107Y013569D01*
X022947Y013846D01*
X022721Y014072D01*
X022444Y014232D01*
X022135Y014315D01*
X021815Y014315D01*
X021506Y014232D01*
X021229Y014072D01*
X021003Y013846D01*
X020843Y013569D01*
X020760Y013260D01*
X020760Y012940D01*
X020843Y012631D01*
X021003Y012354D01*
X021229Y012128D01*
X021506Y011968D01*
X021260Y012110D02*
X019435Y012110D01*
X020770Y012903D02*
X014069Y012903D01*
X014094Y012928D02*
X014094Y013784D01*
X014025Y013854D02*
X014855Y013854D01*
X014845Y013959D02*
X015350Y013959D01*
X015350Y013959D01*
X015350Y013454D01*
X015310Y013454D01*
X015232Y013467D01*
X015156Y013491D01*
X015085Y013527D01*
X015021Y013574D01*
X014965Y013630D01*
X014918Y013695D01*
X015073Y013537D02*
X014094Y013537D01*
X014094Y013378D02*
X020792Y013378D01*
X020760Y013220D02*
X014094Y013220D01*
X014094Y013061D02*
X020760Y013061D01*
X020813Y012744D02*
X017272Y012744D01*
X017375Y012586D02*
X020869Y012586D01*
X020961Y012427D02*
X017375Y012427D01*
X017334Y012269D02*
X021088Y012269D01*
X022383Y011952D02*
X023415Y011952D01*
X023415Y012110D02*
X022690Y012110D01*
X022862Y012269D02*
X023415Y012269D01*
X023415Y012427D02*
X022989Y012427D01*
X023081Y012586D02*
X023415Y012586D01*
X023415Y012744D02*
X023137Y012744D01*
X023180Y012903D02*
X023415Y012903D01*
X023415Y013061D02*
X023190Y013061D01*
X023190Y013220D02*
X023415Y013220D01*
X023415Y013378D02*
X023158Y013378D01*
X023116Y013537D02*
X023415Y013537D01*
X023415Y013695D02*
X023034Y013695D01*
X022940Y013854D02*
X023415Y013854D01*
X023414Y014012D02*
X022781Y014012D01*
X022551Y014171D02*
X023372Y014171D01*
X023250Y014329D02*
X019592Y014329D01*
X019696Y014171D02*
X021399Y014171D01*
X021169Y014012D02*
X019735Y014012D01*
X019727Y013854D02*
X021010Y013854D01*
X020916Y013695D02*
X019661Y013695D01*
X019499Y013537D02*
X020834Y013537D01*
X018951Y013537D02*
X016499Y013537D01*
X016661Y013695D02*
X018789Y013695D01*
X018723Y013854D02*
X016727Y013854D01*
X016735Y014012D02*
X018715Y014012D01*
X018754Y014171D02*
X016696Y014171D01*
X016592Y014329D02*
X018858Y014329D01*
X016678Y012744D02*
X012820Y012744D01*
X012820Y012846D02*
X013028Y012846D01*
X013092Y012910D01*
X013156Y012846D01*
X014012Y012846D01*
X014094Y012928D01*
X013100Y012903D02*
X013085Y012903D01*
X012820Y012846D02*
X012820Y008441D01*
X013806Y007455D01*
X014174Y007455D01*
X014455Y007174D01*
X014455Y006776D01*
X014174Y006495D01*
X013776Y006495D01*
X013495Y006776D01*
X013495Y007144D01*
X013495Y007144D01*
X013495Y006975D01*
X012975Y006975D01*
X012975Y006975D01*
X012975Y006975D01*
X013495Y006975D01*
X013495Y006760D01*
X013190Y006455D01*
X012975Y006455D01*
X012975Y006975D01*
X012975Y006975D01*
X012975Y006975D01*
X012455Y006975D01*
X012455Y006984D01*
X011984Y006984D01*
X011984Y006966D02*
X012455Y006966D01*
X012455Y006975D01*
X012975Y006975D01*
X012975Y006455D01*
X012760Y006455D01*
X012473Y006741D01*
X012445Y006687D01*
X012395Y006617D01*
X012333Y006555D01*
X012263Y006505D01*
X012186Y006465D01*
X012104Y006439D01*
X012018Y006425D01*
X011984Y006425D01*
X011984Y006966D01*
X011966Y006966D02*
X011966Y006425D01*
X011932Y006425D01*
X011846Y006439D01*
X011764Y006465D01*
X011687Y006505D01*
X011617Y006555D01*
X011555Y006617D01*
X011505Y006687D01*
X011465Y006764D01*
X011439Y006846D01*
X011425Y006932D01*
X011425Y006966D01*
X011966Y006966D01*
X011966Y007038D02*
X011984Y007038D01*
X011984Y006880D02*
X011966Y006880D01*
X011966Y006721D02*
X011984Y006721D01*
X011984Y006563D02*
X011966Y006563D01*
X012340Y006563D02*
X012652Y006563D01*
X012494Y006721D02*
X012463Y006721D01*
X012975Y006721D02*
X012975Y006721D01*
X012975Y006563D02*
X012975Y006563D01*
X012975Y006880D02*
X012975Y006880D01*
X012975Y007038D02*
X012975Y007038D01*
X012975Y007197D02*
X012975Y007197D01*
X012975Y007355D02*
X012975Y007355D01*
X013125Y007514D02*
X012091Y007514D01*
X011984Y007514D02*
X011966Y007514D01*
X011859Y007514D02*
X007590Y007514D01*
X007590Y007512D02*
X007590Y007688D01*
X007523Y007849D01*
X007399Y007973D01*
X007238Y008040D01*
X006462Y008040D01*
X006301Y007973D01*
X006177Y007849D01*
X006110Y007688D01*
X006110Y007512D01*
X006177Y007351D01*
X006301Y007227D01*
X006462Y007160D01*
X007238Y007160D01*
X007399Y007227D01*
X007523Y007351D01*
X007590Y007512D01*
X007590Y007672D02*
X012967Y007672D01*
X012808Y007831D02*
X007531Y007831D01*
X007361Y007989D02*
X012650Y007989D01*
X012491Y008148D02*
X004405Y008148D01*
X004405Y008306D02*
X006222Y008306D01*
X006177Y008351D02*
X006110Y008512D01*
X006110Y008688D01*
X006177Y008849D01*
X006301Y008973D01*
X006462Y009040D01*
X007238Y009040D01*
X007399Y008973D01*
X007523Y008849D01*
X007590Y008688D01*
X007590Y008512D01*
X007523Y008351D01*
X007399Y008227D01*
X007238Y008160D01*
X006462Y008160D01*
X006301Y008227D01*
X006177Y008351D01*
X006130Y008465D02*
X004405Y008465D01*
X004405Y008623D02*
X006110Y008623D01*
X006149Y008782D02*
X004405Y008782D01*
X004405Y008940D02*
X006268Y008940D01*
X006301Y009227D02*
X006462Y009160D01*
X007238Y009160D01*
X007399Y009227D01*
X007523Y009351D01*
X007590Y009512D01*
X007590Y009688D01*
X007523Y009849D01*
X007399Y009973D01*
X007238Y010040D01*
X006462Y010040D01*
X006301Y009973D01*
X006177Y009849D01*
X006110Y009688D01*
X006110Y009512D01*
X006177Y009351D01*
X006301Y009227D01*
X006271Y009257D02*
X004405Y009257D01*
X004405Y009099D02*
X012380Y009099D01*
X012380Y009257D02*
X007429Y009257D01*
X007550Y009416D02*
X012380Y009416D01*
X012380Y009574D02*
X007590Y009574D01*
X007571Y009733D02*
X012380Y009733D01*
X012380Y009891D02*
X011192Y009891D01*
X011170Y009869D02*
X011598Y010297D01*
X011598Y010903D01*
X011170Y011331D01*
X010565Y011331D01*
X010137Y010903D01*
X010137Y010297D01*
X010565Y009869D01*
X011170Y009869D01*
X011350Y010050D02*
X012380Y010050D01*
X012380Y010208D02*
X011509Y010208D01*
X011598Y010367D02*
X012380Y010367D01*
X012380Y010525D02*
X011598Y010525D01*
X011598Y010684D02*
X012380Y010684D01*
X012380Y010842D02*
X011598Y010842D01*
X011500Y011001D02*
X012380Y011001D01*
X012380Y011159D02*
X011342Y011159D01*
X011183Y011318D02*
X012380Y011318D01*
X012380Y011476D02*
X004405Y011476D01*
X004405Y011318D02*
X010552Y011318D01*
X010394Y011159D02*
X004405Y011159D01*
X004405Y011001D02*
X010235Y011001D01*
X010137Y010842D02*
X004405Y010842D01*
X004405Y010684D02*
X010137Y010684D01*
X010137Y010525D02*
X004405Y010525D01*
X004405Y010367D02*
X010137Y010367D01*
X010227Y010208D02*
X004405Y010208D01*
X004405Y010050D02*
X010385Y010050D01*
X010544Y009891D02*
X007481Y009891D01*
X006219Y009891D02*
X004405Y009891D01*
X004405Y009733D02*
X006129Y009733D01*
X006110Y009574D02*
X004405Y009574D01*
X004405Y009416D02*
X006150Y009416D01*
X007432Y008940D02*
X012380Y008940D01*
X012380Y008782D02*
X007551Y008782D01*
X007590Y008623D02*
X012380Y008623D01*
X012380Y008465D02*
X007570Y008465D01*
X007478Y008306D02*
X012380Y008306D01*
X012600Y008350D02*
X013975Y006975D01*
X014274Y007355D02*
X014676Y007355D01*
X014776Y007455D02*
X014495Y007174D01*
X014495Y006776D01*
X014776Y006495D01*
X015174Y006495D01*
X015455Y006776D01*
X015455Y007174D01*
X015174Y007455D01*
X014776Y007455D01*
X015057Y007672D02*
X013589Y007672D01*
X013431Y007831D02*
X014910Y007831D01*
X014918Y007811D02*
X015061Y007668D01*
X015249Y007590D01*
X015451Y007590D01*
X015639Y007668D01*
X015782Y007811D01*
X015860Y007999D01*
X015860Y008201D01*
X015782Y008389D01*
X015639Y008532D01*
X015451Y008610D01*
X015249Y008610D01*
X015061Y008532D01*
X014918Y008389D01*
X014840Y008201D01*
X014840Y007999D01*
X014918Y007811D01*
X014844Y007989D02*
X013272Y007989D01*
X013114Y008148D02*
X014840Y008148D01*
X014883Y008306D02*
X012955Y008306D01*
X012820Y008465D02*
X014993Y008465D01*
X015707Y008465D02*
X017630Y008465D01*
X017630Y008623D02*
X012820Y008623D01*
X012820Y008782D02*
X017630Y008782D01*
X017630Y008940D02*
X012820Y008940D01*
X012600Y008350D02*
X012600Y013356D01*
X012380Y012744D02*
X005747Y012744D01*
X005938Y012903D02*
X011086Y012903D01*
X011078Y012916D02*
X011102Y012875D01*
X011135Y012842D01*
X011176Y012818D01*
X011222Y012806D01*
X011597Y012806D01*
X011597Y013337D01*
X011066Y013337D01*
X011066Y012962D01*
X011078Y012916D01*
X011066Y013061D02*
X006061Y013061D01*
X006149Y013220D02*
X011066Y013220D01*
X011066Y013374D02*
X011597Y013374D01*
X011597Y013906D01*
X011222Y013906D01*
X011176Y013894D01*
X011135Y013870D01*
X011102Y013836D01*
X011078Y013795D01*
X011066Y013750D01*
X011066Y013374D01*
X011066Y013378D02*
X006191Y013378D01*
X006215Y013537D02*
X011066Y013537D01*
X011066Y013695D02*
X006215Y013695D01*
X006183Y013854D02*
X011119Y013854D01*
X011597Y013854D02*
X011634Y013854D01*
X011634Y013695D02*
X011597Y013695D01*
X011597Y013537D02*
X011634Y013537D01*
X011634Y013378D02*
X011597Y013378D01*
X011616Y013356D02*
X011844Y013959D01*
X015350Y013959D01*
X015350Y013959D01*
X014845Y013959D01*
X014847Y014012D02*
X006134Y014012D01*
X006043Y014171D02*
X014891Y014171D01*
X015006Y014329D02*
X005906Y014329D01*
X004462Y012903D02*
X004405Y012903D01*
X004405Y012744D02*
X004653Y012744D01*
X004405Y012586D02*
X005064Y012586D01*
X005336Y012586D02*
X012380Y012586D01*
X012380Y012427D02*
X004405Y012427D01*
X004405Y012269D02*
X012380Y012269D01*
X012380Y012110D02*
X004405Y012110D01*
X004405Y011952D02*
X012380Y011952D01*
X012380Y011793D02*
X004405Y011793D01*
X004405Y011635D02*
X012380Y011635D01*
X012820Y012586D02*
X016575Y012586D01*
X016225Y012269D02*
X016225Y012269D01*
X016225Y012110D02*
X016225Y012110D01*
X016225Y011975D02*
X015815Y011975D01*
X015815Y011975D01*
X016225Y011975D01*
X016225Y011535D01*
X016225Y011975D01*
X016225Y011975D01*
X016225Y011975D01*
X016225Y011952D02*
X016225Y011952D01*
X016225Y011793D02*
X016225Y011793D01*
X016225Y011635D02*
X016225Y011635D01*
X015943Y011635D02*
X015651Y011635D01*
X015695Y011476D02*
X016575Y011476D01*
X016575Y011318D02*
X015812Y011318D01*
X015860Y011159D02*
X016725Y011159D01*
X016575Y011635D02*
X016507Y011635D01*
X015896Y012269D02*
X015730Y012269D01*
X014888Y011318D02*
X014648Y011318D01*
X014806Y011159D02*
X014840Y011159D01*
X014815Y010050D02*
X016087Y010050D01*
X015998Y009891D02*
X014656Y009891D01*
X015817Y008306D02*
X017630Y008306D01*
X017630Y008148D02*
X015860Y008148D01*
X015856Y007989D02*
X017630Y007989D01*
X017630Y007831D02*
X015790Y007831D01*
X015643Y007672D02*
X017630Y007672D01*
X017630Y007514D02*
X013748Y007514D01*
X013495Y007038D02*
X013495Y007038D01*
X013495Y006880D02*
X013495Y006880D01*
X013456Y006721D02*
X013550Y006721D01*
X013709Y006563D02*
X013298Y006563D01*
X014241Y006563D02*
X014709Y006563D01*
X014550Y006721D02*
X014400Y006721D01*
X014455Y006880D02*
X014495Y006880D01*
X014495Y007038D02*
X014455Y007038D01*
X014432Y007197D02*
X014518Y007197D01*
X015274Y007355D02*
X015676Y007355D01*
X015776Y007455D02*
X015495Y007174D01*
X015495Y006776D01*
X015776Y006495D01*
X016174Y006495D01*
X016408Y006729D01*
X016418Y006710D01*
X016465Y006646D01*
X016521Y006590D01*
X016585Y006543D01*
X016656Y006507D01*
X016732Y006482D01*
X016810Y006470D01*
X016850Y006470D01*
X016890Y006470D01*
X016968Y006482D01*
X017044Y006507D01*
X017115Y006543D01*
X017179Y006590D01*
X017235Y006646D01*
X017282Y006710D01*
X017318Y006781D01*
X017343Y006857D01*
X017355Y006935D01*
X017355Y006975D01*
X017355Y007015D01*
X017343Y007093D01*
X017318Y007169D01*
X017282Y007240D01*
X017235Y007304D01*
X017179Y007360D01*
X017115Y007407D01*
X017044Y007443D01*
X016968Y007468D01*
X016890Y007480D01*
X016850Y007480D01*
X016850Y006975D01*
X017355Y006975D01*
X016850Y006975D01*
X016850Y006975D01*
X016850Y006975D01*
X016850Y006470D01*
X016850Y006975D01*
X016850Y006975D01*
X016850Y007480D01*
X016810Y007480D01*
X016732Y007468D01*
X016656Y007443D01*
X016585Y007407D01*
X016521Y007360D01*
X016465Y007304D01*
X016418Y007240D01*
X016408Y007221D01*
X016174Y007455D01*
X015776Y007455D01*
X015518Y007197D02*
X015432Y007197D01*
X015455Y007038D02*
X015495Y007038D01*
X015495Y006880D02*
X015455Y006880D01*
X015400Y006721D02*
X015550Y006721D01*
X015709Y006563D02*
X015241Y006563D01*
X016241Y006563D02*
X016559Y006563D01*
X016413Y006721D02*
X016400Y006721D01*
X016850Y006721D02*
X016850Y006721D01*
X016850Y006563D02*
X016850Y006563D01*
X017141Y006563D02*
X017630Y006563D01*
X017630Y006404D02*
X004405Y006404D01*
X004405Y006246D02*
X017630Y006246D01*
X017630Y006087D02*
X004405Y006087D01*
X004405Y005929D02*
X017617Y005929D01*
X017459Y005770D02*
X004405Y005770D01*
X004405Y005612D02*
X017300Y005612D01*
X017142Y005453D02*
X004405Y005453D01*
X004405Y005295D02*
X016983Y005295D01*
X016825Y005136D02*
X004405Y005136D01*
X004405Y004978D02*
X016666Y004978D01*
X016508Y004819D02*
X004405Y004819D01*
X004405Y004661D02*
X016349Y004661D01*
X016191Y004502D02*
X005668Y004502D01*
X005892Y004344D02*
X011622Y004344D01*
X011510Y004185D02*
X006034Y004185D01*
X006126Y004027D02*
X011465Y004027D01*
X011467Y003868D02*
X006179Y003868D01*
X006215Y003710D02*
X011533Y003710D01*
X011678Y003551D02*
X006215Y003551D01*
X006195Y003393D02*
X011546Y003393D01*
X011478Y003234D02*
X006153Y003234D01*
X006069Y003076D02*
X011465Y003076D01*
X011499Y002917D02*
X005952Y002917D01*
X004508Y004344D02*
X004405Y004344D01*
X004405Y004502D02*
X004732Y004502D01*
X004405Y006563D02*
X011610Y006563D01*
X011487Y006721D02*
X004405Y006721D01*
X004405Y006880D02*
X011433Y006880D01*
X011428Y007038D02*
X004405Y007038D01*
X004405Y007197D02*
X006374Y007197D01*
X006175Y007355D02*
X004405Y007355D01*
X004405Y007514D02*
X006110Y007514D01*
X006110Y007672D02*
X004405Y007672D01*
X004405Y007831D02*
X006169Y007831D01*
X006339Y007989D02*
X004405Y007989D01*
X007326Y007197D02*
X011471Y007197D01*
X011577Y007355D02*
X007525Y007355D01*
X011966Y007355D02*
X011984Y007355D01*
X011984Y007197D02*
X011966Y007197D01*
X012373Y007355D02*
X012620Y007355D01*
X016274Y007355D02*
X016516Y007355D01*
X016850Y007355D02*
X016850Y007355D01*
X016850Y007197D02*
X016850Y007197D01*
X016850Y007038D02*
X016850Y007038D01*
X016850Y006880D02*
X016850Y006880D01*
X017287Y006721D02*
X017452Y006721D01*
X017386Y006880D02*
X017346Y006880D01*
X017351Y007038D02*
X017385Y007038D01*
X017438Y007197D02*
X017304Y007197D01*
X017184Y007355D02*
X017572Y007355D01*
X018070Y007514D02*
X021645Y007514D01*
X021645Y007552D02*
X021645Y007176D01*
X021657Y007131D01*
X021681Y007089D01*
X021714Y007056D01*
X021756Y007032D01*
X021801Y007020D01*
X022177Y007020D01*
X022177Y007552D01*
X022273Y007552D01*
X022273Y007648D01*
X022177Y007648D01*
X022177Y008180D01*
X021801Y008180D01*
X021756Y008168D01*
X021714Y008144D01*
X021681Y008111D01*
X021657Y008069D01*
X021645Y008024D01*
X021645Y007648D01*
X022177Y007648D01*
X022177Y007552D01*
X021645Y007552D01*
X021645Y007672D02*
X018070Y007672D01*
X018070Y007831D02*
X021645Y007831D01*
X021645Y007989D02*
X018070Y007989D01*
X018070Y008148D02*
X021720Y008148D01*
X022177Y008148D02*
X022273Y008148D01*
X022273Y008180D02*
X022273Y007648D01*
X022805Y007648D01*
X022805Y008024D01*
X022793Y008069D01*
X022769Y008111D01*
X022736Y008144D01*
X022694Y008168D01*
X022649Y008180D01*
X022273Y008180D01*
X022273Y007989D02*
X022177Y007989D01*
X022177Y007831D02*
X022273Y007831D01*
X022273Y007672D02*
X022177Y007672D01*
X022273Y007552D02*
X022805Y007552D01*
X022805Y007176D01*
X022793Y007131D01*
X022769Y007089D01*
X022736Y007056D01*
X022694Y007032D01*
X022649Y007020D01*
X022273Y007020D01*
X022273Y007552D01*
X022273Y007514D02*
X022177Y007514D01*
X022177Y007355D02*
X022273Y007355D01*
X022273Y007197D02*
X022177Y007197D01*
X022177Y007038D02*
X022273Y007038D01*
X022704Y007038D02*
X023415Y007038D01*
X023415Y006880D02*
X018314Y006880D01*
X018315Y007038D02*
X021746Y007038D01*
X021645Y007197D02*
X018262Y007197D01*
X018128Y007355D02*
X021645Y007355D01*
X022805Y007355D02*
X023415Y007355D01*
X023415Y007197D02*
X022805Y007197D01*
X022805Y007514D02*
X023415Y007514D01*
X023415Y007672D02*
X022805Y007672D01*
X022805Y007831D02*
X023415Y007831D01*
X023415Y007989D02*
X022805Y007989D01*
X022730Y008148D02*
X023415Y008148D01*
X023415Y008306D02*
X018070Y008306D01*
X018070Y008465D02*
X023415Y008465D01*
X023415Y008623D02*
X018070Y008623D01*
X018070Y008782D02*
X023415Y008782D01*
X023415Y008940D02*
X018070Y008940D01*
X018070Y009099D02*
X021949Y009099D01*
X021773Y009257D02*
X018070Y009257D01*
X017010Y009416D02*
X016874Y009416D01*
X016957Y009574D02*
X017010Y009574D01*
X019600Y006975D02*
X020225Y007600D01*
X018248Y006721D02*
X023415Y006721D01*
X023415Y006563D02*
X018070Y006563D01*
X018070Y006404D02*
X023415Y006404D01*
X023415Y006246D02*
X018070Y006246D01*
X018070Y006087D02*
X019068Y006087D01*
X019124Y006110D02*
X018936Y006032D01*
X018793Y005889D01*
X018715Y005701D01*
X018715Y005499D01*
X018793Y005311D01*
X018936Y005168D01*
X019124Y005090D01*
X019326Y005090D01*
X019514Y005168D01*
X019657Y005311D01*
X019735Y005499D01*
X019735Y005701D01*
X019657Y005889D01*
X019514Y006032D01*
X019326Y006110D01*
X019124Y006110D01*
X019382Y006087D02*
X023415Y006087D01*
X023415Y005929D02*
X019618Y005929D01*
X019707Y005770D02*
X023415Y005770D01*
X023415Y005612D02*
X019735Y005612D01*
X019716Y005453D02*
X023415Y005453D01*
X023415Y005295D02*
X022361Y005295D01*
X022055Y005295D02*
X021895Y005295D01*
X021895Y005136D02*
X022055Y005136D01*
X022055Y004978D02*
X021895Y004978D01*
X021895Y004819D02*
X022055Y004819D01*
X022055Y004661D02*
X021895Y004661D01*
X021895Y004502D02*
X022055Y004502D01*
X022055Y004344D02*
X021895Y004344D01*
X021895Y004185D02*
X022055Y004185D01*
X022055Y004027D02*
X023415Y004027D01*
X023415Y004185D02*
X023228Y004185D01*
X023206Y004344D02*
X023415Y004344D01*
X023415Y004502D02*
X023165Y004502D01*
X023098Y004661D02*
X023415Y004661D01*
X023415Y004819D02*
X023004Y004819D01*
X022872Y004978D02*
X023415Y004978D01*
X023415Y005136D02*
X022683Y005136D01*
X021589Y005295D02*
X019641Y005295D01*
X019438Y005136D02*
X021267Y005136D01*
X021078Y004978D02*
X017289Y004978D01*
X017447Y005136D02*
X019012Y005136D01*
X018809Y005295D02*
X017606Y005295D01*
X017764Y005453D02*
X018734Y005453D01*
X018715Y005612D02*
X017923Y005612D01*
X018070Y005770D02*
X018743Y005770D01*
X018832Y005929D02*
X018070Y005929D01*
X017130Y004819D02*
X020946Y004819D01*
X020852Y004661D02*
X016972Y004661D01*
X016813Y004502D02*
X020785Y004502D01*
X020744Y004344D02*
X016655Y004344D01*
X016496Y004185D02*
X020722Y004185D01*
X021895Y004027D02*
X016455Y004027D01*
X017505Y003393D02*
X015404Y003393D01*
X015472Y003234D02*
X017514Y003234D01*
X017585Y003076D02*
X015485Y003076D01*
X015451Y002917D02*
X017792Y002917D01*
X014720Y003551D02*
X014230Y003551D01*
X014174Y003495D02*
X014455Y003776D01*
X014455Y004174D01*
X014174Y004455D01*
X013776Y004455D01*
X013495Y004174D01*
X013495Y003776D01*
X013776Y003495D01*
X014174Y003495D01*
X014388Y003710D02*
X014562Y003710D01*
X014495Y003868D02*
X014455Y003868D01*
X014455Y004027D02*
X014495Y004027D01*
X014506Y004185D02*
X014444Y004185D01*
X014285Y004344D02*
X014665Y004344D01*
X013665Y004344D02*
X013285Y004344D01*
X013174Y004455D02*
X012776Y004455D01*
X012495Y004174D01*
X012495Y003776D01*
X012776Y003495D01*
X013174Y003495D01*
X013455Y003776D01*
X013455Y004174D01*
X013174Y004455D01*
X013444Y004185D02*
X013506Y004185D01*
X013495Y004027D02*
X013455Y004027D01*
X013455Y003868D02*
X013495Y003868D01*
X013562Y003710D02*
X013388Y003710D01*
X013230Y003551D02*
X013720Y003551D01*
X014478Y003234D02*
X012472Y003234D01*
X012485Y003076D02*
X014465Y003076D01*
X014499Y002917D02*
X012451Y002917D01*
X012404Y003393D02*
X014546Y003393D01*
X012720Y003551D02*
X012272Y003551D01*
X012417Y003710D02*
X012562Y003710D01*
X012495Y003868D02*
X012483Y003868D01*
X012485Y004027D02*
X012495Y004027D01*
X012506Y004185D02*
X012440Y004185D01*
X012328Y004344D02*
X012665Y004344D01*
X021895Y003868D02*
X022055Y003868D01*
X022055Y004020D02*
X022055Y002847D01*
X022159Y002857D01*
X022280Y002881D01*
X022398Y002917D01*
X022512Y002964D01*
X022621Y003022D01*
X022724Y003091D01*
X022819Y003169D01*
X022906Y003256D01*
X022984Y003351D01*
X023053Y003454D01*
X023111Y003563D01*
X023158Y003677D01*
X023194Y003795D01*
X023218Y003916D01*
X023228Y004020D01*
X022055Y004020D01*
X022055Y003710D02*
X021895Y003710D01*
X021895Y003551D02*
X022055Y003551D01*
X022055Y003393D02*
X021895Y003393D01*
X021895Y003234D02*
X022055Y003234D01*
X022055Y003076D02*
X021895Y003076D01*
X021895Y002917D02*
X022055Y002917D01*
X022398Y002917D02*
X023300Y002917D01*
X023393Y003076D02*
X022701Y003076D01*
X022884Y003234D02*
X023415Y003234D01*
X023415Y003393D02*
X023012Y003393D01*
X023105Y003551D02*
X023415Y003551D01*
X023415Y003710D02*
X023168Y003710D01*
X023208Y003868D02*
X023415Y003868D01*
X023415Y009099D02*
X022501Y009099D01*
X022677Y009257D02*
X023415Y009257D01*
X023415Y009416D02*
X022746Y009416D01*
X022765Y009574D02*
X023415Y009574D01*
X023415Y009733D02*
X022742Y009733D01*
X022666Y009891D02*
X023415Y009891D01*
X015951Y013537D02*
X015627Y013537D01*
X015350Y013537D02*
X015350Y013537D01*
X015350Y013695D02*
X015350Y013695D01*
X015350Y013854D02*
X015350Y013854D01*
X013144Y013854D02*
X013040Y013854D01*
X012160Y013854D02*
X012113Y013854D01*
X011634Y013220D02*
X011597Y013220D01*
X011597Y013061D02*
X011634Y013061D01*
X011634Y012903D02*
X011597Y012903D01*
M02*
