G75*
G70*
%OFA0B0*%
%FSLAX24Y24*%
%IPPOS*%
%LPD*%
%AMOC8*
5,1,8,0,0,1.08239X$1,22.5*
%
%ADD10C,0.0000*%
D10*
X004225Y000887D02*
X004225Y008600D01*
X004225Y016813D01*
X004227Y016867D01*
X004232Y016920D01*
X004241Y016973D01*
X004254Y017025D01*
X004270Y017077D01*
X004290Y017127D01*
X004313Y017175D01*
X004340Y017222D01*
X004369Y017267D01*
X004402Y017310D01*
X004437Y017350D01*
X004475Y017388D01*
X004515Y017423D01*
X004558Y017456D01*
X004603Y017485D01*
X004650Y017512D01*
X004698Y017535D01*
X004748Y017555D01*
X004800Y017571D01*
X004852Y017584D01*
X004905Y017593D01*
X004958Y017598D01*
X005012Y017600D01*
X010278Y017600D01*
X010304Y017598D01*
X010329Y017593D01*
X010353Y017585D01*
X010377Y017574D01*
X010398Y017559D01*
X010417Y017542D01*
X010434Y017523D01*
X010449Y017502D01*
X010460Y017478D01*
X010468Y017454D01*
X010473Y017429D01*
X010475Y017403D01*
X010475Y010047D01*
X010477Y010021D01*
X010482Y009996D01*
X010490Y009972D01*
X010501Y009949D01*
X010516Y009927D01*
X010533Y009908D01*
X010552Y009891D01*
X010574Y009876D01*
X010597Y009865D01*
X010621Y009857D01*
X010646Y009852D01*
X010672Y009850D01*
X010725Y009850D01*
X010778Y009850D01*
X010804Y009852D01*
X010829Y009857D01*
X010853Y009865D01*
X010877Y009876D01*
X010898Y009891D01*
X010917Y009908D01*
X010934Y009927D01*
X010949Y009949D01*
X010960Y009972D01*
X010968Y009996D01*
X010973Y010021D01*
X010975Y010047D01*
X010975Y017403D01*
X010977Y017429D01*
X010982Y017454D01*
X010990Y017478D01*
X011001Y017502D01*
X011016Y017523D01*
X011033Y017542D01*
X011052Y017559D01*
X011074Y017574D01*
X011097Y017585D01*
X011121Y017593D01*
X011146Y017598D01*
X011172Y017600D01*
X032938Y017600D01*
X032992Y017598D01*
X033045Y017593D01*
X033098Y017584D01*
X033150Y017571D01*
X033202Y017555D01*
X033252Y017535D01*
X033300Y017512D01*
X033347Y017485D01*
X033392Y017456D01*
X033435Y017423D01*
X033475Y017388D01*
X033513Y017350D01*
X033548Y017310D01*
X033581Y017267D01*
X033610Y017222D01*
X033637Y017175D01*
X033660Y017127D01*
X033680Y017077D01*
X033696Y017025D01*
X033709Y016973D01*
X033718Y016920D01*
X033723Y016867D01*
X033725Y016813D01*
X033725Y010797D01*
X033723Y010771D01*
X033718Y010746D01*
X033710Y010722D01*
X033699Y010699D01*
X033684Y010677D01*
X033667Y010658D01*
X033648Y010641D01*
X033627Y010626D01*
X033603Y010615D01*
X033579Y010607D01*
X033554Y010602D01*
X033528Y010600D01*
X028422Y010600D01*
X028396Y010598D01*
X028371Y010593D01*
X028347Y010585D01*
X028324Y010574D01*
X028302Y010559D01*
X028283Y010542D01*
X028266Y010523D01*
X028251Y010502D01*
X028240Y010478D01*
X028232Y010454D01*
X028227Y010429D01*
X028225Y010403D01*
X028225Y006797D01*
X028227Y006771D01*
X028232Y006746D01*
X028240Y006722D01*
X028251Y006699D01*
X028266Y006677D01*
X028283Y006658D01*
X028302Y006641D01*
X028324Y006626D01*
X028347Y006615D01*
X028371Y006607D01*
X028396Y006602D01*
X028422Y006600D01*
X033528Y006600D01*
X033554Y006598D01*
X033579Y006593D01*
X033603Y006585D01*
X033627Y006574D01*
X033648Y006559D01*
X033667Y006542D01*
X033684Y006523D01*
X033699Y006502D01*
X033710Y006478D01*
X033718Y006454D01*
X033723Y006429D01*
X033725Y006403D01*
X033725Y000887D01*
X033723Y000833D01*
X033718Y000780D01*
X033709Y000727D01*
X033696Y000675D01*
X033680Y000623D01*
X033660Y000573D01*
X033637Y000525D01*
X033610Y000478D01*
X033581Y000433D01*
X033548Y000390D01*
X033513Y000350D01*
X033475Y000312D01*
X033435Y000277D01*
X033392Y000244D01*
X033347Y000215D01*
X033300Y000188D01*
X033252Y000165D01*
X033202Y000145D01*
X033150Y000129D01*
X033098Y000116D01*
X033045Y000107D01*
X032992Y000102D01*
X032938Y000100D01*
X011172Y000100D01*
X011146Y000102D01*
X011121Y000107D01*
X011097Y000115D01*
X011074Y000126D01*
X011052Y000141D01*
X011033Y000158D01*
X011016Y000177D01*
X011001Y000199D01*
X010990Y000222D01*
X010982Y000246D01*
X010977Y000271D01*
X010975Y000297D01*
X010975Y007153D01*
X010973Y007179D01*
X010968Y007204D01*
X010960Y007228D01*
X010949Y007252D01*
X010934Y007273D01*
X010917Y007292D01*
X010898Y007309D01*
X010877Y007324D01*
X010853Y007335D01*
X010829Y007343D01*
X010804Y007348D01*
X010778Y007350D01*
X010672Y007350D01*
X010646Y007348D01*
X010621Y007343D01*
X010597Y007335D01*
X010574Y007324D01*
X010552Y007309D01*
X010533Y007292D01*
X010516Y007273D01*
X010501Y007252D01*
X010490Y007228D01*
X010482Y007204D01*
X010477Y007179D01*
X010475Y007153D01*
X010475Y000297D01*
X010473Y000271D01*
X010468Y000246D01*
X010460Y000222D01*
X010449Y000198D01*
X010434Y000177D01*
X010417Y000158D01*
X010398Y000141D01*
X010377Y000126D01*
X010353Y000115D01*
X010329Y000107D01*
X010304Y000102D01*
X010278Y000100D01*
X005012Y000100D01*
X004958Y000102D01*
X004905Y000107D01*
X004852Y000116D01*
X004800Y000129D01*
X004748Y000145D01*
X004698Y000165D01*
X004650Y000188D01*
X004603Y000215D01*
X004558Y000244D01*
X004515Y000277D01*
X004475Y000312D01*
X004437Y000350D01*
X004402Y000390D01*
X004369Y000433D01*
X004340Y000478D01*
X004313Y000525D01*
X004290Y000573D01*
X004270Y000623D01*
X004254Y000675D01*
X004241Y000727D01*
X004232Y000780D01*
X004227Y000833D01*
X004225Y000887D01*
X012325Y001350D02*
X012327Y001400D01*
X012333Y001450D01*
X012343Y001500D01*
X012356Y001548D01*
X012373Y001596D01*
X012394Y001642D01*
X012418Y001686D01*
X012446Y001728D01*
X012477Y001768D01*
X012511Y001805D01*
X012548Y001840D01*
X012587Y001871D01*
X012628Y001900D01*
X012672Y001925D01*
X012718Y001947D01*
X012765Y001965D01*
X012813Y001979D01*
X012862Y001990D01*
X012912Y001997D01*
X012962Y002000D01*
X013013Y001999D01*
X013063Y001994D01*
X013113Y001985D01*
X013161Y001973D01*
X013209Y001956D01*
X013255Y001936D01*
X013300Y001913D01*
X013343Y001886D01*
X013383Y001856D01*
X013421Y001823D01*
X013456Y001787D01*
X013489Y001748D01*
X013518Y001707D01*
X013544Y001664D01*
X013567Y001619D01*
X013586Y001572D01*
X013601Y001524D01*
X013613Y001475D01*
X013621Y001425D01*
X013625Y001375D01*
X013625Y001325D01*
X013621Y001275D01*
X013613Y001225D01*
X013601Y001176D01*
X013586Y001128D01*
X013567Y001081D01*
X013544Y001036D01*
X013518Y000993D01*
X013489Y000952D01*
X013456Y000913D01*
X013421Y000877D01*
X013383Y000844D01*
X013343Y000814D01*
X013300Y000787D01*
X013255Y000764D01*
X013209Y000744D01*
X013161Y000727D01*
X013113Y000715D01*
X013063Y000706D01*
X013013Y000701D01*
X012962Y000700D01*
X012912Y000703D01*
X012862Y000710D01*
X012813Y000721D01*
X012765Y000735D01*
X012718Y000753D01*
X012672Y000775D01*
X012628Y000800D01*
X012587Y000829D01*
X012548Y000860D01*
X012511Y000895D01*
X012477Y000932D01*
X012446Y000972D01*
X012418Y001014D01*
X012394Y001058D01*
X012373Y001104D01*
X012356Y001152D01*
X012343Y001200D01*
X012333Y001250D01*
X012327Y001300D01*
X012325Y001350D01*
X010778Y007850D02*
X010672Y007850D01*
X010646Y007852D01*
X010621Y007857D01*
X010597Y007865D01*
X010574Y007876D01*
X010552Y007891D01*
X010533Y007908D01*
X010516Y007927D01*
X010501Y007949D01*
X010490Y007972D01*
X010482Y007996D01*
X010477Y008021D01*
X010475Y008047D01*
X010475Y008153D01*
X010477Y008179D01*
X010482Y008204D01*
X010490Y008228D01*
X010501Y008252D01*
X010516Y008273D01*
X010533Y008292D01*
X010552Y008309D01*
X010574Y008324D01*
X010597Y008335D01*
X010621Y008343D01*
X010646Y008348D01*
X010672Y008350D01*
X010778Y008350D01*
X010804Y008348D01*
X010829Y008343D01*
X010853Y008335D01*
X010877Y008324D01*
X010898Y008309D01*
X010917Y008292D01*
X010934Y008273D01*
X010949Y008252D01*
X010960Y008228D01*
X010968Y008204D01*
X010973Y008179D01*
X010975Y008153D01*
X010975Y008047D01*
X010973Y008021D01*
X010968Y007996D01*
X010960Y007972D01*
X010949Y007949D01*
X010934Y007927D01*
X010917Y007908D01*
X010898Y007891D01*
X010877Y007876D01*
X010853Y007865D01*
X010829Y007857D01*
X010804Y007852D01*
X010778Y007850D01*
X010778Y008850D02*
X010672Y008850D01*
X010646Y008852D01*
X010621Y008857D01*
X010597Y008865D01*
X010574Y008876D01*
X010552Y008891D01*
X010533Y008908D01*
X010516Y008927D01*
X010501Y008949D01*
X010490Y008972D01*
X010482Y008996D01*
X010477Y009021D01*
X010475Y009047D01*
X010475Y009153D01*
X010477Y009179D01*
X010482Y009204D01*
X010490Y009228D01*
X010501Y009252D01*
X010516Y009273D01*
X010533Y009292D01*
X010552Y009309D01*
X010574Y009324D01*
X010597Y009335D01*
X010621Y009343D01*
X010646Y009348D01*
X010672Y009350D01*
X010778Y009350D01*
X010804Y009348D01*
X010829Y009343D01*
X010853Y009335D01*
X010877Y009324D01*
X010898Y009309D01*
X010917Y009292D01*
X010934Y009273D01*
X010949Y009252D01*
X010960Y009228D01*
X010968Y009204D01*
X010973Y009179D01*
X010975Y009153D01*
X010975Y009047D01*
X010973Y009021D01*
X010968Y008996D01*
X010960Y008972D01*
X010949Y008949D01*
X010934Y008927D01*
X010917Y008908D01*
X010898Y008891D01*
X010877Y008876D01*
X010853Y008865D01*
X010829Y008857D01*
X010804Y008852D01*
X010778Y008850D01*
X012325Y016350D02*
X012327Y016400D01*
X012333Y016450D01*
X012343Y016500D01*
X012356Y016548D01*
X012373Y016596D01*
X012394Y016642D01*
X012418Y016686D01*
X012446Y016728D01*
X012477Y016768D01*
X012511Y016805D01*
X012548Y016840D01*
X012587Y016871D01*
X012628Y016900D01*
X012672Y016925D01*
X012718Y016947D01*
X012765Y016965D01*
X012813Y016979D01*
X012862Y016990D01*
X012912Y016997D01*
X012962Y017000D01*
X013013Y016999D01*
X013063Y016994D01*
X013113Y016985D01*
X013161Y016973D01*
X013209Y016956D01*
X013255Y016936D01*
X013300Y016913D01*
X013343Y016886D01*
X013383Y016856D01*
X013421Y016823D01*
X013456Y016787D01*
X013489Y016748D01*
X013518Y016707D01*
X013544Y016664D01*
X013567Y016619D01*
X013586Y016572D01*
X013601Y016524D01*
X013613Y016475D01*
X013621Y016425D01*
X013625Y016375D01*
X013625Y016325D01*
X013621Y016275D01*
X013613Y016225D01*
X013601Y016176D01*
X013586Y016128D01*
X013567Y016081D01*
X013544Y016036D01*
X013518Y015993D01*
X013489Y015952D01*
X013456Y015913D01*
X013421Y015877D01*
X013383Y015844D01*
X013343Y015814D01*
X013300Y015787D01*
X013255Y015764D01*
X013209Y015744D01*
X013161Y015727D01*
X013113Y015715D01*
X013063Y015706D01*
X013013Y015701D01*
X012962Y015700D01*
X012912Y015703D01*
X012862Y015710D01*
X012813Y015721D01*
X012765Y015735D01*
X012718Y015753D01*
X012672Y015775D01*
X012628Y015800D01*
X012587Y015829D01*
X012548Y015860D01*
X012511Y015895D01*
X012477Y015932D01*
X012446Y015972D01*
X012418Y016014D01*
X012394Y016058D01*
X012373Y016104D01*
X012356Y016152D01*
X012343Y016200D01*
X012333Y016250D01*
X012327Y016300D01*
X012325Y016350D01*
X029325Y016350D02*
X029327Y016400D01*
X029333Y016450D01*
X029343Y016500D01*
X029356Y016548D01*
X029373Y016596D01*
X029394Y016642D01*
X029418Y016686D01*
X029446Y016728D01*
X029477Y016768D01*
X029511Y016805D01*
X029548Y016840D01*
X029587Y016871D01*
X029628Y016900D01*
X029672Y016925D01*
X029718Y016947D01*
X029765Y016965D01*
X029813Y016979D01*
X029862Y016990D01*
X029912Y016997D01*
X029962Y017000D01*
X030013Y016999D01*
X030063Y016994D01*
X030113Y016985D01*
X030161Y016973D01*
X030209Y016956D01*
X030255Y016936D01*
X030300Y016913D01*
X030343Y016886D01*
X030383Y016856D01*
X030421Y016823D01*
X030456Y016787D01*
X030489Y016748D01*
X030518Y016707D01*
X030544Y016664D01*
X030567Y016619D01*
X030586Y016572D01*
X030601Y016524D01*
X030613Y016475D01*
X030621Y016425D01*
X030625Y016375D01*
X030625Y016325D01*
X030621Y016275D01*
X030613Y016225D01*
X030601Y016176D01*
X030586Y016128D01*
X030567Y016081D01*
X030544Y016036D01*
X030518Y015993D01*
X030489Y015952D01*
X030456Y015913D01*
X030421Y015877D01*
X030383Y015844D01*
X030343Y015814D01*
X030300Y015787D01*
X030255Y015764D01*
X030209Y015744D01*
X030161Y015727D01*
X030113Y015715D01*
X030063Y015706D01*
X030013Y015701D01*
X029962Y015700D01*
X029912Y015703D01*
X029862Y015710D01*
X029813Y015721D01*
X029765Y015735D01*
X029718Y015753D01*
X029672Y015775D01*
X029628Y015800D01*
X029587Y015829D01*
X029548Y015860D01*
X029511Y015895D01*
X029477Y015932D01*
X029446Y015972D01*
X029418Y016014D01*
X029394Y016058D01*
X029373Y016104D01*
X029356Y016152D01*
X029343Y016200D01*
X029333Y016250D01*
X029327Y016300D01*
X029325Y016350D01*
X029325Y001350D02*
X029327Y001400D01*
X029333Y001450D01*
X029343Y001500D01*
X029356Y001548D01*
X029373Y001596D01*
X029394Y001642D01*
X029418Y001686D01*
X029446Y001728D01*
X029477Y001768D01*
X029511Y001805D01*
X029548Y001840D01*
X029587Y001871D01*
X029628Y001900D01*
X029672Y001925D01*
X029718Y001947D01*
X029765Y001965D01*
X029813Y001979D01*
X029862Y001990D01*
X029912Y001997D01*
X029962Y002000D01*
X030013Y001999D01*
X030063Y001994D01*
X030113Y001985D01*
X030161Y001973D01*
X030209Y001956D01*
X030255Y001936D01*
X030300Y001913D01*
X030343Y001886D01*
X030383Y001856D01*
X030421Y001823D01*
X030456Y001787D01*
X030489Y001748D01*
X030518Y001707D01*
X030544Y001664D01*
X030567Y001619D01*
X030586Y001572D01*
X030601Y001524D01*
X030613Y001475D01*
X030621Y001425D01*
X030625Y001375D01*
X030625Y001325D01*
X030621Y001275D01*
X030613Y001225D01*
X030601Y001176D01*
X030586Y001128D01*
X030567Y001081D01*
X030544Y001036D01*
X030518Y000993D01*
X030489Y000952D01*
X030456Y000913D01*
X030421Y000877D01*
X030383Y000844D01*
X030343Y000814D01*
X030300Y000787D01*
X030255Y000764D01*
X030209Y000744D01*
X030161Y000727D01*
X030113Y000715D01*
X030063Y000706D01*
X030013Y000701D01*
X029962Y000700D01*
X029912Y000703D01*
X029862Y000710D01*
X029813Y000721D01*
X029765Y000735D01*
X029718Y000753D01*
X029672Y000775D01*
X029628Y000800D01*
X029587Y000829D01*
X029548Y000860D01*
X029511Y000895D01*
X029477Y000932D01*
X029446Y000972D01*
X029418Y001014D01*
X029394Y001058D01*
X029373Y001104D01*
X029356Y001152D01*
X029343Y001200D01*
X029333Y001250D01*
X029327Y001300D01*
X029325Y001350D01*
M02*
