G75*
G70*
%OFA0B0*%
%FSLAX24Y24*%
%IPPOS*%
%LPD*%
%AMOC8*
5,1,8,0,0,1.08239X$1,22.5*
%
%ADD10C,0.0000*%
D10*
X000100Y000297D02*
X000100Y007100D01*
X000100Y017403D01*
X000102Y017429D01*
X000107Y017454D01*
X000115Y017478D01*
X000126Y017502D01*
X000141Y017523D01*
X000158Y017542D01*
X000177Y017559D01*
X000198Y017574D01*
X000222Y017585D01*
X000246Y017593D01*
X000271Y017598D01*
X000297Y017600D01*
X022563Y017600D01*
X022617Y017598D01*
X022670Y017593D01*
X022723Y017584D01*
X022775Y017571D01*
X022827Y017555D01*
X022877Y017535D01*
X022925Y017512D01*
X022972Y017485D01*
X023017Y017456D01*
X023060Y017423D01*
X023100Y017388D01*
X023138Y017350D01*
X023173Y017310D01*
X023206Y017267D01*
X023235Y017222D01*
X023262Y017175D01*
X023285Y017127D01*
X023305Y017077D01*
X023321Y017025D01*
X023334Y016973D01*
X023343Y016920D01*
X023348Y016867D01*
X023350Y016813D01*
X023350Y010797D01*
X023348Y010771D01*
X023343Y010746D01*
X023335Y010722D01*
X023324Y010699D01*
X023309Y010677D01*
X023292Y010658D01*
X023273Y010641D01*
X023252Y010626D01*
X023228Y010615D01*
X023204Y010607D01*
X023179Y010602D01*
X023153Y010600D01*
X021135Y010600D01*
X021135Y014314D01*
X021133Y014360D01*
X021128Y014406D01*
X021119Y014452D01*
X021106Y014497D01*
X021090Y014540D01*
X021071Y014582D01*
X021048Y014623D01*
X021022Y014661D01*
X020993Y014698D01*
X020962Y014732D01*
X020928Y014763D01*
X020891Y014792D01*
X020853Y014818D01*
X020812Y014841D01*
X020770Y014860D01*
X020727Y014876D01*
X020682Y014889D01*
X020636Y014898D01*
X020590Y014903D01*
X020544Y014905D01*
X001841Y014905D01*
X001795Y014903D01*
X001749Y014898D01*
X001703Y014889D01*
X001658Y014876D01*
X001615Y014860D01*
X001573Y014841D01*
X001532Y014818D01*
X001494Y014792D01*
X001457Y014763D01*
X001423Y014732D01*
X001392Y014698D01*
X001363Y014661D01*
X001337Y014623D01*
X001314Y014582D01*
X001295Y014540D01*
X001279Y014497D01*
X001266Y014452D01*
X001257Y014406D01*
X001252Y014360D01*
X001250Y014314D01*
X001250Y008612D01*
X001250Y003091D01*
X001248Y003046D01*
X001249Y003001D01*
X001255Y002957D01*
X001263Y002913D01*
X001276Y002870D01*
X001292Y002828D01*
X001311Y002787D01*
X001334Y002748D01*
X001359Y002712D01*
X001388Y002677D01*
X001419Y002645D01*
X001453Y002616D01*
X001490Y002589D01*
X001528Y002566D01*
X001568Y002546D01*
X001610Y002529D01*
X001653Y002516D01*
X001697Y002506D01*
X001741Y002500D01*
X020544Y002500D01*
X020590Y002502D01*
X020636Y002507D01*
X020682Y002516D01*
X020727Y002529D01*
X020770Y002545D01*
X020812Y002564D01*
X020853Y002587D01*
X020891Y002613D01*
X020928Y002642D01*
X020962Y002673D01*
X020993Y002707D01*
X021022Y002744D01*
X021048Y002782D01*
X021071Y002823D01*
X021090Y002865D01*
X021106Y002908D01*
X021119Y002953D01*
X021128Y002999D01*
X021133Y003045D01*
X021135Y003091D01*
X021135Y006600D01*
X023153Y006600D01*
X023179Y006598D01*
X023204Y006593D01*
X023228Y006585D01*
X023252Y006574D01*
X023273Y006559D01*
X023292Y006542D01*
X023309Y006523D01*
X023324Y006502D01*
X023335Y006478D01*
X023343Y006454D01*
X023348Y006429D01*
X023350Y006403D01*
X023350Y000887D01*
X023348Y000833D01*
X023343Y000780D01*
X023334Y000727D01*
X023321Y000675D01*
X023305Y000623D01*
X023285Y000573D01*
X023262Y000525D01*
X023235Y000478D01*
X023206Y000433D01*
X023173Y000390D01*
X023138Y000350D01*
X023100Y000312D01*
X023060Y000277D01*
X023017Y000244D01*
X022972Y000215D01*
X022925Y000188D01*
X022877Y000165D01*
X022827Y000145D01*
X022775Y000129D01*
X022723Y000116D01*
X022670Y000107D01*
X022617Y000102D01*
X022563Y000100D01*
X000297Y000100D01*
X000271Y000102D01*
X000246Y000107D01*
X000222Y000115D01*
X000198Y000126D01*
X000177Y000141D01*
X000158Y000158D01*
X000141Y000177D01*
X000126Y000199D01*
X000115Y000222D01*
X000107Y000246D01*
X000102Y000271D01*
X000100Y000297D01*
X001950Y001350D02*
X001952Y001400D01*
X001958Y001450D01*
X001968Y001500D01*
X001981Y001548D01*
X001998Y001596D01*
X002019Y001642D01*
X002043Y001686D01*
X002071Y001728D01*
X002102Y001768D01*
X002136Y001805D01*
X002173Y001840D01*
X002212Y001871D01*
X002253Y001900D01*
X002297Y001925D01*
X002343Y001947D01*
X002390Y001965D01*
X002438Y001979D01*
X002487Y001990D01*
X002537Y001997D01*
X002587Y002000D01*
X002638Y001999D01*
X002688Y001994D01*
X002738Y001985D01*
X002786Y001973D01*
X002834Y001956D01*
X002880Y001936D01*
X002925Y001913D01*
X002968Y001886D01*
X003008Y001856D01*
X003046Y001823D01*
X003081Y001787D01*
X003114Y001748D01*
X003143Y001707D01*
X003169Y001664D01*
X003192Y001619D01*
X003211Y001572D01*
X003226Y001524D01*
X003238Y001475D01*
X003246Y001425D01*
X003250Y001375D01*
X003250Y001325D01*
X003246Y001275D01*
X003238Y001225D01*
X003226Y001176D01*
X003211Y001128D01*
X003192Y001081D01*
X003169Y001036D01*
X003143Y000993D01*
X003114Y000952D01*
X003081Y000913D01*
X003046Y000877D01*
X003008Y000844D01*
X002968Y000814D01*
X002925Y000787D01*
X002880Y000764D01*
X002834Y000744D01*
X002786Y000727D01*
X002738Y000715D01*
X002688Y000706D01*
X002638Y000701D01*
X002587Y000700D01*
X002537Y000703D01*
X002487Y000710D01*
X002438Y000721D01*
X002390Y000735D01*
X002343Y000753D01*
X002297Y000775D01*
X002253Y000800D01*
X002212Y000829D01*
X002173Y000860D01*
X002136Y000895D01*
X002102Y000932D01*
X002071Y000972D01*
X002043Y001014D01*
X002019Y001058D01*
X001998Y001104D01*
X001981Y001152D01*
X001968Y001200D01*
X001958Y001250D01*
X001952Y001300D01*
X001950Y001350D01*
X018950Y001350D02*
X018952Y001400D01*
X018958Y001450D01*
X018968Y001500D01*
X018981Y001548D01*
X018998Y001596D01*
X019019Y001642D01*
X019043Y001686D01*
X019071Y001728D01*
X019102Y001768D01*
X019136Y001805D01*
X019173Y001840D01*
X019212Y001871D01*
X019253Y001900D01*
X019297Y001925D01*
X019343Y001947D01*
X019390Y001965D01*
X019438Y001979D01*
X019487Y001990D01*
X019537Y001997D01*
X019587Y002000D01*
X019638Y001999D01*
X019688Y001994D01*
X019738Y001985D01*
X019786Y001973D01*
X019834Y001956D01*
X019880Y001936D01*
X019925Y001913D01*
X019968Y001886D01*
X020008Y001856D01*
X020046Y001823D01*
X020081Y001787D01*
X020114Y001748D01*
X020143Y001707D01*
X020169Y001664D01*
X020192Y001619D01*
X020211Y001572D01*
X020226Y001524D01*
X020238Y001475D01*
X020246Y001425D01*
X020250Y001375D01*
X020250Y001325D01*
X020246Y001275D01*
X020238Y001225D01*
X020226Y001176D01*
X020211Y001128D01*
X020192Y001081D01*
X020169Y001036D01*
X020143Y000993D01*
X020114Y000952D01*
X020081Y000913D01*
X020046Y000877D01*
X020008Y000844D01*
X019968Y000814D01*
X019925Y000787D01*
X019880Y000764D01*
X019834Y000744D01*
X019786Y000727D01*
X019738Y000715D01*
X019688Y000706D01*
X019638Y000701D01*
X019587Y000700D01*
X019537Y000703D01*
X019487Y000710D01*
X019438Y000721D01*
X019390Y000735D01*
X019343Y000753D01*
X019297Y000775D01*
X019253Y000800D01*
X019212Y000829D01*
X019173Y000860D01*
X019136Y000895D01*
X019102Y000932D01*
X019071Y000972D01*
X019043Y001014D01*
X019019Y001058D01*
X018998Y001104D01*
X018981Y001152D01*
X018968Y001200D01*
X018958Y001250D01*
X018952Y001300D01*
X018950Y001350D01*
X018950Y016350D02*
X018952Y016400D01*
X018958Y016450D01*
X018968Y016500D01*
X018981Y016548D01*
X018998Y016596D01*
X019019Y016642D01*
X019043Y016686D01*
X019071Y016728D01*
X019102Y016768D01*
X019136Y016805D01*
X019173Y016840D01*
X019212Y016871D01*
X019253Y016900D01*
X019297Y016925D01*
X019343Y016947D01*
X019390Y016965D01*
X019438Y016979D01*
X019487Y016990D01*
X019537Y016997D01*
X019587Y017000D01*
X019638Y016999D01*
X019688Y016994D01*
X019738Y016985D01*
X019786Y016973D01*
X019834Y016956D01*
X019880Y016936D01*
X019925Y016913D01*
X019968Y016886D01*
X020008Y016856D01*
X020046Y016823D01*
X020081Y016787D01*
X020114Y016748D01*
X020143Y016707D01*
X020169Y016664D01*
X020192Y016619D01*
X020211Y016572D01*
X020226Y016524D01*
X020238Y016475D01*
X020246Y016425D01*
X020250Y016375D01*
X020250Y016325D01*
X020246Y016275D01*
X020238Y016225D01*
X020226Y016176D01*
X020211Y016128D01*
X020192Y016081D01*
X020169Y016036D01*
X020143Y015993D01*
X020114Y015952D01*
X020081Y015913D01*
X020046Y015877D01*
X020008Y015844D01*
X019968Y015814D01*
X019925Y015787D01*
X019880Y015764D01*
X019834Y015744D01*
X019786Y015727D01*
X019738Y015715D01*
X019688Y015706D01*
X019638Y015701D01*
X019587Y015700D01*
X019537Y015703D01*
X019487Y015710D01*
X019438Y015721D01*
X019390Y015735D01*
X019343Y015753D01*
X019297Y015775D01*
X019253Y015800D01*
X019212Y015829D01*
X019173Y015860D01*
X019136Y015895D01*
X019102Y015932D01*
X019071Y015972D01*
X019043Y016014D01*
X019019Y016058D01*
X018998Y016104D01*
X018981Y016152D01*
X018968Y016200D01*
X018958Y016250D01*
X018952Y016300D01*
X018950Y016350D01*
X001950Y016350D02*
X001952Y016400D01*
X001958Y016450D01*
X001968Y016500D01*
X001981Y016548D01*
X001998Y016596D01*
X002019Y016642D01*
X002043Y016686D01*
X002071Y016728D01*
X002102Y016768D01*
X002136Y016805D01*
X002173Y016840D01*
X002212Y016871D01*
X002253Y016900D01*
X002297Y016925D01*
X002343Y016947D01*
X002390Y016965D01*
X002438Y016979D01*
X002487Y016990D01*
X002537Y016997D01*
X002587Y017000D01*
X002638Y016999D01*
X002688Y016994D01*
X002738Y016985D01*
X002786Y016973D01*
X002834Y016956D01*
X002880Y016936D01*
X002925Y016913D01*
X002968Y016886D01*
X003008Y016856D01*
X003046Y016823D01*
X003081Y016787D01*
X003114Y016748D01*
X003143Y016707D01*
X003169Y016664D01*
X003192Y016619D01*
X003211Y016572D01*
X003226Y016524D01*
X003238Y016475D01*
X003246Y016425D01*
X003250Y016375D01*
X003250Y016325D01*
X003246Y016275D01*
X003238Y016225D01*
X003226Y016176D01*
X003211Y016128D01*
X003192Y016081D01*
X003169Y016036D01*
X003143Y015993D01*
X003114Y015952D01*
X003081Y015913D01*
X003046Y015877D01*
X003008Y015844D01*
X002968Y015814D01*
X002925Y015787D01*
X002880Y015764D01*
X002834Y015744D01*
X002786Y015727D01*
X002738Y015715D01*
X002688Y015706D01*
X002638Y015701D01*
X002587Y015700D01*
X002537Y015703D01*
X002487Y015710D01*
X002438Y015721D01*
X002390Y015735D01*
X002343Y015753D01*
X002297Y015775D01*
X002253Y015800D01*
X002212Y015829D01*
X002173Y015860D01*
X002136Y015895D01*
X002102Y015932D01*
X002071Y015972D01*
X002043Y016014D01*
X002019Y016058D01*
X001998Y016104D01*
X001981Y016152D01*
X001968Y016200D01*
X001958Y016250D01*
X001952Y016300D01*
X001950Y016350D01*
M02*
