G75*
G70*
%OFA0B0*%
%FSLAX24Y24*%
%IPPOS*%
%LPD*%
%AMOC8*
5,1,8,0,0,1.08239X$1,22.5*
%
%ADD10C,0.0100*%
%ADD11C,0.0030*%
%ADD12C,0.0060*%
%ADD13C,0.0000*%
%ADD14C,0.0080*%
%ADD15R,0.0400X0.4000*%
%ADD16C,0.0050*%
%ADD17C,0.0010*%
D10*
X011725Y003191D02*
X011725Y008612D01*
X011725Y014214D01*
X011727Y014260D01*
X011732Y014306D01*
X011741Y014352D01*
X011754Y014397D01*
X011770Y014440D01*
X011789Y014482D01*
X011812Y014523D01*
X011838Y014561D01*
X011867Y014598D01*
X011898Y014632D01*
X011932Y014663D01*
X011969Y014692D01*
X012007Y014718D01*
X012048Y014741D01*
X012090Y014760D01*
X012133Y014776D01*
X012178Y014789D01*
X012224Y014798D01*
X012270Y014803D01*
X012316Y014805D01*
X030819Y014805D01*
X030865Y014803D01*
X030911Y014798D01*
X030957Y014789D01*
X031002Y014776D01*
X031045Y014760D01*
X031087Y014741D01*
X031128Y014718D01*
X031166Y014692D01*
X031203Y014663D01*
X031237Y014632D01*
X031268Y014598D01*
X031297Y014561D01*
X031323Y014523D01*
X031346Y014482D01*
X031365Y014440D01*
X031381Y014397D01*
X031394Y014352D01*
X031403Y014306D01*
X031408Y014260D01*
X031410Y014214D01*
X031410Y008168D01*
X031410Y008112D02*
X031410Y003191D01*
X031408Y003145D01*
X031403Y003099D01*
X031394Y003053D01*
X031381Y003008D01*
X031365Y002965D01*
X031346Y002923D01*
X031323Y002882D01*
X031297Y002844D01*
X031268Y002807D01*
X031237Y002773D01*
X031203Y002742D01*
X031166Y002713D01*
X031128Y002687D01*
X031087Y002664D01*
X031045Y002645D01*
X031002Y002629D01*
X030957Y002616D01*
X030911Y002607D01*
X030865Y002602D01*
X030819Y002600D01*
X012316Y002600D01*
X012270Y002602D01*
X012224Y002607D01*
X012178Y002616D01*
X012133Y002629D01*
X012090Y002645D01*
X012048Y002664D01*
X012007Y002687D01*
X011969Y002713D01*
X011932Y002742D01*
X011898Y002773D01*
X011867Y002807D01*
X011838Y002844D01*
X011812Y002882D01*
X011789Y002923D01*
X011770Y002965D01*
X011754Y003008D01*
X011741Y003053D01*
X011732Y003099D01*
X011727Y003145D01*
X011725Y003191D01*
D11*
X023806Y004050D02*
X024053Y004050D01*
X024806Y004050D02*
X025053Y004050D01*
X024929Y003927D02*
X024929Y004174D01*
X025597Y004155D02*
X025597Y003962D01*
X025694Y003865D01*
X025791Y003962D01*
X025791Y004155D01*
X025892Y004155D02*
X025989Y004155D01*
X025940Y004155D02*
X025940Y003865D01*
X025892Y003865D02*
X025989Y003865D01*
X026088Y003865D02*
X026088Y004155D01*
X026282Y003865D01*
X026282Y004155D01*
D12*
X003370Y002600D02*
X000640Y000350D01*
X000650Y000350D02*
X000625Y000333D01*
X000598Y000320D01*
X000569Y000310D01*
X000540Y000303D01*
X000510Y000300D01*
X000480Y000301D01*
X000450Y000305D01*
X000421Y000313D01*
X000393Y000324D01*
X000366Y000339D01*
X000342Y000356D01*
X000320Y000377D01*
X000300Y000400D01*
X000283Y000425D01*
X000270Y000452D01*
X000260Y000481D01*
X000253Y000510D01*
X000250Y000540D01*
X000251Y000570D01*
X000255Y000600D01*
X000263Y000629D01*
X000274Y000657D01*
X000289Y000684D01*
X000306Y000708D01*
X000327Y000730D01*
X000350Y000750D01*
X000330Y000730D02*
X002030Y002480D01*
X002000Y002450D02*
X002023Y002470D01*
X002044Y002492D01*
X002061Y002516D01*
X002076Y002543D01*
X002087Y002571D01*
X002095Y002600D01*
X002099Y002630D01*
X002100Y002660D01*
X002097Y002690D01*
X002090Y002719D01*
X002080Y002748D01*
X002067Y002775D01*
X002050Y002800D01*
X002030Y002823D01*
X002008Y002844D01*
X001984Y002861D01*
X001957Y002876D01*
X001929Y002887D01*
X001900Y002895D01*
X001870Y002899D01*
X001840Y002900D01*
X001810Y002897D01*
X001781Y002890D01*
X001752Y002880D01*
X001725Y002867D01*
X001700Y002850D01*
X001740Y002870D02*
X000550Y002480D01*
X000564Y002485D02*
X000533Y002481D01*
X000501Y002482D01*
X000470Y002486D01*
X000440Y002493D01*
X000410Y002504D01*
X000382Y002519D01*
X000356Y002537D01*
X000332Y002557D01*
X000311Y002580D01*
X000293Y002606D01*
X000278Y002633D01*
X000266Y002662D01*
X000257Y002693D01*
X000252Y002724D01*
X000251Y002755D01*
X000254Y002787D01*
X000260Y002818D01*
X000269Y002847D01*
X000282Y002876D01*
X000299Y002903D01*
X000318Y002928D01*
X000340Y002950D01*
X000365Y002970D01*
X000392Y002986D01*
X000420Y003000D01*
X002750Y003960D01*
X002730Y003950D02*
X002758Y003964D01*
X002785Y003980D01*
X002810Y004000D01*
X002832Y004022D01*
X002851Y004047D01*
X002868Y004074D01*
X002881Y004102D01*
X002890Y004132D01*
X002896Y004163D01*
X002899Y004195D01*
X002898Y004226D01*
X002893Y004257D01*
X002884Y004288D01*
X002872Y004317D01*
X002857Y004344D01*
X002839Y004370D01*
X002818Y004393D01*
X002794Y004413D01*
X002768Y004431D01*
X002740Y004446D01*
X002710Y004457D01*
X002680Y004464D01*
X002649Y004468D01*
X002617Y004469D01*
X002586Y004465D01*
X002610Y004470D02*
X000480Y004750D01*
X000500Y004750D02*
X000470Y004752D01*
X000440Y004757D01*
X000411Y004766D01*
X000384Y004779D01*
X000358Y004794D01*
X000334Y004813D01*
X000313Y004834D01*
X000294Y004858D01*
X000279Y004884D01*
X000266Y004911D01*
X000257Y004940D01*
X000252Y004970D01*
X000250Y005000D01*
X000252Y005030D01*
X000257Y005060D01*
X000266Y005089D01*
X000279Y005116D01*
X000294Y005142D01*
X000313Y005166D01*
X000334Y005187D01*
X000358Y005206D01*
X000384Y005221D01*
X000411Y005234D01*
X000440Y005243D01*
X000470Y005248D01*
X000500Y005250D01*
X004850Y005250D01*
X004850Y005600D01*
X004800Y005600D01*
X004650Y005600D01*
X004600Y005700D01*
X004600Y005500D01*
X004650Y005600D01*
X003850Y005600D01*
X004600Y005500D02*
X004600Y005450D01*
X004850Y005600D01*
X004600Y005750D01*
X004600Y005700D01*
X004800Y005600D01*
X004600Y005500D01*
X004850Y005600D02*
X004850Y011950D01*
X000500Y011950D01*
X000470Y011952D01*
X000440Y011957D01*
X000411Y011966D01*
X000384Y011979D01*
X000358Y011994D01*
X000334Y012013D01*
X000313Y012034D01*
X000294Y012058D01*
X000279Y012084D01*
X000266Y012111D01*
X000257Y012140D01*
X000252Y012170D01*
X000250Y012200D01*
X000252Y012230D01*
X000257Y012260D01*
X000266Y012289D01*
X000279Y012316D01*
X000294Y012342D01*
X000313Y012366D01*
X000334Y012387D01*
X000358Y012406D01*
X000384Y012421D01*
X000411Y012434D01*
X000440Y012443D01*
X000470Y012448D01*
X000500Y012450D01*
X000480Y012450D02*
X002610Y012730D01*
X002586Y012735D02*
X002617Y012731D01*
X002649Y012732D01*
X002680Y012736D01*
X002710Y012743D01*
X002740Y012754D01*
X002768Y012769D01*
X002794Y012787D01*
X002818Y012807D01*
X002839Y012830D01*
X002857Y012856D01*
X002872Y012883D01*
X002884Y012912D01*
X002893Y012943D01*
X002898Y012974D01*
X002899Y013005D01*
X002896Y013037D01*
X002890Y013068D01*
X002881Y013098D01*
X002868Y013126D01*
X002851Y013153D01*
X002832Y013178D01*
X002810Y013200D01*
X002785Y013220D01*
X002758Y013236D01*
X002730Y013250D01*
X002750Y013240D02*
X000420Y014200D01*
X000392Y014214D01*
X000365Y014230D01*
X000340Y014250D01*
X000318Y014272D01*
X000299Y014297D01*
X000282Y014324D01*
X000269Y014352D01*
X000260Y014382D01*
X000254Y014413D01*
X000251Y014445D01*
X000252Y014476D01*
X000257Y014507D01*
X000266Y014538D01*
X000278Y014567D01*
X000293Y014594D01*
X000311Y014620D01*
X000332Y014643D01*
X000356Y014663D01*
X000382Y014681D01*
X000410Y014696D01*
X000440Y014707D01*
X000470Y014714D01*
X000501Y014718D01*
X000533Y014719D01*
X000564Y014715D01*
X000550Y014720D02*
X001740Y014330D01*
X001700Y014350D02*
X001725Y014333D01*
X001752Y014320D01*
X001781Y014310D01*
X001810Y014303D01*
X001840Y014300D01*
X001870Y014301D01*
X001900Y014305D01*
X001929Y014313D01*
X001957Y014324D01*
X001984Y014339D01*
X002008Y014356D01*
X002030Y014377D01*
X002050Y014400D01*
X002067Y014425D01*
X002080Y014452D01*
X002090Y014481D01*
X002097Y014510D01*
X002100Y014540D01*
X002099Y014570D01*
X002095Y014600D01*
X002087Y014629D01*
X002076Y014657D01*
X002061Y014684D01*
X002044Y014708D01*
X002023Y014730D01*
X002000Y014750D01*
X002030Y014720D02*
X000330Y016470D01*
X000350Y016450D02*
X000327Y016470D01*
X000306Y016492D01*
X000289Y016516D01*
X000274Y016543D01*
X000263Y016571D01*
X000255Y016600D01*
X000251Y016630D01*
X000250Y016660D01*
X000253Y016690D01*
X000260Y016719D01*
X000270Y016748D01*
X000283Y016775D01*
X000300Y016800D01*
X000320Y016823D01*
X000342Y016844D01*
X000366Y016861D01*
X000393Y016876D01*
X000421Y016887D01*
X000450Y016895D01*
X000480Y016899D01*
X000510Y016900D01*
X000540Y016897D01*
X000569Y016890D01*
X000598Y016880D01*
X000625Y016867D01*
X000650Y016850D01*
X000640Y016850D02*
X003370Y014600D01*
X003360Y014600D02*
X003388Y014584D01*
X003417Y014572D01*
X003447Y014564D01*
X003478Y014559D01*
X003510Y014558D01*
X003541Y014561D01*
X003572Y014568D01*
X003602Y014579D01*
X003630Y014594D01*
X003656Y014612D01*
X003679Y014633D01*
X003700Y014657D01*
X003717Y014683D01*
X003732Y014711D01*
X003742Y014741D01*
X003749Y014771D01*
X003752Y014803D01*
X003751Y014834D01*
X003746Y014866D01*
X003737Y014896D01*
X003724Y014925D01*
X003708Y014952D01*
X003720Y014930D02*
X002900Y016550D01*
X002889Y016579D01*
X002882Y016610D01*
X002879Y016641D01*
X002880Y016673D01*
X002885Y016704D01*
X002893Y016734D01*
X002906Y016763D01*
X002921Y016790D01*
X002940Y016815D01*
X002962Y016837D01*
X002987Y016856D01*
X003014Y016873D01*
X003043Y016885D01*
X003073Y016894D01*
X003103Y016900D01*
X003135Y016901D01*
X003166Y016898D01*
X003197Y016892D01*
X003226Y016882D01*
X003255Y016868D01*
X003281Y016851D01*
X003305Y016830D01*
X003326Y016807D01*
X003344Y016782D01*
X003358Y016754D01*
X003350Y016760D02*
X004650Y014450D01*
X005750Y014450D02*
X007050Y016760D01*
X007042Y016754D02*
X007056Y016782D01*
X007074Y016807D01*
X007095Y016830D01*
X007119Y016851D01*
X007145Y016868D01*
X007174Y016882D01*
X007203Y016892D01*
X007234Y016898D01*
X007265Y016901D01*
X007297Y016900D01*
X007327Y016894D01*
X007357Y016885D01*
X007386Y016873D01*
X007413Y016856D01*
X007438Y016837D01*
X007460Y016815D01*
X007479Y016790D01*
X007494Y016763D01*
X007507Y016734D01*
X007515Y016704D01*
X007520Y016673D01*
X007521Y016641D01*
X007518Y016610D01*
X007511Y016579D01*
X007500Y016550D01*
X006680Y014930D01*
X006692Y014952D02*
X006676Y014925D01*
X006663Y014896D01*
X006654Y014866D01*
X006649Y014834D01*
X006648Y014803D01*
X006651Y014771D01*
X006658Y014741D01*
X006668Y014711D01*
X006683Y014683D01*
X006700Y014657D01*
X006721Y014633D01*
X006744Y014612D01*
X006770Y014594D01*
X006798Y014579D01*
X006828Y014568D01*
X006859Y014561D01*
X006890Y014558D01*
X006922Y014559D01*
X006953Y014564D01*
X006983Y014572D01*
X007012Y014585D01*
X007040Y014600D01*
X007030Y014600D02*
X009760Y016850D01*
X009750Y016850D02*
X009775Y016867D01*
X009802Y016880D01*
X009831Y016890D01*
X009860Y016897D01*
X009890Y016900D01*
X009920Y016899D01*
X009950Y016895D01*
X009979Y016887D01*
X010007Y016876D01*
X010034Y016861D01*
X010058Y016844D01*
X010080Y016823D01*
X010100Y016800D01*
X010117Y016775D01*
X010130Y016748D01*
X010140Y016719D01*
X010147Y016690D01*
X010150Y016660D01*
X010149Y016630D01*
X010145Y016600D01*
X010137Y016571D01*
X010126Y016543D01*
X010111Y016516D01*
X010094Y016492D01*
X010073Y016470D01*
X010050Y016450D01*
X010070Y016470D02*
X008370Y014720D01*
X008400Y014750D02*
X008377Y014730D01*
X008356Y014708D01*
X008339Y014684D01*
X008324Y014657D01*
X008313Y014629D01*
X008305Y014600D01*
X008301Y014570D01*
X008300Y014540D01*
X008303Y014510D01*
X008310Y014481D01*
X008320Y014452D01*
X008333Y014425D01*
X008350Y014400D01*
X008370Y014377D01*
X008392Y014356D01*
X008416Y014339D01*
X008443Y014324D01*
X008471Y014313D01*
X008500Y014305D01*
X008530Y014301D01*
X008560Y014300D01*
X008590Y014303D01*
X008619Y014310D01*
X008648Y014320D01*
X008675Y014333D01*
X008700Y014350D01*
X008660Y014330D02*
X009850Y014720D01*
X009836Y014715D02*
X009867Y014719D01*
X009899Y014718D01*
X009930Y014714D01*
X009960Y014707D01*
X009990Y014696D01*
X010018Y014681D01*
X010044Y014663D01*
X010068Y014643D01*
X010089Y014620D01*
X010107Y014594D01*
X010122Y014567D01*
X010134Y014538D01*
X010143Y014507D01*
X010148Y014476D01*
X010149Y014445D01*
X010146Y014413D01*
X010140Y014382D01*
X010131Y014352D01*
X010118Y014324D01*
X010101Y014297D01*
X010082Y014272D01*
X010060Y014250D01*
X010035Y014230D01*
X010008Y014214D01*
X009980Y014200D01*
X007650Y013240D01*
X007670Y013250D02*
X007642Y013236D01*
X007615Y013220D01*
X007590Y013200D01*
X007568Y013178D01*
X007549Y013153D01*
X007532Y013126D01*
X007519Y013098D01*
X007510Y013068D01*
X007504Y013037D01*
X007501Y013005D01*
X007502Y012974D01*
X007507Y012943D01*
X007516Y012912D01*
X007528Y012883D01*
X007543Y012856D01*
X007561Y012830D01*
X007582Y012807D01*
X007606Y012787D01*
X007632Y012769D01*
X007660Y012754D01*
X007690Y012743D01*
X007720Y012736D01*
X007751Y012732D01*
X007783Y012731D01*
X007814Y012735D01*
X007790Y012730D02*
X009920Y012450D01*
X009900Y012450D02*
X009930Y012448D01*
X009960Y012443D01*
X009989Y012434D01*
X010016Y012421D01*
X010042Y012406D01*
X010066Y012387D01*
X010087Y012366D01*
X010106Y012342D01*
X010121Y012316D01*
X010134Y012289D01*
X010143Y012260D01*
X010148Y012230D01*
X010150Y012200D01*
X010148Y012170D01*
X010143Y012140D01*
X010134Y012111D01*
X010121Y012084D01*
X010106Y012058D01*
X010087Y012034D01*
X010066Y012013D01*
X010042Y011994D01*
X010016Y011979D01*
X009989Y011966D01*
X009960Y011957D01*
X009930Y011952D01*
X009900Y011950D01*
X005550Y011950D01*
X005550Y005250D01*
X009900Y005250D01*
X009930Y005248D01*
X009960Y005243D01*
X009989Y005234D01*
X010016Y005221D01*
X010042Y005206D01*
X010066Y005187D01*
X010087Y005166D01*
X010106Y005142D01*
X010121Y005116D01*
X010134Y005089D01*
X010143Y005060D01*
X010148Y005030D01*
X010150Y005000D01*
X010148Y004970D01*
X010143Y004940D01*
X010134Y004911D01*
X010121Y004884D01*
X010106Y004858D01*
X010087Y004834D01*
X010066Y004813D01*
X010042Y004794D01*
X010016Y004779D01*
X009989Y004766D01*
X009960Y004757D01*
X009930Y004752D01*
X009900Y004750D01*
X009920Y004750D02*
X007790Y004470D01*
X007814Y004465D02*
X007783Y004469D01*
X007751Y004468D01*
X007720Y004464D01*
X007690Y004457D01*
X007660Y004446D01*
X007632Y004431D01*
X007606Y004413D01*
X007582Y004393D01*
X007561Y004370D01*
X007543Y004344D01*
X007528Y004317D01*
X007516Y004288D01*
X007507Y004257D01*
X007502Y004226D01*
X007501Y004195D01*
X007504Y004163D01*
X007510Y004132D01*
X007519Y004102D01*
X007532Y004074D01*
X007549Y004047D01*
X007568Y004022D01*
X007590Y004000D01*
X007615Y003980D01*
X007642Y003964D01*
X007670Y003950D01*
X007650Y003960D02*
X009980Y003000D01*
X010008Y002986D01*
X010035Y002970D01*
X010060Y002950D01*
X010082Y002928D01*
X010101Y002903D01*
X010118Y002876D01*
X010131Y002847D01*
X010140Y002818D01*
X010146Y002787D01*
X010149Y002755D01*
X010148Y002724D01*
X010143Y002693D01*
X010134Y002662D01*
X010122Y002633D01*
X010107Y002606D01*
X010089Y002580D01*
X010068Y002557D01*
X010044Y002537D01*
X010018Y002519D01*
X009990Y002504D01*
X009960Y002493D01*
X009930Y002486D01*
X009899Y002482D01*
X009867Y002481D01*
X009836Y002485D01*
X009850Y002480D02*
X008660Y002870D01*
X008700Y002850D02*
X008675Y002867D01*
X008648Y002880D01*
X008619Y002890D01*
X008590Y002897D01*
X008560Y002900D01*
X008530Y002899D01*
X008500Y002895D01*
X008471Y002887D01*
X008443Y002876D01*
X008416Y002861D01*
X008392Y002844D01*
X008370Y002823D01*
X008350Y002800D01*
X008333Y002775D01*
X008320Y002748D01*
X008310Y002719D01*
X008303Y002690D01*
X008300Y002660D01*
X008301Y002630D01*
X008305Y002600D01*
X008313Y002571D01*
X008324Y002543D01*
X008339Y002516D01*
X008356Y002492D01*
X008377Y002470D01*
X008400Y002450D01*
X008370Y002480D02*
X010070Y000730D01*
X010050Y000750D02*
X010073Y000730D01*
X010094Y000708D01*
X010111Y000684D01*
X010126Y000657D01*
X010137Y000629D01*
X010145Y000600D01*
X010149Y000570D01*
X010150Y000540D01*
X010147Y000510D01*
X010140Y000481D01*
X010130Y000452D01*
X010117Y000425D01*
X010100Y000400D01*
X010080Y000377D01*
X010058Y000356D01*
X010034Y000339D01*
X010007Y000324D01*
X009979Y000313D01*
X009950Y000305D01*
X009920Y000301D01*
X009890Y000300D01*
X009860Y000303D01*
X009831Y000310D01*
X009802Y000320D01*
X009775Y000333D01*
X009750Y000350D01*
X009760Y000350D02*
X007030Y002600D01*
X007040Y002600D02*
X007012Y002616D01*
X006983Y002628D01*
X006953Y002636D01*
X006922Y002641D01*
X006890Y002642D01*
X006859Y002639D01*
X006828Y002632D01*
X006798Y002621D01*
X006770Y002606D01*
X006744Y002588D01*
X006721Y002567D01*
X006700Y002543D01*
X006683Y002517D01*
X006668Y002489D01*
X006658Y002459D01*
X006651Y002429D01*
X006648Y002397D01*
X006649Y002366D01*
X006654Y002334D01*
X006663Y002304D01*
X006676Y002275D01*
X006692Y002248D01*
X006680Y002270D02*
X007500Y000650D01*
X007511Y000621D01*
X007518Y000590D01*
X007521Y000559D01*
X007520Y000527D01*
X007515Y000496D01*
X007507Y000466D01*
X007494Y000437D01*
X007479Y000410D01*
X007460Y000385D01*
X007438Y000363D01*
X007413Y000344D01*
X007386Y000327D01*
X007357Y000315D01*
X007327Y000306D01*
X007297Y000300D01*
X007265Y000299D01*
X007234Y000302D01*
X007203Y000308D01*
X007174Y000318D01*
X007145Y000332D01*
X007119Y000349D01*
X007095Y000370D01*
X007074Y000393D01*
X007056Y000418D01*
X007042Y000446D01*
X007050Y000440D02*
X005750Y002750D01*
X004650Y002750D02*
X003350Y000440D01*
X003358Y000446D02*
X003344Y000418D01*
X003326Y000393D01*
X003305Y000370D01*
X003281Y000349D01*
X003255Y000332D01*
X003226Y000318D01*
X003197Y000308D01*
X003166Y000302D01*
X003135Y000299D01*
X003103Y000300D01*
X003073Y000306D01*
X003043Y000315D01*
X003014Y000327D01*
X002987Y000344D01*
X002962Y000363D01*
X002940Y000385D01*
X002921Y000410D01*
X002906Y000437D01*
X002893Y000466D01*
X002885Y000496D01*
X002880Y000527D01*
X002879Y000559D01*
X002882Y000590D01*
X002889Y000621D01*
X002900Y000650D01*
X003720Y002270D01*
X003708Y002248D02*
X003724Y002275D01*
X003737Y002304D01*
X003746Y002334D01*
X003751Y002366D01*
X003752Y002397D01*
X003749Y002429D01*
X003742Y002459D01*
X003732Y002489D01*
X003717Y002517D01*
X003700Y002543D01*
X003679Y002567D01*
X003656Y002588D01*
X003630Y002606D01*
X003602Y002621D01*
X003572Y002632D01*
X003541Y002639D01*
X003510Y002642D01*
X003478Y002641D01*
X003447Y002636D01*
X003417Y002628D01*
X003387Y002615D01*
X003360Y002600D01*
X015244Y005548D02*
X015244Y005898D01*
X015361Y006015D01*
X015595Y006015D01*
X015711Y005898D01*
X015711Y005548D01*
X015711Y005781D02*
X015945Y006015D01*
X015828Y006247D02*
X015595Y006247D01*
X015478Y006364D01*
X015478Y006598D01*
X015595Y006714D01*
X015711Y006714D01*
X015711Y006247D01*
X015828Y006247D02*
X015945Y006364D01*
X015945Y006598D01*
X015945Y006947D02*
X015828Y006947D01*
X015828Y007064D01*
X015945Y007064D01*
X015945Y006947D01*
X015595Y006947D02*
X015478Y006947D01*
X015478Y007064D01*
X015595Y007064D01*
X015595Y006947D01*
X015945Y007297D02*
X015945Y007531D01*
X015945Y007414D02*
X015244Y007414D01*
X015244Y007297D01*
X015595Y007764D02*
X015828Y007764D01*
X015945Y007880D01*
X015945Y008114D01*
X015828Y008231D01*
X015595Y008231D01*
X015478Y008114D01*
X015478Y007880D01*
X015595Y007764D01*
X015828Y008463D02*
X015711Y008580D01*
X015711Y008930D01*
X015595Y008930D02*
X015945Y008930D01*
X015945Y008580D01*
X015828Y008463D01*
X015478Y008580D02*
X015478Y008814D01*
X015595Y008930D01*
X015595Y009163D02*
X015478Y009280D01*
X015478Y009630D01*
X015244Y009630D02*
X015945Y009630D01*
X015945Y009280D01*
X015828Y009163D01*
X015595Y009163D01*
X015478Y010563D02*
X015945Y010796D01*
X015478Y011030D01*
X015361Y011263D02*
X015244Y011379D01*
X015244Y011613D01*
X015361Y011730D01*
X015478Y011730D01*
X015945Y011263D01*
X015945Y011730D01*
X023107Y008836D02*
X023343Y008836D01*
X023343Y008364D02*
X023107Y008364D01*
X015945Y005548D02*
X015244Y005548D01*
D13*
X011725Y008293D02*
X011725Y008612D01*
D14*
X007350Y010100D02*
X007350Y010250D01*
X007349Y010284D01*
X007345Y010319D01*
X007337Y010352D01*
X007326Y010385D01*
X007311Y010416D01*
X007294Y010446D01*
X007273Y010474D01*
X007250Y010500D01*
X007224Y010523D01*
X007196Y010544D01*
X007166Y010561D01*
X007135Y010576D01*
X007102Y010587D01*
X007069Y010595D01*
X007034Y010599D01*
X007000Y010600D01*
X006050Y010600D01*
X005650Y010600D01*
X005650Y006600D01*
X006050Y006600D01*
X006050Y010600D01*
X007350Y007100D02*
X007350Y006950D01*
X007349Y006916D01*
X007345Y006881D01*
X007337Y006848D01*
X007326Y006815D01*
X007311Y006784D01*
X007294Y006754D01*
X007273Y006726D01*
X007250Y006700D01*
X007224Y006677D01*
X007196Y006656D01*
X007166Y006639D01*
X007135Y006624D01*
X007102Y006613D01*
X007069Y006605D01*
X007034Y006601D01*
X007000Y006600D01*
X006050Y006600D01*
D15*
X005850Y008600D03*
D16*
X005350Y008650D02*
X005350Y008950D01*
X005350Y008800D02*
X004900Y008800D01*
X005050Y008650D01*
X004975Y008490D02*
X005275Y008490D01*
X005350Y008415D01*
X005350Y008265D01*
X005275Y008190D01*
X004975Y008190D01*
X004900Y008265D01*
X004900Y008415D01*
X004975Y008490D01*
X005200Y008340D02*
X005350Y008490D01*
D17*
X022930Y008930D02*
X022930Y009080D01*
X023005Y009080D01*
X023030Y009055D01*
X023030Y009005D01*
X023005Y008980D01*
X022930Y008980D01*
X022980Y008980D02*
X023030Y008930D01*
X023077Y008930D02*
X023177Y008930D01*
X023127Y008930D02*
X023127Y009080D01*
X023077Y009030D01*
M02*
