G75*
G70*
%OFA0B0*%
%FSLAX24Y24*%
%IPPOS*%
%LPD*%
%AMOC8*
5,1,8,0,0,1.08239X$1,22.5*
%
%ADD10C,0.0640*%
%ADD11C,0.1790*%
%ADD12C,0.0000*%
%ADD13C,0.0001*%
%ADD14C,0.0642*%
%ADD15C,0.0985*%
%ADD16C,0.1340*%
D10*
X006550Y007600D02*
X007150Y007600D01*
X007150Y008600D02*
X006550Y008600D01*
X006550Y009600D02*
X007150Y009600D01*
D11*
X005200Y003600D03*
X005200Y013600D03*
D12*
X024351Y008728D02*
X024351Y008696D01*
X024351Y008444D01*
X024379Y008437D01*
X024406Y008425D01*
X024438Y008413D01*
X024465Y008405D01*
X024493Y008393D01*
X024520Y008385D01*
X024548Y008374D01*
X024571Y008385D01*
X024599Y008397D01*
X024623Y008405D01*
X024623Y008763D01*
X024599Y008775D01*
X024571Y008787D01*
X024548Y008799D01*
X024520Y008787D01*
X024493Y008779D01*
X024465Y008767D01*
X024438Y008756D01*
X024406Y008748D01*
X024379Y008736D01*
X024351Y008728D01*
D13*
X024623Y008728D01*
X024353Y008728D01*
X024351Y008727D02*
X024623Y008727D01*
X024623Y008726D02*
X024351Y008726D01*
X024351Y008725D02*
X024623Y008725D01*
X024623Y008724D02*
X024351Y008724D01*
X024351Y008723D02*
X024623Y008723D01*
X024623Y008722D02*
X024351Y008722D01*
X024351Y008721D02*
X024623Y008721D01*
X024623Y008720D02*
X024351Y008720D01*
X024351Y008719D02*
X024623Y008719D01*
X024623Y008718D02*
X024351Y008718D01*
X024351Y008717D02*
X024623Y008717D01*
X024623Y008716D02*
X024351Y008716D01*
X024351Y008715D02*
X024623Y008715D01*
X024623Y008714D02*
X024351Y008714D01*
X024351Y008713D02*
X024623Y008713D01*
X024623Y008712D02*
X024351Y008712D01*
X024351Y008711D02*
X024623Y008711D01*
X024623Y008710D02*
X024351Y008710D01*
X024351Y008709D02*
X024623Y008709D01*
X024623Y008708D02*
X024351Y008708D01*
X024351Y008707D02*
X024623Y008707D01*
X024623Y008706D02*
X024351Y008706D01*
X024351Y008705D02*
X024623Y008705D01*
X024623Y008704D02*
X024351Y008704D01*
X024351Y008703D02*
X024623Y008703D01*
X024623Y008702D02*
X024351Y008702D01*
X024351Y008701D02*
X024623Y008701D01*
X024623Y008700D02*
X024351Y008700D01*
X024351Y008699D02*
X024623Y008699D01*
X024623Y008698D02*
X024351Y008698D01*
X024351Y008697D02*
X024623Y008697D01*
X024623Y008696D02*
X024351Y008696D01*
X024351Y008695D02*
X024623Y008695D01*
X024623Y008694D02*
X024351Y008694D01*
X024351Y008693D02*
X024623Y008693D01*
X024623Y008692D02*
X024351Y008692D01*
X024351Y008691D02*
X024623Y008691D01*
X024623Y008690D02*
X024351Y008690D01*
X024351Y008689D02*
X024623Y008689D01*
X024623Y008688D02*
X024351Y008688D01*
X024351Y008687D02*
X024623Y008687D01*
X024623Y008686D02*
X024351Y008686D01*
X024351Y008685D02*
X024623Y008685D01*
X024623Y008684D02*
X024351Y008684D01*
X024351Y008683D02*
X024623Y008683D01*
X024623Y008682D02*
X024351Y008682D01*
X024351Y008681D02*
X024623Y008681D01*
X024623Y008680D02*
X024351Y008680D01*
X024351Y008679D02*
X024623Y008679D01*
X024623Y008678D02*
X024351Y008678D01*
X024351Y008677D02*
X024623Y008677D01*
X024623Y008676D02*
X024351Y008676D01*
X024351Y008675D02*
X024623Y008675D01*
X024623Y008674D02*
X024351Y008674D01*
X024351Y008673D02*
X024623Y008673D01*
X024623Y008672D02*
X024351Y008672D01*
X024351Y008671D02*
X024623Y008671D01*
X024623Y008670D02*
X024351Y008670D01*
X024351Y008669D02*
X024623Y008669D01*
X024623Y008668D02*
X024351Y008668D01*
X024351Y008667D02*
X024623Y008667D01*
X024623Y008666D02*
X024351Y008666D01*
X024351Y008665D02*
X024623Y008665D01*
X024623Y008664D02*
X024351Y008664D01*
X024351Y008663D02*
X024623Y008663D01*
X024623Y008662D02*
X024351Y008662D01*
X024351Y008661D02*
X024623Y008661D01*
X024623Y008660D02*
X024351Y008660D01*
X024351Y008659D02*
X024623Y008659D01*
X024623Y008658D02*
X024351Y008658D01*
X024351Y008657D02*
X024623Y008657D01*
X024623Y008656D02*
X024351Y008656D01*
X024351Y008655D02*
X024623Y008655D01*
X024623Y008654D02*
X024351Y008654D01*
X024351Y008653D02*
X024623Y008653D01*
X024623Y008652D02*
X024351Y008652D01*
X024351Y008651D02*
X024623Y008651D01*
X024623Y008650D02*
X024351Y008650D01*
X024351Y008649D02*
X024623Y008649D01*
X024623Y008648D02*
X024351Y008648D01*
X024351Y008647D02*
X024623Y008647D01*
X024623Y008646D02*
X024351Y008646D01*
X024351Y008645D02*
X024623Y008645D01*
X024623Y008644D02*
X024351Y008644D01*
X024351Y008643D02*
X024623Y008643D01*
X024623Y008642D02*
X024351Y008642D01*
X024351Y008641D02*
X024623Y008641D01*
X024623Y008640D02*
X024351Y008640D01*
X024351Y008639D02*
X024623Y008639D01*
X024623Y008638D02*
X024351Y008638D01*
X024351Y008637D02*
X024623Y008637D01*
X024623Y008636D02*
X024351Y008636D01*
X024351Y008635D02*
X024623Y008635D01*
X024623Y008634D02*
X024351Y008634D01*
X024351Y008633D02*
X024623Y008633D01*
X024623Y008632D02*
X024351Y008632D01*
X024351Y008631D02*
X024623Y008631D01*
X024623Y008630D02*
X024351Y008630D01*
X024351Y008629D02*
X024623Y008629D01*
X024623Y008628D02*
X024351Y008628D01*
X024351Y008627D02*
X024623Y008627D01*
X024623Y008626D02*
X024351Y008626D01*
X024351Y008625D02*
X024623Y008625D01*
X024623Y008624D02*
X024351Y008624D01*
X024351Y008623D02*
X024623Y008623D01*
X024623Y008622D02*
X024351Y008622D01*
X024351Y008621D02*
X024623Y008621D01*
X024623Y008620D02*
X024351Y008620D01*
X024351Y008619D02*
X024623Y008619D01*
X024623Y008618D02*
X024351Y008618D01*
X024351Y008617D02*
X024623Y008617D01*
X024623Y008616D02*
X024351Y008616D01*
X024351Y008615D02*
X024623Y008615D01*
X024623Y008614D02*
X024351Y008614D01*
X024351Y008613D02*
X024623Y008613D01*
X024623Y008612D02*
X024351Y008612D01*
X024351Y008611D02*
X024623Y008611D01*
X024623Y008610D02*
X024351Y008610D01*
X024351Y008609D02*
X024623Y008609D01*
X024623Y008608D02*
X024351Y008608D01*
X024351Y008607D02*
X024623Y008607D01*
X024623Y008606D02*
X024351Y008606D01*
X024351Y008605D02*
X024623Y008605D01*
X024623Y008604D02*
X024351Y008604D01*
X024351Y008603D02*
X024623Y008603D01*
X024623Y008602D02*
X024351Y008602D01*
X024351Y008601D02*
X024623Y008601D01*
X024623Y008600D02*
X024351Y008600D01*
X024351Y008599D02*
X024623Y008599D01*
X024623Y008598D02*
X024351Y008598D01*
X024351Y008597D02*
X024623Y008597D01*
X024623Y008596D02*
X024351Y008596D01*
X024351Y008595D02*
X024623Y008595D01*
X024623Y008594D02*
X024351Y008594D01*
X024351Y008593D02*
X024623Y008593D01*
X024623Y008592D02*
X024351Y008592D01*
X024351Y008591D02*
X024623Y008591D01*
X024623Y008590D02*
X024351Y008590D01*
X024351Y008589D02*
X024623Y008589D01*
X024623Y008588D02*
X024351Y008588D01*
X024351Y008587D02*
X024623Y008587D01*
X024623Y008586D02*
X024351Y008586D01*
X024351Y008585D02*
X024623Y008585D01*
X024623Y008584D02*
X024351Y008584D01*
X024351Y008583D02*
X024623Y008583D01*
X024623Y008582D02*
X024351Y008582D01*
X024351Y008581D02*
X024623Y008581D01*
X024623Y008580D02*
X024351Y008580D01*
X024351Y008579D02*
X024623Y008579D01*
X024623Y008578D02*
X024351Y008578D01*
X024351Y008577D02*
X024623Y008577D01*
X024623Y008576D02*
X024351Y008576D01*
X024351Y008575D02*
X024623Y008575D01*
X024623Y008574D02*
X024351Y008574D01*
X024351Y008573D02*
X024623Y008573D01*
X024623Y008572D02*
X024351Y008572D01*
X024351Y008571D02*
X024623Y008571D01*
X024623Y008570D02*
X024351Y008570D01*
X024351Y008569D02*
X024623Y008569D01*
X024623Y008568D02*
X024351Y008568D01*
X024351Y008567D02*
X024623Y008567D01*
X024623Y008566D02*
X024351Y008566D01*
X024351Y008565D02*
X024623Y008565D01*
X024623Y008564D02*
X024351Y008564D01*
X024351Y008563D02*
X024623Y008563D01*
X024623Y008562D02*
X024351Y008562D01*
X024351Y008561D02*
X024623Y008561D01*
X024623Y008560D02*
X024351Y008560D01*
X024351Y008559D02*
X024623Y008559D01*
X024623Y008558D02*
X024351Y008558D01*
X024351Y008557D02*
X024623Y008557D01*
X024623Y008556D02*
X024351Y008556D01*
X024351Y008555D02*
X024623Y008555D01*
X024623Y008554D02*
X024351Y008554D01*
X024351Y008553D02*
X024623Y008553D01*
X024623Y008552D02*
X024351Y008552D01*
X024351Y008551D02*
X024623Y008551D01*
X024623Y008550D02*
X024351Y008550D01*
X024351Y008549D02*
X024623Y008549D01*
X024623Y008548D02*
X024351Y008548D01*
X024351Y008547D02*
X024623Y008547D01*
X024623Y008546D02*
X024351Y008546D01*
X024351Y008545D02*
X024623Y008545D01*
X024623Y008544D02*
X024351Y008544D01*
X024351Y008543D02*
X024623Y008543D01*
X024623Y008542D02*
X024351Y008542D01*
X024351Y008541D02*
X024623Y008541D01*
X024623Y008540D02*
X024351Y008540D01*
X024351Y008539D02*
X024623Y008539D01*
X024623Y008538D02*
X024351Y008538D01*
X024351Y008537D02*
X024623Y008537D01*
X024623Y008536D02*
X024351Y008536D01*
X024351Y008535D02*
X024623Y008535D01*
X024623Y008534D02*
X024351Y008534D01*
X024351Y008533D02*
X024623Y008533D01*
X024623Y008532D02*
X024351Y008532D01*
X024351Y008531D02*
X024623Y008531D01*
X024623Y008530D02*
X024351Y008530D01*
X024351Y008529D02*
X024623Y008529D01*
X024623Y008528D02*
X024351Y008528D01*
X024351Y008527D02*
X024623Y008527D01*
X024623Y008526D02*
X024351Y008526D01*
X024351Y008525D02*
X024623Y008525D01*
X024623Y008524D02*
X024351Y008524D01*
X024351Y008523D02*
X024623Y008523D01*
X024623Y008522D02*
X024351Y008522D01*
X024351Y008521D02*
X024623Y008521D01*
X024623Y008520D02*
X024351Y008520D01*
X024351Y008519D02*
X024623Y008519D01*
X024623Y008518D02*
X024351Y008518D01*
X024351Y008517D02*
X024623Y008517D01*
X024623Y008516D02*
X024351Y008516D01*
X024351Y008515D02*
X024623Y008515D01*
X024623Y008514D02*
X024351Y008514D01*
X024351Y008513D02*
X024623Y008513D01*
X024623Y008512D02*
X024351Y008512D01*
X024351Y008511D02*
X024623Y008511D01*
X024623Y008510D02*
X024351Y008510D01*
X024351Y008509D02*
X024623Y008509D01*
X024623Y008508D02*
X024351Y008508D01*
X024351Y008507D02*
X024623Y008507D01*
X024623Y008506D02*
X024351Y008506D01*
X024351Y008505D02*
X024623Y008505D01*
X024623Y008504D02*
X024351Y008504D01*
X024351Y008503D02*
X024623Y008503D01*
X024623Y008502D02*
X024351Y008502D01*
X024351Y008501D02*
X024623Y008501D01*
X024623Y008500D02*
X024351Y008500D01*
X024351Y008499D02*
X024623Y008499D01*
X024623Y008498D02*
X024351Y008498D01*
X024351Y008497D02*
X024623Y008497D01*
X024623Y008496D02*
X024351Y008496D01*
X024351Y008495D02*
X024623Y008495D01*
X024623Y008494D02*
X024351Y008494D01*
X024351Y008493D02*
X024623Y008493D01*
X024623Y008492D02*
X024351Y008492D01*
X024351Y008491D02*
X024623Y008491D01*
X024623Y008490D02*
X024351Y008490D01*
X024351Y008489D02*
X024623Y008489D01*
X024623Y008488D02*
X024351Y008488D01*
X024351Y008487D02*
X024623Y008487D01*
X024623Y008486D02*
X024351Y008486D01*
X024351Y008485D02*
X024623Y008485D01*
X024623Y008484D02*
X024351Y008484D01*
X024351Y008483D02*
X024623Y008483D01*
X024623Y008482D02*
X024351Y008482D01*
X024351Y008481D02*
X024623Y008481D01*
X024623Y008480D02*
X024351Y008480D01*
X024351Y008479D02*
X024623Y008479D01*
X024623Y008478D02*
X024351Y008478D01*
X024351Y008477D02*
X024623Y008477D01*
X024623Y008476D02*
X024351Y008476D01*
X024351Y008475D02*
X024623Y008475D01*
X024623Y008474D02*
X024351Y008474D01*
X024351Y008473D02*
X024623Y008473D01*
X024623Y008472D02*
X024351Y008472D01*
X024351Y008471D02*
X024623Y008471D01*
X024623Y008470D02*
X024351Y008470D01*
X024351Y008469D02*
X024623Y008469D01*
X024623Y008468D02*
X024351Y008468D01*
X024351Y008467D02*
X024623Y008467D01*
X024623Y008466D02*
X024351Y008466D01*
X024351Y008465D02*
X024623Y008465D01*
X024623Y008464D02*
X024351Y008464D01*
X024351Y008463D02*
X024623Y008463D01*
X024623Y008462D02*
X024351Y008462D01*
X024351Y008461D02*
X024623Y008461D01*
X024623Y008460D02*
X024351Y008460D01*
X024351Y008459D02*
X024623Y008459D01*
X024623Y008458D02*
X024351Y008458D01*
X024351Y008457D02*
X024623Y008457D01*
X024623Y008456D02*
X024351Y008456D01*
X024351Y008455D02*
X024623Y008455D01*
X024623Y008454D02*
X024351Y008454D01*
X024351Y008453D02*
X024623Y008453D01*
X024623Y008452D02*
X024351Y008452D01*
X024351Y008451D02*
X024623Y008451D01*
X024623Y008450D02*
X024351Y008450D01*
X024351Y008449D02*
X024623Y008449D01*
X024623Y008448D02*
X024351Y008448D01*
X024351Y008447D02*
X024623Y008447D01*
X024623Y008446D02*
X024351Y008446D01*
X024351Y008445D02*
X024623Y008445D01*
X024623Y008444D02*
X024353Y008444D01*
X024357Y008443D02*
X024623Y008443D01*
X024623Y008442D02*
X024360Y008442D01*
X024364Y008441D02*
X024623Y008441D01*
X024623Y008440D02*
X024367Y008440D01*
X024371Y008439D02*
X024623Y008439D01*
X024623Y008438D02*
X024374Y008438D01*
X024378Y008437D02*
X024623Y008437D01*
X024623Y008436D02*
X024380Y008436D01*
X024383Y008435D02*
X024623Y008435D01*
X024623Y008434D02*
X024385Y008434D01*
X024387Y008433D02*
X024623Y008433D01*
X024623Y008432D02*
X024390Y008432D01*
X024392Y008431D02*
X024623Y008431D01*
X024623Y008430D02*
X024394Y008430D01*
X024397Y008429D02*
X024623Y008429D01*
X024623Y008428D02*
X024399Y008428D01*
X024401Y008427D02*
X024623Y008427D01*
X024623Y008426D02*
X024404Y008426D01*
X024406Y008425D02*
X024623Y008425D01*
X024623Y008424D02*
X024409Y008424D01*
X024411Y008423D02*
X024623Y008423D01*
X024623Y008422D02*
X024414Y008422D01*
X024417Y008421D02*
X024623Y008421D01*
X024623Y008420D02*
X024419Y008420D01*
X024422Y008419D02*
X024623Y008419D01*
X024623Y008418D02*
X024425Y008418D01*
X024427Y008417D02*
X024623Y008417D01*
X024623Y008416D02*
X024430Y008416D01*
X024433Y008415D02*
X024623Y008415D01*
X024623Y008414D02*
X024435Y008414D01*
X024438Y008413D02*
X024623Y008413D01*
X024623Y008412D02*
X024442Y008412D01*
X024445Y008411D02*
X024623Y008411D01*
X024623Y008410D02*
X024449Y008410D01*
X024452Y008409D02*
X024623Y008409D01*
X024623Y008408D02*
X024456Y008408D01*
X024459Y008407D02*
X024623Y008407D01*
X024623Y008406D02*
X024463Y008406D01*
X024466Y008405D02*
X024622Y008405D01*
X024619Y008404D02*
X024468Y008404D01*
X024471Y008403D02*
X024616Y008403D01*
X024613Y008402D02*
X024473Y008402D01*
X024475Y008401D02*
X024610Y008401D01*
X024607Y008400D02*
X024478Y008400D01*
X024480Y008399D02*
X024604Y008399D01*
X024601Y008398D02*
X024482Y008398D01*
X024485Y008397D02*
X024598Y008397D01*
X024596Y008396D02*
X024487Y008396D01*
X024489Y008395D02*
X024593Y008395D01*
X024591Y008394D02*
X024491Y008394D01*
X024494Y008393D02*
X024589Y008393D01*
X024586Y008392D02*
X024498Y008392D01*
X024501Y008391D02*
X024584Y008391D01*
X024582Y008390D02*
X024505Y008390D01*
X024508Y008389D02*
X024579Y008389D01*
X024577Y008388D02*
X024512Y008388D01*
X024515Y008387D02*
X024575Y008387D01*
X024572Y008386D02*
X024519Y008386D01*
X024522Y008385D02*
X024570Y008385D01*
X024568Y008384D02*
X024524Y008384D01*
X024526Y008383D02*
X024566Y008383D01*
X024564Y008382D02*
X024529Y008382D01*
X024531Y008381D02*
X024562Y008381D01*
X024560Y008380D02*
X024533Y008380D01*
X024536Y008379D02*
X024558Y008379D01*
X024556Y008378D02*
X024538Y008378D01*
X024540Y008377D02*
X024554Y008377D01*
X024552Y008376D02*
X024543Y008376D01*
X024545Y008375D02*
X024550Y008375D01*
X024548Y008374D02*
X024547Y008374D01*
X024623Y008729D02*
X024356Y008729D01*
X024360Y008730D02*
X024623Y008730D01*
X024623Y008731D02*
X024363Y008731D01*
X024367Y008732D02*
X024623Y008732D01*
X024623Y008733D02*
X024370Y008733D01*
X024374Y008734D02*
X024623Y008734D01*
X024623Y008735D02*
X024377Y008735D01*
X024380Y008736D02*
X024623Y008736D01*
X024623Y008737D02*
X024382Y008737D01*
X024385Y008738D02*
X024623Y008738D01*
X024623Y008739D02*
X024387Y008739D01*
X024389Y008740D02*
X024623Y008740D01*
X024623Y008741D02*
X024392Y008741D01*
X024394Y008742D02*
X024623Y008742D01*
X024623Y008743D02*
X024396Y008743D01*
X024399Y008744D02*
X024623Y008744D01*
X024623Y008745D02*
X024401Y008745D01*
X024403Y008746D02*
X024623Y008746D01*
X024623Y008747D02*
X024406Y008747D01*
X024409Y008748D02*
X024623Y008748D01*
X024623Y008749D02*
X024413Y008749D01*
X024417Y008750D02*
X024623Y008750D01*
X024623Y008751D02*
X024421Y008751D01*
X024425Y008752D02*
X024623Y008752D01*
X024623Y008753D02*
X024429Y008753D01*
X024433Y008754D02*
X024623Y008754D01*
X024623Y008755D02*
X024437Y008755D01*
X024440Y008756D02*
X024623Y008756D01*
X024623Y008757D02*
X024442Y008757D01*
X024444Y008758D02*
X024623Y008758D01*
X024623Y008759D02*
X024447Y008759D01*
X024449Y008760D02*
X024623Y008760D01*
X024623Y008761D02*
X024451Y008761D01*
X024454Y008762D02*
X024623Y008762D01*
X024622Y008763D02*
X024456Y008763D01*
X024458Y008764D02*
X024620Y008764D01*
X024618Y008765D02*
X024461Y008765D01*
X024463Y008766D02*
X024616Y008766D01*
X024614Y008767D02*
X024465Y008767D01*
X024468Y008768D02*
X024612Y008768D01*
X024610Y008769D02*
X024470Y008769D01*
X024472Y008770D02*
X024608Y008770D01*
X024606Y008771D02*
X024475Y008771D01*
X024477Y008772D02*
X024604Y008772D01*
X024603Y008773D02*
X024479Y008773D01*
X024482Y008774D02*
X024601Y008774D01*
X024598Y008775D02*
X024484Y008775D01*
X024486Y008776D02*
X024596Y008776D01*
X024594Y008777D02*
X024489Y008777D01*
X024491Y008778D02*
X024591Y008778D01*
X024589Y008779D02*
X024494Y008779D01*
X024497Y008780D02*
X024587Y008780D01*
X024584Y008781D02*
X024501Y008781D01*
X024504Y008782D02*
X024582Y008782D01*
X024580Y008783D02*
X024508Y008783D01*
X024511Y008784D02*
X024577Y008784D01*
X024575Y008785D02*
X024515Y008785D01*
X024518Y008786D02*
X024573Y008786D01*
X024571Y008787D02*
X024521Y008787D01*
X024524Y008788D02*
X024569Y008788D01*
X024567Y008789D02*
X024526Y008789D01*
X024528Y008790D02*
X024565Y008790D01*
X024563Y008791D02*
X024531Y008791D01*
X024533Y008792D02*
X024561Y008792D01*
X024559Y008793D02*
X024535Y008793D01*
X024538Y008794D02*
X024557Y008794D01*
X024555Y008795D02*
X024540Y008795D01*
X024542Y008796D02*
X024553Y008796D01*
X024551Y008797D02*
X024545Y008797D01*
X024547Y008798D02*
X024549Y008798D01*
D14*
X024725Y009475D03*
X023725Y009475D03*
X022725Y009475D03*
X014350Y009600D03*
X014350Y008600D03*
X014350Y007600D03*
X023975Y003350D03*
X024975Y003350D03*
X025975Y003350D03*
D15*
X032725Y003600D03*
X032725Y005100D03*
X032725Y012600D03*
X032725Y014100D03*
D16*
X029975Y016350D03*
X012975Y016350D03*
X012975Y001350D03*
X029975Y001350D03*
M02*
